<svg xmlns="http://www.w3.org/2000/svg" xmlns:xlink="http://www.w3.org/1999/xlink" viewBox="0 0 368 264"><defs><style>.cls-1{fill:none;}.cls-2{clip-path:url(#clip-path);}.cls-3{fill:#fff;}</style><clipPath id="clip-path"><ellipse class="cls-1" cx="184" cy="132" rx="183.53" ry="128.22" transform="translate(-20.07 33.83) rotate(-9.96)"/></clipPath></defs><title>logo</title><g id="Layer_3" data-name="Layer 3"><ellipse cx="184" cy="131" rx="183.53" ry="128.22" transform="translate(-19.89 33.82) rotate(-9.96)"/></g><g id="Layer_1" data-name="Layer 1"><g class="cls-2"><path d="M328.23,311.23h-288q0-144,0-288h288ZM197.38,214c.14.65.27,1.21.37,1.77q1.1,6.5,2.19,13A49.65,49.65,0,0,1,201,238.7c-.08,2.44.13,4.9.21,7.35,0,.08,0,.15,0,.23.15,2.29.25,4.58.46,6.86a1.91,1.91,0,0,1-1.4,2.17c-2.19.91-4.35,1.89-6.51,2.85-.34.15-.66.33-1.12.57a12.42,12.42,0,0,0,.94,1c3,2.55,6,5.09,9,7.66a1.23,1.23,0,0,0,1.52.28c2.45-1.09,4.93-2.08,7.38-3.16a2.08,2.08,0,0,1,2.6.23c1.21,1.1,2.64,2,3.86,3.06a1.87,1.87,0,0,0,2.38.26c1.48-.71,3-1.3,4.53-2,1.31-.58,2.6-1.19,4.16-1.9l-6-4.5,8.82-3.75a3.16,3.16,0,0,0-.42-.51c-3.66-2.45-7.31-4.91-11-7.32a1.46,1.46,0,0,0-1.16-.08c-1.35.53-2.67,1.16-4,1.74l-3.65,1.56c0-.62-.06-1-.06-1.37q-.12-8.86-.24-17.72a4.37,4.37,0,0,0,0-.69q-1.08-6.21-2.18-12.42c-.32-1.84-.62-3.67-.94-5.58a6.83,6.83,0,0,1,.89-.19q2.35-.13,4.7-.23l11.13-.47c1.1,0,1.16-.09,1.18-1.21.08-4.91.2-9.81.23-14.72,0-5.61,0-11.21,0-16.82,0-.44,0-.88.07-1.61l4.21,2.28c3,1.64,6,3.31,9.08,4.92a1.86,1.86,0,0,0,1.29.17c3-.94,6-1.95,9-2.91.68-.22.86-.55.66-1.28-1.58-5.83-3.12-11.67-4.66-17.51s-3.06-11.53-4.56-17.3q-3.48-13.37-6.93-26.76c-.57-2.2-.82-2.28-3.06-2.09-3.08.26-6.19.31-9.28.46-.79,0-1.08-.34-1.1-1.11,0-1.15-.17-2.29-.2-3.44-.16-4.79-.3-9.57-.47-14.36-.06-1.8-.17-3.6-.24-5.39a1.21,1.21,0,0,0-1.22-1.26,6.48,6.48,0,0,0-1,0c-3.41.16-6.82.35-10.24.48-2.4.1-2.37.07-2.45-2.41q-.15-4.6-.4-9.2c-.07-1.26-.06-1.4,1.26-1.48,3.56-.24,7.12-.43,10.69-.62,1.52-.08,1.53-.07,1.38-1.54,0-.23,0-.46,0-.69-.08-3.26-.15-6.51-.24-9.77,0-.34-.15-.67-.16-1,0-.84-.51-1-1.22-1-1.22.09-2.44.17-3.66.23-2.06.09-4.13.15-6.2.25q-2.06.09-4.12.24c-3.09.22-6.17.47-9.26.66-2,.12-4.05.16-6.08.25-1.41.06-2.83.14-4.24.24-3,.21-5.94.47-8.91.66s-6.19.34-9.28.47c-.7,0-1,.33-.92,1,.07.84.17,1.67.21,2.51.17,3.21.32,6.42.48,9.63a5.24,5.24,0,0,0,.12.68c.32,0,.58,0,.84,0l11.27-.57c.62,0,1.12,0,1.16.83.19,3.6.44,7.2.64,10.8.07,1.31-.05,1.38-1.32,1.45-3.26.16-6.52.29-9.77.52-1.52.11-3,.43-4.54.66a1,1,0,0,0-.92,1.11c0,.35,0,.69,0,1,.22,2.9.47,5.79.65,8.69.2,3.17.35,6.34.51,9.52.06,1.22.06,1.21-1.13,1.24l-6.77.17a1.29,1.29,0,0,1-.55-.13c-1.77-.82-3.53-1.66-5.3-2.47-1.48-.68-3-1.32-4.48-2-.13.22-.2.31-.25.41q-3.69,8-7.37,15.94c-1,2.19-2,4.4-3,6.59s-1.9,4.55-3.65,6.43c-2.39,2.57-4.6,5.31-6.87,8q-4.53,5.4-9,10.84a7.49,7.49,0,0,0-1.44,1.9c-1.46,3.94-2.81,7.93-4.23,11.89a1,1,0,0,0,.44,1.26c.75.53,1.5,1.06,2.24,1.6l6.7,4.94c.28-.3.52-.53.73-.79,1.69-2,3.36-4.06,5.06-6.08,2.19-2.61,4.4-5.19,6.58-7.8,2.55-3,5.11-6.09,7.6-9.19a35.55,35.55,0,0,0,3.32-4.65c1.26-2.23,2.3-4.58,3.39-6.9,1.19-2.53,2.31-5.08,3.48-7.62.66-1.43,1.34-2.85,2-4.27a2.73,2.73,0,0,1,.19,1.21c-.08,5.33-.19,10.66-.23,16q-.14,17.44-.23,34.88c0,3.19,0,6.37,0,9.56a5.74,5.74,0,0,0,.19,1.47q2.11,7.69,4.26,15.36c.42,1.5.45,1.53,2,1.49,2.07,0,4.13-.14,6.2-.22.75,0,1.19.23,1.12,1.06-.09,1.18-.16,2.37-.25,3.55-.21,2.7-.46,5.41-.65,8.11s-.3,5.42-.5,8.13c-.27,3.66-.59,7.31-.89,11-.23,2.78-.44,5.56-.69,8.34C161,257,161,257,159.53,257c-3-.09-6-.22-9.06-.33a1.85,1.85,0,0,0-.15.5c.08,1.95.1,3.9.3,5.84.13,1.29.24,1.29,1.53,1.29,2.92,0,5.84,0,8.75,0,.87,0,1.39.21,1.49,1.14.06.57.2,1.13.31,1.69.24,1.31.24,1.32,1.61,1.33h9.45c.41,0,.81-.06,1.34-.11l-.89-3.79H185c.09-.31.15-.39.13-.45-.82-2.22-1.62-4.45-2.49-6.65-.09-.22-.54-.4-.83-.41-2.37-.11-4.74-.18-7.12-.26a13.32,13.32,0,0,1-1.38,0c-1-.14-1.26-.38-1.23-1.41s.15-2.21.21-3.32c.09-1.72.16-3.44.25-5.16.06-1.07.15-2.14.24-3.2.22-2.55.46-5.1.65-7.65s.31-5.12.5-7.67c.28-3.89.62-7.77.89-11.66.1-1.46.43-1.83,1.85-1.89,3.48-.14,7-.32,10.44-.45S193.87,214.12,197.38,214Z"/><path class="cls-3" d="M197.38,214c-3.51.1-6.88.17-10.24.3s-7,.31-10.44.45c-1.42.06-1.75.43-1.85,1.89-.27,3.89-.6,7.77-.89,11.66-.19,2.56-.31,5.12-.5,7.67s-.43,5.1-.65,7.65c-.09,1.07-.18,2.13-.24,3.2-.1,1.72-.16,3.44-.25,5.16-.06,1.11-.19,2.21-.21,3.32s.2,1.27,1.23,1.41a13.32,13.32,0,0,0,1.38,0c2.37.08,4.75.15,7.12.26.29,0,.74.2.83.41.87,2.2,1.67,4.43,2.49,6.65,0,.06,0,.14-.13.45H174.2l.89,3.79c-.53,0-.93.11-1.34.11H164.3c-1.37,0-1.36,0-1.61-1.33-.1-.56-.25-1.12-.31-1.69-.1-.94-.62-1.15-1.49-1.14-2.92,0-5.84,0-8.75,0-1.29,0-1.4,0-1.53-1.29-.19-1.94-.21-3.89-.3-5.84a1.85,1.85,0,0,1,.15-.5c3,.11,6,.24,9.06.33,1.44,0,1.47,0,1.6-1.39.25-2.78.46-5.56.69-8.34.3-3.66.62-7.31.89-11,.2-2.71.31-5.42.5-8.13s.44-5.41.65-8.11c.09-1.18.16-2.36.25-3.55.06-.83-.37-1.09-1.12-1.06-2.07.08-4.13.18-6.2.22-1.59,0-1.62,0-2-1.49q-2.15-7.67-4.26-15.36a5.74,5.74,0,0,1-.19-1.47c0-3.19,0-6.37,0-9.56q.1-17.44.23-34.88c0-5.33.15-10.66.23-16a2.73,2.73,0,0,0-.19-1.21c-.67,1.42-1.36,2.84-2,4.27-1.17,2.54-2.29,5.09-3.48,7.62-1.09,2.32-2.13,4.68-3.39,6.9a35.55,35.55,0,0,1-3.32,4.65c-2.49,3.1-5.05,6.14-7.6,9.19-2.18,2.61-4.4,5.2-6.58,7.8-1.69,2-3.37,4.06-5.06,6.08-.21.26-.45.49-.73.79l-6.7-4.94c-.74-.54-1.49-1.07-2.24-1.6a1,1,0,0,1-.44-1.26c1.42-4,2.77-7.94,4.23-11.89a7.49,7.49,0,0,1,1.44-1.9q4.5-5.43,9-10.84c2.26-2.69,4.48-5.43,6.87-8,1.75-1.88,2.62-4.18,3.65-6.43s2-4.4,3-6.59q3.67-8,7.37-15.94c0-.1.12-.19.25-.41,1.49.66,3,1.3,4.48,2,1.77.81,3.53,1.65,5.3,2.47a1.29,1.29,0,0,0,.55.13l6.77-.17c1.19,0,1.19,0,1.13-1.24-.17-3.17-.31-6.35-.51-9.52-.19-2.9-.44-5.8-.65-8.69,0-.34,0-.69,0-1a1,1,0,0,1,.92-1.11c1.51-.23,3-.56,4.54-.66,3.25-.23,6.51-.36,9.77-.52,1.26-.06,1.39-.14,1.32-1.45-.19-3.6-.45-7.2-.64-10.8,0-.87-.54-.86-1.16-.83l-11.27.57c-.26,0-.52,0-.84,0a5.24,5.24,0,0,1-.12-.68c-.16-3.21-.31-6.42-.48-9.63,0-.84-.15-1.67-.21-2.51-.05-.66.22-1,.92-1,3.1-.13,6.19-.27,9.28-.47s5.94-.45,8.91-.66c1.41-.1,2.82-.18,4.24-.24,2-.09,4.06-.12,6.08-.25,3.09-.19,6.17-.44,9.26-.66q2.06-.14,4.12-.24c2.06-.09,4.13-.15,6.2-.25,1.22-.06,2.44-.14,3.66-.23.71-.05,1.2.13,1.22,1,0,.34.15.67.16,1,.09,3.26.16,6.51.24,9.77,0,.23,0,.46,0,.69.15,1.47.14,1.46-1.38,1.54-3.56.19-7.13.38-10.69.62-1.32.09-1.33.22-1.26,1.48q.24,4.6.4,9.2c.08,2.48.05,2.51,2.45,2.41,3.41-.14,6.82-.32,10.24-.48a6.48,6.48,0,0,1,1,0A1.21,1.21,0,0,1,220,94c.07,1.8.18,3.59.24,5.39.16,4.79.3,9.57.47,14.36,0,1.15.18,2.29.2,3.44,0,.77.31,1.15,1.1,1.11,3.09-.15,6.19-.21,9.28-.46,2.24-.19,2.5-.11,3.06,2.09q3.45,13.38,6.93,26.76c1.5,5.77,3,11.54,4.56,17.3s3.08,11.68,4.66,17.51c.2.74,0,1.06-.66,1.28-3,1-6,2-9,2.91a1.86,1.86,0,0,1-1.29-.17c-3-1.61-6.05-3.28-9.08-4.92l-4.21-2.28c0,.73-.07,1.17-.07,1.61,0,5.61,0,11.21,0,16.82,0,4.91-.14,9.81-.23,14.72,0,1.12-.08,1.16-1.18,1.21l-11.13.47q-2.35.1-4.7.23a6.83,6.83,0,0,0-.89.19c.32,1.9.62,3.74.94,5.58q1.08,6.21,2.18,12.42a4.37,4.37,0,0,1,0,.69q.12,8.86.24,17.72c0,.38,0,.75.06,1.37l3.65-1.56c1.33-.58,2.65-1.2,4-1.74a1.46,1.46,0,0,1,1.16.08c3.68,2.41,7.33,4.87,11,7.32a3.16,3.16,0,0,1,.42.51L223,259.72l6,4.5c-1.56.71-2.85,1.32-4.16,1.9-1.5.66-3,1.25-4.53,2a1.87,1.87,0,0,1-2.38-.26c-1.23-1.09-2.65-2-3.86-3.06a2.08,2.08,0,0,0-2.6-.23c-2.45,1.08-4.94,2.07-7.38,3.16a1.23,1.23,0,0,1-1.52-.28c-3-2.57-6-5.1-9-7.66a12.42,12.42,0,0,1-.94-1c.47-.24.79-.42,1.12-.57,2.17-1,4.32-1.95,6.51-2.85a1.91,1.91,0,0,0,1.4-2.17c-.2-2.28-.31-4.58-.46-6.86,0-.08,0-.15,0-.23-.08-2.45-.29-4.9-.21-7.35a49.65,49.65,0,0,0-1.07-9.91q-1.09-6.5-2.19-13C197.65,215.23,197.52,214.67,197.38,214Z"/></g></g></svg>