<svg xmlns="http://www.w3.org/2000/svg" viewBox="0 0 415 739"><defs><style>.cls-1{fill:#ff1d25;}</style></defs><title>stroke</title><g id="red"><path class="cls-1" d="M382.26,599.09c-3.87,1.89,2.36,3.52-.83,5.1,4.47.59,4.8,8,10.7,8.23C388.68,608.26,384.87,604.79,382.26,599.09ZM365.5,558.82c1.92.06,3,4.83,2.38,6.08C364.94,564.51,367.56,560.88,365.5,558.82Zm23.65,58,.8,2c-2.91,1.52-3.19-1.89-6.45.31-.25-2.34.06-1.55-1.33-3.41C385.12,615,385.37,619.23,389.15,616.85ZM324,487.09c-2.77-3.17-4.8-10-8.68-7.83,1.71-2.5-2.55-5.5-1.71-9.26C318.24,474.24,324.91,482,324,487.09Zm27.28,78.63c-.28,1.5-1.93,2.58-4.3,3.43-1-2.89-4.77-.37-5.33-4,1.46-.34,1.31-1.18,1.07-2a16.72,16.72,0,0,0,6.69.25C349.91,564.42,350,566.12,351.29,565.72Zm23,58.92c1.26.94-4.46,2.35-1.07,2,.36.52-.08.78-.56,1l-1.61.68C371.11,626.64,371.56,623.74,374.31,624.64Zm11.49,30.12c-5.2-.35-6.92,3.56-10,5.68-.48-1.88.82-2.93-2.4-1.39-.48-4.38-1.48-5.24-1.74-9.56,3.16-.58,1.26,1.82,2.36,3.78,1.59-.88.93-2.5,1.4-3.74C378.85,651.3,383.36,651.11,385.8,654.75ZM310.39,471.38c-4.66-7.4,2.44-6.2,0,0Zm63.74,172.33c2.25,1.32,3.05-.12,3.17,3.45a6.57,6.57,0,0,1-4.31,1c1.49-3.89,0-7-1.15-9.87s-2.07-5.62.57-8.88C376,633.7,378.61,639.43,374.13,643.71Zm3.75,19.81-3.24,1.32c-1.29-1.63,1.09-2,.59-3.4A3,3,0,0,1,377.89,663.52ZM266,392.19c-2.11,1.06-.52-4-3.37-1.65-.88-1.44,1-2-.31-3.59C265.13,386.12,264.9,390.21,266,392.19ZM370.94,675c-1.51-1.91.48-2.63.35-4.08C374.58,670.27,374,674.39,370.94,675ZM349.2,613.1c-5.09.77-6.68-10.59-7.43-14.17C344.58,603.18,348.16,609.06,349.2,613.1Zm-1.44,13.21c-1.37-1.83-.12-2.83-.77-4.41A2.25,2.25,0,0,1,347.76,626.31ZM273.55,451c-1.69-.18.6-4.06,1.74-5.3C277.9,446.64,275,449.47,273.55,451Zm96.58,255c-.5,2.23-4.4,1.16-6,1.56C364.76,705.17,369.05,705.56,370.13,706ZM207.93,275.88c.15.64-.88.82-1.49,1.16-.1,2.19,1.94,1.49,1.86,3.67-1,.2-1.47.61-1.52,1.18C206.09,281.89,203.89,274.09,207.93,275.88Zm-3-4.73c-3,.3-.48-2.69-2.88-4.08C205.07,265.6,203.9,269.84,204.89,271.15ZM198,272.51c-5.11-3.28-3.36-11.55-1.36-1.72C196.77,271.3,198.16,271.49,198,272.51ZM195.2,279c-2.24.77-4.78-5.91-1.74-6.6C191.49,276,196.64,276.49,195.2,279Zm1.56,5.95c-1.87-.11-2.47-2-2.89-4.12C195.74,281,196.33,282.87,196.76,285Zm-10.61-23.9c1.57-3.55-2.47-3.09-1.42-6C185.65,256.19,191.45,260,186.15,261.1ZM163.47,160.7c-2.59,0-5.45-2.26-3.28-4.82C161.53,157.18,162.36,159.07,163.47,160.7Zm-3.09,56.38c3.22-.13.91,1.85,1.64,3.82C159.13,221.18,160.3,218.65,160.37,217.08Zm-3.59-19.45c-3,1.47.26,3.75-.91,5.08-1.69-.45-1.28-3.36-2.51-4.34ZM142.39,86.76c.28,1.16-.79,1.42-.86.73-1.07,3.79-3.39-.09-1.79-1.85C140.64,86,140.68,87.09,142.39,86.76Zm10.9,106a4.84,4.84,0,0,0-2.69-.14c3.52-2.34-.58-2.9-1.67-4.53.84.26,1.68.5,1.72-.35C152.75,188.07,153,190.51,153.29,192.81Zm-4.88-26c-.83-.28-1.66-.54-1.73.31-1.89-1.64-3.8-4.57-2.75-7.09C146.89,162.1,148,163.28,148.42,166.8Zm-3,15.78c-3.22-.37-2.93-2.84-2.5-5.08C145.59,177.14,144.85,180.58,145.39,182.58Zm-38.86-96c2,0,.58,3,.08,3.47-2-1.54-4.54-5.59-2.85-8.15,3.32,1.3.13,4,1.92,6.13C106.55,88,106.35,87.17,106.53,86.62ZM85.14,5.78c1.93,1.08,0,4.91.36,7.08C83.58,11.79,85.54,7.94,85.14,5.78ZM78.2,63.29c.27,1.88-3.38.67-2.62,3-2-.47-.34-4-.87-5.73C77,60.53,76,63.29,78.2,63.29Zm-6.69-18.6c-1.49,2.56.74,3.95-2,5.8-2.43.34.84-4-1.62-3.62C69.33,46.31,69.32,44.56,71.51,44.69ZM66,58.53a23.25,23.25,0,0,0-.66-5.69,7.07,7.07,0,0,1,.86-5.23c-.08,1.57.6,4,1,6.19S67.52,57.91,66,58.53Zm-9.64,9c1,.09,1.55-.21,1.76-.79.78,2.52,3.53,3.31,4.38,5.74C58.49,72.57,57.78,69.73,56.32,67.56Zm1.75,3.64c-.29,2.3,2,3.44,0,5.17-1.88.2-.4-2.61-.87-3.66-2.93-.4-3.2,1.36-3.49,3.1-1.72-1-1.09-6.27,0-7.42C55.25,69.23,53.88,72.67,58.08,71.2ZM218.3,675c3.41,2,1.52,7.44,3.3,10.89C217.76,682.51,219.77,679.4,218.3,675ZM105.8,396.68c-.27,2.48-3.3,3.89-6.14,3.76,2.81-5.4-5.51-6.43-7.71-12.34,2.8.71,1.24,1.87,3,3.69C101.94,387.81,100.27,398.27,105.8,396.68Zm27.56,89.27c-3.38,3.82-6.82-2.21-9.08-4.3-1.39-1.9,2.5-2,.35-4.12C128.5,478.59,129.83,484.27,133.36,485.95ZM38.87,52.18c-2.21-.6-3.87-3.9-2.45-5.31C38.43,47.64,39.15,49.48,38.87,52.18ZM125.26,474.1c-3.39,1.48-6.24-4-5.24-6.68C123.28,466.93,123.91,471.15,125.26,474.1ZM36.05,30.19c2,1.09.15,5.27.64,7.58C34.8,35.16,35.84,33.45,36.05,30.19Zm81.52,438.19c-3.12.66-3-4.62-4.41-7C116.72,462.32,115.09,465.5,117.58,468.38ZM31,50.68c-3.42-1-1.85,2.52-5.29,1.54.37-2.57,2.64-3.41,2-6.92-.25-1-2.18-.65-3.49-.79-.46-1.85-1.15-3.53-.68-6.18,1.07,1.07,4.25,1.25,4.4-.69C28.4,42.48,31.25,45.29,31,50.68Zm-.29-19.1c-3.5-.64-3.73-7.67-2-10C30.84,23,30.37,27,30.74,31.58ZM121.9,495.34c.7,1.45-2.77,1.48-3.81,2.33-1.19-2.22,3.19-2.54.89-5.14C121.69,492.08,120.6,495.63,121.9,495.34ZM25.13,22.95c1.93,1.14-.06,5.38.38,7.73C23.56,29.55,25.51,25.31,25.13,22.95ZM53.64,312.16c-1.47,2.45-5-.61-2.44-2.5C53.37,308.49,51.49,313.33,53.64,312.16Zm-5-1.79,1.14,4.45c-1,.17-1.06-1.15-1.41-2a4.56,4.56,0,0,1-2.34,1.45C47.09,313.06,46.26,310.91,48.67,310.37ZM24,210.82c-1.92-.66-4.57-.43-4.93-3.06a5.47,5.47,0,0,1,3.34-1.39C22.2,208.83,23.76,209,24,210.82Zm2.89,21.57c-2.31-.78-3.81-2.6-4.56-5.42C24.79,227.63,25.94,229.89,26.93,232.39Zm-.43,2.46c2.09.4,1.21,4.73,2.12,6.69C25.17,240.65,25.4,237.48,26.5,234.85Zm-6.76-28.79a12.63,12.63,0,0,1-4.55-6.33C20.65,198.9,19.08,202.15,19.74,206.06Zm-2.51-16.17c-1.9.19-2.1-1.66-2.24-3.61-1,3.78-1.42,3.52-1.93-1.29,1.17.7,1.86.4,1.62-1C16.52,184.76,15.78,188.64,17.23,189.89Zm-4-10.47c-2.63-2.41-3-4.79-3.08-7.57s.22-6-.87-10.09a10.2,10.2,0,0,1,2,3.72,21.13,21.13,0,0,1,.88,4.31C12.5,172.83,12.52,176.14,13.21,179.42Zm391.9,457.11c-3.33,1.89-2.09-4.73-4.53-4.53C401.24,630.48,404.43,634.18,405.11,636.53Zm-49.38-40.4c-4.84-1.09,4.49,3.47,6.42,4.38-1.16.78,1.17.89-.28,1.7-3.19,1.73.06-2.15-3.22-1-2.36,2.58,2.05,6.12,2.37,8.47,2.68-1.34,3.2-3.36,6.73-4.43.15-2.62-2.81.58-2.68-2,2.8-.56,4.57.81,5.36,4-.93.2-1.08-1.12-2.15-.67-2.14,1.58,1.72,1.26,1.33,3.39,1.17-.43,2.33-.86,2.16-1.71,3.7-.52,1.22,4.49,3.71,4.78-.61,1.49-8.08.2-5.66,4.76-7,.27-8.41-2.73-9.34-7.12-4.66,4.43,4.38,6.37,3.7,9.5a6.56,6.56,0,0,1,4.29-1c1.35,2.23-2.54,3.1.22,5.45-2.29,1.51-1.37,1.13-4,1.69,1.67,3.78,3.53,8.29.17,12.57.52,1.73,1.1,3.37,2.91,2.74-1,4.51-5-5.07-4.56.31-2.26.18.11-3.08-1.83-4.76,2.47-1,2.58-2.74,4.06-4.06-.66-3.28-4.44-4.89-3.15-8.16,1.66-1.13,1.65.82,2.94.35-.41-2.72-2.74-1.88-3.45-4.09-2,.93-3.85,1.74-5.11,1.36-.36-1.3,2.58-1.57,2.71-2.73-.49-.53-2.42.29-2.42,1-1.81.67-1.45-2.74-2.38-3.73a4.64,4.64,0,0,0,2.68-.35c-.3-3.22-2.9-5.28-5-8.1-2.07.41,3.87,3.06-.28,4.06-3.33-9.62-3.88-17.26-11.41-19.55-.91-1.84,2.2-2.48,0-4.73,1-.29,1.17.94,1.61,1.67,1.32-4.1-5.87-2.2-6.93-5.67,3.58,7,4.54,15.41,5.95,23.47s3.31,15.71,8.77,21.42l-4,1.7c4.47,2.65,3.32,6.74,6.89,8.13,3.37-6.17-5.78-13.21.18-19,2.13,2.73.88,4.53,3.43,6.45,1.82-.62,2.35-1.63,1.64-3.06,2-1.4.64,3.45,2.65,2-1.76,4.29-4.44,8-.91,12.22-1.14,3.95-4,3.78-2.25,8.82-1.43.69-2-.12-3.5.66.44,1.9,2,1.77,4,.7-4.88,5.39,2.79,9-.78,15.28,2.59.25,3.43-1.94,5.09,1.06-.23-3.45-.67-7-1.2-10.53,2.64.71,1.6,5.75,5.78,7.86,0,2.45-1.51-1.62-2.38-1.38-.58,4,3.61,8.41-1.59,13.24-3.06,1.38-.49-.45-1.56-1.73-.72-1.29-3.3,4.43-5.12,1.3-1.62.86.89,3.09-.36,4.08-1.84,1.06-2.22-.53-4.31,1-.15-3.77,4.25-7.53-1.18-8.14,3.47-.45,4-2.09,6.45-.29,1.52-1.39-2-3.11-3.73-2.4.76-3.1,3.3,0,4,.7,1.46-.72-.39-2.5.59-3.38-1.63-1.63-5.89,1.58-7.52-.06-1.92,6.26-2.58,14.73,4.74,17.67a4.57,4.57,0,0,0-2.68.3c.47,5.14,8.72,6.06,5.09,11.25,1.35.59,3.48-.2,4.82.42.61,1.6-.64,2.56.68,4.42-4.16,1.08-8,2-11.38,4.52,4.36-.07,12.24-1.1,11.08,5-4.67.09-10.24-.49-15.4,3.73-2.16,1.26-.35,3.88-.75,5.73-7.73,1.21,0-7.36-4.46-9.87-1.48.92,2,1.41-2,2.33.84,8.22,6.74,14.55,6.11,22.35a3,3,0,0,1-2.6-2.08c-1.36,1.11.15,2.24-2.19,1.62-1,.65-.09,2,.14,3-8.76-1.28-12.89-10.49-21.18-12.46.63-1.18,1.88-2.14.42-4-4.28,6.33-10.18,7.3-14.23,1.85-1.11.78.63.73.73,2-4.27.85-4.67-1.53-8.3.26-2,1,1.55.7,1,2.66-2.88,1.37-1.57-4.53-5.29-1.7-1.88-4.55-6.95-7.44-7.06-11.65,1.15-.2,1.7.65,2.91.34-4-11-14.9-16.16-15.52-26.6-.14-2-2.17-.58-3.19-1,1.93-2.42-1.83-4.87-2.51-9,4-1.59,4.88,2.41,7.7,2.94,1.23-1.38.72-3.29,1.94-4.68-2.84-1.23-6.46-1-8.19-4.28-7.93,4.46-1.73,16.95,3.06,20.3-.38,2.69-2.71-.17-3.73,0,1.89,4.52,5.35,2.77,7.21,9.28-5.73-2.34-8.71-7.73-11.4-12.91l2.42-1c-.53-2-2.62-1.27-3.14-3.3-.6.59-1.22,1.19-1.11,2-3.71-4.82-6.92-13.92-14.88-16.83-1.76,1.49,2.11,2.08,1.78,4.65-3.18-1-7.13-.53-9-3.89-.91.51-.21,1.5,0,2.33-1.78-1.27-4.55-.72-5.83-2.91-.07,4.67,9.17,2.09,11.12,6.84,1.4-3.63,2.59.64,3.12,3.29-1.34-.19-2.29-1.08-3.43-1.62-2,1,1.54.67,1,2.64-10-2.86-16.92-9.06-23.76-15.3-1.78,3.36,3,8.66-2.3,11,2.49-7.91-1.59-14.43-2.65-18.91-.81-1.29-2.53,1.9-1.64,3-2.38-.75.08-5-2.05-7.63-2.86.32-4.31-1.93-7.74-.54.49,2.15,3.37-.13,4.27,1.26-1,5.86,2.48,13.6,5.39,16.23-2.35.9-3.83-2.45-5.4-6.17s-3.23-7.79-5.89-8.3c-.43.79-1.14,5.28,1.29,3.32-4.14,3.86-3.16-6.86-2.57-9-1.76-1.41-.85,2.81-3.49,3.05-.58-1.93,1.89-2.93,1.9-4.69-2.88-3-5-7.47-9-8.54,2.23-2.1,1.77-2.26,0-4.68,5.94-.18-.58-3.1,3.77-4.75-2.64-1.1-7.26-9.93-2.61-11.34-.45-1.87-2-1.72-4-.62,2.82-3.77-6.69-9-1.29-12.74-3.8-.74-5.3-5.59-6.12-6,1.23-1.86-1.83-9.79-7.19-11-14.13-30.17-41.22-46.88-54.76-80.67,3.18-.42,3.58,4.32,5.84,5.59,2.66-2-.22-7.91,4.37-5.77-3.1-6.55-7.95-8.45-9.75-13.55,4.76-3.18,4.23,5.13,7.79.83,1,5.67,9.31,3.46,11.94,9.43,0-5.85-6.19-11.11-2.37-18.85,1.27.38,2.21,1.37,4.58-.27,3.09,3.22,5.49,7.65,9.78,8.66-.51-4.84-5.41-11.62-9.14-14.44-2.39.65-3.48,4.77-2,4.73-1.72,1.94-4-5-6.61-5.24-2.74.62-2,2.3-4.07,1.63-6.13-13.06-18.66-14.64-24.86-27.64-3-.37-5.59-1.51-9.42-.4-1.32-2.58-2.54-4.9-3.73-7.06S92.12,439.1,91,437.1c-2.26-4-4.57-7.86-7.34-12.56-3.18,1.8,1.43,2.77-.18,4.87-1.58.49-1.38-2.15-3.2-1.24C84,437.6,88.54,440.3,93.1,446.69c-3.13-.18-4.39-3.68-8.28-2.51-2.68-4.83-4.75-10.73-6.69-16.83,1.52-.66,2.61-1.48,2.82-2.63-.36-.52-1.07-.41-1.32-1.12-.92.46-.24,1.55-.08,2.43-2.23-4-4.52-7.67-6.71-11.86A71.19,71.19,0,0,1,67,399.1c.71-.09,1.06.44,1.9.15-2.53-5.56-3.56-10.68-4.88-16A73.52,73.52,0,0,0,57.7,366c3.92,5.65,7.69,14.07,11,22.33s6.38,16.17,8.88,20.73c-1.67-5.59-3.55-11.28-5.36-17.19S68.48,380,66.52,374s-3.82-12.13-5.77-18.13l-2.88-9c-1-3-1.84-6-2.75-8.89-1.18-3.84-3.44-7.21-5.25-10.65a25.33,25.33,0,0,1-2.17-5.27,13.36,13.36,0,0,1-.24-5.77c3.16,1.42,6,3.37,7.4,7.44,1.07-.56.19-2,0-3.18,2.14,4.12,8,17.81,8.12,26.19-3.86,1.67,2-4.73-2.92-3.88-1.66,3.9,3.22,7.77,4.23,14.61,1.35,1.89,1.49.42,3.55-.33l1.06,3.64c-1.91.92-.51-3.47-3.14-1.39-.11,4.13,1.24,8.19,3,12.1s3.86,7.75,5.07,11.58c3.62-7,1-11.94-4.69-15.19-.47-3.3-1-4.17-.87-6.11,7,3.48,7.9,11.18,15,13.36-3,2-1.12,5.17.57,7.76-2.76,2.1-5.21-3.95-4.15,1.41-3.29.48-.84-2.51-2.78-3-7.53,6.83,9.52,8.93,8,16.42.22,1.83,3.62-1.7,3.16,1.29-5.69,0,2.65,6.79,4.45,8,2.36-.73,1.82-2.6,1.32-4.45,2.37,2.62,6.17,2.83,7.74,6.78,3.27-2.37-1.73-4.32-.43-7,4.16,3.09,4,6.78,7.86,9.84,1.51-3.19-.7-4.46-1.76-8.06,4.44,1.83,4.76,3.49,4,6.46.41.78,1.7,0,2.7-.2,1.16-2.79-2.12-7.36-2.66-10.87a4.53,4.53,0,0,0,2.71-.18c-4.83-3.71-7.22-9.56-9.75-15.17s-5.09-11.09-10.54-14c-1.7-10.66-11.27-17.17-14.78-28.3-2.73.27-1,2.49-3.77,2.75-1.3-5.54-3.83-10.18-5.8-14.63s-3.32-8.78-2-13.75c1.36-.68,1.75.11,2.08,1,1.67-.71,1.15-2.43,1.73-3.63-2.83-3.1-2.34-5-3.44-10a2.69,2.69,0,0,1,3.38-.95c.93-1.45-3-5.23,2.1-6,.25-6.65-5-5.38-8.79-6.18-2.59-2.48.82-11.08-5.81-9.43-.77-4.45-2.47-7.62-6.3-7.8-2.24-8.35,4.19-16-2.4-23.68,3.5-1.86.18-3.38,2.34-6a15.72,15.72,0,0,1-6.31-5.34,45,45,0,0,1-4.26-8c-1.85.95.52,4.34-2.75,4.49-2.19-7.25-4.56-11.38-6.61-16.69-1.71,1.79-2.68-.74-5.44-.52-1-2.43,1.58-1.57,2.45-1.26a8.15,8.15,0,0,1-4.41-5.48,4.57,4.57,0,0,1,2.46-1.24c-2.17-2.19-.31-9.36-4.9-8.57,1.86-2.47-1.63-9.8-.79-10.88-.91-1-1.28.43-3.56-.21,4.44-4.48-3.7-7.47.87-13.56-1-2.17-1.06,2-3.37,1.29-1-2.56.3-4.11,2.3-2.7-.94-2.26.52-2.94.26-4.75-.81-3-5.9-4.51-3.63-8.17,1,.07.76,1.47,1.9,1.33-1.25-3.13-.56-3.41-.71-7-3.32,3.87-3.83-2.28-5.77-4.82-1.83,2.91,4.85,8.7-.78,9.6.28-6.07-2.75-11.33-1.59-15.66-4.74-2.16-5.12-5.6-4.79-9.5s1.14-8.17-1.36-12.13A58.27,58.27,0,0,0,3.3,112.77c.4-3.75.57-7.63.66-11.71s.12-8.35.27-12.9c0-2.27.22-4.63.45-7.06s.51-4.95.87-7.54c4.14,2.71,3.53-2.41,2.84-8.7S7.13,51,10.94,49.1C7.71,45.72,9.38,39.79,13,37.36a10.84,10.84,0,0,1-1.94-7.17A37.56,37.56,0,0,1,13,21.95C14.75,16.19,17,10.06,15.84,3.83c2.34,5,1.75,10.18,1.52,15s-.12,9.26,3.74,12.5c-1.5,5.72.27,18.13.18,24,1.79-.23,1.79-2.08,2.71-3.11,1.9.12,1.82,1.94,1.63,3.86-2.64-.54-3.2.81-5.27.81a4.62,4.62,0,0,0,.9,3.86c3.07-1.21,5-3.34,7-5.45-.62.88-1.26,6.8,3.5,5.3-.83,3.93-.77,4.71,0,7.63-1.92-1.65-2.89,1.41-5.24,1.66-.45,4.27,2,5.93,5.29,6.74-1.17.72-1.38,2.3-1.19,4.25a50.63,50.63,0,0,0,1.41,6.43c1.57-1.61,1.78-4.19,1.89-7s-.06-5.88.49-8.33c2.87-.61,6.22,4.95,7,1.3,1.26,1.09,3.26,3.13,1.77,4.46,2.09-.55,2.92.73,3.79,2.21s1.9,3.16,4.2,3.43c-5.06,5.17,3.19,7.93,3,11.74-3.43.09-1.38,6.45,1.93,5.07-2.23,1.76-3.52,4.88.26,5.93-.16-2.3.85-5.38,1.39-9,4.37.18,2.82,1,1.88,3.57,3.44-.06,2.08-3.7,5.11-4.05-.2,3.46.56,6,3.72,6.33-4,4.35,3.42.69,3.81,4.8a27.13,27.13,0,0,0-.06-5.6,43.36,43.36,0,0,0-.91-5.76c-.86-3.87-2.12-7.78-3.25-11.6C67.56,82.86,67,81,66.6,79.14a34.06,34.06,0,0,1-.78-5.39,16.08,16.08,0,0,1,1.89-9.45c1.78,3,2.39,6.82,3.13,10.78.19,1,.37,2,.61,3S72,80,72.31,81A21.34,21.34,0,0,0,75,86.48c3.35-3.86-3.19-7.65.59-10.14-3.12.71-3.46-3-.88-5-.77-.53-3.88.42-3.5-2.77,3.42,3.42,2.37-2.75,7-2.4-.94,2.71,2.18,2,1.73,4.24-4.27.4,1.34.68.88,2.11.13,2-2.46,1.9-3.49,3,2.39,2.15-.91,10.13,3.88,13.43-.66,1.37-1,3-2.5,3.76.49.77,4.19-.84,6.13.3-.18-2-1.74-2.34.84-1.5.19-1.23-2.12-4.36-1.81-1.3-1.68.39-1.38-3.17.8-2.19a2.89,2.89,0,0,0-1.83-2.75c-2.45.15,2.15,1.82-1.71,1.54-1.37-4.46-2.39-6.43-.32-10.73C85.4,80,84.63,93.64,91.89,94.67c-.95.81-1.46,2.82-1.12,4.57a3.52,3.52,0,0,0,4.07,3c-2.67,5.29,4.59,11.34,5.48,17.88,2.59-1.59-1.21-3.24-.33-5.63,4.55,1,1.42,4.84,3.12,8.15,1-.23,1.57,0,1.82.5,2.45-1.89.21-2.74,3.48-.4a106.72,106.72,0,0,0-1.76-14,77,77,0,0,1-1.59-12.22c2.65.07,5.14,10.21,6,12,1.67,1.47,4.32.44,3.82,5.17-2.26.17-1.4-2.57-3.66-2.41-2.59,1.55,1.19,3.19.34,5.54a6.33,6.33,0,0,1,4.61,3.78,8.42,8.42,0,0,1,.55,6.08c-3.7-.21.6-3.93-3-4.52-1.53,2.55-1.9,7.28,1.62,8.19,2.11,0-.77-3.08,2.43-2.4-2.1,3.32,1.43,3.56,2.28,6-3.83-1.14.61,4.82,1.44,6.07-2.95,3.17-2.43-3.53-3.9-4.35-1.33,3.51.23,7.56,2.64,11.82s5.27,8.79,6.3,13.43a72.4,72.4,0,0,0-.8-11.65c-.5-3.37-1.32-6.35-2-9.36-1.52-6-3.53-12-5-21.07,2.63.71.19,7.4,5.87,6.91-4.51.93-.2,5.71-1.74,9.91,1.45,1.51,3.75,1,4.51,1.47-1.85,1.3-1.87,3.25-1.21,5.61s2,5.1,2.72,8a5,5,0,0,1,2.51-1.08c-2,2,1.31,2.52,1.42,4.63-1.72.27-1.31-1.69-3.61-.82,0,4.34,3.32,1.76,4.81,3.4-.86,1.21-2.3,2.08-3.15,3.3,3.45-.74,4.61,3.9,6.26,7.29,2.09-1.56-1.78-3.3-.82-6.11,1.82-.6,2.77,1.41,3.62,3s1.39,2.88,2.18.81c1.84-.44.74,2.32,1.35,3.22-2.16-.51-1.58.37-4.4.09-.08,1.14,1,1,1.15,1.88-1,2.23-1.52-2.43-3-2.25-.28,1.84-.14,5.19,1.86,6.63.3,1,4.51-1.76,4.61,1.23-.76.57-3,2.18-2.69-.2-3.35,3,2.55,5.68,1.57,10.87,2.3-.24-1.34-3.65,2.18-3.23.62,3,2.58,4.57,3,7.76-2.86,1.68-.9-2.19-2.93-1.49-2,3.29,3.89,4.5,2.27,7.93,1,.16,3.39-.66,4.62,1.11.16,1.7-2.87.82-3.43.73.78,4,3.91,5.21,6.53,7,.8-.64.62-1.74,2.33-1.92,1,.71,1.22,2.33,3,2.1-3.07,2-3.91,5-7.31,3.76-.75,3.45,4.93,3,3.45,8.36.73-.87,1.45-1.74,2.14-2.61-.26,3.6.31,11.2,3.24,16.13,2.73-.16.52-2.57,3.94-2.41,1.34,2.58-.14,8.73,4.3,7.38.78,2.84-1.43,3.05-.22,7.13,2.33-1.23.73-1.25.24-2.9,2.4-.77,4.61-1.3,4.69.88-1.39.63-1.72-.1-2-.89-1.82.77,0,3.88,1.58,3.12a.93.93,0,0,1-1.85-.22c-2,1,.3,3.51,2.28,2.22-4.13.73-.82,3.35,1.21,5.34,3-1.26-3.07-2.75,1.07-3.13,2.69,6.87,5.23,14.46,8.63,21.77s8,14.27,14.44,19.87c.07.81-1.37,1-2.32,1.44.23,1.49,1.27,1.88,3.06,1.19-1.8,5.29,1.87,12.77,5.3,15.57-3.81-2.34-.12,6-5.34,6.84.33,1.19,3.39,3.1,1.38,4.63,3.09.5,5.58,1.89,7,4.93-4.13,5.91,2.21,12,6.29,17.55,0,1.54-.84,1.85-2.26,1.54,1.53,4.73,4.15,9.6,6.64,14.34s5,9.33,6.1,13.55c-3.78,1.35-3.32-4.14-5.48-5.39-.42,3.76,4.74,7.25,5.83,12,1.05-.63.12-1.91-.06-3-.45-1.79,4.91,3.81,1.32,4,8.1,9.24,15,24.87,22.06,36.44,4.13-.25.16-3.06,3.35-3.61A218.52,218.52,0,0,1,262.12,434c1.26,3.22,2.53,6.4,4.1,9.76a110,110,0,0,0,5.9,10.83c2.81-.51,2.15-2.08,2.49-3.33,2.77,1.44-.44,5.8.88,7.27,3.89-1.55-1.69-6,2.85-7.31-.89,8.15.45,16.12,6.19,21.13,1.83-2.17-1.4-5.87,1.74-7.65-.2,8.65.47,17.07,4.63,24.18.86.67,2.2.5,3.74-.05,1.35,2.42,2.77,12.58,8.13,11.2-2.91-.84-3.72-4.49-3.9-7.6,3.08,0,2.15,2.11,1.81,4.63.44.69,1,0,.8-.34,3.87,1.4.8,8.5,5.24,8.57-.7,8.88,2.32,17.22,5.87,25.67s7.64,17,9,26.35c2.61,1.91,5.82,2.77,5.58,7,.79,2.41,3.59,1,4.81,2.63-.14,6.36,6.14,5.79,6.38,11.39,3.92-3-4.31-6.65-.77-9.1,4,3.35,5.74,11.05,11.73,10.68-.68-4.44-6.33-3.43-5.84-10.09,3.41.21,4.47,4.85,9.35,2.28-1.6,1.74,1.88,2.12.28,3-2.37,1.72-2-1.7-3.49-1.65.54,7,12.61,17.69,0,9.46-2,.76-4,1.55-3.5,3.07C349.15,583.65,349.26,596,355.72,596.13Zm-6.13,107c-1.94.76-2,2.12-4.65,2.63,2.12,2.29-1,2.85-.16,4.72.66,1.44,2.57.65,4.56-.24.79-1.53-.06-3.61,1-5.06,1.28,0,1.06,2.58,2.6,2.09-.64-1.22.37-1.86-.17-3C350.8,705.5,349.75,705.13,349.59,703.17ZM220,652.72c1.21-3.35-3.82-3.67-2.61-6.62-2.71,2.26-4.35-3.28-5.06-.92C215.24,648.41,215.74,650.73,220,652.72ZM87.51,405.54c.59,7.11,3.55,5.87,8.45,9-1.27-2.89.64-4.52-2.1-6.43C92.19,410.84,91.24,402.95,87.51,405.54ZM344.77,589.79c-.9,2.06,1.91,4.18,3.74,4.68C348.84,592,347.76,589.09,344.77,589.79ZM202.66,322.09c1.58,1.46,2.59,3.8,4.27,5.11C207,326.36,206.21,320.5,202.66,322.09ZM182.83,303.8c-2.2,4.33,3.94,9,8,12-1.43-1.55-1.8-4.64-1.07-6.95,2.74,4.81,5,10.35,10.48,11.12-2.54-6.67.06-7.38-3.44-12-4.7-1.3-12.22-2.46-12.83-6.78-2,.75-3.56.75-4.55,0a1.1,1.1,0,0,0,.47-1.61c-.9.25-2,1-.65.94C178,302.81,180.18,306.76,182.83,303.8Zm-17.28-61.9c2,2.11.07,4.87,2.87,4.92C167.71,244.87,168.22,241.37,165.54,241.91ZM311.31,703.07c1.3,2.18-2.41,2.7-.47,6.35,3.19-1.12,8.41.66,5.23,4.06,1.25.37,2.16,1.33,4.55-.29-4.86-6.07-.42-2.17-3.7-10.08C313.68,705.52,314,701.7,311.31,703.07Zm-12,15.6c.48-3.19,4.64,1.9,5.12-1.29-1.34-.21-1.87-1.83-3.42-1.68a5.38,5.38,0,0,1,.89-2.66c2.78,1.35,5.23,3.27,8.71,3.39-2.12-4-6.51-4-9.69-6.07-1.44,1.68,1.63,1.21-.08,2.33-1.5-.29-3.63.51-4.8-.36.54-1.74-2.55-4.44-4.06-6C291.48,711.21,298.73,715.63,299.31,718.67Zm-12.69-44c.27,2.56,3.19,9,6.47,9.67C293.37,680.22,290.34,675,286.62,674.65ZM275.4,660c.31,1.66.46,3.73-1.66,3,1.52,4.51,3.93,1.74,6.62,2.63,1.85,2.74,3.24,5.68,5.19,8.65C289.07,667.54,279.59,662.06,275.4,660Zm12.48,40.32c1.32,1.73,2,4.6,4.43,4.33-2.19-.89.11-4.38-2.81-5C289.63,700.54,288.77,700.44,287.88,700.34ZM290.7,713c2.56,2,.83,5.57,4.87,5.68C293.78,717.06,293.58,712.65,290.7,713ZM110.28,123.92c-1.66,0-1.85,1-3.42,1.1a.94.94,0,0,0-1.82-.49c2,.78,3.5,2.11,3.13,5.27,2.39-.24,1.65-1.38,3.49-.43C111.8,126.94,111,125.52,110.28,123.92Zm18.44,197.7c-1.41,2.59.33,5.11-1.15,8.72,1.8,2,4.5,2.54,5.36,5.9,5.2-3.5-3.67-6.92-.5-11.24-.19,2.68,3.43,4.66,4.33,2.41A84.17,84.17,0,0,1,128.72,321.62ZM255.59,662.23c-3.58,1.57-.44,2-1.37,3.68,1.45-.72,2.51-1.58,2.7-2.7C256.23,663.34,255.75,663.06,255.59,662.23ZM124.27,315.41c.56,2.1,1.12,4.21,1.73,6.3C129.57,320.4,125.28,316.2,124.27,315.41ZM84.2,100.25c.82,1.19.18,3.84,2.8,3.35a3.56,3.56,0,0,1-.81-3.32,26.53,26.53,0,0,1,1.4-3.16C84.4,96.68,87,100.39,84.2,100.25ZM115,321.31l2.51-.77c-2.23-4.31-4.84-8-7.36-11.92A54.5,54.5,0,0,1,103.48,295c1.77-4.71-4.33-12.44-7.63-16.16,0,.6-.52,1-1.52,1.17-.48,1.55,3.13,1.7.71,2.86-2.51-.32-6,.71-7.48-1,1.07,3.25,3,1.28,0,3.82,1.85,0,1.14,3.56,4.1,1.94,1.71-.7-1.74-1.6,1.15-2.61,1.26,1.75,2.77-2.24,3.73.5-1.66.89-2,2.43-4.71,2.82.45,3.86,3-2.92,4.42-.45-.45,1.26-2.47,1.79-3.86,2.59-.46,2.1,3.41,2.71,1.07,4.31-1.39-.6-1.62-2.88-2.1-4.79-3.55,2.3-5.45,2.6-8.19-3.9-2.28.31-3.1-1.46-5.63-.8,3.86,2.39-2.3,1.45-.05,7,1.73,1.87,2.33-.84,3.91,1.25-2.72,0-1.1,2-1,3.36,4.88,0,7.07,5.79,5.9,9.18,2.68-1.08,5.29-2.19,5.18-4.57-3.91,1.4-5.4-5.46-3.5-6.72.25.94,1.65.24,2,1-1.46,2.11,2.08,2,2.77,3.84,2.86-.14.57-2.7,2.82-3.11a24.77,24.77,0,0,0,9.38,5c-2.11.92-2,2.85-4.48,3.6-1.88.78-1.49-1.79-3.11-1.4a48.63,48.63,0,0,0,5.61,10.63c-4.33-.46-3-5.34-6.7-8-3.4,1.79-3.13,1.35-6.09,1,1.11,4.92,3.66,4.48,4.58,10.23,4.24-.94-.09-2.29,1.75-3.61a6.82,6.82,0,0,1,3.68,3.53c1.74.21,2.22-3,3.36-1,.2.92-.81,1.31-.26,2.38,3.13-1,3.36,2.3,7.28.09-.18,2.91,2.38,1.75,3.46,2.77-1.55,1.67,0,6.68,3.66,6.52.95-2.36-4.08-.2-1.45-1.84,2.63,3.12,9.45,6,7.82,11.3,3.94-2.34,3.22,2.47,6.64.9C127.44,332.54,118.69,324,115,321.31ZM72.28,120.16c2,.15,2.1,6.12,4.59,3.19C75.72,122.39,74,118,72.28,120.16Zm2.1-8.23c-.83-1-1.46-2.18-3.63-1.87.45,2.65-.33,6.51,1.4,7.92,3.22.8,4.65-3.13,2.37-3.88C71.7,116.16,73.85,113.22,74.38,111.93Zm146.1,542.12c3.1,3.3,2.17,7,6.58,7.23C224.74,659.11,223.62,654.74,220.48,654.05ZM60.92,107.22c-.49,2.3,1.05,2.61,1.15,4.34a2.49,2.49,0,0,0,2.52-1.69C62.53,109.8,62.49,107.76,60.92,107.22Zm1.21,5.07c-.05,2.92.67,5.08,3,5.63C65.23,114.95,64.74,112.57,62.12,112.29Zm8.41,133.14c-.41-1-1.66-.91-2.16-1.81-.14-.94.89-1.26.4-2.39-2.78-.2-5.42-4.57-7.28-.65.71,0,1.13.39,1.16,1.27,1.52,0,2-1.58,2.56-.57-1.44.7.53.7,1.17,1.27-1.57,0-.43,5.59,2.2,6.4.66-1.17,1-2.54,2-3.52.35.84,1,.23,1.71-.4,1.75,4.46,1.9,5.73,1.93,9.5,4.17-.18,4.2.64,6.67-2.37-2,.14-1.07-3.5-1.9-4.89-4.17.29-4.61-4.38-8.16-5-.14-.94.88-1.26.42-2.39C66.49,240.82,73.41,244.14,70.53,245.43ZM203.89,626.26c1,1.61,1.85,3.47,3.45,4C207.62,629.54,206.45,625.1,203.89,626.26Zm-3.8,9.43c2.71,3.46,6.82,10.28,10.08,8.85-2.61.23,1-1.32,1.6-.69-3.62-5.37-.45-8.49-5-12.62,1.06,2.59,2,3.65-1.36,3.7,1,4.65,4,4.88,3.13,8-3.79-2-2.9-5.68-6.06-8.26.95-.49,1.82-1,1.07-2C200.91,633.2,203.51,635.34,200.09,635.69ZM42.08,97.38c-3.72.21-.86,5.46.22,6A6.46,6.46,0,0,0,42.08,97.38Zm6.56,44.75c1.86,2.14,2.07,6,2.49,9.73a23,23,0,0,0,1,5.12,5.43,5.43,0,0,0,2.78,3.24c-1-3.94-2.42-7.79-.23-10.53.93,3.66,2.2,3.21,1.61,7.32,5-.94,1.52-8.41-.89-8.92,3.85-4.37,1.25-9.13-.44-13.47,1.7-4.35.71-8.57-.9-13.28s-3.69-9.94-3.81-16.24c-5.6-2.49.68-11.27-5.82-15.4-.78,2.56-1.09,5.49-3.25,7,4.79,2.08,2.2,6.41,4.77,10.24a2.46,2.46,0,0,1,2.55-1.7c.08,6.83,3.53,13.69.61,22.5-2.8-.58-2,1.4-3.38,1.87-.8-4.28,4.36-9.12,0-13.62-4.25,2.79-1,10.37-1.66,14.55,2.18,1.62,1.55-1.29,4.31-1.21.35,2,1.14,4.74,1.46,7.24S50,141.29,48.64,142.12Zm6.61,34.69c-.15,7.28.89,7.78,2,14.09,3.81.5-.45-3.85,2-4.14-.26,1.59,1.12,5.49,2.19,2.65-2.54-.32-.62-3.4.3-3.84-3.26.21-3.65-2-3.79-4.24S57.88,176.79,55.25,176.81Zm-.55-11.29c-.27,1.75-1.47-.7-2.5,1.13.2,2,1.63,1.28.38,3,2.5-.23,4.74-.62,4.06-2.88C55.48,166.91,55.67,165.57,54.7,165.52ZM61,197.84c-3.35,1.39-4-.46-5.52-1.29.62,2.2,0,6,2.64,5.63C57.71,195.89,61.29,204.27,61,197.84Zm-9.36-35.65c0,2,.73,3.15,3,2.6-.06-1,1-1.19.59-2.35A5.46,5.46,0,0,1,51.63,162.19Zm2.77,7.93c-1.63,2.14-1.57,5.25,1.62,5.82C56.08,173.23,56.82,171.5,54.4,170.11ZM45,149.4c.9,3.2-.31,8.68,1.95,10.42.46-4.45,1-.29,3.47-.49C51.18,155.13,47.29,152.54,45,149.4ZM41.47,75.52c-2.43.14-2.14,4.87-.82,6.83C43.35,81.44,42.34,77.43,41.47,75.52Zm91.55,432c1.6,2.35.25,3.69,1.28,5.83,4-1.09,6.11,4.45,6.38,6.89,2.36-1.68,2,1.8,4,.71A25.31,25.31,0,0,0,133,507.54ZM38,78.68c.88-1.89.29-1.63.86-4.58C36,73.12,36.64,78.72,38,78.68ZM31.44,94.22c.33,2.47-2.63,2.37-3.35,4,.55,4.42,2,5.89,2.1,9.09C33,105.39,33.88,96.86,31.44,94.22ZM13.71,89c.79-.7,1.66-5-.19-5.46C12.08,84.5,10.51,88.6,13.71,89Zm-4,9.61a34.35,34.35,0,0,1,1,8.86c0,1.42-.09,2.82-.18,4.19s-.16,2.71-.26,4c-.38,5.29-.68,10.28,1.33,15-1.68-.43-.77-2.28-2.68-.53,1.82,2,2.49,5.24,4.87,6.62a125.71,125.71,0,0,0,.35-17.59c-.07-1.77-.16-3.57-.28-5.36l-.2-2.69-.17-2.69c-.26-3.56-.64-7-1.16-10C12,99.79,11.2,98.33,9.69,98.58Zm3.66,42.95c-1.09,1.12-1,4.82,1.35,4.56C14.12,143.76,16.59,141.88,13.35,141.53Zm.72,7c-3.46.49-.71,7.24,1.57,6.89C15.22,153,15.65,149.63,14.07,148.52ZM8.34,108.12c2.83.92,2-4.85.68-4.78C9.1,105.2,7.6,105.76,8.34,108.12ZM275.89,434.78c-2.28-4.13-7.41-8.44-7.52-12.8C270,425.1,275.21,430.18,275.89,434.78Zm-78-159.39c1.22,3.31,2.27,6.35,3.23,9.25s1.82,5.67,2.78,8.43c1.87,5.53,3.76,11.08,6.38,17.76a90.07,90.07,0,0,1-8.76-17.89A70,70,0,0,1,197.87,275.39ZM159.42,149.28c-.64,1.12-1.32,0-3.39,1.23-.51-1.33.4-1.85.57-2.79C158.58,147.19,157.79,149.47,159.42,149.28ZM144.61,98.49c.74-.19.85.18.91.58-.12.58.4.59.91.58-.09.79-1.56.71-2.58.91a3.43,3.43,0,0,0,1.07,3.22C142.89,105.29,142.56,99.58,144.61,98.49Zm2.68,16.34c-3,0-.78-4.86-3-5.67C146.05,107.67,147.55,112.23,147.29,114.83ZM149,183.25c-2.92-2.52-3.17-8-6-10.65C151.11,173.59,148.41,177.33,149,183.25Zm-34.75-78.55c-3.21,1-2.89-1.19-4.48-1.67C109.84,102.13,115,102.53,114.28,104.71ZM281,707c1.07,1-5.28-3.66-4.37-6.63C279.41,700.26,279.81,704.35,281,707ZM71.11,101.27c-1,1.58-3.53-1.64-3.63-3.39C70.7,97.14,69.1,100.89,71.11,101.27ZM62.77,87.91c1.22,1-3.17,3.76-1.51,7.46-1.24.48-2.22-2.73-2.65-.56a50.59,50.59,0,0,1-1.39-15.44c4.17,2.17.67,6.7,3,10.18A2.48,2.48,0,0,0,62.77,87.91ZM43.2,71.69c-2.73-2.29-3.34-.69-3.5.87-3,.67-1.12-3-4.38-2.14.72-6.74-.41-9.08.85-15.95C41.55,57.47,43.35,64.73,43.2,71.69ZM69.51,347.1c-1.44-3.59-6.34-9.37-7.4-16.78C65.74,334.77,69.36,343,69.51,347.1ZM76.47,59c-3.21.92-4.27-.71-7-.58.72-2.06-1.23-1.85-.88-3.6,5.16-1,1.41-8.4,7.3-10.16C74.79,48.78,76.19,52.51,76.47,59ZM125.8,485.82c-.3,1.3-1.49,2.3-3.53,3-2.63-3.35-2.21-8.3-7.09-9.13-3.37.64-.21,3.57-4.12,4l-2.55-7c1.19-1.8,1.06-.35,3.26-1.28a55,55,0,0,1-6.63-10,89.29,89.29,0,0,0-6.32-10.55c7.06-1.8,10.42,5.15,13.79,12.86S119.21,484.14,125.8,485.82Z"/></g></svg>