<svg xmlns="http://www.w3.org/2000/svg" viewBox="0 0 32 32"><defs><style>.cls-1{fill:#7ac943;}</style></defs><title>item-icon</title><g id="Layer_15" data-name="Layer 15"><path d="M14.57,22.77c0,1.41,0,2.83-.07,4.24a3,3,0,0,0,3,3,3.06,3.06,0,0,0,3-3c.05-1.41.07-2.83.07-4.24a3,3,0,0,0-6,0Z"/><path d="M13.59,5c.21,2.12.37,4.25.51,6.38a3.07,3.07,0,0,0,3,3,3,3,0,0,0,3-3C20,9.25,19.8,7.12,19.59,5a3.08,3.08,0,0,0-3-3,3,3,0,0,0-3,3Z"/><path d="M21.34,5.64c-2.42-1.16-5-1.64-7.53-.31a6.53,6.53,0,0,0-3.43,6.84,7.18,7.18,0,0,0,4.89,5.42,8.72,8.72,0,0,0,1.41.45c1.94.36.15-.28.33-.42-.31.24-.45,1.08-.83,1.23-.65.25-1.8-1-1-.16-3.47-3.35-8.78,1.94-5.3,5.3,4.47,4.32,11.31,2.18,13.82-3.09A7.2,7.2,0,0,0,22.78,13a7.1,7.1,0,0,0-3.1-1.91,4.76,4.76,0,0,0-1.35-.36q-1-.7-.88.51-.51.69.1.88c4.33,2.08,8.14-4.38,3.79-6.48Z"/><path class="cls-1" d="M19.82,7.14C18,6.47,15.89,6,14.19,7.23a4.85,4.85,0,0,0-1.73,4.67A4.24,4.24,0,0,0,15.74,15c1.74.53,3.67,1.12,3.67,3.4,0,3.35-3.86,3.14-6,2.1-1.73-.83-3.26,1.76-1.51,2.59,4,1.89,9.94,1.54,10.49-3.85a6.74,6.74,0,0,0-2.14-5.84c-.92-.7-2-.66-2.94-1.12-.68-.32-2.08-.69-1.79-1.92C15.87,8.76,18,9.67,19,10c1.82.67,2.6-2.23.8-2.89Z"/><path class="cls-1" d="M16.07,23.29c0,1.24,0,2.48-.07,3.72-.07,1.93,2.93,1.93,3,0,0-1.24.06-2.48.07-3.72a1.5,1.5,0,0,0-3,0Z"/><path class="cls-1" d="M15.09,5q.13,1.32.24,2.64a1.54,1.54,0,0,0,1.5,1.5,1.51,1.51,0,0,0,1.5-1.5Q18.22,6.32,18.09,5a1.54,1.54,0,0,0-1.5-1.5A1.51,1.51,0,0,0,15.09,5Z"/></g></svg>