<svg xmlns="http://www.w3.org/2000/svg" viewBox="0 0 32 32"><defs><style>.cls-1{fill:#7ac943;}</style></defs><title>item-icon</title><g id="Layer_13" data-name="Layer 13"><path class="cls-1" d="M20.22,20.39c2.53-.09,4.89,1.35,7.34,0S29.17,16.51,29,14.5s-3.16-1.93-3,0c.09,1.13,1.05,3.16-.52,3.45a3.43,3.43,0,0,1-1.72-.14,11.14,11.14,0,0,0-3.54-.43c-1.92.07-1.93,3.07,0,3Z"/><path class="cls-1" d="M4.8,17c2.29-.66,9.34.85,10.71-1.8s-3.38-9.47,2.57-8.87l-1.45-1.1c1.66,4.65-2.45,9.91,3.83,11.21,1.45.3,7.43,1.55,4.75-1-1-1-6.1-.21-7.32.45a1.53,1.53,0,0,0-.69,1.69c.41,1.73,1.53,3.85,1.32,5.68q.55,2-1.1,1.51a2.1,2.1,0,0,1-2.37-1.27c-.34-.61-.15-2.72-.25-3.32C14.2,16.89,13,16.7,9.88,17.3c-.74.14-3.48.41-3.3.92s3.12-.07,3.86-.13c1.45-.13,3.92.26,5.19-.65,3.15-2.25,1.62-7.62,2.55-10.65l-2.95-.4c-.14,2.1.64,4,.58,6a9.21,9.21,0,0,1-1.32,4c-.36.44-1,.56-1.4,1-1.33,1.8-.08,5.26.88,7,.83,1.51,2.65,2.75,4.27,1.4a2.43,2.43,0,0,0,.85-2,4.41,4.41,0,0,0-.25-1.1q-.35-.91-.6-1.85-.12-1.56-2-.37c.27,1.9,3.16,1.09,2.89-.8-.77-5.55-5.88-2.29-3.58,2.59.47,1,.79,1.64,1,0s-1.24-2-.3-3.28c.47-.65,1.62-.75,2.17-1.45,2.14-2.76-.3-8.25-.1-11.22.11-1.74-2.46-2-2.95-.4-.69,2.23.38,5.61-.86,7.54-1.81,2.82-7.16,1.14-9.77,2.16-2.1.82-2.11,2.75-1.2,4.82a1.5,1.5,0,0,0,1.3.74c1.67.12,3.45-1.11,5.06-.88,2.9.41,1.73,2.73,2.26,4.95.64,2.65,2.75,2.54,5.34,2.5,6.66-.08,3.7-6.63,2.68-11l-.69,1.69c1.23-.66,12.25,2.17,9.82-3.09-.84-1.83-3.47-1.27-5.11-1.45-6.75-.76-3-5.13-4.6-9.55a1.58,1.58,0,0,0-1.45-1.1c-3.89-.39-5.78.2-5.91,3.86a40.29,40.29,0,0,1,0,4.36c-.23,1.53.76,1.17-.77,2-.77.43-2.7-.07-3.55-.05A14,14,0,0,0,4,14.11,1.5,1.5,0,0,0,4.8,17Z"/><path d="M9.84,3.9C10,6.76,10,9.63,10,12.5a1.5,1.5,0,0,0,3,0c0-2.87,0-5.74-.16-8.6C12.73,2,9.73,2,9.84,3.9Z"/><path d="M11.25,4.95q4.91.1,9.82-.06c1.93-.06,1.93-3.06,0-3q-4.91.16-9.82.06c-1.93,0-1.93,3,0,3Z"/><path d="M19.45,3a94.19,94.19,0,0,0-.55,9.65c-.09,1.93,2.91,1.92,3,0a86.85,86.85,0,0,1,.44-8.85c.29-1.89-2.6-2.7-2.89-.8Z"/><path d="M10.57,11.3l-7.34.29c-1.92.07-1.93,3.08,0,3l7.34-.29c1.92-.07,1.93-3.08,0-3Z"/><path d="M1.43,13.18a35.82,35.82,0,0,0-.37,4,21.88,21.88,0,0,0,.72,4.64c.39,1.89,3.28,1.09,2.89-.8a16.77,16.77,0,0,1-.59-4.43c.07-1.15.2-2.3.35-3.44.24-1.91-2.76-1.89-3,0Z"/><path d="M3.22,22.94c2.72,0,5.39-.7,8.11-.58,1.93.09,1.93-2.91,0-3-2.72-.12-5.39.55-8.11.58a1.5,1.5,0,0,0,0,3Z"/><path d="M10.17,20.37a26.6,26.6,0,0,0,.08,8.45c.32,1.9,3.21,1.09,2.89-.8a22,22,0,0,1-.08-6.85c.28-1.89-2.61-2.7-2.89-.8Z"/><path d="M11.74,30.11l9.79-.43c1.92-.08,1.93-3.09,0-3l-9.79.43c-1.92.08-1.93,3.09,0,3Z"/><path d="M23.26,28.18A26.75,26.75,0,0,0,22.67,20c-.43-1.88-3.32-1.09-2.89.8a24,24,0,0,1,.48,7.34c-.15,1.93,2.85,1.92,3,0Z"/><path d="M21.22,21.94c2.67-.08,5.33.08,8,0,1.93-.06,1.93-3.06,0-3-2.67.08-5.33-.08-8,0-1.93.06-1.93,3.06,0,3Z"/><path d="M30.72,19.44c-.06-2.32.34-4.63.28-6.94-.05-1.93-3.05-1.93-3,0,.06,2.32-.34,4.63-.28,6.94.05,1.93,3.05,1.93,3,0Z"/><path d="M29.5,11c-3-.12-6,0-9,0a1.5,1.5,0,0,0,0,3c3,0,6-.12,9,0,1.93.07,1.93-2.93,0-3Z"/></g></svg>