<svg xmlns="http://www.w3.org/2000/svg" viewBox="0 0 32 32"><defs><style>.cls-1{fill:#ff0;}</style></defs><title>item-icon</title><g id="Layer_51" data-name="Layer 51"><path d="M9.88,8.08,10.69,27c.06,1.44,2.31,1.45,2.25,0L12.13,8.08c-.06-1.44-2.31-1.45-2.25,0Z"/><path d="M11.94,28.2l8.79-.07a1.13,1.13,0,0,0,0-2.25L11.94,26a1.13,1.13,0,0,0,0,2.25Z"/><path d="M18.89,8.23c0,6.22,1.34,12.52.85,18.71-.12,1.44,2.13,1.44,2.25,0,.5-6.18-.84-12.49-.85-18.71a1.13,1.13,0,0,0-2.25,0Z"/><path d="M11,9.18q4.5,0,9-.22c1.44-.06,1.45-2.31,0-2.25q-4.49.2-9,.22a1.13,1.13,0,0,0,0,2.25Z"/><path d="M11.9,5.39a25.7,25.7,0,0,0,.16,3.05A.76.76,0,0,0,13,9,.77.77,0,0,0,13.51,8a22.61,22.61,0,0,1-.11-2.65c0-1-1.53-1-1.5,0Z"/><path d="M12.92,5.67a23.29,23.29,0,0,0,4.08,0c1-.08,1-1.58,0-1.5a23.29,23.29,0,0,1-4.08,0c-1-.09-1,1.41,0,1.5Z"/><path d="M16.57,5q.17,1.56.45,3.1c.17.95,1.62.55,1.45-.4s-.3-1.8-.4-2.7-1.61-1-1.5,0Z"/><path d="M12.92,25l7.18-.23c1,0,1-1.53,0-1.5l-7.18.23c-1,0-1,1.53,0,1.5Z"/><path class="cls-1" d="M15.89,11.32A38.8,38.8,0,0,0,14,16.51a.75.75,0,0,0,1.45.4,36.1,36.1,0,0,1,1.74-4.83c.39-.87-.9-1.64-1.3-.76Z"/><path class="cls-1" d="M15.06,17.53q1.11-.49,2.18-1.08c.85-.46.09-1.76-.76-1.3S15,15.9,14.3,16.23a.76.76,0,0,0-.27,1,.77.77,0,0,0,1,.27Z"/><path class="cls-1" d="M16.24,15.53q-.42,2.53-1,5c-.23.94,1.21,1.34,1.45.4q.61-2.49,1-5c.16-.94-1.29-1.35-1.45-.4Z"/></g></svg>