<svg xmlns="http://www.w3.org/2000/svg" viewBox="0 0 32 32"><defs><style>.cls-1{fill:#8c6239;}</style></defs><title>item-icon</title><g id="Layer_57" data-name="Layer 57"><path class="cls-1" d="M13.85,11.63a62.79,62.79,0,0,0-6.68,5.8c-1.13,1.15-3,2.61-3,4.37-.08,2.26,4.36,5.82,6.4,5.73s3.59-2.43,4.76-3.63c2.18-2.23,4.37-4.43,6.62-6.58,2.79-2.67,8.15-5.57,5-9.77C25.12,5,21.8,3.63,19.2,5.76c-1.2,1-2,2.72-3.06,3.89-.85.94-1.8,1.78-2.66,2.71-1.9,2.06-3.72,4.31-5.44,6.51S6,23.51,9.1,24.27c1.09.27,3,.37,3.94-.49,1.09-1,.36-2.41.46-3.67a1.51,1.51,0,0,0-1.9-1.45l-1.27.48,1.46,2.51c2.87-3,5.3-6.34,8.11-9.38.66-.71,2.87-2.67,1.3-.94-.8.89-1.79,1.59-2.57,2.56-1.29,1.61-2.45,3.31-3.81,4.87-.2.23-1.87,1.78-1.81,2l1.57.73.7-1.17c1.58-1.63,2.68-4,4.13-5.81A57.34,57.34,0,0,1,23.6,10c1.38-1.36-.75-3.48-2.12-2.12a58.83,58.83,0,0,0-7.29,8.64c-1,1.49-3.88,4.65-3.13,6.64,1.78,4.77,8.07-4.92,9.08-6.25,1.57-2.06,10-8.07,3.65-10.59-2.28-.9-3.37.77-4.67,2.3C16,12.24,13,16.1,9.67,19.53c-1,1,0,3.06,1.46,2.51l1.27-.48-1.9-1.45a4.22,4.22,0,0,0,.18,1.72c-.22-.89-.39-.68.33-1.8a46.11,46.11,0,0,1,4.59-5.56,57.88,57.88,0,0,1,4.3-4.61c1.1-1,1.09-3.43,3.85-1.35,1.21.91.74,1.9,0,3-1.28,2-4,3.69-5.66,5.34-2,2-4.14,4-6,6.08-.89,1-.94,1.34-1.9,1.18a2.81,2.81,0,0,1-1.89-3.51c.83-2.17,5.35-5,7-6.35,1.51-1.16,0-3.77-1.51-2.59Z"/><path d="M4.87,21.19q8.46-7.85,16.64-16a1.13,1.13,0,0,0-1.59-1.59q-8.18,8.14-16.64,16c-1.06,1,.53,2.58,1.59,1.59Z"/><path d="M12.37,28.69q8.46-7.85,16.64-16a1.13,1.13,0,0,0-1.59-1.59q-8.18,8.14-16.64,16c-1.06,1,.53,2.58,1.59,1.59Z"/><path d="M2.21,21.29a8.43,8.43,0,0,0,2.91,4.57A35.26,35.26,0,0,0,10.76,29c1.29.66,2.43-1.28,1.14-1.94-1.48-.75-3-1.45-4.42-2.31a6.56,6.56,0,0,1-3.1-4.06c-.42-1.38-2.59-.79-2.17.6Z"/><path d="M20.56,5a13,13,0,0,1,4.52,2.13c1.34.93,2.06,2.77,2.55,4.28s2.62.79,2.17-.6c-.59-1.83-1.45-4-3-5.21a14.54,14.54,0,0,0-5.63-2.77c-1.41-.31-2,1.86-.6,2.17Z"/><path d="M9,19.77a34.43,34.43,0,0,1,3.08-3c.36-.32-.17-.85-.53-.53a34.43,34.43,0,0,0-3.08,3c-.32.36.21.89.53.53Z"/><path d="M20.18,17.12l4.95-4.68c.35-.33-.18-.86-.53-.53l-4.95,4.68c-.35.33.18.86.53.53Z"/><path d="M22,11.53a40.5,40.5,0,0,0,3.1-3.34c.31-.37-.22-.9-.53-.53A40.5,40.5,0,0,1,21.5,11c-.35.34.18.87.53.53Z"/><path d="M15,19.68l6.4-6.54c.34-.35-.19-.88-.53-.53l-6.4,6.54c-.34.35.19.88.53.53Z"/></g></svg>