<svg id="Layer_17" data-name="Layer 17" xmlns="http://www.w3.org/2000/svg" viewBox="0 0 32 32"><defs><style>.cls-1{fill:#bdccd4;}.cls-2{fill:#ff7bac;}.cls-3{fill:#ff1d25;}.cls-4{fill:#ff931e;}.cls-5{fill:#7ac943;}.cls-6{fill:#3fa9f5;}.cls-7{fill:#fff;}</style></defs><title>item-icon</title><path class="cls-1" d="M18.31,26.91c-3.77-1.07-7.79-2.38-10.43-5.38-4.6-5.22-3.16-11.37,3.25-14.45,4.69-2.26,12.55.91,14.79,5.81q.28,7.57-5.63,6.75a10.86,10.86,0,0,1-7.09-2.91c-1.09-3.13,3.33-4.5,5.3-1.75-1.11-1.56-3.72-.06-2.59,1.51,1.72,2.4,5.41,1.44,4.85-1.86-.59-3.48-6.6-5.24-9.27-3.46-3.94,2.63-1.67,7.48,1.66,9.58,4.46,2.81,12.59,3,15.61-2S27.09,8.61,23.09,6c-5.61-3.69-11-3.62-16.3.42C1.83,10.23.26,14.23,3.21,20s8.37,8.08,14.3,9.76a1.5,1.5,0,0,0,.8-2.89Z"/><path class="cls-2" d="M7.7,23.44c-1-3.79-1.83-7.91-.56-11.69C8.51,7.68,10.85,4.53,15.7,5a12.52,12.52,0,0,1,6.82,3.43,10.79,10.79,0,0,1,2.77,7.79c0,3.17-2,13-8.58,7.76-1.84-1.48-4.53-8-2.76-10q.8-2.48,3.52-.45.28,2.09.65,4.16c.79-1.75-1.79-3.27-2.59-1.51C14,19.43,18,21.73,20.09,18.77c1.95-2.7.52-8-2.52-9.23-4.88-2-7.52,3.89-7,8,.62,4.65,3.52,10.31,8.69,10.92,5.9.7,8.3-5.66,8.86-10.41.82-6.9-2-12.06-8.25-14.7C14.38,1,10.19,1.24,6.54,6.3c-4,5.54-3.3,11.71-1.73,17.94.47,1.87,3.37,1.08,2.89-.8Z"/><path class="cls-3" d="M5.4,12.54c3.26-3.17,6.66-6,11.3-6.51s7.71,1.21,9,5.81c1,3.67.38,7.52-2.45,10.1a15,15,0,0,1-6.47,3.61c-2.51.65-6,1.57-7.39-2.29-.5-1.44.2-3.52.91-4.78,1-1.73,4.13-5.61,6.42-5.27a2.11,2.11,0,0,1,1.75,3.12,30.12,30.12,0,0,1-2.89,2.34c1.9-.19,1.92-3.19,0-3-3.56.35-3.59,4.88,0,5.26,3.33.35,7.19-3.57,6.73-6.82-.67-4.8-6.48-4.67-9.75-2.52-4.11,2.69-7.87,8.59-5.7,13.54,2.38,5.43,9.22,4.28,13.61,2.32,5.34-2.38,9-6.89,8.57-12.82-.43-6.49-2.52-11-9.43-11.67s-11.78,3-16.38,7.46C1.89,11.77,4,13.89,5.4,12.54Z"/><path class="cls-4" d="M13.69,5.09c3.77,1.07,7.79,2.38,10.43,5.38,4.6,5.22,3.16,11.37-3.25,14.45C16.19,27.17,8.33,24,6.08,19.11q-.28-7.57,5.63-6.75a10.86,10.86,0,0,1,7.09,2.91c1.09,3.13-3.33,4.5-5.3,1.75,1.11,1.56,3.72.06,2.59-1.51-1.72-2.4-5.41-1.44-4.85,1.86.59,3.48,6.6,5.24,9.27,3.46,3.94-2.63,1.67-7.48-1.66-9.58-4.46-2.81-12.59-3-15.61,2S4.91,23.39,8.91,26c5.61,3.69,11,3.62,16.3-.42,5-3.82,6.54-7.83,3.58-13.64S20.41,3.87,14.48,2.2a1.5,1.5,0,0,0-.8,2.89Z"/><path class="cls-5" d="M24.3,8.56c1,3.79,1.83,7.91.56,11.69-1.36,4.07-3.71,7.22-8.56,6.73a12.52,12.52,0,0,1-6.82-3.43,10.79,10.79,0,0,1-2.77-7.79c0-3.17,2-13,8.58-7.76,1.84,1.48,4.53,8,2.76,10q-.8,2.48-3.52.45-.28-2.09-.65-4.16c-.79,1.75,1.79,3.27,2.59,1.51C18,12.57,14,10.27,11.91,13.23c-1.95,2.7-.52,8,2.52,9.23,4.88,2,7.52-3.89,7-8-.62-4.65-3.52-10.31-8.69-10.92C6.82,2.88,4.42,9.23,3.86,14,3,20.88,5.86,26,12.1,28.69c5.52,2.33,9.71,2.08,13.36-3,4-5.54,3.3-11.71,1.73-17.94-.47-1.87-3.37-1.08-2.89.8Z"/><path class="cls-6" d="M26.6,19.46c-3.26,3.17-6.66,6-11.3,6.51s-7.71-1.21-9-5.81c-1-3.67-.38-7.52,2.45-10.1a15,15,0,0,1,6.47-3.61c2.51-.65,6-1.57,7.39,2.29.5,1.44-.2,3.52-.91,4.78-1,1.73-4.13,5.61-6.42,5.27a2.11,2.11,0,0,1-1.75-3.12,30.12,30.12,0,0,1,2.89-2.34c-1.9.19-1.92,3.19,0,3,3.56-.35,3.59-4.88,0-5.26-3.33-.35-7.19,3.57-6.73,6.82.67,4.8,6.48,4.67,9.75,2.52,4.11-2.69,7.87-8.59,5.7-13.54-2.38-5.43-9.22-4.28-13.61-2.32-5.34,2.38-9,6.89-8.57,12.82.43,6.49,2.52,11,9.43,11.67s11.78-3,16.38-7.46c1.39-1.35-.74-3.47-2.12-2.12Z"/><circle class="cls-7" cx="16" cy="16" r="4"/></svg>