<svg xmlns="http://www.w3.org/2000/svg" viewBox="0 0 32 32"><title>item-icon</title><g id="Layer_3" data-name="Layer 3"><path d="M4.85,17.76a8.44,8.44,0,0,0,7,2.49c2.43-.27,4.42-2.89,4.61-5.2.16-1.92-2.84-1.91-3,0a2.76,2.76,0,0,1-3.09,2.2A5.13,5.13,0,0,1,7,15.63c-1.31-1.43-3.42.7-2.12,2.12Z"/><path d="M5.7,12.38c-1.84,2.7-2.44,5.73-4.05,8.52a1.5,1.5,0,0,0,2.59,1.51,15.49,15.49,0,0,0,1.94-4.27,12.59,12.59,0,0,1,2.11-4.25c1.09-1.6-1.51-3.1-2.59-1.51Z"/><path d="M3.54,11.79C8.06,13.26,12.62,15.13,17.3,16a103.44,103.44,0,0,1,11.37,3.32c1.85.57,2.64-2.32.8-2.89a102.23,102.23,0,0,0-11.37-3.32c-4.67-.9-9.24-2.76-13.75-4.24-1.84-.6-2.63,2.3-.8,2.89Z"/></g></svg>