<svg xmlns="http://www.w3.org/2000/svg" viewBox="0 0 32 32"><title>item-icon</title><g id="Layer_8" data-name="Layer 8"><path d="M10.49,24c3.88-6,8-11.76,12.42-17.37C24.08,5.11,22,3,20.78,4.49c-4.57,5.81-8.87,11.77-12.89,18C6.84,24.09,9.44,25.6,10.49,24Z"/><path d="M13.69,4.1c-.17,3.18-.61,8.88,3.29,10,4.26,1.25,7.42-.5,10.18-3.67C28.42,9,26.3,6.87,25,8.33c-1.71,2-3.77,3.95-6.61,3.06-2.5-.78-1.85-5.2-1.73-7.29.1-1.93-2.9-1.92-3,0Z"/><path d="M3.63,16.09a91.64,91.64,0,0,0,12.51-1.21c1.9-.31,1.09-3.2-.8-2.89a85.76,85.76,0,0,1-11.71,1.1c-1.93.05-1.93,3.05,0,3Z"/><path d="M14.28,14c1.15,3.59,2.41,7.14,3.63,10.71.62,1.82,3.52,1,2.89-.8-1.22-3.57-2.48-7.12-3.63-10.71-.58-1.83-3.48-1-2.89.8Z"/></g></svg>