<svg xmlns="http://www.w3.org/2000/svg" viewBox="0 0 32 32"><defs><style>.cls-1{fill:#8c6239;}</style></defs><title>item-icon</title><g id="Layer_10" data-name="Layer 10"><path class="cls-1" d="M5.11,5.56c-3,2-3.43,5.4-2.27,8.6,1,2.8,3.3,4.56,5.85,5.91,2,1,5.15.69,6.16-1.61q.51-1-.56.46a2.26,2.26,0,0,0,.81-.52,4.88,4.88,0,0,0,1.55-2,5.31,5.31,0,0,0-.4-4.83,5.86,5.86,0,0,0-1.82-1.84c-1.64-1.17.81.88.69,1.12.15-.3-.53-1.52-.66-1.76A5.7,5.7,0,0,0,12.36,7,4.54,4.54,0,0,0,6.2,8.61a4.6,4.6,0,0,0,1.61,6.16l.29.18L6.49,13.34q-.21-.76-.09-.27.06.26.13.51a6.27,6.27,0,0,0,1,1.85A5.74,5.74,0,0,0,9,16.85l.29.22q1.34.94-1-1.49V13.19l.25-.59L10.1,11a6.09,6.09,0,0,0-3,2.94l6.16-1.61c-.54-.29-1.06-.58-1.58-.9s-.5-.34-.12-.08q-.46-.5-.18-.12t-.1-.17q.26.75,0,0t0,0q0-1.19-.28.88L9.35,13.53l.3-.2c1.94-1.32,3-4,1.61-6.16C10,5.24,7.19,4.14,5.11,5.56Z"/><path d="M19.09,13.28c-1.27-3.55-3.66-7.74-7.4-9.15S5.14,4.06,3,7.23.15,14.52,2.69,17.69c2.39,3,7.1,4.45,10.66,5.31,1.88.45,2.68-2.44.8-2.89C9.41,19,1.75,16.28,4.76,10c3.51-7.33,9.69-.78,11.43,4.09.65,1.8,3.55,1,2.89-.8Z"/><path d="M15.19,21.31a10.22,10.22,0,0,0-3-3.86l-.91,1.18a11.64,11.64,0,0,0,4.32,1,.75.75,0,0,0,.72-.95,5.67,5.67,0,0,0-1.8-2.55l-.73,1.25a17.48,17.48,0,0,0,3.56.25c.51,0,1-.65.65-1.13L15.46,13.2l-1,1a5.21,5.21,0,0,0,3.57.61c1-.09,1-1.59,0-1.5a4,4,0,0,1-2.81-.4c-.6-.39-1.49.42-1,1l2.52,3.31.65-1.13a15.48,15.48,0,0,1-3.16-.19c-.65-.11-1.38.73-.73,1.25a4.25,4.25,0,0,1,1.42,1.89l.72-.95a9.52,9.52,0,0,1-3.57-.8c-.7-.31-1.64.6-.91,1.18a9.34,9.34,0,0,1,2.78,3.56c.4.88,1.69.12,1.3-.76Z"/><path d="M13.3,19.33c1.79.47,3.21,1.54,4.85,2.35s4,1,5.2,2.55c.58.76,1.88,0,1.3-.76-1.3-1.7-3-2-4.92-2.74-2.09-.82-3.83-2.28-6-2.85a.75.75,0,0,0-.4,1.45Z"/><path d="M16.46,17.35a40.46,40.46,0,0,1,5.43,2.38,31.08,31.08,0,0,0,4.48,1.85c.89.36,1.28-1.09.4-1.45s-1.95-.5-2.85-.94-1.54-1-2.36-1.35c-1.52-.73-3.13-1.31-4.69-1.95-.89-.36-1.28,1.09-.4,1.45Z"/><path d="M23.27,24.23c0,1-.15,2.36.75,3.07a3.64,3.64,0,0,0,3.17.16c2.46-.94,1.49-3.8-.54-4.53l-.2,1.47c1.53-.18,3.62-1,3.76-2.81.17-2.06-1.94-1.94-3.34-1.95a.75.75,0,0,0,0,1.5c.43,0,2.14-.39,1.57.85-.27.58-1.47.85-2,.91a.75.75,0,0,0-.2,1.47c.59.21,1.42,1,.58,1.62a2.42,2.42,0,0,1-1.27.21c-1-.11-.76-1.17-.78-2,0-1-1.53-1-1.5,0Z"/></g></svg>