<svg xmlns="http://www.w3.org/2000/svg" viewBox="0 0 32 32"><title>item-icon</title><g id="Layer_44" data-name="Layer 44"><path d="M9.65,15.46A12.67,12.67,0,0,1,9.95,8.6c.86-2.86,2.83-4.17,5.82-4.08,2.79.08,4.5.77,5.17,3.69a27,27,0,0,1,.55,7.54c-.08,1.45,2.17,1.44,2.25,0,.18-3.31.24-8.25-1.63-11.16-1.26-2-4.92-2.56-7-2.46-2.53.12-5.46,1.46-6.54,3.8a15.5,15.5,0,0,0-1,10.12c.34,1.41,2.52.81,2.17-.6Z"/><path d="M7,18.52c2.76-1.27,5.51-1.16,8.49-1.08,2.34.06,7.34-.62,9,1.26,1,1.08,2.55-.51,1.59-1.59-2.25-2.52-6.11-1.81-9.18-1.88-3.92-.1-7.42-.31-11,1.35-1.31.6-.17,2.54,1.14,1.94Z"/><path d="M4.65,18a97.12,97.12,0,0,0,.91,9.7c.15,1.43,2.4,1.44,2.25,0A97.13,97.13,0,0,1,6.9,18a1.13,1.13,0,0,0-2.25,0Z"/><path d="M6.19,28.77c2.21,1.53,5,1.16,7.61,1.07a51.19,51.19,0,0,0,9.86-1.24c1.41-.33.81-2.5-.6-2.17A46.22,46.22,0,0,1,15,27.54c-2.29.12-5.68.67-7.68-.72C6.13,26,5,28,6.19,28.77Z"/><path d="M24.36,18.45c.19,2.94-.88,5.78-.65,8.77.11,1.43,2.36,1.45,2.25,0-.23-3,.85-5.82.65-8.77-.09-1.44-2.34-1.45-2.25,0Z"/><path d="M12.66,10.75a1.8,1.8,0,0,0,0-3.6,1.8,1.8,0,0,0,0,3.6Z"/><path d="M18.54,10.82a1.8,1.8,0,0,0,0-3.6,1.8,1.8,0,0,0,0,3.6Z"/><path d="M11.62,18.93a3.38,3.38,0,0,0,0,2.18,2,2,0,0,0,2.3,1.12,2.19,2.19,0,0,0,1.45-1.68,2.76,2.76,0,0,0-.67-2.37,1.51,1.51,0,0,0-2.12,0,1.54,1.54,0,0,0,0,2.12.58.58,0,0,1,.42-.94h.8q.63.26.59.79,0,.31,0,0c0-.14.06-.28.09-.42a1.5,1.5,0,1,0-2.89-.8Z"/><path d="M15.81,19.46a7.33,7.33,0,0,0,.61,2.06A1.87,1.87,0,0,0,19,22.2a2.24,2.24,0,0,0,.91-2.37,3,3,0,0,0-1.35-2,1.51,1.51,0,0,0-2.05.54A1.53,1.53,0,0,0,17,20.46a.24.24,0,0,1-.13-.14q.13.23,0,0,.07.26,0,0a.85.85,0,0,1,.42-.71l.76-.2L19,20q.1.24,0,.08a1.91,1.91,0,0,0-.1-.43l-.22-.94a1.5,1.5,0,0,0-2.89.8Z"/><path d="M10.67,25.77q4.85-.17,9.69-.55c1-.07,1-1.58,0-1.5q-4.84.38-9.69.55c-1,0-1,1.53,0,1.5Z"/><path d="M11,3.35a6.58,6.58,0,0,0-5.94,2C3.89,6.59,2.29,9.17,2.94,11c.76,2.12,3.2,1,4.23-.22A14,14,0,0,0,8.92,7.88c.63-1.23,1.51-2.27,2.17-3.47.47-.84-.83-1.6-1.3-.76-.67,1.2-1.54,2.24-2.17,3.47-.41.8-1.4,3.35-2.48,3.43-.47,0-.73-.71-.72-1a3.06,3.06,0,0,1,.29-.84A7.43,7.43,0,0,1,6,6.56,5.07,5.07,0,0,1,10.64,4.8C11.59,5,12,3.51,11,3.35Z"/><path d="M21,5.2C21.88,7,23,10,25,10.87a3,3,0,0,0,4-1.75c1.71-5-4.71-6.67-8.35-5.63A.75.75,0,0,0,21,4.95c2.33-.67,7.36-.24,6.63,3.32a1.5,1.5,0,0,1-1.91,1.29c-.55-.18-.93-.78-1.24-1.23a26.23,26.23,0,0,1-2.16-3.9c-.41-.87-1.7-.11-1.3.76Z"/></g></svg>