<svg xmlns="http://www.w3.org/2000/svg" viewBox="0 0 32 32"><title>item-icon</title><g id="Layer_31" data-name="Layer 31"><path d="M1.8,4l-.19.44A1.51,1.51,0,0,0,3.66,6.53,14.2,14.2,0,0,1,7.28,5.19L5.58,3C4.74,4.8,3.09,6,2,7.72c-.86,1.35.79,2.67,2.05,2.05l4.19-2L6.22,5.68l-4,6.12c-.78,1.2.83,3,2.05,2.05A68.32,68.32,0,0,1,15.88,6.51L14.06,4.15,7,11.72a1.5,1.5,0,0,0,2.12,2.12A60.45,60.45,0,0,1,16,8.13L13.93,6.08c-1.91,3.26-5.75,6-8.57,8.49l2.12,2.12a55.1,55.1,0,0,1,8.95-7L14.61,7.33C10.44,12.16,5.11,15.76.92,20.58A1.5,1.5,0,0,0,3,22.7c5.74-4.45,11.49-8.86,17.45-13L18.44,7.63a82.72,82.72,0,0,1-7.32,9c-1.26,1.44.76,3.52,2.12,2.12A143.08,143.08,0,0,1,24.36,8.25L22,6.43c-3.47,6-10.58,11-15.77,15.47L8.35,24a97.16,97.16,0,0,1,10.21-8.86l-2.05-2.05C13.61,17.78,8.84,21.43,4.9,25.2c-1.4,1.34.69,3.4,2.12,2.12,4.23-3.8,8.6-7.79,13.81-10.18l-2.26-1.3C18.47,17.7,12.3,21.9,11,23l2.12,2.12a84.41,84.41,0,0,1,8.22-7.4L19,15.94c-2.35,3.43-5.82,6.39-8.77,9.31-1.39,1.38.68,3.37,2.12,2.12,2.87-2.48,5.75-5,8.84-7.18,1.28-.91,6.74-5.3,8.45-4.76l-.9-2.2c-1.55,3.67-5.81,6.64-8.77,9.16l2.36,1.82a27.75,27.75,0,0,1,5.14-5.42l-2.12-2.12a39.45,39.45,0,0,1-5.65,5.89L22,24.36l1.28-1.55-2.12-2.12A58.67,58.67,0,0,1,16,26.12c-1.43,1.32.68,3.39,2.12,2.12a9.63,9.63,0,0,1,4.56-2.57L21,23.47a30.74,30.74,0,0,1-2.63,3.21C17.27,27.9,18.67,30,20.17,29a24.48,24.48,0,0,1,5.77-2.87L24.24,24l-1.57,2.1c-1,1.31.85,2.65,2.05,2.05l1.51-.62-1.69-2.2-.68,1.55a1.54,1.54,0,0,0,.54,2.05l1.13.65A1.5,1.5,0,0,0,27,27l-1.13-.65.54,2.05.68-1.55c.48-1.09-.32-2.65-1.69-2.2a14,14,0,0,0-2.23.92l2.05,2.05,1.57-2.1c.78-1-.52-2.61-1.69-2.2a28.85,28.85,0,0,0-6.48,3.17l1.82,2.36A47.8,47.8,0,0,0,23.57,25c.77-1.07-.51-2.58-1.69-2.2A15.8,15.8,0,0,0,16,26.12l2.12,2.12a58.67,58.67,0,0,0,5.2-5.44,1.5,1.5,0,0,0-2.12-2.12,7.43,7.43,0,0,0-1.75,2.15c-.94,1.52,1.11,2.87,2.36,1.82a39.45,39.45,0,0,0,5.65-5.89,1.5,1.5,0,0,0-2.12-2.12,31,31,0,0,0-5.61,6c-1.05,1.47,1.14,2.85,2.36,1.82,3.26-2.78,7.53-5.73,9.23-9.77a1.53,1.53,0,0,0-.9-2.2c-2.68-.85-6.62,2.33-8.68,3.66a104.06,104.06,0,0,0-11.53,9.05l2.12,2.12c3.17-3.15,6.7-6.21,9.24-9.91,1-1.52-1.13-2.78-2.36-1.82A84.41,84.41,0,0,0,11,23c-1.36,1.4.67,3.38,2.12,2.12,2.51-2.18,8.25-5.63,8.47-9.31a1.52,1.52,0,0,0-2.26-1.3C13.93,17,9.28,21.27,4.9,25.2L7,27.32c4.15-4,9-7.75,12.07-12.69.75-1.21-.82-3-2.05-2.05A102.82,102.82,0,0,0,6.23,21.9c-1.38,1.38.68,3.38,2.12,2.12C13.76,19.32,21,14.25,24.59,7.95a1.51,1.51,0,0,0-2.36-1.82,143.09,143.09,0,0,0-11.12,10.5l2.12,2.12A88.1,88.1,0,0,0,21,9.15c.8-1.22-.82-2.91-2.05-2.05C12.81,11.39,6.86,16,.92,20.58L3,22.7c4.19-4.82,9.52-8.42,13.69-13.25,1.06-1.22-.29-3.31-1.82-2.36a58.77,58.77,0,0,0-9.55,7.48C4,15.92,6,18,7.49,16.69c3.11-2.72,6.92-5.5,9-9.1.73-1.24-.78-2.92-2.05-2.05A65.47,65.47,0,0,0,7,11.72l2.12,2.12,7.1-7.56a1.51,1.51,0,0,0-1.82-2.36A68.32,68.32,0,0,0,2.8,11.26l2.05,2.05,4-6.12C9.68,5.85,8,4.53,6.76,5.15l-4.19,2L4.62,9.24C5.71,7.51,7.31,6.37,8.17,4.5a1.52,1.52,0,0,0-1.69-2.2A25,25,0,0,0,2.15,3.94L4.2,6l.19-.44C5.15,3.8,2.56,2.27,1.8,4Z"/></g></svg>