<svg xmlns="http://www.w3.org/2000/svg" viewBox="0 0 32 32"><defs><style>.cls-1{fill:#d9e021;}</style></defs><title>item-icon</title><g id="Layer_40" data-name="Layer 40"><path class="cls-1" d="M11.86,23.93c1.18-1.08,2.75-.28,4.07,0a5.1,5.1,0,0,0,2.89-.11c.9-.32.51-1.77-.4-1.45-2.6.93-5.23-1.71-7.62.49-.71.65.35,1.71,1.06,1.06Z"/><path class="cls-1" d="M18,24c1.21,1.6,2.34,3.72,4,4.9l.58-1.37c-2.18-.41-4.36-.87-6.56-1.17-2-.28-4-.07-6.05-.31l.53,1.28c.8-.81,1.51-2.4,2.35-3A.75.75,0,0,0,12,23l-.33.16c-.72.36-.3,1.35.38,1.4,2.69.2,6.13-.28,7.16,2.86l.92-.92a79.54,79.54,0,0,0-8.28-1.33l.72.95c.2-.54,5-.29,5.13.12.22.94,1.66.54,1.45-.4-.39-1.7-2.81-1.36-4.13-1.46-1.63-.12-3.24-.45-3.89,1.34-.18.5.28.9.72.95A75.67,75.67,0,0,1,19.77,28,.76.76,0,0,0,20.7,27c-.4-1.23-1-2.69-2.22-3.3-1.74-.86-4.5-.53-6.39-.67l.38,1.4.33-.16L12,23c-1.13.84-1.63,2.23-2.65,3.26a.76.76,0,0,0,.53,1.28c1.95.23,3.9,0,5.85.3,2.13.28,4.25.74,6.37,1.13a.75.75,0,0,0,.58-1.37c-1.35-1-2.45-3.05-3.45-4.37-.58-.76-1.88,0-1.3.76Z"/><path d="M12.9,11.33a40.36,40.36,0,0,0-.65,7.39.75.75,0,0,0,1.5,0,38.15,38.15,0,0,1,.59-7c.17-.94-1.28-1.35-1.45-.4Z"/><path d="M13.51,11.87l3.79,0a.75.75,0,0,0,0-1.5l-3.79,0a.75.75,0,0,0,0,1.5Z"/><path d="M16.76,11.08c.07,2.52-.64,5-.52,7.49,0,1,1.54,1,1.5,0-.12-2.52.6-5,.52-7.49,0-1-1.53-1-1.5,0Z"/><path d="M12.24,18.71a39.41,39.41,0,0,1-4.65,8.5c-.56.79.74,1.54,1.3.76a41,41,0,0,0,4.8-8.86c.35-.9-1.1-1.29-1.45-.4Z"/><path d="M8.19,28.45a53,53,0,0,1,8.17.44,61.92,61.92,0,0,0,7.05,1.06.75.75,0,0,0,0-1.5c-2.53-.05-5-.83-7.54-1.13a54.75,54.75,0,0,0-7.68-.36.75.75,0,0,0,0,1.5Z"/><path d="M16.27,19.24a27.53,27.53,0,0,0,3.18,5.08c.45.59.91,1.16,1.36,1.74.63.81,2,2,2.27,3.07l.52-.92-.14,0c-1,.13-.55,1.57.4,1.45l.14,0a.75.75,0,0,0,.52-.92c-.47-1.5-2.11-3-3.08-4.26a31,31,0,0,1-3.89-6c-.41-.87-1.7-.11-1.3.76Z"/><path d="M14.07,9.27a.75.75,0,0,0,0-1.5.75.75,0,0,0,0,1.5Z"/><path d="M13,3.54A.75.75,0,0,0,13,2a.75.75,0,0,0,0,1.5Z"/><path d="M15.86,6.85a.75.75,0,0,0,0-1.5.75.75,0,0,0,0,1.5Z"/></g></svg>