<svg xmlns="http://www.w3.org/2000/svg" viewBox="0 0 32 32"><title>item-icon</title><g id="Layer_7" data-name="Layer 7"><path d="M6.87,18.6c3.78,0,8.95.11,11.27-3.33,2-3,3.38-7.33,1.36-10.66-1-1.65-3.59-.14-2.59,1.51,1.31,2.16.26,5.85-1.36,7.64-1.88,2.07-6.08,1.86-8.68,1.84a1.5,1.5,0,0,0,0,3Z"/><path d="M3.11,6.61c8.63.43,17.14.2,25.78.1a1.5,1.5,0,0,0,0-3c-8.63.1-17.15.32-25.78-.1-1.93-.1-1.92,2.9,0,3Z"/><path d="M5,6.06Q4.78,16.49,4,26.89c-.15,1.92,2.85,1.91,3,0q.83-10.4,1-20.82c0-1.93-3-1.93-3,0Z"/></g></svg>