<svg xmlns="http://www.w3.org/2000/svg" viewBox="0 0 32 32"><title>item-icon</title><g id="Layer_53" data-name="Layer 53"><path d="M3.15,11.69a104.58,104.58,0,0,1-.08,11.85C3,25,5.23,25,5.32,23.55A104.58,104.58,0,0,0,5.4,11.69c-.07-1.44-2.32-1.45-2.25,0Z"/><path d="M4.12,12.5c7.56-.94,15.14-.15,22.73-.4,1.44,0,1.45-2.3,0-2.25-7.59.24-15.17-.55-22.73.4-1.42.18-1.44,2.43,0,2.25Z"/><path d="M4.68,24.79c7.66-1.68,15.47.09,23.19-.93,1.42-.19,1.43-2.44,0-2.25-7.94,1-15.92-.72-23.79,1-1.41.31-.82,2.48.6,2.17Z"/><path d="M25.92,10.61,26.61,23c.08,1.44,2.33,1.45,2.25,0l-.69-12.37c-.08-1.44-2.33-1.45-2.25,0Z"/><path d="M17.24,12.86c-2.44.28-4.2,3.56-3.53,5.89.78,2.67,3.84,3.93,6.38,3.46,2.37-.44,4.23-3.82,3.47-6.1-.85-2.55-4-4.81-6.54-3.33a.75.75,0,0,0,.76,1.3c1.6-.92,3.6.72,4.22,2.22.73,1.77-.86,4.34-2.63,4.5a4,4,0,0,1-3.92-1.84c-.78-1.22,0-4.39,1.77-4.59.95-.11,1-1.61,0-1.5Z"/><path d="M14.19,8.58a4.46,4.46,0,0,1-.13,1.88.75.75,0,0,0,1.45.4,6.26,6.26,0,0,0,.13-2.68.76.76,0,0,0-.92-.52.77.77,0,0,0-.52.92Z"/><path d="M15.14,9.12C17.59,9,20,9.46,22.46,9c.95-.17.55-1.62-.4-1.45-2.29.41-4.61-.11-6.92,0-1,.06-1,1.56,0,1.5Z"/><path d="M21.83,8.82c-.11-.13,0,.1,0,.22s0,.3,0,.45c0,.33,0,.66,0,1a.75.75,0,0,0,1.5,0,4.19,4.19,0,0,0-.42-2.73.76.76,0,0,0-1.06,0,.77.77,0,0,0,0,1.06Z"/><path d="M7.93,20.64a37.31,37.31,0,0,1,4.12-.1c1,0,1-1.47,0-1.5a37.31,37.31,0,0,0-4.12.1c-1,.08-1,1.58,0,1.5Z"/><path d="M8.24,14.92a.75.75,0,0,0,0-1.5.75.75,0,0,0,0,1.5Z"/><path d="M6.5,12.29a1.5,1.5,0,0,0,0-3,1.5,1.5,0,0,0,0,3Z"/><path d="M9,12.13a1.5,1.5,0,0,0,0-3,1.5,1.5,0,0,0,0,3Z"/></g></svg>