<svg xmlns="http://www.w3.org/2000/svg" viewBox="0 0 32 32"><title>item-icon</title><g id="Layer_36" data-name="Layer 36"><path d="M4.17,16q.25,6.08,0,12.15c0,1,1.46,1,1.5,0Q5.92,22,5.67,16c0-1-1.54-1-1.5,0Z"/><path d="M5.15,29.35c7.65-.17,15.3-.17,23-.17a.75.75,0,0,0,0-1.5c-7.65,0-15.3,0-23,.17a.75.75,0,0,0,0,1.5Z"/><path d="M27.35,16c0,4.08,0,8.16.16,12.23,0,1,1.54,1,1.5,0-.17-4.07-.16-8.16-.16-12.23a.75.75,0,0,0-1.5,0Z"/><path d="M5.15,16.35c7.65-.17,15.3-.17,23-.17a.75.75,0,0,0,0-1.5c-7.65,0-15.3,0-23,.17a.75.75,0,0,0,0,1.5Z"/><path d="M19.75,7.45l-1.41,7.87c-.17.94,1.28,1.35,1.45.4L21.2,7.85c.17-.94-1.28-1.35-1.45-.4Z"/><path d="M23.41,7.59A42.11,42.11,0,0,0,25.21,15a.75.75,0,0,0,1.45-.4,40.16,40.16,0,0,1-1.75-7c-.09-1-1.59-1-1.5,0Z"/><path d="M20.68,8.09a10.55,10.55,0,0,1,3.17-.19c1,.08,1-1.42,0-1.5a11.9,11.9,0,0,0-3.57.24c-.94.2-.54,1.65.4,1.45Z"/><path d="M21.78,5.39c-1.41-2.15-3.6-2.59-6.07-2.2S10.84,5,8.41,4.54C6.74,4.25,5.48,3.3,3.73,3.36c-.48,0-.48.77,0,.75C6.09,4,7.92,5.56,10.29,5.31c3.48-.37,8.16-3.61,10.84.46.26.4.91,0,.65-.38Z"/><path d="M15.41,5.81c-1.25-.55-2,.51-3.11.89-.45.16-.26.89.2.72.73-.26,1.72-1.32,2.53-1,.44.19.82-.45.38-.65Z"/><path d="M5.31,16.15c.73-.49,1.47-1,2.23-1.39a8.34,8.34,0,0,1,2.4-1.16l-.73-.19a9.4,9.4,0,0,1,.11,1.69c.09,1,1.59,1,1.5,0s.12-3.36-1.52-2.9a11.45,11.45,0,0,0-2.19,1.09c-.88.48-1.73,1-2.56,1.57s0,1.84.76,1.3Z"/><path d="M11.11,15.78q2.15-1.28,4.38-2.41c.86-.44.1-1.73-.76-1.3q-2.23,1.14-4.38,2.41a.75.75,0,0,0,.76,1.3Z"/><path d="M14.47,12.67a7.1,7.1,0,0,0,.35,2.2c.3.91,1.75.52,1.45-.4a5.72,5.72,0,0,1-.3-1.8.75.75,0,0,0-1.5,0Z"/><path d="M15.91,15.6A20.78,20.78,0,0,1,19.37,13a.75.75,0,0,0-.76-1.3,22.69,22.69,0,0,0-3.76,2.79c-.71.65.35,1.71,1.06,1.06Z"/><path d="M8.52,18.88H9.65a.75.75,0,0,0,0-1.5H8.52a.75.75,0,0,0,0,1.5Z"/><path d="M13.52,18.88h1.13a.75.75,0,0,0,0-1.5H13.52a.75.75,0,0,0,0,1.5Z"/><path d="M18.52,18.88h1.13a.75.75,0,0,0,0-1.5H18.52a.75.75,0,0,0,0,1.5Z"/><path d="M23.52,18.88h1.13a.75.75,0,0,0,0-1.5H23.52a.75.75,0,0,0,0,1.5Z"/><path d="M8.52,21.88H9.65a.75.75,0,0,0,0-1.5H8.52a.75.75,0,0,0,0,1.5Z"/><path d="M13.52,21.88h1.13a.75.75,0,0,0,0-1.5H13.52a.75.75,0,0,0,0,1.5Z"/><path d="M18.52,21.88h1.13a.75.75,0,0,0,0-1.5H18.52a.75.75,0,0,0,0,1.5Z"/><path d="M23.52,21.88h1.13a.75.75,0,0,0,0-1.5H23.52a.75.75,0,0,0,0,1.5Z"/><path d="M8.52,24.88H9.65a.75.75,0,0,0,0-1.5H8.52a.75.75,0,0,0,0,1.5Z"/><path d="M13.52,24.88h1.13a.75.75,0,0,0,0-1.5H13.52a.75.75,0,0,0,0,1.5Z"/><path d="M18.52,24.88h1.13a.75.75,0,0,0,0-1.5H18.52a.75.75,0,0,0,0,1.5Z"/><path d="M23.52,24.88h1.13a.75.75,0,0,0,0-1.5H23.52a.75.75,0,0,0,0,1.5Z"/></g></svg>