<svg xmlns="http://www.w3.org/2000/svg" viewBox="0 0 32 32"><defs><style>.cls-1{fill:#0071bc;}</style></defs><title>item-icon</title><g id="Layer_19" data-name="Layer 19"><path class="cls-1" d="M9.65,19.82a2.4,2.4,0,0,0-2.83.68,5,5,0,0,0-1.05,2.91,4.66,4.66,0,0,0,.49,2.88,4.79,4.79,0,0,0,2.64,1.8,13,13,0,0,0,3.91.69,4.74,4.74,0,0,0,2.46-.47,3.88,3.88,0,0,0,1.39-1.47,4.54,4.54,0,0,0-.3-5.23,7.07,7.07,0,0,0-1.5-1.13,9.47,9.47,0,0,0-2.08-1.06,3.19,3.19,0,0,0-2.28,0"/><path d="M10.05,18.38C6.14,17,4,21.31,4.25,24.61c.28,4.32,5.18,5.76,8.87,5.68a5.84,5.84,0,0,0,5.58-7.16C18,19.73,13.4,17,10.1,18c-1.83.59-1,3.49.8,2.89,1.4-.45,3.72.72,4.54,1.94a2.93,2.93,0,0,1-2.31,4.42c-1.45.09-3.91-.27-5-1.28-1-.85-1.45-5.64,1.18-4.74,1.83.63,2.62-2.27.8-2.89Z"/><path d="M9.94,16.86a10.65,10.65,0,0,0-2.65-.56,1.51,1.51,0,0,0-1.5,1.5,1.54,1.54,0,0,0,1.5,1.5,6.47,6.47,0,0,1,.83.14,9.13,9.13,0,0,1,1,.31,1.51,1.51,0,0,0,1.85-1,1.54,1.54,0,0,0-1-1.85Z"/><path d="M11.8,18.42v-.1l-.2.76a.74.74,0,0,1-.39.35q-.2.08.11,0l.56-.17L13,18.88a1.5,1.5,0,0,0-.8-2.89c-.64.19-1.29.36-1.91.59a2,2,0,0,0-1.5,1.84,1.5,1.5,0,0,0,1.5,1.5,1.54,1.54,0,0,0,1.5-1.5Z"/><path class="cls-1" d="M20.93,13.39a.92.92,0,0,0-1,.14,2.48,2.48,0,0,0-.62.81A4,4,0,0,0,18.77,16,2.72,2.72,0,0,0,20,18.27a4.76,4.76,0,0,0,2.54.78A4.47,4.47,0,0,0,25,18.56a2.45,2.45,0,0,0,1.28-2.07,3.54,3.54,0,0,0-1.34-2.33,4.91,4.91,0,0,0-1.56-1.09,2.07,2.07,0,0,0-1.84.11"/><path d="M21.33,11.94c-2.53-.64-4.33,2.45-4,4.68.41,2.92,3.59,4.17,6.22,3.9s5-2.54,4-5.31-4.09-4.54-6.74-3.34c-1.76.8-.23,3.38,1.51,2.59.69-.31,2,.93,2.26,1.5.61,1.21-.8,1.59-1.78,1.59a2.7,2.7,0,0,1-2.24-.84,1.18,1.18,0,0,1-.08-1.23c.16-.46.59-.52.09-.65,1.87.48,2.67-2.42.8-2.89Z"/><path d="M21.44,10.9a5.77,5.77,0,0,0-2.53-.66,1.51,1.51,0,0,0-1.5,1.5,1.53,1.53,0,0,0,1.5,1.5l.33,0c-.19,0,.12,0,.18,0a2,2,0,0,1,.5.18A1.53,1.53,0,0,0,22,13a1.52,1.52,0,0,0-.54-2.05Z"/><path d="M21.76,13.19A3.39,3.39,0,0,1,23.25,12a1.51,1.51,0,0,0,.54-2.05,1.53,1.53,0,0,0-2.05-.54,5.89,5.89,0,0,0-2.09,1.67,1.55,1.55,0,0,0,0,2.12,1.51,1.51,0,0,0,2.12,0Z"/><path class="cls-1" d="M10.42,5.34a2.39,2.39,0,0,0-1.76.86,3.56,3.56,0,0,0-1,1.92,3,3,0,0,0,1.8,3.1,3,3,0,0,0,3.44-1,3.66,3.66,0,0,0,.61-2.43,3.05,3.05,0,0,0-.86-2,1.78,1.78,0,0,0-2.08-.3"/><path d="M10.42,3.84A4.71,4.71,0,0,0,6.23,9.16a4.4,4.4,0,0,0,5,3.69A4.68,4.68,0,0,0,15,7.48C14.7,4.89,12.38,3,9.84,4.18,8.09,5,9.61,7.59,11.35,6.77c.64-.3.72,1.48.68,1.73a1.52,1.52,0,0,1-1.46,1.41c-1.8,0-1.8-3-.16-3.07,1.92-.11,1.93-3.11,0-3Z"/><path d="M10.94,3.42a8,8,0,0,0-2.06-.93A1.52,1.52,0,0,0,7,3.54a1.53,1.53,0,0,0,1,1.85A4.62,4.62,0,0,1,9.42,6a1.5,1.5,0,0,0,1.51-2.59Z"/><path d="M11.51,5.93a12.85,12.85,0,0,1,2.43-1.27,1.54,1.54,0,0,0,1-1.85,1.51,1.51,0,0,0-1.85-1A16.42,16.42,0,0,0,10,3.34a1.53,1.53,0,0,0-.54,2.05,1.52,1.52,0,0,0,2.05.54Z"/></g></svg>