<svg xmlns="http://www.w3.org/2000/svg" viewBox="0 0 32 32"><title>item-icon</title><g id="Layer_32" data-name="Layer 32"><path d="M10.1,6.05C4.19,8.27,2.74,15.42,4.36,21c2,7,9.58,9,15.91,6.82s7.48-9.66,5.17-15.38C22.74,5.71,16.71,5.84,10.5,6c-1.93,0-1.93,3,0,3,3.64-.09,7.45-.85,10.31,1.9,3.25,3.14,4,9.91.36,12.89s-9.5,2.74-12.48-.92-2.94-12,2.21-13.92c1.79-.67,1-3.57-.8-2.89Z"/><path d="M14.71,7.8a7.9,7.9,0,0,0,0-2.9,1.51,1.51,0,0,0-1.85-1,1.53,1.53,0,0,0-1,1.85,4.09,4.09,0,0,1,0,1.3,1.53,1.53,0,0,0,1,1.85,1.52,1.52,0,0,0,1.85-1Z"/><path d="M13.86,17.29a1.14,1.14,0,0,0,.81,1.08c.91.34,1.3-1.11.4-1.45l.19.11.1.38v-.12c-.06-1-1.56-1-1.5,0Z"/><path d="M12,10a14.45,14.45,0,0,1,.18,2.43c0,.48.78.48.75,0a15.55,15.55,0,0,0-.21-2.63c-.11-.47-.84-.27-.72.2Z"/><path d="M12.16,10a4.83,4.83,0,0,0,2.09,2.31c.22.13.6,0,.56-.32l-.29-2.48c-.06-.47-.81-.48-.75,0L14.07,12l.56-.32a4.19,4.19,0,0,1-1.82-2c-.19-.44-.84-.06-.65.38Z"/><path d="M17.24,12.86c-.53,1.79-1.44,3.42-2.06,5.18-.16.46.56.65.72.2.62-1.76,1.52-3.39,2.06-5.18a.38.38,0,0,0-.72-.2Z"/><path d="M17.39,12.75q-1.82,1.76-3.56,3.59c-.33.35.2.88.53.53q1.74-1.83,3.56-3.59c.35-.34-.18-.87-.53-.53Z"/><path d="M15.14,18.16q-1.86,2-3.66,4c-.32.36.21.89.53.53q1.8-2,3.66-4c.33-.35-.2-.88-.53-.53Z"/><path d="M13.48,16.83Q12.27,19.37,11.17,22c-.19.44.46.82.65.38q1.1-2.59,2.31-5.13c.21-.43-.44-.81-.65-.38Z"/><path d="M16.25,22.1a.93.93,0,0,0-1.64.16.68.68,0,0,0,.2.83,2.08,2.08,0,0,0,.53.23c.73.27-.15.72-.28.49-.23-.42-.88,0-.65.38.41.76,1.62.45,1.92-.26a.89.89,0,0,0-.19-1,1.45,1.45,0,0,0-.52-.3c-.55-.21,0-.18,0-.14.26.41.91,0,.65-.38Z"/><path d="M19.92,15.85q0,1,.17,1.9c.06.47.81.48.75,0q-.13-.94-.17-1.9c0-.48-.77-.48-.75,0Z"/><path d="M20.56,18.19a7,7,0,0,1,1.19-.08.38.38,0,0,0,0-.75,8.2,8.2,0,0,0-1.39.1c-.48.07-.27.8.2.72Z"/><path d="M20.33,16.15a8.79,8.79,0,0,0,1,0c.48,0,.48-.8,0-.75a8.79,8.79,0,0,1-1,0,.38.38,0,0,0,0,.75Z"/><path d="M20.42,17.14a6.78,6.78,0,0,0,.77,0c.48,0,.48-.79,0-.75a6.78,6.78,0,0,1-.77,0c-.48,0-.48.73,0,.75Z"/><path d="M6.8,16.14a3.89,3.89,0,0,1,.26,1.57c0,.3.44.53.64.27L8,17.54c0-.06.34-.32.17-.26l-.29,0q-.12-.15,0,.1l.13.23a1.43,1.43,0,0,0,.24.36.37.37,0,0,0,.36.1c.32-.13.37-.4.5-.71l.6-1.47c.18-.45-.54-.64-.72-.2a13.72,13.72,0,0,1-.74,1.8l.22-.17-.05,0,.36.1c-.26-.26-.28-.84-.74-.86s-.73.63-.94.9l.64.27a4.43,4.43,0,0,0-.29-1.77c-.17-.45-.9-.25-.72.2Z"/></g></svg>