<svg xmlns="http://www.w3.org/2000/svg" viewBox="0 0 32 32"><defs><style>.cls-1{fill:#b3b3b3;}</style></defs><title>item-icon</title><g id="Layer_45" data-name="Layer 45"><path d="M13.1,5.9Q9.48,17,5.37,28c-.68,1.81,2.22,2.59,2.89.8Q12.38,17.83,16,6.7c.6-1.84-2.3-2.63-2.89-.8Z"/><path class="cls-1" d="M12.5,5.06A16.94,16.94,0,0,1,23.74,15.18c.69,1.78,3.6,1,2.89-.8A20.1,20.1,0,0,0,13.29,2.17a1.5,1.5,0,0,0-.8,2.89Z"/><path class="cls-1" d="M11.7,8.59c4.67,1.27,9.08,3,12.14,6.87C25,17,27.14,14.85,26,13.34,22.61,9.06,17.6,7.09,12.5,5.7a1.5,1.5,0,0,0-.8,2.89Z"/><path class="cls-1" d="M11.16,3.88a6.47,6.47,0,0,1-.5,2.34,1.51,1.51,0,0,0,1,1.85,1.54,1.54,0,0,0,1.85-1,8.83,8.83,0,0,0,.61-3.14,1.5,1.5,0,1,0-3,0Z"/><path class="cls-1" d="M13,7.56l2.16.51a5.21,5.21,0,0,1,.87.21c.2.09.47.38.7.52,1.63,1,3.14-1.55,1.51-2.59a6.05,6.05,0,0,0-2-1l-2.46-.58C12,4.22,11.16,7.11,13,7.56Z"/></g></svg>