<svg xmlns="http://www.w3.org/2000/svg" viewBox="0 0 32 32"><title>item-icon</title><g id="Layer_27" data-name="Layer 27"><path d="M22.63,4C17.52,11.53,11.38,18.65,6.78,26.53A1.5,1.5,0,0,0,9.37,28C14,20.16,20.11,13,25.22,5.47,26.3,3.87,23.71,2.36,22.63,4Z"/><path d="M9.35,20a19.36,19.36,0,0,0,2.81,2c.36.2.66.47,1,.71s.9.41,1.3.71a1.51,1.51,0,0,0,2.05-.54A1.53,1.53,0,0,0,16,20.8c-.34-.24-.73-.36-1.08-.57s-.63-.5-1-.71a21.42,21.42,0,0,1-2.45-1.66,1.55,1.55,0,0,0-2.12,0,1.51,1.51,0,0,0,0,2.12Z"/></g></svg>