<svg xmlns="http://www.w3.org/2000/svg" viewBox="0 0 32 32"><title>item-icon</title><g id="Layer_50" data-name="Layer 50"><path d="M15.74,3.57C9,5.2,3.69,9.38,3.48,16.79c-.19,6.68,6.19,12,12.79,11.65,7.52-.37,13-7.82,12.22-15.22-.7-6.76-7.26-9.65-13.3-9.24-1.44.1-1.45,2.35,0,2.25,4.51-.3,9.5,1.15,10.84,6,1.79,6.56-4,13.9-10.56,13.68C9.38,25.74,4.78,21,6,14.81,7,9.39,11.34,6.94,16.34,5.74c1.41-.34.81-2.51-.6-2.17Z"/><path d="M15.92,10.64c-2.94.7-5.23,2.5-5.32,5.71a5.2,5.2,0,0,0,5.5,5,5.93,5.93,0,0,0,5.28-6.59c-.31-2.92-3.14-4.13-5.74-4-.48,0-.48.78,0,.75,2-.14,4.29.54,4.89,2.76a5.09,5.09,0,0,1-4.77,6.18,4.23,4.23,0,0,1-4.3-5c.47-2.44,2.4-3.56,4.65-4.1.47-.11.27-.84-.2-.72Z"/><path d="M16,17.16a1.13,1.13,0,0,0,0-2.25,1.13,1.13,0,0,0,0,2.25Z"/><path d="M10.12,15.15A27.19,27.19,0,0,0,16,16.83a.75.75,0,0,0,.4-1.45,25.66,25.66,0,0,1-5.54-1.54c-.86-.43-1.62.86-.76,1.3Z"/><path d="M16.77,16.47q1.84-3.73,3.81-7.39c.46-.85-.84-1.61-1.3-.76q-2,3.66-3.81,7.39c-.43.86.87,1.62,1.3.76Z"/><path d="M15.31,7.5V9.19a.38.38,0,0,0,.75,0V7.5a.38.38,0,0,0-.75,0Z"/><path d="M11.14,9,12,10.45a.38.38,0,0,0,.65-.38l-.85-1.46a.38.38,0,0,0-.65.38Z"/><path d="M8.28,12.36l1.46.84a.38.38,0,0,0,.38-.65l-1.46-.84a.38.38,0,0,0-.38.65Z"/><path d="M7.5,16.78l1.69,0a.38.38,0,0,0,0-.75L7.5,16a.38.38,0,0,0,0,.75Z"/><path d="M9.12,21.06l1.44-.89c.41-.25,0-.9-.38-.65l-1.44.89c-.41.25,0,.9.38.65Z"/><path d="M12.45,23.76l.82-1.47c.24-.42-.41-.8-.65-.38l-.82,1.47c-.24.42.41.8.65.38Z"/><path d="M16.78,24.5l0-1.69a.38.38,0,0,0-.75,0l0,1.69a.38.38,0,0,0,.75,0Z"/><path d="M21,22.92l-.87-1.44a.38.38,0,0,0-.65.38l.87,1.44a.38.38,0,0,0,.65-.38Z"/><path d="M23.82,19.43l-1.49-.8c-.42-.23-.8.42-.38.65l1.49.8c.42.23.8-.42.38-.65Z"/><path d="M24.49,15l-1.69.05c-.48,0-.48.77,0,.75l1.69-.05c.48,0,.48-.77,0-.75Z"/><path d="M22.84,10.89l-1.43.9c-.41.26,0,.91.38.65l1.43-.9c.41-.26,0-.91-.38-.65Z"/><path d="M19.3,8.11l-.77,1.5c-.22.43.43.81.65.38l.77-1.5c.22-.43-.43-.81-.65-.38Z"/></g></svg>