<svg xmlns="http://www.w3.org/2000/svg" viewBox="0 0 32 32"><defs><style>.cls-1{fill:#ccc;}</style></defs><title>item-icon</title><g id="Layer_56" data-name="Layer 56"><path class="cls-1" d="M6.38,11.65q-.92.22-.64,1.37c-.21,1.12,1.05,2.57,2.2,1.69L9.6,13.45,7.4,11.76C7,13.6,6.57,15.45,6.28,17.31c-.25,1.59.27,2.59.36,4.14A1.54,1.54,0,0,0,8.14,23c2.23.1,4.09-.6,6.26-.81,1.82-.18,3.75.13,5.58.14,2.44,0,5.08.6,5.43-2.29.27-2.23,0-4.23.47-6.47a3.78,3.78,0,0,0-.25-3.09c-2.22-2.94-7.19.75-9.78-1.32l-1.46,2.51a27.66,27.66,0,0,0,3.93.5v-3a28.67,28.67,0,0,1-6.93,0c-1.23-.21-2.59-.78-3.71.13A3,3,0,0,0,6.89,12a53.19,53.19,0,0,1,.45,8.64c-.12,1.83,2.36,1.84,2.95.4,1.27-3.09,1.25-6.47,2.33-9.61l-2.95-.4C9.88,14,10.75,17,10,20c-.4,1.58,2,2.76,2.74,1.16a19.16,19.16,0,0,0,2.22-9l-2.8.76c1.18,2.32.05,3.91.27,6.15a1.93,1.93,0,0,0,.63,1.41,2.74,2.74,0,0,0,2,.36,47.64,47.64,0,0,0,5.44-.77c2.26-.39,3-1.11,3.31-3.34.23-1.84.79-4.68-1.11-5.74s-5.42-.33-7.13.58-2.05,2.69-1.76,4.68S15.15,19,17.25,19c3.23,0,3.5-1.82,4.33-4.57a1.52,1.52,0,0,0-1.85-1.85,8.38,8.38,0,0,0-3.26,1.33c-1.61,1.05-.11,3.65,1.51,2.59a4.47,4.47,0,0,1,2.54-1l-1.85-1.85c-.42,1.4-1,2.85-2.71,2.14l1,1c-1.29-3.16,2.62-3.84,4.9-2.9l-1-1c.63,2.18,0,3.84-2.18,4.37a22.55,22.55,0,0,1-4.32.65l1,1c-.18-1,.59-2.76.49-3.93a9.66,9.66,0,0,0-1.16-3.57,1.51,1.51,0,0,0-2.8.76,15.61,15.61,0,0,1-1.81,7.44l2.74,1.16c.83-3.31,0-6.38-.23-9.71a1.51,1.51,0,0,0-2.95-.4c-1.08,3.15-1.07,6.52-2.33,9.61l2.95.4a38,38,0,0,0,.09-5.55c-.11-1.29-.9-3.15-.42-4.33l-1,1c1-.31,3,.46,4.09.51a47.66,47.66,0,0,0,5.25-.22,1.5,1.5,0,0,0,0-3,14.2,14.2,0,0,1-3.13-.39c-1.31-.26-2.74,1.48-1.46,2.51a6.77,6.77,0,0,0,2.95,1.68c1.74.33,3.14-.61,4.84-.55,2.16.07,1,1,.81,2.69s.53,3.56.07,5.16l1-1c-2.27.81-5.64,0-8,0s-4.76.93-7.25.82l1.5,1.5a32.59,32.59,0,0,1,.66-8.89c.23-1.13-1.06-2.56-2.2-1.69L6.43,12.12l2.2,1.69c.25-1.36,1-3.17-.14-4.29C7.1,8.19,5,10.31,6.38,11.65Z"/><path d="M5.05,9.61a106.67,106.67,0,0,0,.34,13.64c.13,1.43,2.38,1.44,2.25,0A106.67,106.67,0,0,1,7.3,9.61c.06-1.45-2.19-1.45-2.25,0Z"/><path d="M6.19,10c6.47-.84,12.84-.12,19.27.76,1.42.19,2-2,.6-2.17-6.63-.9-13.19-1.7-19.87-.84-1.42.18-1.43,2.44,0,2.25Z"/><path d="M6.67,24.71q9.61-.81,19.25-.77a1.13,1.13,0,0,0,0-2.25q-9.65,0-19.25.77c-1.43.12-1.45,2.37,0,2.25Z"/><path d="M24.59,9.66a87.05,87.05,0,0,0,.12,12.49c.12,1.43,2.37,1.45,2.25,0a87.05,87.05,0,0,1-.12-12.49c.09-1.45-2.16-1.44-2.25,0Z"/></g></svg>