<svg xmlns="http://www.w3.org/2000/svg" viewBox="0 0 32 32"><defs><style>.cls-1{fill:#fcee21;}</style></defs><title>item-icon</title><g id="Layer_23" data-name="Layer 23"><path class="cls-1" d="M14.93,16.5a13.56,13.56,0,0,1,4.64-4c2.16-1.06,4.67-.7,7-.64,1.93,0,1.93-3,0-3-2.62-.07-5.35-.37-7.81.72a15.68,15.68,0,0,0-5.95,4.79c-1.17,1.5.93,3.64,2.12,2.12Z"/><path class="cls-1" d="M25.66,12.77c-.49,1.84-.87,3-2.77,3.67a7.93,7.93,0,0,1-5.74,0c-1.74-.79-3.27,1.79-1.51,2.59,2.9,1.32,5.84,1.07,8.84.12,2.58-.82,3.42-3.1,4.08-5.55a1.5,1.5,0,0,0-2.89-.8Z"/><path class="cls-1" d="M3.88,19.48q1.5,2.36,3.19,4.58a1.52,1.52,0,0,0,2.36.3,12.6,12.6,0,0,0,1.81-2.79,7,7,0,0,0,.89-3.26c-.27-2.77-3.74-1.29-5.28-.85A1.52,1.52,0,0,0,6.18,20a23,23,0,0,0,2.08,2c1.47,1.23,3.6-.88,2.12-2.12a23,23,0,0,1-2.08-2l-.66,2.51,1.83-.53c.73-.21.93,0,.22-.86S9.21,18.32,9,19a8.92,8.92,0,0,1-1.69,3.21l2.36.3Q8,20.33,6.47,18c-1-1.62-3.63-.12-2.59,1.51Z"/><path class="cls-1" d="M15.3,18.26c2.53-1.92,6.86-7.33,10.49-6.44l-1-1c.24.56-1.17,3.31-1.64,3.77-.76.74-3.44,1.56-4.46.93l.74,1.3c0-.29,3-1.65,3.34-1.92a26.34,26.34,0,0,0,2.59-2.17L23,10.87l-1.87,4.27c-.77,1.75,1.82,3.28,2.59,1.51l1.87-4.27a1.51,1.51,0,0,0-2.36-1.82,16.51,16.51,0,0,1-2.93,2.29,21.08,21.08,0,0,0-2.61,1.4c-1,.8-1.85,2.18-.95,3.42s3.07.88,4.28.74c1.69-.2,3.88-.51,4.84-2.07,1.34-2.2,3.8-7.8-.73-7.54-4.71.27-7.83,4.22-11.31,6.86-1.52,1.15,0,3.76,1.51,2.59Z"/><path d="M13.49,15.42c2.28-5.76,8.47-8.33,14-5.48,1.71.89,3.23-1.7,1.51-2.59C21.65,3.54,13.61,7,10.6,14.62c-.71,1.8,2.19,2.57,2.89.8Z"/><path d="M27.33,9c.32,3.51.21,8.26-3.72,9.73s-7.72-.42-10.39-3.44c-1.28-1.45-3.4.68-2.12,2.12,3.45,3.89,8.63,6.18,13.78,4.1,5-2,5.88-7.78,5.45-12.52C30.15,7,27.15,7,27.33,9Z"/><path d="M12.05,14.75a61.36,61.36,0,0,0-9.33,1c-1.89.4-1.09,3.29.8,2.89a56.06,56.06,0,0,1,8.53-.93c1.92-.11,1.93-3.11,0-3Z"/><path d="M1.58,17.61c1.3,3.44,4,5.79,6.06,8.74,1.1,1.57,3.7.07,2.59-1.51-1.87-2.67-4.59-4.92-5.76-8-.68-1.79-3.58-1-2.89.8Z"/><path d="M10,26.81c2.14-2.37,2.22-5.56,3.7-8.26.93-1.69-1.66-3.21-2.59-1.51-1.31,2.38-1.38,5.61-3.23,7.66-1.29,1.43.82,3.56,2.12,2.12Z"/><path d="M22.54,12.6a1.5,1.5,0,0,0,0-3,1.5,1.5,0,0,0,0,3Z"/><path d="M22.4,15.44a5.1,5.1,0,0,0-2.71,2.89,2,2,0,0,0,.73,2.3,3.65,3.65,0,0,0,2.46.23,1.51,1.51,0,0,0,1-1.85,1.54,1.54,0,0,0-1.85-1c.15,0-.21,0-.24,0h-.18q-.29,0,.21,0l.69.9q-.07.66,0,.23.08-.26,0-.09c.07-.16.08-.16.27-.34a5.29,5.29,0,0,1,1-.68,1.5,1.5,0,1,0-1.51-2.59Z"/><path d="M21.33,4.86c-2.7-.29-6.75-.17-8.69,2.07a2.06,2.06,0,0,0,0,3c1,.84,2.84.6,4,.36,1.89-.37,1.09-3.26-.8-2.89a3.57,3.57,0,0,1-1.57.06l.69.9c.13.45,2.37-.4,2.84-.47a13.81,13.81,0,0,1,3.52,0c1.92.2,1.9-2.8,0-3Z"/></g></svg>