<svg xmlns="http://www.w3.org/2000/svg" viewBox="0 0 32 32"><defs><style>.cls-1{fill:#8cc63f;}</style></defs><title>item-icon</title><g id="Layer_5" data-name="Layer 5"><path class="cls-1" d="M10.9,19.38c-2.18,3.9,4.83,7.68,6.13,4.06,1.24-3.42-5.94-3.66-4.59.35,1.46,4.34,7.7.58,8.85-2.06,1.47-3.35-4.72-4.85-4.91-1s6.52,4.75,6.52.42c0-1.73-1.18-3.74-3-3.82a3.64,3.64,0,0,0-3.66,3.29c0,3.76,6.63,3.27,6.4-.73-.28-4.93-7.09-3.77-9.56-1.36-4.36,4.26,4.21,7,6,3,.87-1.93-.69-3.55-2.49-3.94a4.36,4.36,0,0,0-5.24,3,1.52,1.52,0,0,0,1,1.85c2,.52,4.16.8,5.86-.57a2.9,2.9,0,0,0,.67-4.17c-2.1-2.73-7.87-4.2-9.78-.39-1.26,2.53,3.17,5.75,4.53,2.72s-3-6.58-4.26-2.86a1.48,1.48,0,0,0,.39,1.46c2.81,2.67,7.42,3.4,10.08.25.94-1.11,2.14-3,1.93-4.53s-1.67-2-3-1.76c-2.8.57-4.78,4.4-1.6,6s5.56-1.3,3.59-4.29a1.58,1.58,0,0,0-1.69-.69c-1.38.21-1.91,1.67-2.33,2.82a1.53,1.53,0,0,0,1,1.85c2.14.78,4.21,1,5.13-1.41a3.34,3.34,0,0,0-2.42-4.67c-1.72-.39-4.4.17-5.48,1.69-1.49,2.09.5,3.87,2.44,4.4a1.52,1.52,0,0,0,1.69-2.2c-1.85-3.11-6.55-5.22-8.71-1A1.58,1.58,0,0,0,10.67,17,7.18,7.18,0,0,0,11.9,18a1.52,1.52,0,0,0,2.36-.3c1-1.88.18-4.81-1.92-5.63a2.62,2.62,0,0,0-3.63,3,3,3,0,0,0,4.85,1.47c1.51-1.11,2.58-4.14,1-5.6a1.51,1.51,0,0,0-2.36.3l-.3.69A1.55,1.55,0,0,0,12.48,14c2.15,1.44,4.85,2.56,7.39,1.39,1.65-.76,2.72-2.69,1.49-4.29a1.52,1.52,0,0,0-2.74.36c-.82,2.37,2,3.08,3.73,2.45a1.52,1.52,0,0,0,.9-2.2c-4-6.62-11.17,6-4.53,5.83a1.51,1.51,0,0,0,.4-2.95A6.72,6.72,0,0,0,14,15c-1.35.65-3.48,1.81-4.34,3.09s0,2.27.81,3.39,1.31,2.22,2.68,2.18a1.52,1.52,0,0,0,1.45-1.1c.32-2.13-2.55-4.76-4.45-2.85-1.72,1.72.81,4,2.59,2.46,1.48-1.24-.65-3.35-2.12-2.12l-.2.17,1.46-.39.77,1.34-1,1,.1-.45,1.45-1.1c.79,0-.39-1-.54-1.31l-.33.36.85-.63c1.57-1.13,3.17-2.24,5.19-1.61l.4-2.95c.32,0,1.38-2.23,1.94-1.31l.9-2.2,0,1.24-2.74.36-1,.27a3.5,3.5,0,0,1-1.78-.38A9.76,9.76,0,0,1,14,11.45l.54,2.05.3-.69-2.36.3c-.29-.28-.78,3-.81,3.1l2.36-.3a7.18,7.18,0,0,1-1.23-1.06L13,16.66c1-1.89,2.88-.1,3.53,1l1.69-2.2q-1.62.53.19-.18a.93.93,0,0,1,1.37.19c1.22.71-1.05.05-1.23,0l1,1.85.24-.73-1.69-.69.3,1.19,1-1c-.73.23-.57-.79-.91-.76-.11,0-1.1,1.79-1.3,2-1.5,1.24-4,.73-5.4-.64L12.29,18l.14-.41-1,1-.65.44,1.3-.74a7.1,7.1,0,0,1,2.47-.13,1.25,1.25,0,0,1,1.22,1.68,5.77,5.77,0,0,1-2.55-.29l1,1.85q1.85-1.72,1-.77a5.92,5.92,0,0,1,1.28-.76c.9-.41,3.21-1.07,3.3.77q.73.85-.91.73-.44-1.25-1-.17a10.75,10.75,0,0,1-1.3,1.05q-1.75,1.37-3-1.42c.94-1.69-1.65-3.2-2.59-1.51Z"/><path d="M6.29,10.27q.87,7.79,1.15,15.63c.07,1.92,3.07,1.93,3,0q-.28-7.84-1.15-15.63c-.21-1.9-3.21-1.92-3,0Z"/><path d="M9.1,27.45a1.5,1.5,0,0,0,0-3,1.5,1.5,0,0,0,0,3Z"/><path d="M9.11,27.42a60.57,60.57,0,0,0,15.07-.08c1.89-.25,1.91-3.25,0-3a60.57,60.57,0,0,1-15.07.08c-1.91-.23-1.9,2.77,0,3Z"/><path d="M21.9,9.7q.66,8,.93,16c.07,1.93,3.07,1.93,3,0q-.27-8-.93-16c-.16-1.91-3.16-1.93-3,0Z"/><path d="M8.07,10.69a7.6,7.6,0,0,0,1.39-.34,5.24,5.24,0,0,0,.82-.37l.24-.16c-.14.1.73-.58.28-.24l-.76.2h.06L8.65,8.68v0L9.34,7l0,0,1.82.23v0A1.5,1.5,0,0,0,9,9.38v0a1.5,1.5,0,0,0,1.82.23l0,0a1.61,1.61,0,0,0,.69-1.69v0a1.51,1.51,0,0,0-1.45-1.1,1.72,1.72,0,0,0-1.17.48c-.19.17,0,0-.1.08a2.84,2.84,0,0,1-.32.17c.15-.07,0,0-.06,0l-.36.1c-.27.07-.54.12-.81.16a1.51,1.51,0,0,0-1,1.85,1.53,1.53,0,0,0,1.85,1Z"/><path d="M19.75,9.22a4.45,4.45,0,0,0,1.57.75,2.84,2.84,0,0,0,.94.14c.13,0,.09.07-.09-.07s-.19-.1-.24-.25A1.5,1.5,0,1,0,24.83,9,2.57,2.57,0,0,0,23,7.22c-.37-.1-.73-.08-1-.16a2.48,2.48,0,0,1-.77-.43,1.51,1.51,0,0,0-2.05.54,1.54,1.54,0,0,0,.54,2.05Z"/><path d="M8.29,7.5,21.1,7.11c1.93-.06,1.93-3.06,0-3L8.29,4.5c-1.93.06-1.93,3.06,0,3Z"/></g></svg>