<svg xmlns="http://www.w3.org/2000/svg" viewBox="0 0 32 32"><defs><style>.cls-1{fill:#c7b299;}</style></defs><title>item-icon</title><g id="Layer_26" data-name="Layer 26"><path class="cls-1" d="M7.89,13.4a8,8,0,0,0-4.5,10.23A2.87,2.87,0,0,0,4,24.71a3,3,0,0,0,1.08.6,9.48,9.48,0,0,0,5.83.17c2.12-.62,4-2,6.07-2.67.79-.26,1.62-.43,2.41-.69a15.44,15.44,0,0,0,6.31-4.32,11.21,11.21,0,0,0,3.37-6.43,4.62,4.62,0,0,0-1.18-3.74A4.59,4.59,0,0,0,26.4,6.7,9.76,9.76,0,0,0,21,6.38,29.11,29.11,0,0,0,15.78,8.1c-3,1.22-6.27,2.59-8.06,5.33"/><path d="M7.51,12.76c-4.1,2-8.36,9.49-3.32,12.9,2.52,1.71,6.09.87,8.67-.11,3.85-1.47,8.51-2.89,11.71-5.62,3.54-3,8.7-11,2.21-13.87C20.9,3.44,10.85,8.18,7.19,12.9c-.58.75.47,1.82,1.06,1.06,2.58-3.33,7.14-5.34,11.17-6.41,2.1-.55,5.5-1.3,7.41.19,3.87,3-.07,8-2.18,10.08-2.83,2.81-6.08,3.54-9.56,5-2.14.88-4.6,2.73-7.08,2.32-8.26-1.35-3.39-9.25.26-11,.87-.43.11-1.72-.76-1.3Z"/><path d="M10,21.71l.86.65c.39.29.76-.36.38-.65l-.86-.65c-.39-.29-.76.36-.38.65Z"/><path d="M8.07,16.08l.24.06c.41.25.79-.4.38-.65a1,1,0,0,0-.82-.14c-.47.09-.27.81.2.72Z"/><path d="M13.24,17V17c.2.44.85.06.65-.38a.73.73,0,0,0-.66-.42c-.48,0-.48.71,0,.75Z"/><path d="M19.61,9.42l.11.13c.15.45.88.26.72-.2A1,1,0,0,0,20,8.77c-.41-.26-.79.39-.38.65Z"/><path d="M22.52,17.83a.79.79,0,0,1,.43,0,.38.38,0,0,0,.2-.72,1.71,1.71,0,0,0-.62-.05c-.48,0-.48.8,0,.75Z"/><path d="M24.9,10.7a.38.38,0,0,0,0-.75.38.38,0,0,0,0,.75Z"/><path d="M13.85,9.8v.29a.38.38,0,0,0,.75,0V9.8a.38.38,0,0,0-.75,0Z"/></g></svg>