<svg xmlns="http://www.w3.org/2000/svg" viewBox="0 0 32 32"><title>item-icon</title><g id="Layer_9" data-name="Layer 9"><path d="M7.73,17.42A7.45,7.45,0,0,1,13,21.35c1.33,2.57,1.42,5.87,1.28,8.69-.1,1.93,2.9,1.92,3,0,.18-3.56-.12-7.9-2.15-11-1.9-2.88-3.4-3.73-6.65-4.54-1.87-.47-2.67,2.43-.8,2.89Z"/><path d="M23.48,14.52c-3.23.8-4.75,1.69-6.65,4.54-2,3-2.32,7.43-2.15,11,.1,1.92,3.1,1.93,3,0-.14-2.81,0-6.12,1.28-8.69a7.45,7.45,0,0,1,5.31-3.93c1.87-.47,1.08-3.36-.8-2.89Z"/><path d="M8.52,17.48c3.23-.8,4.75-1.69,6.65-4.54,2-3,2.32-7.43,2.15-11-.1-1.92-3.1-1.93-3,0,.14,2.81,0,6.12-1.28,8.69a7.45,7.45,0,0,1-5.31,3.93c-1.87.47-1.08,3.36.8,2.89Z"/><path d="M24.27,14.58A7.45,7.45,0,0,1,19,10.65C17.63,8.09,17.54,4.78,17.68,2c.1-1.93-2.9-1.92-3,0-.18,3.56.12,7.9,2.15,11,1.9,2.88,3.4,3.73,6.65,4.54,1.87.47,2.67-2.43.8-2.89Z"/></g></svg>