<svg xmlns="http://www.w3.org/2000/svg" viewBox="0 0 32 32"><defs><style>.cls-1{fill:lime;}</style></defs><title>item-icon</title><g id="Layer_39" data-name="Layer 39"><path class="cls-1" d="M11.43,12.8c-.08-.13,0,.14.05.19a3.14,3.14,0,0,0,.22.49,2.84,2.84,0,0,0,.77.81,2.78,2.78,0,0,0,.52.4c-.11,0,0-.16,0-.17l1.3-.74h-.12L15,14a7.2,7.2,0,0,1-.71-.78c-1.34-1.39-3.46.73-2.12,2.12.6.62,1.22,1.51,2.19,1.44a1.5,1.5,0,0,0,1.3-.74,3.08,3.08,0,0,0-.28-3.2,3.81,3.81,0,0,0-1.07-.92q.12.09-.08-.08l.15.28a4.71,4.71,0,0,0-.33-.84c-1-1.62-3.63-.12-2.59,1.51Z"/><path d="M13.19,26c.57-3,2-5.65,2.56-8.61.17-.94-1.27-1.35-1.45-.4-.54,3-2,5.65-2.56,8.61-.18.94,1.26,1.35,1.45.4Z"/><path d="M14.59,16.19c-.95-.32-1.44-1.23-2.37-1.57s-1.3,1.12-.4,1.45c.41.15.69.6,1,.86a4.38,4.38,0,0,0,1.35.71c.92.31,1.31-1.14.4-1.45Z"/><path d="M12.22,11.72a5.17,5.17,0,0,1,1.15.42c.61.19,1.08.2,1.37.86a3,3,0,0,1-.3,3.32c-.7.67.36,1.73,1.06,1.06,1.34-1.28,1.24-3.27.63-4.91A2.47,2.47,0,0,0,14.87,11c-.43-.2-.91-.25-1.35-.41a3.85,3.85,0,0,0-1.31-.37c-1,0-1,1.45,0,1.5Z"/><path class="cls-1" d="M5.69,8.45a6.07,6.07,0,0,0-.23,2.34,2.35,2.35,0,0,0,1.42,1.6A10.85,10.85,0,0,1,8.31,13a8.85,8.85,0,0,0,1.88,1A1.51,1.51,0,0,0,12,12.16a6.9,6.9,0,0,0-1.13-2.75c-.59-.63-1.44-1-2.09-1.6-1.43-1.3-3.55.82-2.12,2.12a19.66,19.66,0,0,0,1.94,1.47c.1.07.11.06,0,0s.07.3.09.37L9.14,13,11,11.12c-.73-.25-1.34-.84-2.06-1.14A3.53,3.53,0,0,0,8,9.65q.4,0,.35.71l0-.28a4.09,4.09,0,0,0,.15-.83,1.54,1.54,0,0,0-1-1.85,1.51,1.51,0,0,0-1.85,1Z"/><path d="M16.09,25.91A6.46,6.46,0,0,0,15,21.32a19.69,19.69,0,0,1-1.79-2.18A11.62,11.62,0,0,1,12.11,15c-.12-.94-1.62-1-1.5,0a13.49,13.49,0,0,0,1.3,5c1.21,2.15,3,3.19,2.68,6-.1,1,1.41,1,1.5,0Z"/><path d="M11.38,14.07a5,5,0,0,0-2.47-1.55A8.33,8.33,0,0,1,7.12,12c-.92-.54-.93-1.86-.7-2.78.12-.47.16-.78.57-.86a2.48,2.48,0,0,1,.93.23,5.76,5.76,0,0,1,2.21,1.25c1.36,1.32,1.23,2.81.49,4.41-.4.87.89,1.63,1.3.76.89-1.93,1.23-3.8-.16-5.59a6.59,6.59,0,0,0-2.69-2c-.78-.33-2-.85-2.89-.53C4.62,7.44,4.59,10.47,5,11.73c.86,2.36,3.82,1.69,5.27,3.4.63.74,1.68-.33,1.06-1.06Z"/><path class="cls-1" d="M16.28,6.95a7.06,7.06,0,0,1,.58,2c0,.26-.31.64-.37.94a2.62,2.62,0,0,0,0,1.09c.3,1.32,1.8,2.36,2.94,1.21.42-.42.77-.91,1.2-1.34a4.11,4.11,0,0,0,1.07-1.53c.53-1.51-.36-2.33-1.52-3.07-1.63-1-3.13,1.55-1.51,2.59l.59.39-.39-.66c-.07-.28-.09-.07-.26.06a6.93,6.93,0,0,0-.52.49c-.31.3-.53.68-.82,1l.66-.39-.1,0,1.46.39q.07.67.25.09.14-.31.26-.64a2.83,2.83,0,0,0,0-1.12,16.4,16.4,0,0,0-.67-2.27c-.59-1.83-3.49-1-2.89.8Z"/><path d="M17.72,26.35a46.11,46.11,0,0,0,.48-6c0-2.49-.53-5.08,1-7.23.56-.78-.74-1.53-1.3-.76a7.89,7.89,0,0,0-1.3,5.08A59.45,59.45,0,0,1,16.28,26c-.13.94,1.32,1.35,1.45.4Z"/><path d="M18.53,12.13c-.67-.23-1.24-.18-1.42-.94A4.21,4.21,0,0,1,17.43,9a3.89,3.89,0,0,0,0-2.95l-.19.73c.28-.35,1.63-.17,2-.1a3.45,3.45,0,0,1,2.14,1.06c1.08,1.86-2.18,3.66-3.39,4.6-.76.59.31,1.65,1.06,1.06,1.81-1.41,5.7-3.87,3.51-6.57a5.18,5.18,0,0,0-3.33-1.66c-.87-.12-2.47-.22-3.1.55a.76.76,0,0,0-.19.73c.65,1.65-.56,3.21-.33,4.94s1.15,1.71,2.52,2.19c.91.32,1.31-1.13.4-1.45Z"/><path class="cls-1" d="M23.56,12.66a5,5,0,0,0-1.39,1.14c-.36.44-.78.78-1.16,1.19-1,1.1-1.24,2.69.1,3.6l-.54-.54.07.11V16.65l0,.1a1.51,1.51,0,0,0,2.05,2.05,5,5,0,0,0,1.86-1.38,1.54,1.54,0,0,0,0-2.12,1.51,1.51,0,0,0-2.12,0,3.08,3.08,0,0,1-1.25.91l2.05,2.05a1.66,1.66,0,0,0,.12-1.44,1.53,1.53,0,0,0-.26-.44l-.33-.32.44,1.06c0-.13.6-.57.78-.76a4.81,4.81,0,0,1,1.14-1.11,1.5,1.5,0,0,0-1.51-2.59Z"/><path d="M20.57,26a50.71,50.71,0,0,0,1-6.72c.08-1-1.42-1-1.5,0a47.67,47.67,0,0,1-.93,6.32c-.2.94,1.24,1.34,1.45.4Z"/><path d="M21.16,18.55a2.6,2.6,0,0,1,.22-2.76,6.07,6.07,0,0,1,1.9-1.53c1.08-.57,2.27-.77,3.21-1.58.73-.63-.33-1.69-1.06-1.06a12.5,12.5,0,0,1-2.72,1.24,8.09,8.09,0,0,0-2,1.47,3.88,3.88,0,0,0-1,4.62c.34.89,1.79.51,1.45-.4Z"/><path d="M21.46,19.72c1.54-.35,3.15-.8,3.94-2.3s.17-3.61,1.58-4.87c.72-.64-.34-1.7-1.06-1.06a4.69,4.69,0,0,0-1.43,3.23,3.93,3.93,0,0,1-.77,2.44,4.87,4.87,0,0,1-2.66,1.12c-.94.21-.54,1.66.4,1.45Z"/></g></svg>