<svg xmlns="http://www.w3.org/2000/svg" viewBox="0 0 32 32"><title>item-icon</title><g id="Layer_37" data-name="Layer 37"><path d="M7.87,15.34l-.43,2.24a4.08,4.08,0,0,0,0,2.23c.22.56.68,1,.87,1.58a5.17,5.17,0,0,1,.1,1.72,2,2,0,0,0,.53,1.59,2.32,2.32,0,0,0,1.07.43,18.17,18.17,0,0,0,3.86.49c.79,0,1.58-.09,2.37,0s1.47.23,2.21.27a12.11,12.11,0,0,0,3-.34,3.2,3.2,0,0,0,1.12-.37,3.2,3.2,0,0,0,.79-.83A6.11,6.11,0,0,0,24.65,22a4.63,4.63,0,0,0,0-1.68c-.25-1.52-.87-3-.76-4.55.09-1.35.73-2.7.4-4S22.94,9.69,22.38,8.6c-.23-.45-.38-.95-.63-1.39a2,2,0,0,0-1.1-1,2.27,2.27,0,0,0-1.29.1A16.38,16.38,0,0,0,15.1,8.62a36.91,36.91,0,0,0-6.86,5.53"/><path d="M6.43,14.94c-.67,3.51-.32,5.23.53,8.61.64,2.53,1.93,3,4.57,3.36,5,.68,14,1.81,14.66-5.35.12-1.36-.45-2.6-.62-3.93-.25-2,.6-4.12.18-6.1a15.31,15.31,0,0,0-3.38-6c-3.93-3.59-12.68,5-15.18,7.56C5.84,14.48,8,16.6,9.3,15.21c1.64-1.71,8.93-8.66,11.32-6.9,1.28.94,2,4.4,2,5.7a24.67,24.67,0,0,0,0,4.43,11.56,11.56,0,0,1,.55,2.71c-.28,3.23-3.17,3.24-5.33,3.14a37.22,37.22,0,0,1-6.21-.35c-2.16-.49-1.58-1.12-1.93-2.93s-.84-3.18-.44-5.26c.36-1.89-2.53-2.69-2.89-.8Z"/></g></svg>