<svg xmlns="http://www.w3.org/2000/svg" viewBox="0 0 32 32"><title>item-icon</title><g id="Layer_43" data-name="Layer 43"><path d="M9.25,12.9c-2.51,6.32-.84,17.73,8.42,16.28,3.95-.62,5.09-3.85,6.12-7.25C25,17.81,24.88,15,22,11.7c-1-1.09-2.55.51-1.59,1.59,2.1,2.37,2.19,4.57,1.36,7.54-.92,3.26-2.11,6.72-6.26,6C9.38,25.78,9.65,18,11.42,13.5c.53-1.35-1.64-1.93-2.17-.6Z"/><path d="M8.79,8.5c-1.79,1.45-.86,4.13,1,5s4.65.47,5.62-1.69C16,10.49,14,9.35,13.45,10.67a1.75,1.75,0,0,1-2.16,1c-.68-.16-1.77-.87-.91-1.56,1.13-.91-.47-2.49-1.59-1.59Z"/><path d="M13.39,11.66c.88,1.26,2,2.75,3.75,2.68s2.76-1.53,3.47-2.92S19.32,9,18.66,10.29c-.29.56-.76,1.73-1.53,1.79s-1.43-1-1.8-1.56c-.82-1.18-2.77-.06-1.94,1.14Z"/><path d="M18.65,11.22a4.92,4.92,0,0,0,2.56,2.36,3.58,3.58,0,0,0,3.42-.73c1.61-1.43,1.89-5-.65-5.58-1.41-.34-2,1.83-.6,2.17.79.19-.12,1.73-.55,1.93-1.05.5-1.75-.53-2.24-1.29-.77-1.22-2.72-.09-1.94,1.14Z"/><path d="M24.32,9.13c.59-.69,1.26-1.05,1.54-2a3.47,3.47,0,0,0-.42-2.81A2.89,2.89,0,0,0,23.26,2.9a3.57,3.57,0,0,0-2.57,1.26c-1.05,1,.54,2.59,1.59,1.59.19-.18.55-.63.83-.6s.57.54.62.82c.16.81-.56,1.05-1,1.57-.93,1.1.65,2.7,1.59,1.59Z"/><path d="M22.23,4.35c-2-1.9-5.36-2.35-7.05.2-.8,1.21,1.14,2.34,1.94,1.14s2.63-.58,3.52.26c1.05,1,2.65-.6,1.59-1.59Z"/><path d="M17,4.67a4.25,4.25,0,0,0-4.1-1.85c-1.59.24-3,1.29-2.76,3,.18,1.42,2.43,1.44,2.25,0,0-.39-.14-.26.06-.5A1.58,1.58,0,0,1,13.51,5,1.92,1.92,0,0,1,15,5.81c.85,1.15,2.8,0,1.94-1.14Z"/><path d="M11.77,5c-1.64-1.25-3.45-.26-4.51,1.24s0,3.45,1.53,4.19c1.3.63,2.44-1.31,1.14-1.94A1.79,1.79,0,0,1,9.32,8c-.25-.29-.38-.3-.13-.6a2.66,2.66,0,0,1,.71-.66c.34-.17.44,0,.73.2a1.13,1.13,0,0,0,1.54-.4A1.15,1.15,0,0,0,11.77,5Z"/><path d="M6.19,9.42a20.14,20.14,0,0,0-3.94,7.26c-.64,1.94-1.13,4.41.87,5.75s4.09,0,5.24-1.67a13.59,13.59,0,0,0,2-7.73,1.5,1.5,0,0,0-3,0,13.88,13.88,0,0,1-.48,3.9,7.72,7.72,0,0,1-.75,1.76c-.45.75-1.71,1.81-1.38.06a15.91,15.91,0,0,1,3.56-7.21C9.59,10.1,7.48,8,6.19,9.42Z"/><path d="M23.69,11.54a16,16,0,0,1,3.56,7.21c.25,1.26-.37,1.11-1.13.3a5,5,0,0,1-.91-1.81A13.59,13.59,0,0,1,24.64,13a1.5,1.5,0,0,0-3,0,13.57,13.57,0,0,0,2,7.73c1.15,1.65,3.32,3,5.24,1.67s1.5-3.82.87-5.75a20.19,20.19,0,0,0-3.94-7.26c-1.28-1.45-3.4.68-2.12,2.12Z"/><path d="M13.8,19a1.5,1.5,0,0,0,0-3,1.5,1.5,0,0,0,0,3Z"/><path d="M18.92,19a1.5,1.5,0,0,0,0-3,1.5,1.5,0,0,0,0,3Z"/><path d="M15.55,25.22l-.22,2.87c-.07,1,1.43,1,1.5,0l.22-2.87c.07-1-1.43-1-1.5,0Z"/><path d="M14.22,25a9.09,9.09,0,0,0,4.1.16c.95-.17.55-1.62-.4-1.45a7.34,7.34,0,0,1-3.3-.16.75.75,0,0,0-.4,1.45Z"/></g></svg>