<svg xmlns="http://www.w3.org/2000/svg" viewBox="0 0 32 32"><title>item-icon</title><g id="Layer_55" data-name="Layer 55"><path d="M18.46,10.76A81.82,81.82,0,0,0,8.34,9.05c-1-.1-1,1.4,0,1.5a78.59,78.59,0,0,1,9.72,1.66c.94.22,1.34-1.23.4-1.45Z"/><path d="M17.94,12.08q2.63,4.27,5.39,8.46c.53.8,1.83.05,1.3-.76q-2.76-4.19-5.39-8.46c-.51-.82-1.8-.07-1.3.76Z"/><path d="M24.4,19.71C20.67,19.15,17,18,13.21,18.07c-1,0-1,1.53,0,1.5,3.67-.11,7.2,1,10.8,1.59.94.14,1.35-1.3.4-1.45Z"/><path d="M13.78,18.27a53.3,53.3,0,0,0-5.3-8.6c-.57-.76-1.88,0-1.3.76a53.3,53.3,0,0,1,5.3,8.6c.42.87,1.72.11,1.3-.76Z"/><path d="M23.6,4.18,19.85,18.23a.75.75,0,0,0,1.45.4L25,4.58a.75.75,0,0,0-1.45-.4Z"/><path d="M23.81,3.56a44.79,44.79,0,0,0-11.43,7.71c-.71.66.35,1.72,1.06,1.06A43.51,43.51,0,0,1,24.57,4.85c.87-.41.11-1.7-.76-1.3Z"/><path d="M11.94,11.77Q9.28,19.62,7.06,27.6a.75.75,0,0,0,1.45.4q2.22-8,4.88-15.82c.31-.92-1.14-1.31-1.45-.4Z"/><path d="M20.13,17.59,7.3,27c-.77.56,0,1.87.76,1.3l12.82-9.4c.77-.56,0-1.87-.76-1.3Z"/></g></svg>