<svg xmlns="http://www.w3.org/2000/svg" viewBox="0 0 32 32"><title>item-icon</title><g id="Layer_52" data-name="Layer 52"><path d="M4.93,10.68q-.34,8.44-.13,16.89a1.13,1.13,0,0,0,2.25,0q-.21-8.45.13-16.89c.06-1.45-2.19-1.45-2.25,0Z"/><path d="M6.14,11.59q9.89.34,19.79.33a1.13,1.13,0,0,0,0-2.25q-9.9,0-19.79-.33c-1.45,0-1.45,2.2,0,2.25Z"/><path d="M24.8,10.84c-.12,5.26-1.21,11.71.28,16.81a1.13,1.13,0,0,0,2.17-.6c-1.43-4.9-.31-11.15-.2-16.22a1.13,1.13,0,0,0-2.25,0Z"/><path d="M6.09,28.51c6.37.22,12.72-.71,19.05.06,1.43.17,1.42-2.08,0-2.25-6.34-.77-12.68.16-19.05-.06-1.45-.05-1.45,2.2,0,2.25Z"/><path d="M15.58,9c-1.82-2.1-4.44-3.1-6.69-4.65C7.69,3.5,6.56,5.45,7.75,6.26,9.84,7.7,12.3,8.61,14,10.56c1,1.1,2.54-.5,1.59-1.59Z"/><path d="M15.44,10.76A32,32,0,0,1,22.83,5.4c1.28-.68.15-2.62-1.14-1.94a34.07,34.07,0,0,0-7.85,5.71c-1,1,.55,2.6,1.59,1.59Z"/><path d="M8.57,13.09q-.24,5.17-.09,10.35c0,.48.76.48.75,0q-.15-5.18.09-10.35c0-.48-.73-.48-.75,0Z"/><path d="M9,13.33q7,.21,14,.2a.38.38,0,0,0,0-.75q-7,0-14-.2a.38.38,0,0,0,0,.75Z"/><path d="M22.67,13.18c-.08,3.14-.84,7.2.19,10.22.15.45.88.26.72-.2A15.3,15.3,0,0,1,23.29,18q.06-2.41.12-4.83a.38.38,0,0,0-.75,0Z"/><path d="M9,23.7c4.52.14,9-.44,13.51,0,.48.05.48-.7,0-.75-4.5-.47-9,.1-13.51,0-.48,0-.48.74,0,.75Z"/><path d="M17.5,25.94a.75.75,0,0,0,0-1.5.75.75,0,0,0,0,1.5Z"/><path d="M19.63,25.94a.75.75,0,0,0,0-1.5.75.75,0,0,0,0,1.5Z"/><path d="M21.69,26a.75.75,0,0,0,0-1.5.75.75,0,0,0,0,1.5Z"/></g></svg>