<svg xmlns="http://www.w3.org/2000/svg" viewBox="0 0 32 32"><defs><style>.cls-1{fill:#998675;}.cls-2{fill:#009245;}.cls-3{fill:#0071bc;}.cls-4{fill:#d9e021;}.cls-5{fill:#8c6239;}.cls-6{fill:#fcee21;}</style></defs><title>item-icon</title><g id="Layer_33" data-name="Layer 33"><path class="cls-1" d="M9.94,8.19l.91-.69-.45-.59L8.61,9.07a.38.38,0,0,0,.53.53,16.64,16.64,0,0,1,3.44-2.39l-.51-.51a25.89,25.89,0,0,1-3.29,3.48c-.3.29.09.82.45.59a55.43,55.43,0,0,1,6-3.46l-.45-.59a24,24,0,0,1-2.65,2.85c-.36.33.17.85.53.53a24.43,24.43,0,0,1,3.11-2.32L15.3,7.2c-.77.9-1.58,1.75-2.42,2.58-.3.29.1.85.45.59L16.59,8l-.45-.59-2,2.46c-.25.31.07.84.45.59A59.65,59.65,0,0,1,20.46,7L20,6.46,17.74,9a.38.38,0,0,0,.53.53l1.64-1.33-.59-.45-.89,1.37c-.21.33.2.69.51.51C19.89,9.1,20.79,8.55,21.7,8l-.51-.51-.89,1.43c-.19.31.2.73.51.51l2.57-1.82L22.92,7a14.58,14.58,0,0,0-1.65,2c-.23.32.21.68.51.51.75-.41,1.47-.84,2.19-1.3l-.55-.42-.24.57c-.19.44.54.64.72.2l.24-.57c.13-.31-.29-.59-.55-.42-.72.47-1.44.89-2.19,1.3l.51.51a9.3,9.3,0,0,1,1.54-1.8c.29-.29-.1-.84-.45-.59L20.43,8.75l.51.51.89-1.43a.38.38,0,0,0-.51-.51c-.91.58-1.81,1.13-2.75,1.65l.51.51L20,8.11c.25-.38-.28-.71-.59-.45L17.74,9l.53.53L20.54,7a.38.38,0,0,0-.45-.59,59.65,59.65,0,0,0-5.9,3.42l.45.59,2-2.46c.25-.3-.08-.86-.45-.59L13,9.72l.45.59c.85-.83,1.65-1.68,2.42-2.58.26-.31-.07-.83-.45-.59a25.37,25.37,0,0,0-3.26,2.44l.53.53A24,24,0,0,0,15.3,7.26a.38.38,0,0,0-.45-.59,55.43,55.43,0,0,0-6,3.46l.45.59a26.64,26.64,0,0,0,3.41-3.63c.23-.33-.2-.68-.51-.51a17.26,17.26,0,0,0-3.59,2.5l.53.53,1.78-2.16a.38.38,0,0,0-.45-.59,2.26,2.26,0,0,0-1.07.81c-.33.35.2.88.53.53Z"/><path class="cls-2" d="M8.24,12a12.17,12.17,0,0,0-1,2.22c-.12.34.28.55.55.42a19.76,19.76,0,0,0,4-3l-.63-.36A19.64,19.64,0,0,1,9.54,14.8c-.17.35.31.81.59.45l1.69-2.16-.63-.36q-.21.65-.44,1.3a.38.38,0,0,0,.63.36,16.1,16.1,0,0,1,2.23-2.46L13,11.48q-.41.92-.87,1.81c-.16.32.18.72.51.51q-.55-.25-.61.23c-.18.45.54.64.72.2a2.56,2.56,0,0,0,.22-.75.37.37,0,0,0-.19-.32l-.08,0a.38.38,0,0,0-.38,0l-.07,0,.51.51q.46-.89.87-1.81a.38.38,0,0,0-.59-.45,16.14,16.14,0,0,0-2.23,2.46l.63.36q.22-.65.44-1.3c.11-.34-.39-.66-.63-.36L9.6,14.72l.59.45a20.53,20.53,0,0,0,1.64-3.67.38.38,0,0,0-.63-.36A19.11,19.11,0,0,1,7.4,14l.55.42a11.19,11.19,0,0,1,.94-2A.38.38,0,0,0,8.24,12Z"/><path class="cls-2" d="M19.25,13.21a6.63,6.63,0,0,0,1.16-.9l-.63-.17a2,2,0,0,1,0,.86.38.38,0,0,0,.56.32,1.61,1.61,0,0,0,.5-.41l-.64-.27a.65.65,0,0,0,.5.66c.55.14.78-.54,1.18-.5l-.36-.28a1.85,1.85,0,0,1,0,.37.38.38,0,0,0,.56.32,1.07,1.07,0,0,0,.43-.42l-.69-.09q.05.14.1.28a.39.39,0,0,0,.36.28c.38,0,.61-.33.87-.57h-.53c-.08-.07,0,0,0,.16a.37.37,0,0,0,.26.26.65.65,0,0,0,.62-.11l-.55-.22a1.43,1.43,0,0,0,.28.52c.29.38.94,0,.65-.38l-.2-.34a.38.38,0,0,0-.55-.22s.29.31.15,0a.52.52,0,0,0-.15-.18.38.38,0,0,0-.53,0,2,2,0,0,0-.34.35l.36.28q0-.14-.1-.28a.38.38,0,0,0-.69-.09l-.16.15.56.32a1.77,1.77,0,0,0,0-.57.39.39,0,0,0-.36-.28c-.24,0-1,.29-.93.59a.38.38,0,0,0-.64-.27l-.35.29.56.32A3.42,3.42,0,0,0,20.51,12a.38.38,0,0,0-.63-.17,5.75,5.75,0,0,1-1,.78c-.41.25,0,.9.38.65Z"/><path class="cls-3" d="M10.34,14.34a1.58,1.58,0,0,0-.48.92c-.05.33.35.68.63.36l1.09-1.25L11,14.2l0,.33a.38.38,0,0,0,.69.29.6.6,0,0,1,.3-.34l-.56-.32a3.64,3.64,0,0,0,.16.81.38.38,0,0,0,.63.17l1-1.14-.64-.27a1.66,1.66,0,0,1,0,.48c0,.28.25.63.55.42a4.1,4.1,0,0,0,.69-.6c.33-.36-.2-.89-.53-.53a3.13,3.13,0,0,1-.54.48l.55.42a3,3,0,0,0,0-.68c0-.3-.41-.53-.64-.27l-1,1.14.63.17a2,2,0,0,1-.13-.61.38.38,0,0,0-.56-.32,1.54,1.54,0,0,0-.57.6l.69.29a1.23,1.23,0,0,0,0-.73.38.38,0,0,0-.63-.17L10,15.09l.63.36a.94.94,0,0,1,.29-.59.38.38,0,0,0-.53-.53Z"/><path class="cls-3" d="M9.19,14.51q-.29.65-.55,1.31c-.15.39.37.57.63.36a7.57,7.57,0,0,1,.75-.52l-.56-.32a2.92,2.92,0,0,1,0,.87c-.05.28.26.64.55.42a8.2,8.2,0,0,0,1.6-1.57l-.7-.19a.79.79,0,0,1-.08.48.38.38,0,0,0,.55.42,1.19,1.19,0,0,0,.43-.47l-.42.17a.87.87,0,0,0,1-.19l-.63-.17a2.13,2.13,0,0,1,.06.62c0,.48.73.48.75,0a2.86,2.86,0,0,0-.09-.82.38.38,0,0,0-.63-.17h-.23a.37.37,0,0,0-.42.17l-.16.2.55.42a1.47,1.47,0,0,0,.1-.68.38.38,0,0,0-.7-.19A6.89,6.89,0,0,1,9.6,16l.55.42a3.62,3.62,0,0,0,0-1.07A.38.38,0,0,0,9.64,15a9.18,9.18,0,0,0-.9.64l.63.36q.22-.57.47-1.14c.2-.44-.45-.82-.65-.38Z"/><path class="cls-4" d="M20.54,13.74a1.07,1.07,0,0,1-.11.5c-.16.42.46.62.69.29l-.14,0-.26-.26a3,3,0,0,1,0,.69.38.38,0,0,0,.56.32,5.78,5.78,0,0,0,.79-.56l-.64-.27c0,.46-.3.74-.37,1.16s.07.52,0,.8-.29,1.15.15,1.47a.5.5,0,0,0,.47.07c.33-.14-.19-.12.14,0,.68.23.91-.44,1.47-.68H23c.18.13.23.21.46.24a.38.38,0,0,0,.27-.64l-.09-.14a.38.38,0,0,0-.55-.22l-.58.41.56.32L23,17a.38.38,0,0,0-.47-.36l-.19,0,.47.36a1,1,0,0,0-.11-.48.38.38,0,0,0-.51-.13s-.32.25-.33.24l.28.36a1.56,1.56,0,0,1,.2-.47.38.38,0,0,0-.42-.55l-.24.06.47.36v-.21a.38.38,0,0,0-.37-.37,1.38,1.38,0,0,0-.39,0c-.47.08-.27.8.2.72h.19l-.37-.37v.21a.38.38,0,0,0,.47.36l.24-.06-.42-.55a2,2,0,0,0-.3.85.38.38,0,0,0,.28.36c.37.15.62-.1.91-.32L22.09,17v.1a.38.38,0,0,0,.47.36l.19,0L22.28,17l0,.23c0,.26.31.5.56.32l.58-.41-.55-.22a.61.61,0,0,0,.28.47l.27-.64c.21,0-.1-.16-.18-.17a.66.66,0,0,0-.48.13c-.16.1-.48.53-.54.54s-.25-.16-.42-.13a1.3,1.3,0,0,1-.19.05c.22,0,.1.12.17-.15a4.09,4.09,0,0,0,.1-.89,2,2,0,0,1,.16-.87,1.67,1.67,0,0,0,.13-.81.38.38,0,0,0-.64-.27,4.52,4.52,0,0,1-.64.45l.56.32a3.51,3.51,0,0,0-.06-.89.38.38,0,0,0-.26-.26.61.61,0,0,0-.71.33l.69.29a2.1,2.1,0,0,0,.14-.7c0-.48-.73-.48-.75,0Z"/><path class="cls-5" d="M21.35,13.7c-.08.62.46,1.19,1.06.75l-.55-.22a1,1,0,0,1,.09.44q0,.18-.06.36s.11.32.13.28a.38.38,0,0,0,.32.56.81.81,0,0,0,.35-.06l-.46-.46q-.1.4-.21.8c-.06.21.11.51.36.47l.35,0-.32-.19c.21.32.4.83.91.63s.64-1.13.76-1.56a.38.38,0,0,0-.46-.46.6.6,0,0,0-.32.17l.53.53c.21-.26.4-.53.58-.81a.38.38,0,0,0-.32-.56,6,6,0,0,0-1.3.28l.46.46a5.81,5.81,0,0,1,.24-.61.38.38,0,0,0-.59-.45l-.51.12.36.28a1.46,1.46,0,0,0-.41-.71c-.37-.31-.9.22-.53.53a.71.71,0,0,1,.22.38.39.39,0,0,0,.36.28,3.24,3.24,0,0,0,.58-.13.92.92,0,0,0,.46-.2l-.59-.45a7.64,7.64,0,0,0-.32.79.38.38,0,0,0,.46.46,5.09,5.09,0,0,1,1.1-.25l-.32-.56c-.15.23-.3.45-.47.66a.38.38,0,0,0,.53.53v0l-.46-.46c-.08.27-.17.53-.27.79s-.17.39.07.15a.58.58,0,0,0-.11-.19.37.37,0,0,0-.32-.19l-.35,0,.36.47q.11-.4.21-.8c.06-.25-.18-.57-.46-.46l-.15,0,.32.56a.73.73,0,0,0-.14-.92l.1.36a1.86,1.86,0,0,0,0-1.1A.38.38,0,0,0,22,13.8l0,.1c.06-.47-.66-.68-.72-.2Z"/><path class="cls-5" d="M9.39,18.42a3.31,3.31,0,0,0-.69,1.31.38.38,0,0,0,.55.42c1.16-.78,2.13-1.78,3.33-2.51l-.51-.51Q11,19,9.95,20.76a.38.38,0,0,0,.59.45c.62-.66,1.25-1.29,1.91-1.91l-.59-.45q-1,1.64-1.93,3.32a.38.38,0,0,0,.59.45l4.42-3.48-.53-.53c-1.76,2.2-4,4-5.16,6.58a.38.38,0,0,0,.59.45c2.34-2,4.34-4.43,6.72-6.42L16,18.78c-1,2.28-2.66,4.12-3.67,6.39a.38.38,0,0,0,.59.45l6.88-6.15L19.18,19a60.39,60.39,0,0,1-5.07,6.11.38.38,0,0,0,.53.53c2-1.65,4-3.27,6.16-4.74l-.51-.51a30.08,30.08,0,0,1-2.71,3.7c-.29.37.17.87.53.53a33.63,33.63,0,0,1,4.89-4l-.55-.42c-.59,1.46-2.07,2.74-3.09,3.93-.31.36.2.89.53.53.71-.78,1.43-1.53,2.17-2.28L21.47,22l-1.81,3.1c-.18.3.2.74.51.51a27.89,27.89,0,0,1,3.31-2.15L23,22.92l-2,2.81c-.23.31.21.7.51.51.68-.42,1.32-.86,2-1.35l-.55-.42-.52,1.14c-.17.31.18.73.51.51l.47-.27a.38.38,0,0,0,.75,0,2,2,0,0,0-.06-.66.38.38,0,0,0-.36-.28c-.55,0-.55.15-1.17.55L23,26a8.59,8.59,0,0,0,.6-1.31c.11-.29-.3-.62-.55-.42-.64.49-1.28.92-2,1.35l.51.51,2-2.81c.23-.32-.21-.68-.51-.51a27.89,27.89,0,0,0-3.31,2.15l.51.51,1.81-3.1a.38.38,0,0,0-.59-.45c-.75.74-1.46,1.5-2.17,2.28l.53.53c1.15-1.34,2.62-2.61,3.28-4.26.12-.31-.29-.59-.55-.42a34.73,34.73,0,0,0-5,4.07l.53.53a31.24,31.24,0,0,0,2.83-3.85c.17-.31-.19-.73-.51-.51-2.19,1.51-4.26,3.17-6.31,4.86l.53.53a61.62,61.62,0,0,0,5.19-6.26c.25-.37-.28-.73-.59-.45l-6.88,6.15.59.45c1-2.27,2.68-4.11,3.67-6.39a.38.38,0,0,0-.59-.45c-2.38,2-4.38,4.38-6.72,6.42l.59.45c1.15-2.54,3.33-4.29,5-6.43a.38.38,0,0,0-.53-.53L10,22.1l.59.45q.93-1.68,1.93-3.32a.38.38,0,0,0-.59-.45c-.66.62-1.29,1.25-1.91,1.91l.59.45q1.08-1.8,2.12-3.63A.38.38,0,0,0,12.2,17C11,17.72,10,18.72,8.87,19.5l.55.42L10,18.8c.28-.39-.37-.77-.65-.38Z"/><path class="cls-6" d="M5.13,3.57c-1.19,7.8-.19,16.35.28,24.19.11,1.92,3.11,1.93,3,0C8,20.24,6.88,11.85,8,4.37c.29-1.89-2.6-2.7-2.89-.8Z"/><path class="cls-6" d="M7.4,29.37c3-.59,6.16,0,9.17-.14s6-.28,9-.67c1.89-.24,1.91-3.25,0-3a97,97,0,0,1-10.35.71c-2.91.06-5.75-.37-8.63.2-1.89.37-1.09,3.27.8,2.89Z"/><path class="cls-6" d="M6.89,5.26c3,.47,5.94.05,9,.06s6,.43,9,.09c1.9-.21,1.92-3.22,0-3a52,52,0,0,1-7.83-.06c-3.13-.11-6.28.51-9.39,0C5.8,2.07,5,5,6.89,5.26Z"/><path class="cls-6" d="M24.16,5.43c1.05,3.25.57,7.21.4,10.56-.15,3.16.41,6.75,0,9.84-.19,1.43,2.06,1.42,2.25,0,.26-2-.24-3.81-.24-5.79s.25-3.79.31-5.67c.11-3.14.43-6.5-.55-9.53-.44-1.37-2.62-.78-2.17.6Z"/><path d="M6.82,6c.27,6.93-.24,13.73.44,20.67.09,1,1.59,1,1.5,0C8.08,19.74,8.59,12.94,8.32,6c0-1-1.54-1-1.5,0Z"/><path d="M7.63,27.22a104.41,104.41,0,0,0,17-.33c.95-.12,1-1.62,0-1.5a104.41,104.41,0,0,1-17,.33c-1,0-1,1.46,0,1.5Z"/><path d="M7.46,6.19a63.91,63.91,0,0,0,9.62,0c2.47-.07,5,.47,7.39-.15a.75.75,0,0,0-.4-1.45c-2.58.66-5.63,0-8.28.15a48.86,48.86,0,0,1-8.33,0c-1-.12-.95,1.38,0,1.5Z"/><path d="M23.39,5.93a42.19,42.19,0,0,1,0,11.06c-.27,3.21.28,6,.45,9.16.05,1,1.55,1,1.5,0A75,75,0,0,1,25,15.47a38.12,38.12,0,0,0-.2-9.95c-.17-.95-1.61-.55-1.45.4Z"/><path d="M4.62,3.41c.36,8.74-.3,17.3.56,26.06.09,1,1.59,1,1.5,0-.86-8.76-.2-17.31-.56-26.06,0-1-1.54-1-1.5,0Z"/><path d="M5.44,30a131.65,131.65,0,0,0,21.42-.42c.95-.12,1-1.62,0-1.5a131.65,131.65,0,0,1-21.42.42c-1,0-1,1.46,0,1.5Z"/><path d="M5.23,3.44c4.07.5,8.05.08,12.13,0,3.1-.09,6.24.59,9.27-.18a.75.75,0,0,0-.4-1.45c-3.28.84-7.13,0-10.49.2a61.6,61.6,0,0,1-10.51,0c-1-.12-.95,1.38,0,1.5Z"/><path d="M25.51,3.25c.83,4.73.43,9.25,0,14-.34,4,.35,7.52.57,11.55.05,1,1.55,1,1.5,0-.25-4.6-.79-8.82-.4-13.45A47.87,47.87,0,0,0,27,2.85c-.17-.95-1.61-.55-1.45.4Z"/><path d="M13.59,12.35c-1.63,1-2.65,3.7-1.38,5.33,1.51,1.92,4.82,2.26,6.84,1.06,1.71-1,2.89-3.32,1.55-5.08a5.78,5.78,0,0,0-2.5-2c-1.31-.44-2.71.13-4,.45a.75.75,0,0,0,.4,1.45c1.49-.37,2.82-1,4.1.19,1.13,1,1.41,2.23.12,3.36a4,4,0,0,1-4,.54,2.19,2.19,0,0,1-.43-4c.82-.5.07-1.8-.76-1.3Z"/><path d="M14.83,15.4a.75.75,0,0,0,0-1.5.75.75,0,0,0,0,1.5Z"/><path d="M17.39,15.45a.75.75,0,0,0,0-1.5.75.75,0,0,0,0,1.5Z"/><path d="M15.28,17.14h1.31a.38.38,0,0,0,0-.75H15.28a.38.38,0,0,0,0,.75Z"/><path d="M15.6,19.76q.45,3.16.69,6.34c.07,1,1.57,1,1.5,0q-.26-3.38-.74-6.74c-.14-1-1.58-.55-1.45.4Z"/><path d="M15.49,20.59c-1.31.31-3.72,1.27-3.16,3,.23.74,1,1,1.69,1.26a8.06,8.06,0,0,0,2.77.36c1,0,1-1.53,0-1.5a6.93,6.93,0,0,1-1.49-.09,3.51,3.51,0,0,1-1.38-.41c-.2-.16-.18-.08,0-.31a1.54,1.54,0,0,1,.52-.36A5.67,5.67,0,0,1,15.89,22c.94-.22.54-1.67-.4-1.45Z"/><path d="M16.15,22a11,11,0,0,1,1.58.63,9.74,9.74,0,0,0,1.61.72q-.05-.32-.22-.16a1.59,1.59,0,0,1-.32.16,4.08,4.08,0,0,1-.73.22,4.6,4.6,0,0,1-1.89,0c-.94-.2-1.34,1.25-.4,1.45a6.27,6.27,0,0,0,2.93,0c.76-.2,1.71-.57,2-1.4.31-1-.5-1.47-1.28-1.81a20.32,20.32,0,0,0-2.85-1.18.75.75,0,0,0-.4,1.45Z"/></g></svg>