<svg id="Layer_60" data-name="Layer 60" xmlns="http://www.w3.org/2000/svg" viewBox="0 0 32 32"><defs><style>.cls-1{fill:#8cc63f;}</style></defs><title>item-icon</title><path class="cls-1" d="M9.93,8.74A32.1,32.1,0,0,1,5.87,15c-.8.94-2,1.93-2.29,3.23C3,21.25,6,21.64,8.15,22.32c3.23,1,6.74,2.28,10.07,1.37,1.92-.52,3.86-1.32,5.82-1.86,1.23-.34,2.73-.64,3.42-1.85a3.25,3.25,0,0,0,.27-2.09,32.87,32.87,0,0,0-.46-4.29,6.15,6.15,0,0,0-4.17-4.23c-1.94-.54-4-.62-6-1.14-1.18-.31-3-.82-4.22-.31-1,.41-.93.63-1.41,1.42-.58,1-.93,2.25-1.55,3.28a37,37,0,0,1-3.63,4.67,1.52,1.52,0,0,0,.3,2.36,22.57,22.57,0,0,0,9.37,2,7.27,7.27,0,0,0,2.55-.79c2.13-.9,4.23-1.18,6.36-1.9a1.49,1.49,0,0,0,1-1c.66-4.42-2.43-6.37-6.11-7.18-1.7-.37-4.25-1.74-6-1-2.16.89-3.81,4.91-5.23,6.61a1.52,1.52,0,0,0,.66,2.51c4.17.91,10.82.72,13.83-3a1.56,1.56,0,0,0,.23-1.82c-1.28-2.25-3.88-1.25-5.8-.69-1,.3-3.76.44-3,2.44a6.34,6.34,0,0,0,1-.51c.09,0,.72-.53-.23-.35a8.73,8.73,0,0,1,1.37.33c1.06.12,1.59-1.05,1.45-1.9a9.15,9.15,0,0,0-4.19-5.45c-2.16-.94-3.59.85-5.16,2.26s.69,3.41,2.12,2.12c1.14-1,1-1.78,2.21-1.19a5.53,5.53,0,0,1,2.13,3.05l1.45-1.9a4.9,4.9,0,0,0-4,.88c-1.19.7-2.54,1.37-2,3a1.49,1.49,0,0,0,1,1c1.13.2,9-1.65,9-1.63l.23-1.82C18.62,16.54,13,16.62,10,16l.66,2.51c.84-1,1.65-2,2.42-3.06q.63-.85,1.21-1.73-.33-1.71.7-.94a12.23,12.23,0,0,1,2.43.72l1.19.15a3.58,3.58,0,0,1,3.79,2.07A7,7,0,0,0,22.8,17q.28.88,1-.87c-.33-.45-3.64.73-4.29,1a14.74,14.74,0,0,1-11.4-.08l.3,2.36a41.05,41.05,0,0,0,5-6.59c-.19.35,1.42-2.6.93-2.34.35-.19,1.66.47,2.62.83,1.54.58,5.5.59,6.56,1.79a17,17,0,0,1,.8,4.85,1.7,1.7,0,0,0,.48.71l-1.51.28a27.73,27.73,0,0,1-3.78.85,16.56,16.56,0,0,1-7.12.49c-.56-.09-4.18-.56-4.72-1.25-1-1.27.39-1.93,1.2-2.95a34.26,34.26,0,0,0,3.7-5.81C13.4,8.54,10.81,7,9.93,8.74Z"/><path d="M14.12,6c-2.19.2-4.41.6-5.64,2.63-.63,1-1.36,2-1.94,3.1a6.09,6.09,0,0,1-1.14,1.93,19.62,19.62,0,0,1-2,1.06c-1.22.78-.09,2.72,1.14,1.94a21.27,21.27,0,0,0,2.56-1.47,6.64,6.64,0,0,0,1.39-2.34c.47-.87,1.14-1.73,1.66-2.56,1-1.59,2.18-1.88,4-2,1.43-.13,1.44-2.38,0-2.25Z"/><path d="M2.94,15.21c-1.45,2.57-1.52,6.87,1.64,8.11,2.19.86,4.67.48,6.92,1.12A30.25,30.25,0,0,0,17.86,26c1.45.1,1.44-2.16,0-2.25-2.76-.18-5.21-1.54-7.93-1.93-1-.15-2.05-.12-3.08-.26s-1.46-.15-2.08-1a3.91,3.91,0,0,1,.11-4.13,1.13,1.13,0,0,0-1.94-1.14Z"/><path d="M18.8,25.56c1.08-1.06,1.82-2,3.4-2.14,1.14-.13,2.27,0,3.41-.21a6.53,6.53,0,0,0,4.21-2.71c.84-1.18-1.11-2.3-1.94-1.14-1.68,2.35-4.42,1.51-6.82,1.83-1.66.22-2.71,1.67-3.84,2.78s.56,2.61,1.59,1.59Z"/><path d="M29.88,19A27.78,27.78,0,0,1,28,16.22a2,2,0,0,1-.43-1c0-.44.84-1.33,1.08-1.71.77-1.23-1.17-2.36-1.94-1.14S24.92,14.62,25.37,16a15.38,15.38,0,0,0,2.57,4.14c.86,1.14,2.82,0,1.94-1.14Z"/><path d="M14.39,8.51c2.06-.08,4,.8,6.07,1,2.86.33,4.32,1.95,6.37,3.84,1.06,1,2.66-.61,1.59-1.59-1.77-1.62-3.51-3.71-6-4.26-1.28-.29-2.6-.29-3.88-.6a14.6,14.6,0,0,0-4.21-.67c-1.44.05-1.45,2.3,0,2.25Z"/></svg>