<svg xmlns="http://www.w3.org/2000/svg" viewBox="0 0 32 32"><defs><style>.cls-1{fill:red;}</style></defs><title>item-icon</title><g id="Layer_4" data-name="Layer 4"><path class="cls-1" d="M9.37,11.79A6.23,6.23,0,0,0,6.76,15,19.38,19.38,0,0,0,5.17,23.1,8.2,8.2,0,0,0,5.65,26a3.84,3.84,0,0,0,1.92,2.13,4.6,4.6,0,0,0,2.27.27,7.73,7.73,0,0,0,3.72-1.27A5.5,5.5,0,0,0,15.81,24c.06,1.58.65,3.34,2.1,4a4.41,4.41,0,0,0,1.86.27,5.71,5.71,0,0,0,2.91-.71,5.27,5.27,0,0,0,1.44-1.43c1.64-2.28,2.18-5.16,2.52-7.95a16.43,16.43,0,0,0,.1-4.13,6.53,6.53,0,0,0-1.67-3.72,6.57,6.57,0,0,0-4-1.78,17.16,17.16,0,0,0-4.44.25,20.19,20.19,0,0,0-4.27,1,7.91,7.91,0,0,0-3.53,2.52"/><path d="M8.61,10.5C4.17,13.57,1.72,22.93,4.82,27.61c3.4,5.15,10.7,1.19,12.44-3.25L14.31,24c.53,4.23,3.39,6.93,7.86,5.39s5.53-7.2,6-11.24c.51-4.64-.5-9.49-5.57-10.87C17.9,6,11,7.59,7.76,11.21c-1.29,1.43.83,3.56,2.12,2.12,3.39-3.78,13.4-5.48,15.08.42a14.72,14.72,0,0,1-.37,7.45A9.47,9.47,0,0,1,23,25c-1.39,1.63-5.14,3.28-5.67-1a1.51,1.51,0,0,0-2.95-.4q-3.87,6.57-7.69-.46A17.7,17.7,0,0,1,7,19.39c.43-2.24,1.16-4.93,3.14-6.3C11.7,12,10.2,9.39,8.61,10.5Z"/><path d="M18.44,6.93a8.51,8.51,0,0,0-1.9-3.82c-1.09-1.23-2.47-.9-3.91-1-1.92-.16-1.91,2.84,0,3,.64.05,1.48-.26,1.83.22a6.21,6.21,0,0,1,1.1,2.42c.37,1.89,3.26,1.09,2.89-.8Z"/></g></svg>