<svg xmlns="http://www.w3.org/2000/svg" viewBox="0 0 32 32"><defs><style>.cls-1{fill:#ff931e;}</style></defs><title>item-icon</title><g id="Layer_21" data-name="Layer 21"><path class="cls-1" d="M9.51,17.09A11.45,11.45,0,0,1,17.59,17a5.56,5.56,0,0,0,5-.84c1.64-1,.13-3.61-1.51-2.59-2.11,1.31-4.2-.12-6.46-.3a13.38,13.38,0,0,0-6,.94c-1.78.69-1,3.59.8,2.89Z"/><path class="cls-1" d="M8.55,17.59c.11.28-.19,1-.21,1.36a8.41,8.41,0,0,0,.3,2.35A7,7,0,0,0,9.9,24.21c1.66,1.91,5,1.61,7.25,1.78,2.57.19,5.17.34,6.95-1.84a6.15,6.15,0,0,0,.6-6.56c-.71-1.36-2.38-2.77-3.93-1.81a4.4,4.4,0,0,0-1.44,2.79,21.71,21.71,0,0,1-.16,2.19c-.31.85.11.84-1.15.87s-6.38-.27-5.57-3c.61-2,3.59-.46,4.14.76.38.85.39,1.66,1.26,2.23s2.87.78,3.95.93a1.57,1.57,0,0,0,1.69-.69c1.34-2.29-.49-5.26-2.86-5.82a3.12,3.12,0,0,0-3,.64,5.52,5.52,0,0,0-.84,1.54,1.44,1.44,0,0,1-.83,1.24q-2.46-.19-.74.25l.39-1.46-.49-.42c-1.6-1.08-3.11,1.51-1.51,2.59a3.26,3.26,0,0,0,4.12,0,1.51,1.51,0,0,0,.39-1.46c-.87-4-8.41-3.39-7,1.12.63,2.05,3,2.71,4.95,2.44a4.6,4.6,0,0,0,2.63-1.08,3.85,3.85,0,0,0,.65-1.14l.14-.55q.41-2.37,1.47.64l1.69-.69c-.59-.08-2.65-.32-3.05-.76s-.4-1.75-1.05-2.42a7.14,7.14,0,0,0-5.67-1.68c-4.44.9-4.35,6.78-.67,8.66a13.25,13.25,0,0,0,7.32,1.09c2.2-.36,2.77-1.71,2.7-3.8,0-.45-.12-3.2,0-1.22.07,1.09.31,2.11-.64,3-1.25,1.15-4,.5-5.45.39-1.88-.14-3.51,0-4.4-1.94-.65-1.41.3-2.86-.23-4.19-.71-1.77-3.61-1-2.89.8Z"/><path d="M6.29,10.27q.87,7.79,1.15,15.63c.07,1.92,3.07,1.93,3,0q-.28-7.84-1.15-15.63c-.21-1.9-3.21-1.92-3,0Z"/><path d="M9.1,27.45a1.5,1.5,0,0,0,0-3,1.5,1.5,0,0,0,0,3Z"/><path d="M9.11,27.42a60.57,60.57,0,0,0,15.07-.08c1.89-.25,1.91-3.25,0-3a60.57,60.57,0,0,1-15.07.08c-1.91-.23-1.9,2.77,0,3Z"/><path d="M21.9,9.7q.66,8,.93,16c.07,1.93,3.07,1.93,3,0q-.27-8-.93-16c-.16-1.91-3.16-1.93-3,0Z"/><path d="M8.07,10.69a7.6,7.6,0,0,0,1.39-.34,5.24,5.24,0,0,0,.82-.37l.24-.16c-.14.1.73-.58.28-.24l-.76.2h.06L8.65,8.68v0L9.34,7l0,0,1.82.23v0A1.5,1.5,0,0,0,9,9.38v0a1.5,1.5,0,0,0,1.82.23l0,0a1.61,1.61,0,0,0,.69-1.69v0a1.51,1.51,0,0,0-1.45-1.1,1.72,1.72,0,0,0-1.17.48c-.19.17,0,0-.1.08a2.84,2.84,0,0,1-.32.17c.15-.07,0,0-.06,0l-.36.1c-.27.07-.54.12-.81.16a1.51,1.51,0,0,0-1,1.85,1.53,1.53,0,0,0,1.85,1Z"/><path d="M19.75,9.22a4.45,4.45,0,0,0,1.57.75,2.84,2.84,0,0,0,.94.14c.13,0,.09.07-.09-.07s-.19-.1-.24-.25A1.5,1.5,0,1,0,24.83,9,2.57,2.57,0,0,0,23,7.22c-.37-.1-.73-.08-1-.16a2.48,2.48,0,0,1-.77-.43,1.51,1.51,0,0,0-2.05.54,1.54,1.54,0,0,0,.54,2.05Z"/><path d="M8.29,7.5,21.1,7.11c1.93-.06,1.93-3.06,0-3L8.29,4.5c-1.93.06-1.93,3.06,0,3Z"/></g></svg>