<svg xmlns="http://www.w3.org/2000/svg" viewBox="0 0 32 32"><defs><style>.cls-1{fill:gray;}</style></defs><title>item-icon</title><g id="Layer_59" data-name="Layer 59"><path class="cls-1" d="M8.92,15.63c-.2,1.72-1.52,2.88-2.08,4.48A1.51,1.51,0,0,0,8.29,22a102.15,102.15,0,0,1,15.07-.51,1.51,1.51,0,0,0,1.45-1.9c-1.16-2.93-1.32-5-4.74-5.1-2,0-4,0-6,0-1.26,0-2.65-.19-3.75.59-1.44,1-1.86,3.32-.28,4.44,1.15.81,2.65.32,3.89.12a32.07,32.07,0,0,1,6.84-.28c1.93.12,1.92-2.89,0-3a33.12,33.12,0,0,0-5.18.05,7.31,7.31,0,0,0-1.94.25.54.54,0,0,0-.72.42q-.6.67.59.37c1.3.53,3.54.08,4.93.08,2.62,0,2.58.59,3.49,2.89l1.45-1.9A102.15,102.15,0,0,0,8.29,19l1.45,1.9c.35-1,1.21-1.76,1.63-2.75a8.73,8.73,0,0,0,.56-2.53c.23-1.91-2.78-1.9-3,0Z"/><path d="M8,13.93,4.67,21.87c-.56,1.34,1.62,1.92,2.17.6l3.31-7.95c.56-1.34-1.62-1.92-2.17-.6Z"/><path d="M5.84,23.26a120.26,120.26,0,0,0,20.41-.38c1.42-.16,1.44-2.41,0-2.25A120.26,120.26,0,0,1,5.84,21c-1.45-.09-1.44,2.16,0,2.25Z"/><path d="M9.09,15.3q7.07.07,14.13-.1a1.13,1.13,0,0,0,0-2.25q-7.06.17-14.13.1a1.13,1.13,0,0,0,0,2.25Z"/><path d="M22.35,14.3a39.84,39.84,0,0,0,2.79,7.79c.62,1.31,2.56.17,1.94-1.14a37,37,0,0,1-2.56-7.26c-.34-1.41-2.51-.81-2.17.6Z"/></g></svg>