<svg xmlns="http://www.w3.org/2000/svg" viewBox="0 0 32 32"><title>item-icon</title><g id="Layer_35" data-name="Layer 35"><path d="M6,17.66C4,18.1,3.35,21.41,4.21,23S7.83,25.7,9.46,24.8s2.77-3.78,2.28-5.41c-.62-2.08-3.78-2.61-5.51-1.83-.88.4-.12,1.69.76,1.3,1.22-.55,3.64.14,3.3,1.79A5.61,5.61,0,0,1,9,23.24c-.67.65-2.13.25-2.83-.24a2,2,0,0,1-.83-2.09c.08-.53.41-1.66,1.05-1.8.94-.2.54-1.65-.4-1.45Z"/><path d="M24.31,18a4.26,4.26,0,0,0-2.73,4.72c.47,2.09,3,2.38,4.74,2,1.94-.43,2.56-2.17,2.32-4s-2.34-3.65-4.14-3c-.89.34-.51,1.79.4,1.45,1.14-.43,2.25,1.11,2.29,2s-.19,1.78-1.26,2c-.84.2-2.5.28-2.86-.77a2.78,2.78,0,0,1,1.65-3,.75.75,0,0,0-.4-1.45Z"/><path d="M11,21.9a28.42,28.42,0,0,0,11.06-.53.75.75,0,0,0-.4-1.45,26.43,26.43,0,0,1-10.26.53c-.94-.14-1.35,1.31-.4,1.45Z"/><path d="M3.2,21.87H4a.75.75,0,0,0,0-1.5H3.2a.75.75,0,0,0,0,1.5Z"/><path d="M2,9.4c.49,3.8-.65,7.56.11,11.35.19.95,1.63.55,1.45-.4C2.86,16.71,4,13.06,3.53,9.4c-.12-.94-1.62-1-1.5,0Z"/><path d="M2.72,9.37a100.55,100.55,0,0,0,15.19-1c.95-.11,1-1.61,0-1.5a100.54,100.54,0,0,1-15.19,1c-1,0-1,1.47,0,1.5Z"/><path d="M17.59,7.76a42.25,42.25,0,0,0,.39,7.3c.13,1,1.58.55,1.45-.4a40,40,0,0,1-.33-6.9c0-1-1.47-1-1.5,0Z"/><path d="M18.84,15.35,28,15.07c1,0,1-1.53,0-1.5l-9.12.28c-1,0-1,1.53,0,1.5Z"/><path d="M27.75,14.8S27.69,16,27.69,16q0,.73,0,1.45c0,1,0,1.94,0,2.9a.75.75,0,0,0,1.5,0c0-1.37,0-2.74,0-4.11,0-.84.19-1.86-.38-2.55s-1.67.32-1.06,1.06Z"/><path d="M22.54,20.7A3.9,3.9,0,0,1,25.09,19c1.08-.07,2,.78,2.76,1.44s1.79-.42,1.06-1.06c-1.18-1-2.55-2.1-4.23-1.83a5.56,5.56,0,0,0-3.43,2.43c-.52.82.78,1.57,1.3.76Z"/><path d="M12.25,20.71c.83-2.37-1.81-4.06-3.88-4.07a7.82,7.82,0,0,0-3.42.5c-1.23.62-1.67,1.87-2.22,3-.4.87.89,1.63,1.3.76.64-1.39,1-2.52,2.74-2.73a9.53,9.53,0,0,1,1.61-.08c.92,0,3,.62,2.43,2.17-.32.91,1.13,1.31,1.45.4Z"/><path d="M28.58,16.39a1.82,1.82,0,0,1,.06,1c-.22.94,1.23,1.34,1.45.4A3.37,3.37,0,0,0,30,16c-.29-.92-1.74-.53-1.45.4Z"/></g></svg>