<svg xmlns="http://www.w3.org/2000/svg" viewBox="0 0 32 32"><defs><style>.cls-1{fill:#0071bc;}.cls-2{fill:#ff0;}</style></defs><title>icon</title><g id="Layer_65" data-name="Layer 65"><path class="cls-1" d="M2.79,2.7A34.18,34.18,0,0,0,.8,7c-1,2.72,2.3,4.34,4.41,3.39L15.77,5.68,12.14,1C8.39,5,3.84,8,1.24,12.92,0,15.32,2.76,19,5.34,17A136.18,136.18,0,0,1,20.59,6.75L17,2C11.66,7.33,5.18,11,.72,17.15c-2,2.77,2.4,6.08,4.71,3.64,5.66-6,14.39-9.31,21.42-13.42L23.21,2.66C16.34,9.61,8.13,15,1.42,22.17c-2.27,2.4.67,6.61,3.64,4.71C13.53,21.47,22,16,30.21,10.25L26.57,5.54c-6.85,7-15.39,12-20.81,20.34C4.18,28.32,7.4,31.73,9.87,30c6.26-4.43,13.62-6.87,20-11.14l-3.64-4.71c-4,4.11-7.36,8.9-12.11,12.19L17.74,31c3.21-3,8.09-4.45,12-6.27l-4.1-4.1-4.35,6.49c-2.16,3.22,3,6.22,5.18,3l4.35-6.49c1.83-2.72-1.63-5.25-4.1-4.1-4.51,2.09-9.53,3.78-13.22,7.2-2.46,2.28.8,6.67,3.64,4.71,5.24-3.62,8.94-8.6,13.33-13.13,2.3-2.37-.72-6.67-3.64-4.71-6.36,4.27-13.72,6.71-20,11.14l4.1,4.1C16,21.09,24.38,16.35,30.81,9.78c2.3-2.35-.76-6.73-3.64-4.71C19,10.86,10.5,16.29,2,21.7l3.64,4.71C12.38,19.29,20.58,13.85,27.45,6.9c2.38-2.41-.66-6.45-3.64-4.71C16.26,6.61,7.29,10.1,1.19,16.54L5.9,20.18c4.09-5.62,10.43-9,15.3-13.9,2.43-2.43-.66-6.37-3.64-4.71A136.18,136.18,0,0,0,2.32,11.84l4.1,4.1c2.33-4.44,6.6-7.15,10-10.74C18.82,2.6,15.77-.87,12.74.5L2.18,5.25,6.59,8.64A15.65,15.65,0,0,1,8,5.73c1.87-3.38-3.31-6.41-5.18-3Z"/><path class="cls-2" d="M15.21,7.28A8.15,8.15,0,0,0,7,17.2a13.67,13.67,0,0,0,.73,2.19,9.35,9.35,0,0,0,.89,1.76c1.25,1.82,3.5,2.67,5.68,3s4.85.32,6.64-1.15a7.47,7.47,0,0,0,1.35-1.52,14.14,14.14,0,0,0,2.5-7.09,5.36,5.36,0,0,0-.35-2.63,6.61,6.61,0,0,0-1.76-2A8.14,8.14,0,0,0,20.8,8.4c-1.6-.75-3.54-.39-5.17-1.09"/><path d="M15.21,6.16c-5.41.2-9.91,4.35-9.5,10s4.61,9,10.09,9.34c5.85.32,9.19-4.43,10-9.83.35-2.41.06-4.29-1.62-6.08-2.48-2.64-5-2.37-8.22-3.36-1.39-.43-2,1.74-.6,2.17,3.52,1.09,8.33,1,8.33,6,0,4-2.64,8.58-6.85,8.83C13,23.5,9.58,21.76,8.41,18a7.17,7.17,0,0,1,6.81-9.61c1.44-.05,1.45-2.3,0-2.25Z"/><path d="M7,23.76,4.26,27c-.63.73.43,1.79,1.06,1.06l2.79-3.21C8.74,24.1,7.68,23,7,23.76Z"/><path d="M1.5,15.27l3.06.07a.75.75,0,0,0,0-1.5L1.5,13.77a.75.75,0,0,0,0,1.5Z"/><path d="M5.08,5a9.74,9.74,0,0,0,2.5,2.25c.82.52,1.57-.78.76-1.3a8.59,8.59,0,0,1-2.2-2,.75.75,0,0,0-1.06,0A.77.77,0,0,0,5.08,5Z"/><path d="M14.94,27.09a20.1,20.1,0,0,0,.22,3.76c.14,1,1.59.55,1.45-.4a18,18,0,0,1-.16-3.36c0-1-1.46-1-1.5,0Z"/><path d="M24.49,24.44l3,2.1c.79.56,1.54-.74.76-1.3l-3-2.1c-.79-.56-1.54.74-.76,1.3Z"/><path d="M27.19,16H30.5a.75.75,0,0,0,0-1.5H27.19a.75.75,0,0,0,0,1.5Z"/><path d="M23.51,6.8a21.64,21.64,0,0,1,2-2.14c.71-.65-.35-1.71-1.06-1.06a21.64,21.64,0,0,0-2,2.14c-.61.74.44,1.8,1.06,1.06Z"/><path d="M14.18,1.34a19.88,19.88,0,0,0,.43,3.27c.2.94,1.65.54,1.45-.4a17.4,17.4,0,0,1-.38-2.87c0-1-1.55-1-1.5,0Z"/></g></svg>