<svg xmlns="http://www.w3.org/2000/svg" viewBox="0 0 32 32"><defs><style>.cls-1{fill:#2e3192;}.cls-2{fill:#ccc;}</style></defs><title>icon</title><g id="Layer_66" data-name="Layer 66"><path class="cls-1" d="M2.79,2.7A34.18,34.18,0,0,0,.8,7c-1,2.72,2.3,4.34,4.41,3.39L15.77,5.68,12.14,1C8.39,5,3.84,8,1.24,12.92,0,15.32,2.76,19,5.34,17A136.18,136.18,0,0,1,20.59,6.75L17,2C11.66,7.33,5.18,11,.72,17.15c-2,2.77,2.4,6.08,4.71,3.64,5.66-6,14.39-9.31,21.42-13.42L23.21,2.66C16.34,9.61,8.13,15,1.42,22.17c-2.27,2.4.67,6.61,3.64,4.71C13.53,21.47,22,16,30.21,10.25L26.57,5.54c-6.85,7-15.39,12-20.81,20.34C4.18,28.32,7.4,31.73,9.87,30c6.26-4.43,13.62-6.87,20-11.14l-3.64-4.71c-4,4.11-7.36,8.9-12.11,12.19L17.74,31c3.21-3,8.09-4.45,12-6.27l-4.1-4.1-4.35,6.49c-2.16,3.22,3,6.22,5.18,3l4.35-6.49c1.83-2.72-1.63-5.25-4.1-4.1-4.51,2.09-9.53,3.78-13.22,7.2-2.46,2.28.8,6.67,3.64,4.71,5.24-3.62,8.94-8.6,13.33-13.13,2.3-2.37-.72-6.67-3.64-4.71-6.36,4.27-13.72,6.71-20,11.14l4.1,4.1C16,21.09,24.38,16.35,30.81,9.78c2.3-2.35-.76-6.73-3.64-4.71C19,10.86,10.5,16.29,2,21.7l3.64,4.71C12.38,19.29,20.58,13.85,27.45,6.9c2.38-2.41-.66-6.45-3.64-4.71C16.26,6.61,7.29,10.1,1.19,16.54L5.9,20.18c4.09-5.62,10.43-9,15.3-13.9,2.43-2.43-.66-6.37-3.64-4.71A136.18,136.18,0,0,0,2.32,11.84l4.1,4.1c2.33-4.44,6.6-7.15,10-10.74C18.82,2.6,15.77-.87,12.74.5L2.18,5.25,6.59,8.64A15.65,15.65,0,0,1,8,5.73c1.87-3.38-3.31-6.41-5.18-3Z"/><path class="cls-2" d="M12,7.12c-.61,4.73-.52,8.11,2.32,12.2,2.09,3,5.74,6.34,9.21,7.61V24c-4,1.13-10-.23-12.56-3.88-3.12-4.48.63-9.37,3.93-12.61L12.5,5.73c-2,4.06-4,9.51-2.93,14.11,1.19,5,6.13,5.33,10.39,6.16a1.51,1.51,0,0,0,1.46-2.51c-1-1-7.61-5.74-7.29-6.89H11.24l1.61,5.74a1.5,1.5,0,0,0,2.89-.8L14.13,15.8a1.51,1.51,0,0,0-2.89,0A4,4,0,0,0,12,19.68c1.93,2.38,5.14,3.72,7.33,5.93l1.46-2.51c-4.11-.8-8.14-.46-8.38-6.25-.13-3.15,1.36-6.87,2.72-9.61a1.51,1.51,0,0,0-2.36-1.82C8.68,9.4,4.32,15.74,8,21.32c3.45,5.24,10.47,7.26,16.29,5.62a1.51,1.51,0,0,0,0-2.89c-2.88-1.05-6.63-4.8-8.12-7.36-2-3.48-1.7-5.77-1.21-9.55.25-1.91-2.76-1.89-3,0Z"/><path d="M15.62,2.79C7.26,4.84,2.1,14,6.14,22.16c3.52,7.15,15.14,8.62,20.53,3.16,1-1-.57-2.62-1.59-1.59C20.4,28.47,9.79,26.59,7.75,19.87A11.4,11.4,0,0,1,16.22,5c1.41-.34.81-2.51-.6-2.17Z"/><path d="M15.15,3.49c-4.38,9.66.24,19.88,10.85,21.85,1.42.26,2-1.9.6-2.17-3.69-.69-7.3-2.14-9.19-5.6a14.36,14.36,0,0,1-.32-12.94c.59-1.31-1.34-2.45-1.94-1.14Z"/></g></svg>