<svg xmlns="http://www.w3.org/2000/svg" viewBox="0 0 32 32"><defs><style>.cls-1{fill:#ff1d25;}.cls-2{fill:#7ac943;}</style></defs><title>item-icon</title><g id="Layer_63" data-name="Layer 63"><path class="cls-1" d="M22.76,18.25c-1.51,1.28-2.35,3.2-3.91,4.47-.61.49-1.36.82-2,1.32a5.05,5.05,0,0,0-1,1q-.48.63-.15.07c-1.07-.17-3.54-3.59-4.27-4.34-.93-.95-2-1.24-3-2L7.36,21.29c2,0,6.14.14,7-2.07.49-1.2-.49-3.27-.62-4.48a47.42,47.42,0,0,0-.64-5l-1,1.85c3.06-.53,5.54.11,8.52.09l-1.5-1.5c.2,3.25-.66,7.06,1.2,10l.23-1.82c-1,1.07-2.78,3.6-4.21,4.13l-.19.44-1.4-1.11c-.83-.7-1.62-1.44-2.4-2.19l-.66,2.51c1.51-.6,2.82-.1,4.38-.12a15,15,0,0,0,4.11-.81L19,18.45a27.27,27.27,0,0,0-4.6,2.71l2.2.9c-.56-2.54-.87-5-1.19-7.63A11.69,11.69,0,0,1,15,12.29q1.28-.71,2,.72a1.66,1.66,0,0,1,1.1,2c.41,1.6-.43,4-.87,1.17,0-.26-.57-5.16-1.44-2.65l.53,1q.07,1.27.25,2.54c.23,1.89,3.23,1.92,3,0-.27-2.26.37-4.88-2-6-1.38-.68-3.06-.76-3.71.88s.26,6.64,1.25,8c1.15,1.55,3.61.94,5-.18,1.85-1.54,1.21-4.81.89-6.9S19.13,9.51,17,9.18s-4.74.17-5,2.6c-.18,1.51.54,3.53.71,5.06a56.18,56.18,0,0,0,1.08,6,1.51,1.51,0,0,0,2.2.9A27.3,27.3,0,0,1,20.53,21c1.53-.75.46-3.23-1.16-2.74-2.85.86-5.79-.14-8.48.93a1.52,1.52,0,0,0-.66,2.51c1.34,1.29,3.87,4.44,6,4.25,2.35-.22,5-3.94,6.44-5.52a1.53,1.53,0,0,0,.23-1.82c-1.56-2.46-.62-5.8-.79-8.48a1.53,1.53,0,0,0-1.5-1.5c-1.66,0-3.24-.51-4.9-.51a25.93,25.93,0,0,0-4.42.53,1.52,1.52,0,0,0-1,1.85,54,54,0,0,1,1.21,8.29l.74-1.3c-1.28.86-3.4.78-4.85.77-1.2,0-2.11,1.72-1.06,2.56.77.61,1.57.84,2.37,1.42A26.8,26.8,0,0,1,11.28,25c1,1,2.75,3.52,4.4,3.57A2.42,2.42,0,0,0,17.05,28c1.13-.72,2.25-1.88,3.31-2.72,1.78-1.42,2.82-3.49,4.52-4.93,1.48-1.25-.66-3.36-2.12-2.12Z"/><path class="cls-2" d="M21.93,17.57q.07-4.41,0-8.83"/><path d="M23.06,17.57q.06-4.41,0-8.83a1.13,1.13,0,0,0-2.25,0q.09,4.41,0,8.83a1.13,1.13,0,0,0,2.25,0Z"/><path class="cls-2" d="M21.8,8.83q-5.94-.19-11.89.05"/><path d="M21.8,7.7q-5.95-.17-11.89.05c-1.44.06-1.45,2.31,0,2.25Q15.85,9.78,21.8,10a1.13,1.13,0,0,0,0-2.25Z"/><path class="cls-2" d="M9.72,8.91l.63,6a12.63,12.63,0,0,1,.06,3.22"/><path d="M8.6,8.91c.32,3,1,6.19.7,9.18-.15,1.44,2.1,1.43,2.25,0,.31-3-.38-6.2-.7-9.18-.15-1.43-2.4-1.44-2.25,0Z"/><path class="cls-2" d="M22,18h4.81"/><path d="M22,19.13h4.81a1.13,1.13,0,0,0,0-2.25H22a1.13,1.13,0,0,0,0,2.25Z"/><path class="cls-2" d="M10.42,18.42A8.06,8.06,0,0,0,9,18.3c-.36,0-.71,0-1.07,0a10.76,10.76,0,0,0-2.48-.2"/><path d="M10.72,17.34a22.58,22.58,0,0,0-2.61-.15A18.36,18.36,0,0,0,5.46,17c-1.43.15-1.44,2.4,0,2.25a11.85,11.85,0,0,1,2.3.19c.79.07,1.58,0,2.37.09,1.42.22,2-2,.6-2.17Z"/><path class="cls-2" d="M27.42,18.17a19.74,19.74,0,0,0-2.32,2.54L23,23.24a11.94,11.94,0,0,1-1.47,1.6c-.49.42-1,.75-1.54,1.17s-1.09,1.08-1.64,1.6a20.44,20.44,0,0,1-2.31,1.8"/><path d="M26.62,17.38c-1.92,1.77-3.32,4-5.08,5.9-.77.84-1.74,1.43-2.59,2.19a38.93,38.93,0,0,1-3.44,3c-1.17.83,0,2.78,1.14,1.94a57.46,57.46,0,0,0,6-5c2.07-1.94,3.49-4.49,5.59-6.42,1.07-1-.53-2.57-1.59-1.59Z"/><path class="cls-2" d="M16,29.64c-.84-.28-1.37-1.09-2.08-1.63-.45-.34-1-.58-1.45-.88A10.45,10.45,0,0,1,11.14,26a32.68,32.68,0,0,1-3.55-3.59,8.26,8.26,0,0,0-.82-.94c-.19-.17-.39-.32-.57-.5a4.61,4.61,0,0,1-.58-.78l-1-1.64"/><path d="M16.56,28.67c-1-.53-1.82-1.45-2.79-2.08A20.65,20.65,0,0,1,10.7,24.1,33,33,0,0,1,5.56,18c-.78-1.22-2.72-.09-1.94,1.14a35.09,35.09,0,0,0,5.5,6.54,21.37,21.37,0,0,0,2.79,2.4,40.29,40.29,0,0,0,3.53,2.52c1.28.66,2.42-1.28,1.14-1.94Z"/><path d="M22.11.86,10.09,1a1.5,1.5,0,0,0,0,3l12-.12a1.5,1.5,0,0,0,0-3Z"/></g></svg>