<svg xmlns="http://www.w3.org/2000/svg" viewBox="0 0 32 32"><title>item-icon</title><g id="Layer_64" data-name="Layer 64"><path d="M8.49,29.17a42.56,42.56,0,0,0,13-2.51c2.89-1,6.29-2.05,8.29-4.48.91-1.11-.67-2.71-1.59-1.59C24.42,25.21,14,26.85,8.49,26.92a1.13,1.13,0,0,0,0,2.25Z"/><path d="M9.68,27.77c-.12-6-2-12.17-3.69-17.89a1.13,1.13,0,0,0-2.17.6C5.45,16,7.31,22,7.43,27.77a1.13,1.13,0,0,0,2.25,0Z"/><path d="M5.49,11c5.34-2.53,11.07-4.06,16.43-6.56,1.31-.61.17-2.55-1.14-1.94C15.43,5,9.7,6.52,4.36,9.05,3,9.67,4.19,11.61,5.49,11Z"/><path d="M20.74,3.83c3.19,5.7,4.92,11.75,7.52,17.71.58,1.32,2.52.18,1.94-1.14-2.62-6-4.32-12-7.52-17.71a1.13,1.13,0,0,0-1.94,1.14Z"/><path d="M2.44,15.11c1,4.4,2.29,10.5,5.49,13.9.33.35.86-.18.53-.53C6.69,26.6,5.85,23.7,5,21.32a61.71,61.71,0,0,1-1.85-6.41c-.11-.47-.83-.27-.72.2Z"/><path d="M3,15a7.46,7.46,0,0,1,2-1.1c.45-.16.26-.89-.2-.72a8.08,8.08,0,0,0-2.19,1.17c-.38.29,0,.94.38.65Z"/><path d="M10,10.35l.66,1a.38.38,0,0,0,.65,0,16.84,16.84,0,0,1,.9-1.51h-.65l.66,1a.38.38,0,0,0,.65,0L13.82,9h-.65c.35.46.76,1.36,1.46,1.26S16,9.08,16.26,8.48l-.51.13.69.79a.38.38,0,0,0,.65,0,6.71,6.71,0,0,0,.66-1.83c.1-.47-.63-.67-.72-.2A5.67,5.67,0,0,1,16.44,9h.65a3.42,3.42,0,0,0-1-1.06.38.38,0,0,0-.51.13c-.49,1.06-1,1.58-1.79.52a.38.38,0,0,0-.65,0l-.93,1.76h.65l-.66-1a.38.38,0,0,0-.65,0,16.84,16.84,0,0,0-.9,1.51h.65l-.66-1c-.27-.4-.92,0-.65.38Z"/><path d="M8.77,13.87a81.64,81.64,0,0,0,12.83-5c.43-.21.05-.86-.38-.65a80.46,80.46,0,0,1-12.65,5,.38.38,0,0,0,.2.72Z"/><path d="M8.94,15.57A30.28,30.28,0,0,0,10.68,20c.23.42.88,0,.65-.38a29.13,29.13,0,0,1-1.67-4.29c-.16-.45-.88-.26-.72.2Z"/><path d="M9.52,15.78l6.13-2.16c.45-.16.26-.88-.2-.72L9.32,15.06c-.45.16-.26.88.2.72Z"/><path d="M15.36,13.33q.66,2.4,1.34,4.79a.38.38,0,0,0,.72-.2q-.69-2.39-1.34-4.79a.38.38,0,0,0-.72.2Z"/><path d="M11.31,20.33c1.92-.81,4-1.12,5.87-2.12.42-.23,0-.88-.38-.65-1.82,1-4,1.31-5.87,2.12-.44.19-.06.83.38.65Z"/><path d="M16.59,13.36a.67.67,0,0,0,.65.25.93.93,0,0,0,.34-.15c.28-.15.3-.24.59-.22s.35.12.61.06c.55-.14.59-.6,1-.84s.56,0,.91-.12.6-.66.86-.73c-.49.14.38.28.52.26a1,1,0,0,0,.76-.56.38.38,0,0,0-.65-.38.42.42,0,0,1-.6,0,.38.38,0,0,0-.38,0c-.12.06-.17.17-.27.24a.94.94,0,0,1-.78.44.53.53,0,0,0-.23-.08c-.46.09-.39,0-.71.4-.83,1-.34.42-1.15.37-.2,0-1,.43-.93.51-.32-.36-.85.17-.53.53Z"/><path d="M17.44,15.33c.74.27,1.05-.32,1.75-.38.44,0,.53.13,1-.15a1.79,1.79,0,0,1,.57-.37l.43,0a2.68,2.68,0,0,0,.58-.26A1.75,1.75,0,0,1,23,13.68a2,2,0,0,0,.43-.09,1.45,1.45,0,0,0,.67-.49c.31-.36-.21-.9-.53-.53a9.63,9.63,0,0,1-2,.83c-.43.17-.88.19-1.3.37s-.41.45-.77.5c-.05,0-.18-.12-.27-.11-.5,0-1.21.6-1.63.45s-.65.56-.2.72Z"/><path d="M18.13,17.2c.69,0,.85-.43,1.47-.61.43-.12.74.1,1.2-.05.18-.06.32-.24.49-.29.37-.1.33.05.57,0,.8-.11,1.27-.8,2.11-.9.47-.06.48-.81,0-.75a3.82,3.82,0,0,0-1.65.58c-.51.31-.6.11-1.13.26-.18.05-.32.23-.49.28-.5.14-.43-.07-.8-.07-.71,0-1.14.82-1.78.78-.48,0-.48.72,0,.75Z"/><path d="M10.79,21.94c.88.46,1.53-.53,2.38-.55a2.8,2.8,0,0,0,1-.05,1.84,1.84,0,0,0,.87-.7c.29-.39-.36-.76-.65-.38-.48.66-1.06.23-1.67.42-.38.12-1.21.8-1.58.61s-.81.42-.38.65Z"/><path d="M14.83,20.66c.75.1.94-.49,1.53-.63.19,0,.51.09.76,0,.4-.09.65-.41,1.06-.51s.89,0,1.38-.32a10.27,10.27,0,0,1,1.9-.81c.45-.17.25-.9-.2-.72s-1,.27-1.44.44-.49.33-.89.42-.44,0-.67.05a2.62,2.62,0,0,0-.81.39c-.48.26-.74.09-1.19.17s-.87.8-1.43.73-.47.69,0,.75Z"/><path d="M21.72,18.24c.11-.11.2-.26.36-.31s.36,0,.4,0c.34-.06.57-.34.87-.49s.6,0,1-.08.61-.36.93-.5.06-.84-.38-.65c-.18.07-.32.24-.49.3-.38.14-.31,0-.57,0a1.5,1.5,0,0,0-1,.36,1.2,1.2,0,0,1-.6.27c-.12,0-.23-.07-.39,0-.33.07-.47.33-.7.57s.2.88.53.53Z"/><path d="M11,23.68a2.21,2.21,0,0,0,1.13-.34,7.7,7.7,0,0,1,.8-.37c.49-.16.54,0,1,0a2.18,2.18,0,0,0,1.91-.81c.31-.37-.22-.9-.53-.53a1.48,1.48,0,0,1-1.43.58,3,3,0,0,0-.63-.15c-.77,0-1.44.92-2.23.86-.48,0-.48.71,0,.75Z"/><path d="M15.7,22.23c.53-.08,1.17-.58,1.67-.55.34,0,.39.2.78.07a5.57,5.57,0,0,0,.8-.43,4.36,4.36,0,0,1,.92-.35,1.34,1.34,0,0,0,.91-.58c.29-.39-.36-.76-.65-.38-.14.19-.93.23-1.21.41-.45.28-.72.62-1.25.55-.26,0-.33-.19-.68-.08a8.45,8.45,0,0,1-1.48.62c-.48.07-.27.79.2.72Z"/><path d="M20.58,20.54a3.09,3.09,0,0,0,1.31-.22A3,3,0,0,1,23.18,20a2.9,2.9,0,0,0,2.06-.77c.27-.4-.38-.78-.65-.38-.12.18-.82.27-1,.31-.37.07-.74,0-1.09,0a1.6,1.6,0,0,0-.49.21,2.84,2.84,0,0,1-1.43.39.38.38,0,0,0,0,.75Z"/><path d="M20.6,23a4,4,0,0,1,.75,2.16c0,.48.77.48.75,0a4.76,4.76,0,0,0-.85-2.54c-.27-.39-.93,0-.65.38Z"/><path d="M20.87,22.8A10.52,10.52,0,0,0,22,22.36c.46-.16.95-.21,1.41-.36A14.58,14.58,0,0,0,26,20.77c.42-.23,0-.88-.38-.65a12.23,12.23,0,0,1-2.74,1.25c-.74.2-1.49.53-2.23.7-.47.11-.27.83.2.72Z"/><path d="M25.64,20.58a3.33,3.33,0,0,1,.67,2.07.38.38,0,0,0,.75,0,4,4,0,0,0-.77-2.45c-.28-.39-.93,0-.65.38Z"/><path d="M11.51,25.66a5.75,5.75,0,0,0,1.37-.37,5.47,5.47,0,0,1,1.34-.23c.83-.12,1.66-.53,2.55-.65a14.56,14.56,0,0,0,2.59-.65c.46-.15.26-.87-.2-.72-1.51.48-3.06.61-4.57,1-.37.1-.74,0-1.08.12-.73.16-1.17.65-2,.74-.47.06-.48.81,0,.75Z"/><path d="M4.14,16l.06,0L4,15.84c.17.27.3.52.68.43s.68-.59.93-.89-.22-.9-.53-.53c-.14.18-.42.67-.65.71l.29,0c-.08,0-.14-.27-.36-.32a.38.38,0,0,0-.2.72Z"/><path d="M4.64,18c.69.62,1-.32,1.38-.74l-.27.11a1.07,1.07,0,0,1,.22.15c.38.29.91-.23.53-.53s-.52-.51-.89-.34a.83.83,0,0,0-.32.34c-.06.09-.11.19-.17.29L5,17.44q-.11.12.12.06c-.36-.32-.89.21-.53.53Z"/><path d="M5.16,19.79a1.06,1.06,0,0,0,.93-.25,1.33,1.33,0,0,0,.21-.2c.08-.11-.09-.07,0,0a1.12,1.12,0,0,0,.39.23c.46.15.66-.57.2-.72-.26-.09-.35-.35-.68-.29s-.54.58-.83.53c-.47-.09-.67.64-.2.72Z"/><path d="M6.29,21.75a1.76,1.76,0,0,0,.6-.3l.18-.16c.11-.12.18-.16.06-.2l-.22-.17,0,.06c.27.39.92,0,.65-.38-.52-.75-1,.27-1.5.42s-.26.86.2.72Z"/><path d="M7.16,23.77a3,3,0,0,1,1-.54c.46-.14.26-.86-.2-.72a4,4,0,0,0-1.37.73c-.38.3.16.83.53.53Z"/></g></svg>