<svg xmlns="http://www.w3.org/2000/svg" viewBox="0 0 32 32"><title>icon-unknown</title><g id="Layer_61" data-name="Layer 61"><path d="M12.31,10.34C10,6.94,16.92,5,18.93,6.9c2.91,2.74-2.19,3.59-3.21,4.82-1.93,2.33-1,6.47-.1,9,.62,1.82,3.52,1,2.89-.8A10.7,10.7,0,0,1,17.69,16c.11-1.63.81-2.18,2.19-3.2,1.15-.85,2.16-1.23,2.81-2.6C24,7.45,22,4.94,19.53,3.82c-4.76-2.17-13.86,2.09-9.81,8,1.08,1.59,3.68.09,2.59-1.51Z"/><path d="M17.87,24.56A2.8,2.8,0,0,0,17,27a2.42,2.42,0,0,0,2.13,1.79,2,2,0,0,0,2.19-1.57,2.71,2.71,0,0,0-.94-2.53,1.5,1.5,0,0,0-2.12,2.12l.22.23,0-.05a.78.78,0,0,1,0-.51q.54-.9,1.16-.64c.34.23.3.54.32.92q-.06.14.06-.07-.13.18,0,0a1.53,1.53,0,0,0,0-2.12,1.52,1.52,0,0,0-2.12,0Z"/></g></svg>