<svg xmlns="http://www.w3.org/2000/svg" viewBox="0 0 32 32"><defs><style>.cls-1{fill:#7ac943;}</style></defs><title>item-icon</title><g id="Layer_62" data-name="Layer 62"><path class="cls-1" d="M9.24,13.75c1.51-1.28,2.35-3.2,3.91-4.47.61-.49,1.36-.82,2-1.32a5.05,5.05,0,0,0,1-1q.48-.63.15-.07c1.07.17,3.54,3.59,4.27,4.34.93.95,2,1.24,3,2l1.06-2.56c-2,0-6.14-.14-7,2.07-.49,1.2.49,3.27.62,4.48a47.42,47.42,0,0,0,.64,5l1-1.85c-3.06.53-5.54-.11-8.52-.09l1.5,1.5c-.2-3.25.66-7.06-1.2-10l-.23,1.82c1-1.07,2.78-3.6,4.21-4.13l.19-.44,1.4,1.11c.83.7,1.62,1.44,2.4,2.19l.66-2.51c-1.51.6-2.82.1-4.38.12a15,15,0,0,0-4.11.81L13,13.55a27.27,27.27,0,0,0,4.6-2.71l-2.2-.9c.56,2.54.87,5,1.19,7.63A11.69,11.69,0,0,1,17,19.71q-1.28.71-2-.72a1.66,1.66,0,0,1-1.1-2c-.41-1.6.43-4,.87-1.17,0,.26.57,5.16,1.44,2.65l-.53-1q-.07-1.27-.25-2.54c-.23-1.89-3.23-1.92-3,0,.27,2.26-.37,4.88,2,6,1.38.68,3.06.76,3.71-.88s-.26-6.64-1.25-8c-1.15-1.55-3.61-.94-5,.18-1.85,1.54-1.21,4.81-.89,6.9s1.9,3.34,4.06,3.67,4.74-.17,5-2.6c.18-1.51-.54-3.53-.71-5.06a56.18,56.18,0,0,0-1.08-6,1.51,1.51,0,0,0-2.2-.9A27.3,27.3,0,0,1,11.47,11c-1.53.75-.46,3.23,1.16,2.74,2.85-.86,5.79.14,8.48-.93a1.52,1.52,0,0,0,.66-2.51C20.44,9,17.9,5.82,15.78,6c-2.35.22-5,3.94-6.44,5.52a1.53,1.53,0,0,0-.23,1.82c1.56,2.46.62,5.8.79,8.48a1.53,1.53,0,0,0,1.5,1.5c1.66,0,3.24.51,4.9.51a25.93,25.93,0,0,0,4.42-.53,1.52,1.52,0,0,0,1-1.85,54,54,0,0,1-1.21-8.29l-.74,1.3c1.28-.86,3.4-.78,4.85-.77,1.2,0,2.11-1.72,1.06-2.56-.77-.61-1.57-.84-2.37-1.42A26.8,26.8,0,0,1,20.72,7c-1-1-2.75-3.52-4.4-3.57A2.42,2.42,0,0,0,14.95,4c-1.13.72-2.25,1.88-3.31,2.72-1.78,1.42-2.82,3.49-4.52,4.93-1.48,1.25.66,3.36,2.12,2.12Z"/><path class="cls-1" d="M10.07,14.43q-.07,4.41,0,8.83"/><path d="M8.94,14.43q-.06,4.41,0,8.83a1.13,1.13,0,0,0,2.25,0q-.09-4.41,0-8.83a1.13,1.13,0,0,0-2.25,0Z"/><path class="cls-1" d="M10.2,23.17q5.94.19,11.89-.05"/><path d="M10.2,24.3q5.95.17,11.89-.05c1.44-.06,1.45-2.31,0-2.25q-5.95.23-11.89.05a1.13,1.13,0,0,0,0,2.25Z"/><path class="cls-1" d="M22.28,23.09l-.63-6a12.63,12.63,0,0,1-.06-3.22"/><path d="M23.4,23.09c-.32-3-1-6.19-.7-9.18.15-1.44-2.1-1.43-2.25,0-.31,3,.38,6.2.7,9.18.15,1.43,2.4,1.44,2.25,0Z"/><path d="M10,12.87H5.15a1.13,1.13,0,0,0,0,2.25H10a1.13,1.13,0,0,0,0-2.25Z"/><path class="cls-1" d="M21.58,13.58A8.06,8.06,0,0,0,23,13.7c.36,0,.71,0,1.07,0a10.76,10.76,0,0,0,2.48.2"/><path d="M21.28,14.66a22.58,22.58,0,0,0,2.61.15,18.36,18.36,0,0,0,2.65.21c1.43-.15,1.44-2.4,0-2.25a11.85,11.85,0,0,1-2.3-.19c-.79-.07-1.58,0-2.37-.09-1.42-.22-2,2-.6,2.17Z"/><path class="cls-1" d="M4.58,13.83a19.74,19.74,0,0,0,2.32-2.54L9,8.76a11.94,11.94,0,0,1,1.47-1.6c.49-.42,1-.75,1.54-1.17s1.09-1.08,1.64-1.6a20.44,20.44,0,0,1,2.31-1.8"/><path d="M5.38,14.62c1.92-1.77,3.32-4,5.08-5.9.77-.84,1.74-1.43,2.59-2.19a38.93,38.93,0,0,1,3.44-3c1.17-.83,0-2.78-1.14-1.94a57.46,57.46,0,0,0-6,5C7.31,8.55,5.88,11.1,3.79,13c-1.07,1,.53,2.57,1.59,1.59Z"/><path class="cls-1" d="M16,2.36c.84.28,1.37,1.09,2.08,1.63.45.34,1,.58,1.45.88A10.45,10.45,0,0,1,20.86,6a32.68,32.68,0,0,1,3.55,3.59,8.26,8.26,0,0,0,.82.94c.19.17.39.32.57.5a4.61,4.61,0,0,1,.58.78l1,1.64"/><path d="M15.44,3.33c1,.53,1.82,1.45,2.79,2.08A20.65,20.65,0,0,1,21.3,7.9,33,33,0,0,1,26.44,14c.78,1.22,2.72.09,1.94-1.14a35.09,35.09,0,0,0-5.5-6.54,21.37,21.37,0,0,0-2.79-2.4,40.29,40.29,0,0,0-3.53-2.52c-1.28-.66-2.42,1.28-1.14,1.94Z"/><path d="M9.89,31.14l12-.12a1.5,1.5,0,0,0,0-3l-12,.12a1.5,1.5,0,0,0,0,3Z"/></g></svg>