<svg id="Layer_16" data-name="Layer 16" xmlns="http://www.w3.org/2000/svg" viewBox="0 0 32 32"><defs><style>.cls-1{fill:#ff1d25;}.cls-2{fill:#c1272d;}</style></defs><title>item-icon</title><path d="M20.12,11.77l1.64-3.11c0-.07.39-.65.2-.52s.39,0,.53.05l1.87.06c1.45,0,1.45-2.21,0-2.25-1.19,0-3-.48-3.92.49a8.81,8.81,0,0,0-1.1,1.94l-1.16,2.2c-.68,1.28,1.27,2.42,1.94,1.14Z"/><path class="cls-1" d="M8.1,10.58c.08,2.66.2,5.33.16,8,0,2,.34,4,0,5.89a1.51,1.51,0,0,0,2.51,1.46c.27-.26.47-.57.73-.84L10,25.47c3.09.91,7.14,1.75,10.28.64l-1.85-1.85a2.21,2.21,0,0,1-.26.48l2.74,1.16c.89-3.54.19-6.62.18-10.23,0-1.3.54-3.57-.26-4.72-.51-.73-1.67-1-2.42-1.39a1.52,1.52,0,0,0-2.2,1.69,2.35,2.35,0,0,1,.07.31l1.45-1.9c-1.53-.18-3.91.26-5-.87a1.52,1.52,0,0,0-2.51.66c-1.19,3.84-2.4,11.14,1.39,14,1.3,1,4.86,2,6.42,1.45,2-.72,2-4.18,1.92-5.87-.15-2.11.15-5.2-1.73-6.67a4.54,4.54,0,0,0-4.83-.47c-3.41,2.26-1.49,9.86,1.91,11.21a1.46,1.46,0,0,0,1.46-.39c2.1-2.37,1.34-6.28-.3-8.63a1.51,1.51,0,0,0-2.8.76,14.65,14.65,0,0,0,.08,3.11c.24,1.89,3.25,1.91,3,0a14.65,14.65,0,0,1-.08-3.11l-2.8.76c.75,1.07,1.9,3.72.77,5l1.46-.39c-1-.39-1.53-3.33-1.34-4.23.35-1.66,1.3-2.6,2,.63A19.43,19.43,0,0,1,17,19.5c0,1.26.2,2.15-.64,2.28-5.78.9-4.22-8.42-3.26-11.52l-2.51.66c.61.63.59,1.19,1.55,1.46,1.6.45,3.89.09,5.58.29,1,.12,1.61-1.05,1.45-1.9a2.35,2.35,0,0,0-.07-.31l-2.2,1.69a12,12,0,0,1,2,1l-.74-1.3c-.09,4.3.91,9.09-.14,13.24a1.51,1.51,0,0,0,2.74,1.16,5,5,0,0,0,.56-1.2,1.51,1.51,0,0,0-1.85-1.85c-2.66.94-6.11.12-8.69-.64A1.5,1.5,0,0,0,9.36,23c-.26.26-.46.58-.73.84l2.51,1.46a24.83,24.83,0,0,0,.1-5.54c0-3,0-6.09-.14-9.14-.06-1.93-3.06-1.93-3,0Z"/><path d="M18.16,8.72c-.07-2.33-.72-3.57-3-4.22-1.62-.47-6.53-.74-7.82,1-1.14,1.52-.3,4.68-.24,6.39.16,4.77.5,9.56.36,14.33a.75.75,0,0,0,1.5,0c.13-4.34-.17-8.7-.32-13a24.05,24.05,0,0,1-.19-4.65c.31-1.7,1.48-2.4,3.39-2.68s4.71.24,4.79,2.89c0,1,1.53,1,1.5,0Z"/><path d="M8.13,27.07c4.45.3,8.91.13,13.37.18a.75.75,0,0,0,0-1.5c-4.46-.05-8.91.12-13.37-.18-1-.06-1,1.44,0,1.5Z"/><path d="M22.45,25.92c-.35-5.25-1.18-10.75-.81-16,.07-1-1.43-1-1.5,0-.37,5.26.47,10.75.81,16,.06,1,1.56,1,1.5,0Z"/><path d="M21.45,10.11c-.36-.37-.81-.63-1.2-1s-.77-.65-1.18-.94c-.79-.56-1.54.74-.76,1.3.35.25.67.54,1,.81a12.5,12.5,0,0,1,1.08.86c.67.69,1.74-.37,1.06-1.06Z"/><path d="M7.69,9.61c3.67-.16,7.33,0,11,0a.75.75,0,0,0,0-1.5c-3.67,0-7.33-.16-11,0-1,0-1,1.54,0,1.5Z"/><path class="cls-2" d="M15.25,12.46c-1.17,3.4-2.83,6.6-4,10-.63,1.83,2.26,2.61,2.89.8,1.17-3.4,2.83-6.6,4-10,.63-1.83-2.26-2.61-2.89-.8Z"/><path class="cls-2" d="M10.4,13.62c2,3.62,3.17,7.36,6.23,10.3,1.39,1.34,3.52-.78,2.12-2.12-2.85-2.74-3.87-6.33-5.77-9.7-.95-1.68-3.54-.17-2.59,1.51Z"/><path d="M23.75,11.5c0,1.59-1.41,2.74-.84,4.39a2.4,2.4,0,0,0,2.51,1.61,2.43,2.43,0,0,0,2-2.11,3,3,0,0,0-.39-1.88c-.16-.27-.38-.48-.54-.75a2.24,2.24,0,0,1-.27-1.26c0-1-1.53-1-1.5,0a3.65,3.65,0,0,0,.48,2c.41.63,1.3,1.61.42,2.31a.86.86,0,0,1-1.38-.62,2.07,2.07,0,0,1,.33-1.27,5.68,5.68,0,0,0,.65-2.44.75.75,0,0,0-1.5,0Z"/><path d="M24.7,12.19a2.18,2.18,0,0,1,.7,0l-.38-.1.11,0a.78.78,0,0,0,1-.27.75.75,0,0,0-.27-1,2.61,2.61,0,0,0-1.58-.08c-.95.18-.55,1.63.4,1.45Z"/></svg>