<svg xmlns="http://www.w3.org/2000/svg" viewBox="0 0 32 32"><title>item-icon</title><g id="Layer_49" data-name="Layer 49"><path d="M12.47,15.31q-2.68,5.39-5,10.93c-.56,1.32,1.37,2.46,1.94,1.14q2.37-5.54,5-10.93c.64-1.29-1.3-2.43-1.94-1.14Z"/><path d="M12.67,16.22a67.43,67.43,0,0,0,5.78,10.31c.85,1.16,2.8,0,1.94-1.14a67.43,67.43,0,0,1-5.78-10.31c-.64-1.3-2.58-.16-1.94,1.14Z"/><path d="M12.48,18.18a38.84,38.84,0,0,1-.57,4.22c-.27,1.41,1.9,2,2.17.6a44.41,44.41,0,0,0,.65-4.82c.12-1.44-2.13-1.44-2.25,0Z"/><path d="M7.64,17.86q9.42-3.45,18.5-7.7c1.31-.61.17-2.55-1.14-1.94q-8.82,4.13-18,7.47c-1.35.49-.77,2.67.6,2.17Z"/><path d="M5.3,16.15a3.19,3.19,0,0,1,.8,1C6.77,18.4,8.72,17.26,8,16a4.88,4.88,0,0,0-1.15-1.43,1.16,1.16,0,0,0-1.59,0,1.13,1.13,0,0,0,0,1.59Z"/><path d="M22,6.11c.56.46,1,1.06,1.55,1.54a7.65,7.65,0,0,1,1.43,1.46c.79,1.2,2.74.08,1.94-1.14A8.82,8.82,0,0,0,25.25,6.2c-.6-.53-1.1-1.17-1.71-1.68a1.16,1.16,0,0,0-1.59,0,1.13,1.13,0,0,0,0,1.59Z"/><path d="M6.8,15.76C12.59,12.78,18.32,10,23.48,6,24.62,5.1,23,3.52,21.88,4.4c-5,3.89-10.62,6.53-16.22,9.41-1.29.66-.15,2.6,1.14,1.94Z"/><path d="M8.27,16c2.81-1.43,5.65-2.79,8.54-4,2.52-1.09,5.2-1.87,7.32-3.68,1.1-.94-.5-2.53-1.59-1.59-2.14,1.83-5.32,2.64-7.88,3.77s-5,2.33-7.52,3.6C5.84,14.73,7,16.67,8.27,16Z"/><path d="M22.28,10.6a19.31,19.31,0,0,1,2.35-1.17,1.16,1.16,0,0,0,.79-1.38A1.13,1.13,0,0,0,24,7.26a23.52,23.52,0,0,0-2.89,1.4,1.13,1.13,0,0,0,1.14,1.94Z"/><path d="M7.69,11.48l.73,1.94c.34.9,1.79.51,1.45-.4l-.73-1.94c-.34-.9-1.79-.51-1.45.4Z"/><path d="M7.31,11.81a20.65,20.65,0,0,0,3-1.65c.8-.53.05-1.83-.76-1.3a20.65,20.65,0,0,1-3,1.65c-.88.39-.12,1.68.76,1.3Z"/></g></svg>