<svg xmlns="http://www.w3.org/2000/svg" viewBox="0 0 32 32"><defs><style>.cls-1{fill:#fcee21;}</style></defs><title>item-icon</title><g id="Layer_30" data-name="Layer 30"><path class="cls-1" d="M6.86,18c.66,1.54.55,3.06.78,4.65a1.46,1.46,0,0,0,1,1c1.85.46,4.45-.27,6.33-.56a20.18,20.18,0,0,1,9.15.19,1.51,1.51,0,0,0,1.9-1.45,43.72,43.72,0,0,0-.83-6,1.52,1.52,0,0,0-2.74-.36c-.38.75-1.31,3.28-1.8,3.53h1.51c-2.95-1.34-5.62-4.71-5.47-8,.07-1.42-2.19-2.14-2.8-.76-1,2.25-1.52,7.86-3.72,9.14L12,19.7a11,11,0,0,1-.41-1.12L9.13,20c2.82,3.06,6.55,1.9,10.07.92a1.52,1.52,0,0,0,.36-2.74q-1.91-1-3.78-2.13a1.52,1.52,0,0,0-2.2.9,11.31,11.31,0,0,0-.7,2.12,1.5,1.5,0,0,0,2.89.8,11.31,11.31,0,0,1,.7-2.12l-2.2.9q1.87,1.11,3.78,2.13l.36-2.74c-2.27.63-5.23,1.94-7.15-.15a1.51,1.51,0,0,0-2.51,1.46,6.17,6.17,0,0,0,1.19,2.45,1.52,1.52,0,0,0,1.82.23c3.22-1.88,3.45-7.18,4.8-10.22l-2.8-.76c-.2,4.18,2.44,7.35,5.67,9.71s4.23-.89,5.68-3.74l-2.74-.36a37.9,37.9,0,0,1,.72,5.2L25,20.45a17.36,17.36,0,0,0-6.8-.83c-2.58.3-6.2,1.81-8.68,1.2l1,1a18.8,18.8,0,0,0-1.08-5.36c-.76-1.77-3.34-.24-2.59,1.51Z"/><path class="cls-1" d="M4.71,12.23a22.67,22.67,0,0,1,2.21,5.93,12,12,0,0,1-.31,6.27"/><path d="M3.41,13c1.75,3.49,2.93,7.18,1.74,11-.57,1.85,2.33,2.64,2.89.8,1.42-4.65.06-9.16-2-13.36C5.14,9.75,2.55,11.27,3.41,13Z"/><path class="cls-1" d="M6.55,24.49A24.15,24.15,0,0,1,9,24.24c5.93-.4,12-.78,17.75.67"/><path d="M6.55,26c6.5-.83,13.42-1.08,19.84.36,1.88.42,2.68-2.47.8-2.89C20.48,22,13.34,22.12,6.55,23c-1.89.24-1.91,3.24,0,3Z"/><path class="cls-1" d="M27,25a17.55,17.55,0,0,1,.33-12.89"/><path d="M28.41,24.56a16.94,16.94,0,0,1,.33-12.09c.72-1.79-2.19-2.57-2.89-.8a19.54,19.54,0,0,0-.33,13.68c.62,1.82,3.52,1,2.89-.8Z"/><path class="cls-1" d="M5.12,11.6a64.8,64.8,0,0,1,6.45,7.18"/><path d="M4.06,12.66a68.28,68.28,0,0,1,6.45,7.18c1.18,1.52,3.29-.61,2.12-2.12a68.28,68.28,0,0,0-6.45-7.18c-1.39-1.34-3.51.78-2.12,2.12Z"/><path class="cls-1" d="M26.91,11.89a18.46,18.46,0,0,0-6.61,7"/><path d="M26.15,10.59A20.63,20.63,0,0,0,19,18.11c-.94,1.69,1.65,3.21,2.59,1.51a17.52,17.52,0,0,1,6.07-6.44c1.63-1,.13-3.62-1.51-2.59Z"/><path class="cls-1" d="M11.52,18.75A53.65,53.65,0,0,1,15.27,7.28"/><path d="M13,19.15A55.4,55.4,0,0,1,16.57,8c.78-1.75-1.8-3.27-2.59-1.51a59,59,0,0,0-3.9,11.83c-.4,1.88,2.49,2.69,2.89.8Z"/><path class="cls-1" d="M15.33,7a.73.73,0,0,1,.36.43,54.68,54.68,0,0,1,2.74,7.36,5.05,5.05,0,0,0,.64,1.54,2.74,2.74,0,0,1,.39.6c.16.44,0,1,.35,1.33"/><path d="M14.27,8.1c1.36,1.63,2,4.74,2.6,6.75a21.15,21.15,0,0,0,1.65,4.21,1.5,1.5,0,0,0,2.59-1.51c-.31-.54-.45-1.33-.75-1.93a28.5,28.5,0,0,1-1.2-3.43c-.69-2-1.38-4.53-2.77-6.2C15.16,4.49,13,6.62,14.27,8.1Z"/></g></svg>