<svg xmlns="http://www.w3.org/2000/svg" viewBox="0 0 32 32"><title>item-icon</title><g id="Layer_46" data-name="Layer 46"><path d="M6.13,28.43c2.61-3.91,3.15-8.92,5.42-13.1C14,10.88,18.09,8.82,21.16,5c.6-.74-.45-1.81-1.06-1.06C17.23,7.52,13.29,9.27,11,13.31A46.41,46.41,0,0,0,8.09,19c-1.17,2.88-1.5,6-3.25,8.65-.54.8.76,1.56,1.3.76Z"/><path d="M6.42,28.75a25.92,25.92,0,0,0,6.9-8.28A52.79,52.79,0,0,1,16.66,15c.4-.55,7-6.84,7-4.87a.75.75,0,0,0,1.5,0c0-4.7-5.84-.22-7.32,1.2a31,31,0,0,0-5.16,7.2c-2.1,3.68-4,6.48-7.3,9.12-.75.6.31,1.66,1.06,1.06Z"/><path d="M24.16,10.64c1.1.69,2.15-.06,2.67-1.09a4.36,4.36,0,0,0-.12-4,4.89,4.89,0,0,0-3.33-2.44c-1.35-.16-2.72,0-3.25,1.42-.34.9,1.11,1.3,1.45.4.18-.48,1.19-.41,1.62-.34a3.43,3.43,0,0,1,1.94,1.34,2.76,2.76,0,0,1,.63,1.72c0,.22-.27,2.09-.84,1.74-.82-.51-1.57.78-.76,1.3Z"/></g></svg>