<svg xmlns="http://www.w3.org/2000/svg" viewBox="0 0 32 32"><title>item-icon</title><g id="Layer_12" data-name="Layer 12"><path d="M2.93,7.36c.15,4.9.08,9.78-.21,14.67a1.52,1.52,0,0,0,1.9,1.45c4-.93,8.7-.36,12.8-.47,3-.07,7.19.56,10-.43a1.57,1.57,0,0,0,1.1-1.45c.18-2-.81-4.35-1.11-6.36C27,11.71,27.31,8.63,27,5.6a1.56,1.56,0,0,0-1.1-1.45c-3.49-1-8.45,1-12.16,1C11,5.2,5.82,3,3.28,4.38A1.51,1.51,0,0,0,3.28,7l.1.05C5.1,7.91,6.62,5.32,4.9,4.44l-.1-.05V7c.73-.4,4.6,1,5.53,1.06a29.82,29.82,0,0,0,5.11.06c2.71-.16,7.1-1.76,9.65-1.05L24,5.6c.28,2.64,0,5.35.29,8,.26,2.24,1.47,5.27,1.27,7.51l1.1-1.45c-3.44,1.21-9,.32-12.61.4-3.35.07-6.93-.27-10.21.49L5.72,22c.28-4.89.35-9.77.21-14.67-.06-1.93-3.06-1.93-3,0Z"/><path d="M4.47,27.67c4.16-.07,8.29.48,12.45.33,3.68-.13,7.36-.63,11-.46,1.93.09,1.93-2.91,0-3-3.68-.17-7.37.34-11,.46-4.16.14-8.29-.4-12.45-.33-1.93,0-1.93,3,0,3Z"/><path d="M13.75,22.55V26a1.5,1.5,0,0,0,3,0V22.55a1.5,1.5,0,0,0-3,0Z"/><path d="M10.11,13.11a1.5,1.5,0,0,0,0-3,1.5,1.5,0,0,0,0,3Z"/><path d="M18.47,13.16a1.5,1.5,0,0,0,0-3,1.5,1.5,0,0,0,0,3Z"/><path d="M10.9,16c-.05,1.1,0,2.41,1,3.06a6.41,6.41,0,0,0,3.23.68,4.35,4.35,0,0,0,2.8-.83,3.15,3.15,0,0,0,.6-3.25,1.55,1.55,0,0,0-1.85-1,1.51,1.51,0,0,0-1,1.85,1,1,0,0,1-.07.87l.69-.9a1.93,1.93,0,0,1-1.29.3c-.31,0-1.22,0-1.42-.19l.39.66A3.47,3.47,0,0,1,13.9,16c.1-1.93-2.91-1.92-3,0Z"/></g></svg>