<svg xmlns="http://www.w3.org/2000/svg" viewBox="0 0 32 32"><defs><style>.cls-1{fill:#999;}</style></defs><title>item-icon</title><g id="Layer_18" data-name="Layer 18"><path d="M6.94,28.64c4.34-5.28,9.46-9.85,13.75-15.18,1.2-1.49-.91-3.63-2.12-2.12-4.29,5.32-9.41,9.89-13.75,15.18-1.22,1.48.89,3.61,2.12,2.12Z"/><path class="cls-1" d="M21.62,11.87a13.27,13.27,0,0,1,4.56-3.38c1.69-.93.18-3.52-1.51-2.59A16.34,16.34,0,0,0,19,10.36a1.51,1.51,0,0,0,.54,2.05,1.53,1.53,0,0,0,2.05-.54Z"/><path d="M20.79,11.22,21.18,8a1.51,1.51,0,0,0-1.5-1.5A1.54,1.54,0,0,0,18.18,8l-.4,3.21a1.51,1.51,0,0,0,1.5,1.5,1.54,1.54,0,0,0,1.5-1.5Z"/><path d="M20.42,9a19.05,19.05,0,0,1,5.79-3c1.84-.57,1.05-3.47-.8-2.89A21.47,21.47,0,0,0,18.9,6.4c-1.53,1.14,0,3.74,1.51,2.59Z"/><path d="M24.62,4.42a33.24,33.24,0,0,0-.23,4,1.5,1.5,0,0,0,3,0,33.24,33.24,0,0,1,.23-4,1.51,1.51,0,0,0-1.5-1.5,1.54,1.54,0,0,0-1.5,1.5Z"/><path d="M24.86,7.55a22.57,22.57,0,0,1-5.72,4.55c-1.68.94-.17,3.54,1.51,2.59a25.16,25.16,0,0,0,6.33-5c1.3-1.43-.82-3.55-2.12-2.12Z"/></g></svg>