<svg xmlns="http://www.w3.org/2000/svg" viewBox="0 0 32 32"><defs><style>.cls-1{fill:#c69c6d;}</style></defs><title>item-icon</title><g id="Layer_28" data-name="Layer 28"><path class="cls-1" d="M14.39,5.8A10.55,10.55,0,0,0,9.14,9.32a31.44,31.44,0,0,0-3.47,5.4,15,15,0,0,0-2.13,5.5,11.76,11.76,0,0,0,.18,3.16,5.61,5.61,0,0,0,.54,1.81,4.55,4.55,0,0,0,1.16,1.3,8.44,8.44,0,0,0,4.46,1.83c3.1.3,6.16-1.16,8.52-3.19a50.69,50.69,0,0,0,6.15-7,21.87,21.87,0,0,0,2-2.68,16.55,16.55,0,0,0,1.23-2.85,12.19,12.19,0,0,0,.74-3,4.71,4.71,0,0,0-.64-3c-.87-1.33-2.48-1.92-4-2.42a8,8,0,0,0-2.78-.56A7.39,7.39,0,0,0,19.32,4a44,44,0,0,0-5,1.79"/><path d="M14.09,4.72C7.68,7,1.77,15.65,2.49,22.59c.68,6.5,7.89,8.17,13.19,5.64,3.92-1.87,6.54-5.41,9.17-8.73,2.23-2.82,4.64-6.14,4.76-9.92.1-3-1.41-4.79-4-5.95C21.42,1.81,18.11,3.06,14,4.71c-1.32.54-.75,2.71.6,2.17,5.32-2.16,14-3.1,12,5.39-.85,3.62-5.17,8.38-7.92,11A13.45,13.45,0,0,1,12.63,27c-5.43,1.16-9-2.84-7.72-7.92,1.2-4.75,5.15-10.5,9.78-12.18,1.35-.49.77-2.67-.6-2.17Z"/><path d="M4.83,19.41a9.35,9.35,0,0,1,5.66.81.38.38,0,0,0,.45-.59,7.85,7.85,0,0,0-6.32-2.56c-.47.05-.48.81,0,.75a7.19,7.19,0,0,1,5.79,2.34l.45-.59a10.24,10.24,0,0,0-6.24-.88c-.48.08-.27.8.2.72Z"/><path d="M7.47,12.45c2.2,0,4.86,0,6.84,1.06a.38.38,0,0,0,.45-.59A9.27,9.27,0,0,0,9.21,9.38c-.48-.06-.47.69,0,.75,2.05.27,3.73,1.8,5,3.31l.45-.59c-2.1-1.15-4.88-1.11-7.22-1.16a.38.38,0,0,0,0,.75Z"/><path d="M14.92,6.88a7.72,7.72,0,0,1,2.92,1.68.38.38,0,0,0,.53,0c.53-.65.06-1.23-.4-1.76a9.63,9.63,0,0,0-2.14-1.93c-.41-.25-.79.39-.38.65A7,7,0,0,1,16.8,6.64C17,6.81,18,7.79,17.84,8h.53a8.61,8.61,0,0,0-3.25-1.87c-.46-.15-.66.58-.2.72Z"/></g></svg>