<svg xmlns="http://www.w3.org/2000/svg" viewBox="0 0 32 32"><title>item-icon</title><g id="Layer_41" data-name="Layer 41"><path d="M5.17,9.15A119.4,119.4,0,0,0,4.09,23a.75.75,0,0,0,1.5,0,116,116,0,0,1,1-13.48c.13-.94-1.32-1.35-1.45-.4Z"/><path d="M4.37,23.66a11.57,11.57,0,0,0,9.18,1c.91-.31.52-1.76-.4-1.45a10.21,10.21,0,0,1-8-.85c-.81-.53-1.56.77-.76,1.3Z"/><path d="M5.91,9.67a37.22,37.22,0,0,0,8,.55c1-.07,1-1.57,0-1.5a35.32,35.32,0,0,1-7.57-.49C5.36,8.08,5,9.53,5.91,9.67Z"/><path d="M13.35,9.39c.59,4.81.77,9.56-.78,14.23-.3.92,1.14,1.31,1.45.4,1.59-4.79,1.44-9.67.83-14.63-.12-.95-1.62-1-1.5,0Z"/><path d="M14.27,10c3-.88,5.18-.11,8.18.1A10,10,0,0,0,27.62,8.6c.86-.44.1-1.73-.76-1.3A7.92,7.92,0,0,1,21.71,8.5c-.69-.08-1.36-.33-2.05-.43a13.81,13.81,0,0,0-5.78.52.75.75,0,0,0,.4,1.45Z"/><path d="M13.63,24.52a7.39,7.39,0,0,1,5.21-.89,15,15,0,0,0,3.65.11,7.88,7.88,0,0,0,4.56-2.5c.71-.66-.35-1.72-1.06-1.06-2.54,2.37-4.64,2.17-7.87,1.8a8.29,8.29,0,0,0-5.24,1.25c-.85.45-.1,1.75.76,1.3Z"/><path d="M26.5,8c-.15,1.95-1.3,3.52-1,5.52.34,2.46,1.29,4.16.31,6.7-.35.9,1.1,1.29,1.45.4a8.63,8.63,0,0,0,.17-5.81,6.24,6.24,0,0,1-.11-3.9A13.74,13.74,0,0,0,28,8c.08-1-1.42-1-1.5,0Z"/><path d="M5.94,8.87c.94-1,2.53-.85,3.78-.77s3.23,0,3.85,1.32c.21.43.86.05.65-.38-.69-1.41-2.48-1.51-3.86-1.64C8.71,7.24,6.65,7,5.41,8.34c-.33.35.2.88.53.53Z"/><path d="M22.89,11.91l0,.21a.38.38,0,0,0,.75,0,.82.82,0,0,0-.07-.41c-.18-.44-.9-.25-.72.2Z"/><path d="M22.06,12.5v.13a.38.38,0,0,0,.75,0V12.5a.38.38,0,0,0-.75,0Z"/><path d="M7.56,21.93l-.25-.19c-.39-.29-.76.36-.38.65l.25.19c.39.29.76-.36.38-.65Z"/><path d="M7.42,21.21,7.3,20.9c-.18-.44-.9-.25-.72.2l.13.31c.18.44.9.25.72-.2Z"/><path d="M18.63,21.88h.25a.38.38,0,0,0,0-.75h-.25a.38.38,0,0,0,0,.75Z"/><path d="M12.77,11.17l-.06-.06a.38.38,0,0,0-.53.53l.06.06a.38.38,0,0,0,.53-.53Z"/></g></svg>