<svg id="Layer_38" data-name="Layer 38" xmlns="http://www.w3.org/2000/svg" viewBox="0 0 32 32"><title>item-icon</title><path d="M9.21,3.63Q8.08,15.29,7.2,27c-.07,1,1.43,1,1.5,0q.88-11.69,2-23.36c.09-1-1.41-1-1.5,0Z"/><path d="M10.11,4.28,23.85,5.54c1,.09,1-1.41,0-1.5L10.11,2.78c-1-.09-1,1.41,0,1.5Z"/><path d="M23.3,5.07q-1.13,11.67-2,23.36c-.07,1,1.43,1,1.5,0q.88-11.69,2-23.36c.09-1-1.41-1-1.5,0Z"/><path d="M8.2,27.67a133.13,133.13,0,0,1,13.65,1.52c.94.16,1.35-1.29.4-1.45a137,137,0,0,0-14-1.58c-1-.06-1,1.44,0,1.5Z"/><path d="M13.39,25.13l2.82.29c.48,0,.48-.7,0-.75l-2.82-.29c-.48,0-.48.7,0,.75Z"/><path d="M11.67,6.44q-.76,7.89-1.36,15.79c0,.48.71.48.75,0q.6-7.9,1.36-15.79c0-.48-.7-.48-.75,0Z"/><path d="M12.14,6.75l9.29.85c.48,0,.48-.71,0-.75L12.14,6c-.48,0-.48.71,0,.75Z"/><path d="M21.19,7.42q-.76,7.89-1.36,15.79c0,.48.71.48.75,0q.6-7.9,1.36-15.79c0-.48-.7-.48-.75,0Z"/><path d="M10.85,22.56a90.35,90.35,0,0,1,9.26,1c.47.08.68-.64.2-.72a92.3,92.3,0,0,0-9.46-1.06c-.48,0-.48.72,0,.75Z"/></svg>