<svg xmlns="http://www.w3.org/2000/svg" viewBox="0 0 32 32"><defs><style>.cls-1{fill:#f7931e;}</style></defs><title>item-icon</title><g id="Layer_6" data-name="Layer 6"><path class="cls-1" d="M10.12,4.84C6,8.55,1.94,19.66,6.57,24.26a12.81,12.81,0,0,0,8.18,3.15c3.7.07,6.57-.63,8.23-4.22,1.39-3,3.29-5.51,3.57-8.91S26,7.73,22.86,6c-2.71-1.51-6.88-1.43-9.1.91-2.45,2.58-2.73,6.45-4,9.61-.91,2.27,1,4.92,3.14,5.54,2.56.73,4.64-.9,5.54-3.14A40.49,40.49,0,0,0,19.67,15a7.43,7.43,0,0,0,.53-1.59q.69-1.25-1.62.62l-1-1.53c-.19.16.08,1.2,0,1.49a5.06,5.06,0,0,1-.8,1.57c-.29.46-2.05,3.14-1.76,3.53-.33-.43,2.52-.34.52-.67-.47-.08-1,.08-1.44,0,1.23.15-.23-.23-.58-.37l-.67-.32q-.79-.45.29.43.92,1.34.64-.41l.1-.76a14.23,14.23,0,0,1,.47-1.92,8.77,8.77,0,0,1,2.12-3.87C20.79,7.31,14.41,1,10.12,4.84Z"/><path d="M9.57,3.86C4.42,9.19,3.12,15.47,2.67,22.61c-.12,1.93,2.88,1.92,3,0,.4-6.29,1.49-11.93,6-16.63C13,4.59,10.91,2.46,9.57,3.86Z"/><path d="M3.1,23.37c2,1.75,3.49,4.65,6.09,5.43,3.61,1.08,8.16,1.13,11.88,1,1.93-.06,1.93-3.07,0-3-3.26.11-7.33.21-10.45-.8-2.27-.74-3.6-3.17-5.4-4.76C3.78,20,1.65,22.09,3.1,23.37Z"/><path d="M22.67,28.32c.33-5.1,3.39-9.85,5.59-14.34.84-1.73-1.74-3.25-2.59-1.51-2.46,5-5.63,10.14-6,15.86-.12,1.93,2.88,1.92,3,0Z"/><path d="M11.87,5.8c1.16-.21,2.91-.8,4.07-.64.85.11,1.56.83,2.34,1.09,1.07.35,1.48-.14,2.49-.1,3,.11,3.94,5.67,6,7.49,1.45,1.27,3.58-.85,2.12-2.12C26.17,9.12,26,3.56,21.55,3A11.88,11.88,0,0,0,20,3.18c-.84,0-.92-.17-1.91-.59-2.25-1-4.75-.1-7,.31-1.9.34-1.09,3.24.8,2.89Z"/></g></svg>