<svg xmlns="http://www.w3.org/2000/svg" viewBox="0 0 32 32"><defs><style>.cls-1{fill:#fcee21;}</style></defs><title>item-icon</title><g id="Layer_11" data-name="Layer 11"><path d="M10.61,16.29q6.22,6.64,12.55,13.19c3.36,3.48,8.66-1.83,5.3-5.3Q22.14,17.63,15.91,11c-3.31-3.53-8.6,1.78-5.3,5.3Z"/><path d="M11.63,8.33C10.21,9.8,9.06,11.48,7.75,13S5,15.68,4,17.39h6.48a29.87,29.87,0,0,0-1.77-2.76L6.47,20.14c2.44-.9,3.59-3.07,5.17-5a75,75,0,0,1,5.47-6L10.85,5.49a11.68,11.68,0,0,0,.21,5.19c1.32,4.63,8.56,2.66,7.23-2a2,2,0,0,1-.21-1.21C18.61,4,14.71,1,11.81,3.83c-1.61,1.59-3.15,3.23-4.61,5-.68.8-1.33,1.61-2,2.44L4.09,12.69q-1.27,1.34.39.21c-2.06.76-3.77,3.38-2.24,5.51A29.87,29.87,0,0,1,4,21.17a3.78,3.78,0,0,0,6.48,0c.72-1.27,2.16-2.3,3.09-3.46,1.11-1.38,2.13-2.8,3.36-4.08,3.34-3.49-2-8.8-5.3-5.3Z"/><path d="M11,9.77v.79a3.75,3.75,0,0,0,7.5,0V9.77a3.75,3.75,0,0,0-7.5,0Z"/><path d="M10.35,7.55A8.8,8.8,0,0,0,8.95,9.44a4.23,4.23,0,0,1-.39.68c-.17,0,1.06-.8.24-.3A7.86,7.86,0,0,0,7,11.24c-.38.42-.67.89-1,1.34l.16-.19q-.7.67.51-.17a3.82,3.82,0,0,0-2.62,4.61c.59,1.82,2.63,3.32,4.61,2.62a6.41,6.41,0,0,0,2.91-1.9s.93-1.48,1.11-1.48-.9.7-.11.22a7.59,7.59,0,0,0,2.28-2.14c.18-.26.33-.53.49-.8s.2-.37.31-.54q-.44.5,0,0a3.75,3.75,0,0,0-5.3-5.3Z"/><path d="M11.27,29.23q2.1-2,4.24-3.91l-3.65,1c13.52,3.72,25.91-16,13-24.35C20.8-.68,17,5.81,21.08,8.42s.48,8.52-2.78,10c-2.45,1.12-4.14,0-6.45.63S7.55,22.43,6,23.93c-3.52,3.32,1.79,8.61,5.3,5.3Z"/><path class="cls-1" d="M12.2,14.7q6.22,6.64,12.55,13.19c1.34,1.39,3.46-.73,2.12-2.12q-6.32-6.54-12.55-13.19c-1.32-1.41-3.44.71-2.12,2.12Z"/><path class="cls-1" d="M13.22,9.92c-1.42,1.48-2.56,3.15-3.88,4.71C8.22,16,6.81,17,5.94,18.52H8.53a29.87,29.87,0,0,0-1.77-2.76L5.87,18c1.89-.69,3-2.93,4.18-4.43a75,75,0,0,1,5.47-6L13,6.09a8.84,8.84,0,0,0,.21,4,1.5,1.5,0,0,0,2.89-.8,4.25,4.25,0,0,1-.21-2.4A1.51,1.51,0,0,0,13.4,5.43c-1.61,1.59-3.15,3.23-4.61,5-.68.8-1.33,1.61-2,2.44-.36.46-1.24,2.08-1.74,2.26a1.52,1.52,0,0,0-.9,2.2A29.87,29.87,0,0,1,5.94,20a1.51,1.51,0,0,0,2.59,0c.83-1.47,2.38-2.6,3.44-3.92s2.14-2.8,3.36-4.08-.78-3.52-2.12-2.12Z"/><path class="cls-1" d="M13.25,9.77v.79a1.5,1.5,0,0,0,3,0V9.77a1.5,1.5,0,0,0-3,0Z"/><path class="cls-1" d="M11.94,9.14c-.79.79-1.11,2-2,2.62a6.46,6.46,0,0,0-1.32,1.07c-.38.45-.75,1.35-1.34,1.55-1.81.64-1,3.53.8,2.89A4.11,4.11,0,0,0,10,16a7.08,7.08,0,0,1,1.45-1.61A5.32,5.32,0,0,0,12.91,13a12.67,12.67,0,0,1,1.15-1.76,1.5,1.5,0,0,0-2.12-2.12Z"/><path class="cls-1" d="M9.68,27.64c1.16-1.1,2.54-2.83,4-3.24,1.68-.47,3.61.13,5.37-.46a14.17,14.17,0,0,0,6.4-4.54c3.6-4.91,3.67-12-1.72-15.51-1.63-1-3.13,1.55-1.51,2.59,5.45,3.51,2,11.61-2.78,13.9a10,10,0,0,1-4.87,1.07,7,7,0,0,0-2.11-.21c-1.64.46-3.71,3.18-4.9,4.29-1.41,1.33.72,3.44,2.12,2.12Z"/></g></svg>