<svg xmlns="http://www.w3.org/2000/svg" viewBox="0 0 32 32"><title>item-icon</title><g id="Layer_25" data-name="Layer 25"><path d="M11.31,20c-1.39.08-4.14.58-4.72,2.11s1.76,2.16,2.89,2c1.3-.13,3.92-.5,4.61-1.8.9-1.7-1.27-2.33-2.49-2.44-1-.08-1,1.42,0,1.5.22,0,1.15.08,1,.34s-.66.25-.79.3a12.91,12.91,0,0,1-2.28.58c-.57.08-1.9.12-.77-.47a6,6,0,0,1,2.52-.66c1-.05,1-1.55,0-1.5Z"/><path d="M15.92,14.78a4.63,4.63,0,0,0-2.55.06,2.06,2.06,0,0,0-1.65,1.07C11,17.47,12.88,18.08,14,18.18s3.75.35,4.36-1-1.34-2.27-2.48-2.3a.75.75,0,0,0,0,1.5c.45,0,1.33.15.34.31a8.49,8.49,0,0,1-1.62.06,7.68,7.68,0,0,1-1-.09q-.48-.38.14-.34a2.68,2.68,0,0,1,1.75-.06c.91.33,1.3-1.12.4-1.45Z"/><path d="M6.92,11.21a1.14,1.14,0,0,1-.16-1c.09-.37.35-.28.54,0a1.74,1.74,0,0,1,.06,1.15c0,.17-.14.37-.16.54l-.1.14q.51-.11.2-.42c-.36-.88-1.81-.5-1.45.4.45,1.1,1.65,2.1,2.54.8a3.41,3.41,0,0,0,.1-3.53A1.8,1.8,0,0,0,5.68,9a2.64,2.64,0,0,0,.18,3.23c.67.7,1.73-.37,1.06-1.06Z"/><path d="M21.81,25.71a5,5,0,0,1,1.81-.39c.31,0,.62,0,.93,0s1-.13.48.08a4.73,4.73,0,0,1-1.88.15h-.87l-.27,0q-.44-.18-.38.23c.81-.52.06-1.81-.76-1.3A1.36,1.36,0,0,0,21.53,27,14.19,14.19,0,0,0,24,27a3.9,3.9,0,0,0,2.06-.5,1.44,1.44,0,0,0-.49-2.6,6.84,6.84,0,0,0-4.53.47c-.88.4-.11,1.7.76,1.3Z"/><path d="M22.49,16.09c.36-.33,1.75-1.09,2.15-.67q.11-.1,0,0l-.27.2c-.16.11-.32.22-.48.31s-1.31.59-1.24.19c.17-.94-1.28-1.35-1.45-.4a1.71,1.71,0,0,0,1.87,2A4.26,4.26,0,0,0,26,16.16c.6-1-.36-2.07-1.3-2.27A4.08,4.08,0,0,0,21.42,15c-.71.66.35,1.72,1.06,1.06Z"/><path d="M16.53,22c-.66.62-1.39,1.89-.94,2.8s2.09.44,2.76-.09,1.49-1.86.83-2.74a1.64,1.64,0,0,0-2.73.24c-.4.87.89,1.63,1.3.76.2-.44-.07.14.18-.12q.22.14,0-.05a1.34,1.34,0,0,1-.73.91c-.13.07-.35.08-.46.15s-.14.11.26.36A1.46,1.46,0,0,1,17,24a1.87,1.87,0,0,1,.57-.92c.71-.66-.36-1.72-1.06-1.06Z"/><path d="M18,7.48c-1.19.26-2.21,1.63-2.69,2.69s-.46,2.92,1.09,2.8a2.59,2.59,0,0,0,1.52-1,12.4,12.4,0,0,0,1.43-1.6c.74-1.11.56-2.69-1-2.86-1-.1-1,1.4,0,1.5q-.2-.17-.13.23a1.94,1.94,0,0,1-.32.52,7.6,7.6,0,0,1-.53.57l-.55.58-.37.39q-.29.14-.07.2t.11-.25a1.9,1.9,0,0,1,.19-.51,4,4,0,0,1,.41-.64c.32-.43.72-1,1.27-1.14.94-.2.54-1.65-.4-1.45Z"/><path d="M13,5c-1-.07-2.73.15-2.79,1.5s1.93,2,3,2.09,2.76.15,2.64-1.45A2.42,2.42,0,0,0,13.21,5c-1,.09-1,1.59,0,1.5.36,0,1.32.18,1.17.75,0-.17-.13-.06-.33-.07a7.71,7.71,0,0,1-.85-.06c-.13,0-1.57-.34-1.48-.53,0,0,1.17-.06,1.26-.05,1,.06,1-1.44,0-1.5Z"/></g></svg>