<svg xmlns="http://www.w3.org/2000/svg" viewBox="0 0 32 32"><defs><style>.cls-1{fill:lime;}</style></defs><title>item-icon</title><g id="Layer_42" data-name="Layer 42"><path d="M4.09,12.93q-.55,6.84-.79,13.71c0,1.45,2.2,1.45,2.25,0q.23-6.86.79-13.71c.12-1.44-2.13-1.44-2.25,0Z"/><path d="M4.55,28.43a227.36,227.36,0,0,0,23-1.4c1.42-.16,1.44-2.41,0-2.25a227.36,227.36,0,0,1-23,1.4,1.13,1.13,0,0,0,0,2.25Z"/><path d="M28.66,25.3q-1.51-6.43-3.34-12.77a1.13,1.13,0,0,0-2.17.6Q25,19.47,26.49,25.9c.33,1.41,2.5.81,2.17-.6Z"/><path d="M5.22,13.9l19.18-.67c1.44-.05,1.45-2.3,0-2.25l-19.18.67c-1.44.05-1.45,2.3,0,2.25Z"/><path d="M11.19,11.8C11.33,9.39,12,6.5,14.69,6c1.49-.29,2.4.09,2.83,1.62a27.69,27.69,0,0,1,.69,3.78c.19,1.41,2.44,1.43,2.25,0-.48-3.62-.83-8.27-5.52-7.7-4.27.52-5.77,4.16-6,8.11-.09,1.45,2.16,1.44,2.25,0Z"/><path class="cls-1" d="M13.56,17q.25,3.13.78,6.23c.24,1.42,2.41.82,2.17-.6q-.48-2.8-.7-5.63c-.11-1.43-2.36-1.45-2.25,0Z"/><path class="cls-1" d="M11.51,21.2l8-.64c1.43-.11,1.45-2.36,0-2.25l-8,.64c-1.43.11-1.45,2.36,0,2.25Z"/></g></svg>