<svg xmlns="http://www.w3.org/2000/svg" viewBox="0 0 32 32"><defs><style>.cls-1{fill:#ff0;}</style></defs><title>item-icon</title><g id="Layer_2" data-name="Layer 2"><path class="cls-1" d="M20.86,4.66a14.2,14.2,0,0,0-10.52,7.13C8.14,15.25,5.31,23.25,8.76,27c2,2.12,3.67.46,3.67-1.95,0-4.35-1.65-9.68,1.8-13.46,1.84-2,6.66-4.57,9.25-5.15L21.78,4.2c-2.16,3.64-5.26,6.62-7.15,10.41a51,51,0,0,0-4.32,12l2.74-.36c-1.43-2.33.28-7.1,1.37-9.33.29-.59,3.79-7.47,3.93-7.47,1.93.05,1.93-2.95,0-3-3-.08-5.8,7.44-6.82,9.56-1.44,3-3,8.67-1.08,11.76a1.52,1.52,0,0,0,2.74-.36c.77-4.05,3-8.95,4.87-12.63,1.64-3.28,4.41-5.91,6.3-9.1a1.52,1.52,0,0,0-1.69-2.2,26.28,26.28,0,0,0-9.56,5c-3,2.35-3.69,6.14-4.12,9.73-.07.56-.58,5.83.29,6.18.56.22,2.16-8.69,2.38-9.13a13.49,13.49,0,0,1,10-7.76c1.9-.34,1.09-3.23-.8-2.89Z"/><path d="M25.84,1.94c-7.29-.89-15,1.12-18.67,8-3.56,6.66-3,13.83,2.17,19.53,1.3,1.43,3.42-.69,2.12-2.12a13.25,13.25,0,0,1-.32-17.83C15,5.17,20.23,4.26,25.84,4.94c1.91.23,1.9-2.77,0-3Z"/><path d="M25,2.86c-3.93,2.93-6.5,6.69-8.72,11C14,18.24,11.49,22.54,11,27.58c-.21,1.92,2.8,1.9,3,0,.46-4.24,3-8.52,5-12.25s4.15-7.28,7.65-9.88c1.53-1.14,0-3.75-1.51-2.59Z"/><path d="M23,3.93c-4.7,2.22-8.14,4.81-10.68,9.4-2.76,5-2.45,10.05-2,15.61.08,1,1.58,1,1.5,0-.43-5.22-.75-10.09,1.79-14.86,2.29-4.3,5.83-6.83,10.14-8.86.87-.41.11-1.7-.76-1.3Z"/></g></svg>