<svg xmlns="http://www.w3.org/2000/svg" viewBox="0 0 32 32"><title>item-icon</title><g id="Layer_47" data-name="Layer 47"><path d="M7.35,17.85c-.86,2.18-1.1,5.06,1.3,6.4,1.82,1,5.55.57,6.87-1.14s1.64-4.86.13-6.46c-2-2.1-4.93-1.54-7.13-.18-1.23.76-.1,2.71,1.14,1.94s2.64-1.38,3.92-.58c1,.65,1,2.89.22,3.83s-3.4,1.18-4.25.48c-1.14-.93-.46-2.6,0-3.7.53-1.35-1.65-1.93-2.17-.6Z"/><path d="M22.17,15.66c-2.57.26-3.38,3.82-3,6,.5,2.88,3.3,3.28,5.64,2.35s4.51-1.8,3.92-4.68c-.54-2.61-3.94-4-6.39-3.68-1.42.17-1.44,2.43,0,2.25a5.22,5.22,0,0,1,3.54.93c.55.43,1,1.41.44,2.07a4,4,0,0,1-1.26.58c-.94.4-3,1.54-3.6.11-.24-.54,0-3.62.72-3.69,1.43-.15,1.44-2.4,0-2.25Z"/><path d="M15.72,21c1.21,0,2.43-.14,3.64-.21,1.44-.09,1.45-2.34,0-2.25-1.21.08-2.43.2-3.64.21a1.13,1.13,0,0,0,0,2.25Z"/><path d="M8.78,19.54a28,28,0,0,0-1.88-6.4c-.73-1.7-1.34-3-3.36-2.69-1.43.22-.82,2.39.6,2.17.36-.06,1.36,3.09,1.51,3.54a28.69,28.69,0,0,1,1,4c.24,1.42,2.41.82,2.17-.6Z"/><path d="M29.24,20.1c-1.19-2.95-1.75-6.54-3.61-9.15C24.3,9.08,21.24,5.65,19,8.17c-1,1.07.62,2.67,1.59,1.59.68-.76,2.5,1.55,2.88,2a12.11,12.11,0,0,1,1.77,3.72c.6,1.73,1.16,3.48,1.84,5.18.54,1.33,2.71.75,2.17-.6Z"/></g></svg>