<svg xmlns="http://www.w3.org/2000/svg" viewBox="0 0 32 32"><defs><style>.cls-1{fill:gray;}</style></defs><title>item-icon</title><g id="Layer_34" data-name="Layer 34"><path class="cls-1" d="M15.4,5.83a.38.38,0,0,0,0-.75.38.38,0,0,0,0,.75Z"/><path class="cls-1" d="M14.16,8.58a.38.38,0,0,0,0-.75.38.38,0,0,0,0,.75Z"/><path class="cls-1" d="M20,8a.38.38,0,0,0,0-.75A.38.38,0,0,0,20,8Z"/><path class="cls-1" d="M16,10.81a.38.38,0,0,0,0-.75.38.38,0,0,0,0,.75Z"/><path class="cls-1" d="M16.28,6.87a.38.38,0,0,0,0-.75.38.38,0,0,0,0,.75Z"/><path class="cls-1" d="M11.46,8.27a.38.38,0,0,0,0-.75.38.38,0,0,0,0,.75Z"/><path class="cls-1" d="M18.51,11.12a.38.38,0,0,0,0-.75.38.38,0,0,0,0,.75Z"/><path class="cls-1" d="M16.59,7.18a.38.38,0,0,0,0-.75.38.38,0,0,0,0,.75Z"/><path class="cls-1" d="M13.28,10.39a.38.38,0,0,0,0-.75.38.38,0,0,0,0,.75Z"/><path class="cls-1" d="M18,10.5a.38.38,0,0,0,0-.75.38.38,0,0,0,0,.75Z"/><path class="cls-1" d="M17.84,9.88a.38.38,0,0,0,0-.75.38.38,0,0,0,0,.75Z"/><path class="cls-1" d="M17,8.84a.38.38,0,0,0,0-.75.38.38,0,0,0,0,.75Z"/><path class="cls-1" d="M15.3,9.2a.38.38,0,0,0,0-.75.38.38,0,0,0,0,.75Z"/><path class="cls-1" d="M14.21,11a.38.38,0,0,0,0-.75.38.38,0,0,0,0,.75Z"/><path class="cls-1" d="M16.85,12.05a.38.38,0,0,0,0-.75.38.38,0,0,0,0,.75Z"/><path class="cls-1" d="M18.61,9.46a.38.38,0,0,0,0-.75.38.38,0,0,0,0,.75Z"/><path class="cls-1" d="M19.5,9.31a.38.38,0,0,0,0-.75.38.38,0,0,0,0,.75Z"/><path class="cls-1" d="M15.71,7.6a.38.38,0,0,0,0-.75.38.38,0,0,0,0,.75Z"/><path class="cls-1" d="M15.35,7.7a.38.38,0,0,0,0-.75.38.38,0,0,0,0,.75Z"/><path class="cls-1" d="M14.37,10.81a.38.38,0,0,0,0-.75.38.38,0,0,0,0,.75Z"/><path class="cls-1" d="M17.79,10.19a.38.38,0,0,0,0-.75.38.38,0,0,0,0,.75Z"/><path class="cls-1" d="M18.41,9.46a.38.38,0,0,0,0-.75.38.38,0,0,0,0,.75Z"/><path class="cls-1" d="M19.16,7.36a1.18,1.18,0,0,0-.8-.39c-.48-.06-.47.69,0,.75a.37.37,0,0,1,.27.17c.32.36.85-.17.53-.53Z"/><path class="cls-1" d="M15.71,7.11l-.05.05a.38.38,0,0,0,.53.53l.05-.05a.38.38,0,0,0-.53-.53Z"/><path class="cls-1" d="M15.35,9.15a.38.38,0,0,0,0-.75.38.38,0,0,0,0,.75Z"/><path class="cls-1" d="M16.44,10.39a.38.38,0,0,0,0-.75.38.38,0,0,0,0,.75Z"/><path class="cls-1" d="M22,8.32a.38.38,0,0,0,0-.75.38.38,0,0,0,0,.75Z"/><path class="cls-1" d="M16.75,8.27a.38.38,0,0,0,0-.75.38.38,0,0,0,0,.75Z"/><path class="cls-1" d="M17.73,12.72a.38.38,0,0,0,0-.75.38.38,0,0,0,0,.75Z"/><path class="cls-1" d="M20.74,11.48a.38.38,0,0,0,0-.75.38.38,0,0,0,0,.75Z"/><path class="cls-1" d="M20.07,9.14l-.16.05c-.45.15-.26.88.2.72l.16-.05c.45-.15.26-.88-.2-.72Z"/><path class="cls-1" d="M17.79,12.52a.38.38,0,0,0,0-.75.38.38,0,0,0,0,.75Z"/><path class="cls-1" d="M21.41,13.4h.05a.38.38,0,0,0,0-.75h-.05a.38.38,0,0,0,0,.75Z"/><path class="cls-1" d="M23.07,9.51a.38.38,0,0,0,0-.75.38.38,0,0,0,0,.75Z"/><path class="cls-1" d="M20.53,10.55a.38.38,0,0,0,0-.75.38.38,0,0,0,0,.75Z"/><path class="cls-1" d="M19.34,12.67a.38.38,0,0,0,0-.75.38.38,0,0,0,0,.75Z"/><path class="cls-1" d="M17.22,13.5a.38.38,0,0,0,0-.75.38.38,0,0,0,0,.75Z"/><path class="cls-1" d="M16.08,12.41a.38.38,0,0,0,0-.75.38.38,0,0,0,0,.75Z"/><path class="cls-1" d="M16,11.78a.68.68,0,0,0,.37-.2c.36-.32-.17-.85-.53-.53h0c-.47.09-.27.82.2.72Z"/><path class="cls-1" d="M20.07,10.5h.1a.38.38,0,0,0,0-.75h-.1a.38.38,0,0,0,0,.75Z"/><path class="cls-1" d="M21.57,8.37a.38.38,0,0,0,0-.75.38.38,0,0,0,0,.75Z"/><path class="cls-1" d="M21.1,7.39a.38.38,0,0,0,0-.75.38.38,0,0,0,0,.75Z"/><path class="cls-1" d="M18.2,7a.38.38,0,0,0,0-.75.38.38,0,0,0,0,.75Z"/><path class="cls-1" d="M13,8.68a.38.38,0,0,0,0-.75.38.38,0,0,0,0,.75Z"/><path class="cls-1" d="M13.07,10.91a.38.38,0,0,0,0-.75.38.38,0,0,0,0,.75Z"/><path class="cls-1" d="M18.46,8.68a.38.38,0,0,0,0-.75.38.38,0,0,0,0,.75Z"/><path class="cls-1" d="M14.16,9.46a.38.38,0,0,0,0-.75.38.38,0,0,0,0,.75Z"/><path class="cls-1" d="M15.66,14.8a.38.38,0,0,0,0-.75.38.38,0,0,0,0,.75Z"/><path class="cls-1" d="M22.4,13a.38.38,0,0,0,0-.75.38.38,0,0,0,0,.75Z"/><path class="cls-1" d="M19.7,11.33a.38.38,0,0,0,0-.75.38.38,0,0,0,0,.75Z"/><path class="cls-1" d="M19.65,13.92a.38.38,0,0,0,0-.75.38.38,0,0,0,0,.75Z"/><path class="cls-1" d="M15.14,12.05a.38.38,0,0,0,0-.75.38.38,0,0,0,0,.75Z"/><path class="cls-1" d="M12.52,9.67l.1.05c.43.22.81-.43.38-.65L12.89,9c-.43-.22-.81.43-.38.65Z"/><path class="cls-1" d="M14.37,6.51a.38.38,0,0,0,0-.75.38.38,0,0,0,0,.75Z"/><path class="cls-1" d="M18.82,10.19a.38.38,0,0,0,0-.75.38.38,0,0,0,0,.75Z"/><path class="cls-1" d="M15.87,10.78a.38.38,0,0,0,0-.75.38.38,0,0,0,0,.75Z"/><path class="cls-1" d="M19.75,15.13a.38.38,0,0,0,0-.75.38.38,0,0,0,0,.75Z"/><path class="cls-1" d="M15.14,13.59a.38.38,0,0,0,0-.75.38.38,0,0,0,0,.75Z"/><path class="cls-1" d="M18.5,11.51a.38.38,0,0,0,0-.75.38.38,0,0,0,0,.75Z"/><path class="cls-1" d="M14.55,8.41a.38.38,0,0,0,0-.75.38.38,0,0,0,0,.75Z"/><path class="cls-1" d="M16.34,15.79a.38.38,0,0,0,0-.75.38.38,0,0,0,0,.75Z"/><path class="cls-1" d="M18.42,11.94a.38.38,0,0,0,0-.75.38.38,0,0,0,0,.75Z"/><path class="cls-1" d="M13.88,11.12a.38.38,0,0,0,0-.75.38.38,0,0,0,0,.75Z"/><path class="cls-1" d="M16.57,15.05a.38.38,0,0,0,0-.75.38.38,0,0,0,0,.75Z"/><path class="cls-1" d="M17,14.52a.38.38,0,0,0,0-.75.38.38,0,0,0,0,.75Z"/><path class="cls-1" d="M17.29,13.2a.38.38,0,0,0,0-.75.38.38,0,0,0,0,.75Z"/><path class="cls-1" d="M16,12.07a.38.38,0,0,0,0-.75.38.38,0,0,0,0,.75Z"/><path class="cls-1" d="M14,12.21a.38.38,0,0,0,0-.75.38.38,0,0,0,0,.75Z"/><path class="cls-1" d="M14.62,15a.38.38,0,0,0,0-.75.38.38,0,0,0,0,.75Z"/><path class="cls-1" d="M17.75,14.91a.38.38,0,0,0,0-.75.38.38,0,0,0,0,.75Z"/><path class="cls-1" d="M18.39,15.54a.38.38,0,0,0,0-.75.38.38,0,0,0,0,.75Z"/><path class="cls-1" d="M17.57,11.47a.38.38,0,0,0,0-.75.38.38,0,0,0,0,.75Z"/><path class="cls-1" d="M17.28,11.23a.38.38,0,0,0,0-.75.38.38,0,0,0,0,.75Z"/><path class="cls-1" d="M14.18,12.24a.38.38,0,0,0,0-.75.38.38,0,0,0,0,.75Z"/><path class="cls-1" d="M16.67,14.66a.38.38,0,0,0,0-.75.38.38,0,0,0,0,.75Z"/><path class="cls-1" d="M17.63,14.74a.38.38,0,0,0,0-.75.38.38,0,0,0,0,.75Z"/><path class="cls-1" d="M19.46,14a1.23,1.23,0,0,0-.12-.89c-.22-.43-.87-.05-.65.38l0,.31c-.09.47.63.67.72.2Z"/><path class="cls-1" d="M17.7,11h-.07c-.47-.08-.68.64-.2.72h.07c.47.08.68-.64.2-.72Z"/><path class="cls-1" d="M16.1,12.08a.38.38,0,0,0,0-.75.38.38,0,0,0,0,.75Z"/><path class="cls-1" d="M15.72,13.69a.38.38,0,0,0,0-.75.38.38,0,0,0,0,.75Z"/><path class="cls-1" d="M20.64,17a.38.38,0,0,0,0-.75.38.38,0,0,0,0,.75Z"/><path class="cls-1" d="M17.63,12.7a.38.38,0,0,0,0-.75.38.38,0,0,0,0,.75Z"/><path class="cls-1" d="M14.58,16.1a.38.38,0,0,0,0-.75.38.38,0,0,0,0,.75Z"/><path class="cls-1" d="M17.34,17.82a.38.38,0,0,0,0-.75.38.38,0,0,0,0,.75Z"/><path class="cls-1" d="M18.5,15.72l-.13-.1c-.39-.28-.77.37-.38.65l.13.1c.39.28.77-.37.38-.65Z"/><path class="cls-1" d="M14.78,16a.38.38,0,0,0,0-.75.38.38,0,0,0,0,.75Z"/><path class="cls-1" d="M15.85,19.29l0,0c.28.39.93,0,.65-.38l0,0c-.28-.39-.93,0-.65.38Z"/><path class="cls-1" d="M20.3,18.57a.38.38,0,0,0,0-.75.38.38,0,0,0,0,.75Z"/><path class="cls-1" d="M18,17.1a.38.38,0,0,0,0-.75.38.38,0,0,0,0,.75Z"/><path class="cls-1" d="M15.56,17.37a.38.38,0,0,0,0-.75.38.38,0,0,0,0,.75Z"/><path class="cls-1" d="M13.65,16.13a.38.38,0,0,0,0-.75.38.38,0,0,0,0,.75Z"/><path class="cls-1" d="M13.87,14.57a.38.38,0,0,0,0-.75.38.38,0,0,0,0,.75Z"/><path class="cls-1" d="M14,14a.68.68,0,0,0,.37.2c.47.1.67-.62.2-.72h0c-.35-.33-.88.2-.53.53Z"/><path class="cls-1" d="M17.43,16.51l.06.08c.28.39.93,0,.65-.38l-.06-.08c-.28-.39-.93,0-.65.38Z"/><path class="cls-1" d="M19.05,18.2A2.68,2.68,0,0,0,20,17c.17-.45-.55-.65-.72-.2a1.76,1.76,0,0,1-.57.77c-.38.29,0,.94.38.65Z"/><path class="cls-1" d="M20.35,16.68a.38.38,0,0,0,0-.75.38.38,0,0,0,0,.75Z"/><path class="cls-1" d="M20.88,15.73a.38.38,0,0,0,0-.75.38.38,0,0,0,0,.75Z"/><path class="cls-1" d="M19.49,13.16a.38.38,0,0,0,0-.75.38.38,0,0,0,0,.75Z"/><path class="cls-1" d="M15.09,9.87a.38.38,0,0,0,0-.75.38.38,0,0,0,0,.75Z"/><path class="cls-1" d="M13.34,11.25a.38.38,0,0,0,0-.75.38.38,0,0,0,0,.75Z"/><path class="cls-1" d="M18.29,14.33a.38.38,0,0,0,0-.75.38.38,0,0,0,0,.75Z"/><path class="cls-1" d="M15.15,11.29a.38.38,0,0,0,0-.75.38.38,0,0,0,0,.75Z"/><path class="cls-1" d="M11.69,15.62a.38.38,0,0,0,0-.75.38.38,0,0,0,0,.75Z"/><path class="cls-1" d="M17.09,20a.38.38,0,0,0,0-.75.38.38,0,0,0,0,.75Z"/><path class="cls-1" d="M16.86,16.88a.38.38,0,0,0,0-.75.38.38,0,0,0,0,.75Z"/><path class="cls-1" d="M14.73,18.35a.38.38,0,0,0,0-.75.38.38,0,0,0,0,.75Z"/><path class="cls-1" d="M13.62,13.6a.38.38,0,0,0,0-.75.38.38,0,0,0,0,.75Z"/><path class="cls-1" d="M13.73,10l0,.11c.07.48.8.27.72-.2l0-.11c-.07-.48-.8-.27-.72.2Z"/><path class="cls-1" d="M17.67,9.74a.38.38,0,0,0,0-.75.38.38,0,0,0,0,.75Z"/><path class="cls-1" d="M24.2,21.16a.38.38,0,0,0,0-.75.38.38,0,0,0,0,.75Z"/><path class="cls-1" d="M23.83,18.17a.38.38,0,0,0,0-.75.38.38,0,0,0,0,.75Z"/><path class="cls-1" d="M19.2,21.73a.38.38,0,0,0,0-.75.38.38,0,0,0,0,.75Z"/><path class="cls-1" d="M21.07,17.25a.38.38,0,0,0,0-.75.38.38,0,0,0,0,.75Z"/><path class="cls-1" d="M22.91,20.74a.38.38,0,0,0,0-.75.38.38,0,0,0,0,.75Z"/><path class="cls-1" d="M26.28,17a.38.38,0,0,0,0-.75.38.38,0,0,0,0,.75Z"/><path class="cls-1" d="M18.79,18.28a.38.38,0,0,0,0-.75.38.38,0,0,0,0,.75Z"/><path class="cls-1" d="M22.48,20.63a.38.38,0,0,0,0-.75.38.38,0,0,0,0,.75Z"/><path class="cls-1" d="M23.63,16.16a.38.38,0,0,0,0-.75.38.38,0,0,0,0,.75Z"/><path class="cls-1" d="M19.51,18.57a.38.38,0,0,0,0-.75.38.38,0,0,0,0,.75Z"/><path class="cls-1" d="M20,19a.38.38,0,0,0,0-.75A.38.38,0,0,0,20,19Z"/><path class="cls-1" d="M21.31,19.41a.38.38,0,0,0,0-.75.38.38,0,0,0,0,.75Z"/><path class="cls-1" d="M22.53,18.23a.38.38,0,0,0,0-.75.38.38,0,0,0,0,.75Z"/><path class="cls-1" d="M22.53,16.16a.38.38,0,0,0,0-.75.38.38,0,0,0,0,.75Z"/><path class="cls-1" d="M19.71,16.62a.38.38,0,0,0,0-.75.38.38,0,0,0,0,.75Z"/><path class="cls-1" d="M19.57,19.75a.38.38,0,0,0,0-.75.38.38,0,0,0,0,.75Z"/><path class="cls-1" d="M18.9,20.34a.38.38,0,0,0,0-.75.38.38,0,0,0,0,.75Z"/><path class="cls-1" d="M23,19.82a.38.38,0,0,0,0-.75.38.38,0,0,0,0,.75Z"/><path class="cls-1" d="M23.27,19.54a.38.38,0,0,0,0-.75.38.38,0,0,0,0,.75Z"/><path class="cls-1" d="M22.48,16.38a.38.38,0,0,0,0-.75.38.38,0,0,0,0,.75Z"/><path class="cls-1" d="M19.89,18.7a.38.38,0,0,0,0-.75.38.38,0,0,0,0,.75Z"/><path class="cls-1" d="M19.74,19.64a.38.38,0,0,0,0-.75.38.38,0,0,0,0,.75Z"/><path class="cls-1" d="M20,21.13a1.23,1.23,0,0,0,.89-.08c.44-.19.06-.84-.38-.65H20.2a.38.38,0,0,0-.2.72Z"/><path class="cls-1" d="M23.07,19.55l0-.07c.11-.47-.61-.67-.72-.2l0,.07c-.11.47.61.67.72.2Z"/><path class="cls-1" d="M22.51,18.31a.38.38,0,0,0,0-.75.38.38,0,0,0,0,.75Z"/><path class="cls-1" d="M20.93,17.82a.38.38,0,0,0,0-.75.38.38,0,0,0,0,.75Z"/><path class="cls-1" d="M17.29,22.48a.38.38,0,0,0,0-.75.38.38,0,0,0,0,.75Z"/><path class="cls-1" d="M21.78,19.79a.38.38,0,0,0,0-.75.38.38,0,0,0,0,.75Z"/><path class="cls-1" d="M18.61,16.51a.38.38,0,0,0,0-.75.38.38,0,0,0,0,.75Z"/><path class="cls-1" d="M16.7,19.14a.38.38,0,0,0,0-.75.38.38,0,0,0,0,.75Z"/><path class="cls-1" d="M18.29,20.1l.1-.13c.31-.37-.22-.9-.53-.53l-.1.13c-.31.37.22.9.53.53Z"/><path class="cls-1" d="M18.67,16.71a.38.38,0,0,0,0-.75.38.38,0,0,0,0,.75Z"/><path class="cls-1" d="M14.93,17.16l0,0c-.41.25,0,.9.38.65l0,0c.41-.25,0-.9-.38-.65Z"/><path class="cls-1" d="M15.74,22a.38.38,0,0,0,0-.75.38.38,0,0,0,0,.75Z"/><path class="cls-1" d="M17.36,19.82a.38.38,0,0,0,0-.75.38.38,0,0,0,0,.75Z"/><path class="cls-1" d="M17.27,17.39a.38.38,0,0,0,0-.75.38.38,0,0,0,0,.75Z"/><path class="cls-1" d="M18.64,15.57a.38.38,0,0,0,0-.75.38.38,0,0,0,0,.75Z"/><path class="cls-1" d="M20.19,15.9a.38.38,0,0,0,0-.75.38.38,0,0,0,0,.75Z"/><path class="cls-1" d="M20.38,15.71a.68.68,0,0,0-.22.36.38.38,0,0,0,.72.2l0,0c.36-.33-.18-.86-.53-.53Z"/><path class="cls-1" d="M17.6,18.93l-.09.05c-.41.25,0,.9.38.65l.09-.05c.41-.25,0-.9-.38-.65Z"/><path class="cls-1" d="M15.83,20.44a2.58,2.58,0,0,0,1.07.95c.43.21.82-.44.38-.65a1.86,1.86,0,0,1-.8-.68c-.26-.4-.91,0-.65.38Z"/><path class="cls-1" d="M17.62,22.22a.38.38,0,0,0,0-.75.38.38,0,0,0,0,.75Z"/><path class="cls-1" d="M18.53,22.82a.38.38,0,0,0,0-.75.38.38,0,0,0,0,.75Z"/><path class="cls-1" d="M21.19,21.61a.38.38,0,0,0,0-.75.38.38,0,0,0,0,.75Z"/><path class="cls-1" d="M24.79,17.46a.38.38,0,0,0,0-.75.38.38,0,0,0,0,.75Z"/><path class="cls-1" d="M23.53,15.61a.38.38,0,0,0,0-.75.38.38,0,0,0,0,.75Z"/><path class="cls-1" d="M20.11,20.33a.38.38,0,0,0,0-.75.38.38,0,0,0,0,.75Z"/><path class="cls-1" d="M23.36,17.42a.38.38,0,0,0,0-.75.38.38,0,0,0,0,.75Z"/><path class="cls-1" d="M19.29,13.66a.38.38,0,0,0,0-.75.38.38,0,0,0,0,.75Z"/><path class="cls-1" d="M14.5,18.72a.38.38,0,0,0,0-.75.38.38,0,0,0,0,.75Z"/><path class="cls-1" d="M17.66,18.73a.38.38,0,0,0,0-.75.38.38,0,0,0,0,.75Z"/><path class="cls-1" d="M16.35,16.49a.38.38,0,0,0,0-.75.38.38,0,0,0,0,.75Z"/><path class="cls-1" d="M21.17,15.72a.38.38,0,0,0,0-.75.38.38,0,0,0,0,.75Z"/><path class="cls-1" d="M24.46,15.68h-.12c-.48,0-.48.79,0,.75h.12c.48,0,.48-.79,0-.75Z"/><path class="cls-1" d="M24.73,20a.38.38,0,0,0,0-.75.38.38,0,0,0,0,.75Z"/><path class="cls-1" d="M23.73,22.71a.38.38,0,0,0,0-.75.38.38,0,0,0,0,.75Z"/><path class="cls-1" d="M22.3,20.06a.38.38,0,0,0,0-.75.38.38,0,0,0,0,.75Z"/><path class="cls-1" d="M19.28,25.05a.38.38,0,0,0,0-.75.38.38,0,0,0,0,.75Z"/><path class="cls-1" d="M19.4,20.19a.38.38,0,0,0,0-.75.38.38,0,0,0,0,.75Z"/><path class="cls-1" d="M22.37,22.78a.38.38,0,0,0,0-.75.38.38,0,0,0,0,.75Z"/><path class="cls-1" d="M24.18,18.1a.38.38,0,0,0,0-.75.38.38,0,0,0,0,.75Z"/><path class="cls-1" d="M17.64,22a.38.38,0,0,0,0-.75.38.38,0,0,0,0,.75Z"/><path class="cls-1" d="M21.94,22.84a.38.38,0,0,0,0-.75.38.38,0,0,0,0,.75Z"/><path class="cls-1" d="M21.39,18.26a.38.38,0,0,0,0-.75.38.38,0,0,0,0,.75Z"/><path class="cls-1" d="M18.42,22a.38.38,0,0,0,0-.75.38.38,0,0,0,0,.75Z"/><path class="cls-1" d="M19,22.2a.38.38,0,0,0,0-.75.38.38,0,0,0,0,.75Z"/><path class="cls-1" d="M20.4,22.13a.38.38,0,0,0,0-.75.38.38,0,0,0,0,.75Z"/><path class="cls-1" d="M21.12,20.59a.38.38,0,0,0,0-.75.38.38,0,0,0,0,.75Z"/><path class="cls-1" d="M20.38,18.65a.38.38,0,0,0,0-.75.38.38,0,0,0,0,.75Z"/><path class="cls-1" d="M17.91,20.1a.38.38,0,0,0,0-.75.38.38,0,0,0,0,.75Z"/><path class="cls-1" d="M18.9,23.07a.38.38,0,0,0,0-.75.38.38,0,0,0,0,.75Z"/><path class="cls-1" d="M18.49,23.86a.38.38,0,0,0,0-.75.38.38,0,0,0,0,.75Z"/><path class="cls-1" d="M22.14,21.89a.38.38,0,0,0,0-.75.38.38,0,0,0,0,.75Z"/><path class="cls-1" d="M22.28,21.54a.38.38,0,0,0,0-.75.38.38,0,0,0,0,.75Z"/><path class="cls-1" d="M20.4,18.87a.38.38,0,0,0,0-.75.38.38,0,0,0,0,.75Z"/><path class="cls-1" d="M18.83,22a.38.38,0,0,0,0-.75.38.38,0,0,0,0,.75Z"/><path class="cls-1" d="M19,22.9a.38.38,0,0,0,0-.75.38.38,0,0,0,0,.75Z"/><path class="cls-1" d="M19.9,24.17a1.22,1.22,0,0,0,.81-.37c.35-.34-.18-.87-.53-.53l-.28.15c-.48,0-.48.8,0,.75Z"/><path class="cls-1" d="M22.22,21.53v-.07c-.06-.48-.79-.27-.72.2v.07c.06.48.79.27.72-.2Z"/><path class="cls-1" d="M21.13,20.66a.38.38,0,0,0,0-.75.38.38,0,0,0,0,.75Z"/><path class="cls-1" d="M19.48,20.77a.38.38,0,0,0,0-.75.38.38,0,0,0,0,.75Z"/><path class="cls-1" d="M17.76,26.44a.38.38,0,0,0,0-.75.38.38,0,0,0,0,.75Z"/><path class="cls-1" d="M21,22.31a.38.38,0,0,0,0-.75.38.38,0,0,0,0,.75Z"/><path class="cls-1" d="M16.84,20.39a.38.38,0,0,0,0-.75.38.38,0,0,0,0,.75Z"/><path class="cls-1" d="M16,23.53a.38.38,0,0,0,0-.75.38.38,0,0,0,0,.75Z"/><path class="cls-1" d="M18,23.78l.05-.16c.15-.46-.57-.66-.72-.2l-.05.16c-.15.46.57.66.72.2Z"/><path class="cls-1" d="M17,20.56a.38.38,0,0,0,0-.75.38.38,0,0,0,0,.75Z"/><path class="cls-1" d="M13.75,22.34l0,0c-.29.38.36.76.65.38l0,0c.29-.38-.36-.76-.65-.38Z"/><path class="cls-1" d="M16.16,26.58a.38.38,0,0,0,0-.75.38.38,0,0,0,0,.75Z"/><path class="cls-1" d="M16.87,23.93a.38.38,0,0,0,0-.75.38.38,0,0,0,0,.75Z"/><path class="cls-1" d="M15.91,21.7a.38.38,0,0,0,0-.75.38.38,0,0,0,0,.75Z"/><path class="cls-1" d="M16.53,19.5a.38.38,0,0,0,0-.75.38.38,0,0,0,0,.75Z"/><path class="cls-1" d="M18.09,19.26a.38.38,0,0,0,0-.75.38.38,0,0,0,0,.75Z"/><path class="cls-1" d="M18.36,18.95a.69.69,0,0,0-.09.42c0,.48.79.48.75,0v0c.21-.43-.43-.81-.65-.38Z"/><path class="cls-1" d="M16.87,23l-.06.08c-.29.38.36.76.65.38l.06-.08c.29-.38-.36-.76-.65-.38Z"/><path class="cls-1" d="M15.84,25.07a2.58,2.58,0,0,0,1.36.47c.48,0,.48-.72,0-.75a1.86,1.86,0,0,1-1-.37c-.39-.28-.77.37-.38.65Z"/><path class="cls-1" d="M18,26.08a.38.38,0,0,0,0-.75.38.38,0,0,0,0,.75Z"/><path class="cls-1" d="M19,26.3a.38.38,0,0,0,0-.75.38.38,0,0,0,0,.75Z"/><path class="cls-1" d="M21.09,24.21a.38.38,0,0,0,0-.75.38.38,0,0,0,0,.75Z"/><path class="cls-1" d="M22.94,19a.38.38,0,0,0,0-.75.38.38,0,0,0,0,.75Z"/><path class="cls-1" d="M21.11,17.78a.38.38,0,0,0,0-.75.38.38,0,0,0,0,.75Z"/><path class="cls-1" d="M19.61,23.42a.38.38,0,0,0,0-.75.38.38,0,0,0,0,.75Z"/><path class="cls-1" d="M21.6,19.52a.38.38,0,0,0,0-.75.38.38,0,0,0,0,.75Z"/><path class="cls-1" d="M16.45,17.48a.38.38,0,0,0,0-.75.38.38,0,0,0,0,.75Z"/><path class="cls-1" d="M13.8,23.94a.38.38,0,0,0,0-.75.38.38,0,0,0,0,.75Z"/><path class="cls-1" d="M16.76,22.8a.38.38,0,0,0,0-.75.38.38,0,0,0,0,.75Z"/><path class="cls-1" d="M14.73,21.19a.38.38,0,0,0,0-.75.38.38,0,0,0,0,.75Z"/><path class="cls-1" d="M18.94,18.74a.38.38,0,0,0,0-.75.38.38,0,0,0,0,.75Z"/><path class="cls-1" d="M22.08,17.51l-.1.05c-.43.21-.05.86.38.65l.1-.05c.43-.21.05-.86-.38-.65Z"/><path class="cls-1" d="M23.82,21.48a.38.38,0,0,0,0-.75.38.38,0,0,0,0,.75Z"/><path class="cls-1" d="M18.19,22.79a.38.38,0,0,0,0-.75.38.38,0,0,0,0,.75Z"/><path class="cls-1" d="M19.52,20.09a.38.38,0,0,0,0-.75.38.38,0,0,0,0,.75Z"/><path class="cls-1" d="M13.7,20.53a.38.38,0,0,0,0-.75.38.38,0,0,0,0,.75Z"/><path class="cls-1" d="M17.72,17.8a.38.38,0,0,0,0-.75.38.38,0,0,0,0,.75Z"/><path class="cls-1" d="M17.34,21.73a.38.38,0,0,0,0-.75.38.38,0,0,0,0,.75Z"/><path class="cls-1" d="M22.2,20.48a.38.38,0,0,0,0-.75.38.38,0,0,0,0,.75Z"/><path class="cls-1" d="M15.24,17.42a.38.38,0,0,0,0-.75.38.38,0,0,0,0,.75Z"/><path class="cls-1" d="M17,21.41a.38.38,0,0,0,0-.75.38.38,0,0,0,0,.75Z"/><path class="cls-1" d="M20.45,18.3a.38.38,0,0,0,0-.75.38.38,0,0,0,0,.75Z"/><path class="cls-1" d="M15.69,18.05a.38.38,0,0,0,0-.75.38.38,0,0,0,0,.75Z"/><path class="cls-1" d="M15.88,18.68a.38.38,0,0,0,0-.75.38.38,0,0,0,0,.75Z"/><path class="cls-1" d="M16.73,19.74a.38.38,0,0,0,0-.75.38.38,0,0,0,0,.75Z"/><path class="cls-1" d="M18.4,19.43a.38.38,0,0,0,0-.75.38.38,0,0,0,0,.75Z"/><path class="cls-1" d="M19.54,17.7a.38.38,0,0,0,0-.75.38.38,0,0,0,0,.75Z"/><path class="cls-1" d="M16.93,16.54a.38.38,0,0,0,0-.75.38.38,0,0,0,0,.75Z"/><path class="cls-1" d="M15.09,19.07a.38.38,0,0,0,0-.75.38.38,0,0,0,0,.75Z"/><path class="cls-1" d="M14.21,19.2a.38.38,0,0,0,0-.75.38.38,0,0,0,0,.75Z"/><path class="cls-1" d="M17.93,21a.38.38,0,0,0,0-.75.38.38,0,0,0,0,.75Z"/><path class="cls-1" d="M18.3,20.93a.38.38,0,0,0,0-.75.38.38,0,0,0,0,.75Z"/><path class="cls-1" d="M19.38,17.85a.38.38,0,0,0,0-.75.38.38,0,0,0,0,.75Z"/><path class="cls-1" d="M15.94,18.37a.38.38,0,0,0,0-.75.38.38,0,0,0,0,.75Z"/><path class="cls-1" d="M15.3,19.08a.38.38,0,0,0,0-.75.38.38,0,0,0,0,.75Z"/><path class="cls-1" d="M14.51,20.42a1.09,1.09,0,0,0,.69.39c.47.07.68-.65.2-.72a.51.51,0,0,1-.36-.2c-.31-.37-.84.16-.53.53Z"/><path class="cls-1" d="M17.95,20.75,18,20.7c.35-.33-.18-.86-.53-.53l-.05.05c-.35.33.18.86.53.53Z"/><path class="cls-1" d="M18.34,19.48a.38.38,0,0,0,0-.75.38.38,0,0,0,0,.75Z"/><path class="cls-1" d="M17.29,18.2a.38.38,0,0,0,0-.75.38.38,0,0,0,0,.75Z"/><path class="cls-1" d="M11.69,20.11a.38.38,0,0,0,0-.75.38.38,0,0,0,0,.75Z"/><path class="cls-1" d="M16.92,20.32a.38.38,0,0,0,0-.75.38.38,0,0,0,0,.75Z"/><path class="cls-1" d="M16.07,15.84a.38.38,0,0,0,0-.75.38.38,0,0,0,0,.75Z"/><path class="cls-1" d="M13,17a.38.38,0,0,0,0-.75A.38.38,0,0,0,13,17Z"/><path class="cls-1" d="M13.65,18.6l.16,0c.46-.14.26-.87-.2-.72l-.16,0c-.46.14-.26.87.2.72Z"/><path class="cls-1" d="M16,16a.38.38,0,0,0,0-.75A.38.38,0,0,0,16,16Z"/><path class="cls-1" d="M12.41,14.3h-.05c-.48,0-.48.74,0,.75h.05c.48,0,.48-.74,0-.75Z"/><path class="cls-1" d="M10.64,18.89a.38.38,0,0,0,0-.75.38.38,0,0,0,0,.75Z"/><path class="cls-1" d="M13.21,17.93a.38.38,0,0,0,0-.75.38.38,0,0,0,0,.75Z"/><path class="cls-1" d="M14.46,15.84a.38.38,0,0,0,0-.75.38.38,0,0,0,0,.75Z"/><path class="cls-1" d="M16.61,15.07a.38.38,0,0,0,0-.75.38.38,0,0,0,0,.75Z"/><path class="cls-1" d="M17.72,16.2a.38.38,0,0,0,0-.75.38.38,0,0,0,0,.75Z"/><path class="cls-1" d="M17.75,16.09a.68.68,0,0,0-.38.19c-.37.31.16.84.53.53h0c.48-.08.27-.8-.2-.72Z"/><path class="cls-1" d="M13.67,17.24h-.1c-.48,0-.48.74,0,.75h.1c.48,0,.48-.74,0-.75Z"/><path class="cls-1" d="M11.38,17.56a2.6,2.6,0,0,0,.39,1.38c.25.41.9,0,.65-.38a1.83,1.83,0,0,1-.29-1,.38.38,0,0,0-.75,0Z"/><path class="cls-1" d="M12.11,20.07a.38.38,0,0,0,0-.75.38.38,0,0,0,0,.75Z"/><path class="cls-1" d="M12.54,21.07a.38.38,0,0,0,0-.75.38.38,0,0,0,0,.75Z"/><path class="cls-1" d="M15.43,21.52a.38.38,0,0,0,0-.75.38.38,0,0,0,0,.75Z"/><path class="cls-1" d="M20.71,20a.38.38,0,0,0,0-.75.38.38,0,0,0,0,.75Z"/><path class="cls-1" d="M20.68,17.79a.38.38,0,0,0,0-.75.38.38,0,0,0,0,.75Z"/><path class="cls-1" d="M15.22,19.85a.38.38,0,0,0,0-.75.38.38,0,0,0,0,.75Z"/><path class="cls-1" d="M19.54,19.2a.38.38,0,0,0,0-.75.38.38,0,0,0,0,.75Z"/><path class="cls-1" d="M18.2,13.83a.38.38,0,0,0,0-.75.38.38,0,0,0,0,.75Z"/><path class="cls-1" d="M11.41,15.44a.38.38,0,0,0,0-.75.38.38,0,0,0,0,.75Z"/><path class="cls-1" d="M14.06,17.18a.38.38,0,0,0,0-.75.38.38,0,0,0,0,.75Z"/><path class="cls-1" d="M14.19,14.59a.38.38,0,0,0,0-.75.38.38,0,0,0,0,.75Z"/><path class="cls-1" d="M18.64,16.59a.38.38,0,0,0,0-.75.38.38,0,0,0,0,.75Z"/><path class="cls-1" d="M21.19,18.29l-.1-.06c-.42-.23-.8.42-.38.65l.1.06c.42.23.8-.42.38-.65Z"/><path class="cls-1" d="M19.25,22.15a.38.38,0,0,0,0-.75.38.38,0,0,0,0,.75Z"/><path class="cls-1" d="M6.21,20.42a.38.38,0,0,0,0-.75.38.38,0,0,0,0,.75Z"/><path class="cls-1" d="M8.82,21.93a.38.38,0,0,0,0-.75.38.38,0,0,0,0,.75Z"/><path class="cls-1" d="M8.78,16.1a.38.38,0,0,0,0-.75.38.38,0,0,0,0,.75Z"/><path class="cls-1" d="M11.22,20.3a.38.38,0,0,0,0-.75.38.38,0,0,0,0,.75Z"/><path class="cls-1" d="M7.33,19.65a.38.38,0,0,0,0-.75.38.38,0,0,0,0,.75Z"/><path class="cls-1" d="M8.24,24.58a.38.38,0,0,0,0-.75.38.38,0,0,0,0,.75Z"/><path class="cls-1" d="M11.78,17.86a.38.38,0,0,0,0-.75.38.38,0,0,0,0,.75Z"/><path class="cls-1" d="M7.67,19.37a.38.38,0,0,0,0-.75.38.38,0,0,0,0,.75Z"/><path class="cls-1" d="M10.53,23a.38.38,0,0,0,0-.75.38.38,0,0,0,0,.75Z"/><path class="cls-1" d="M11.11,18.26a.38.38,0,0,0,0-.75.38.38,0,0,0,0,.75Z"/><path class="cls-1" d="M10.48,18.4a.38.38,0,0,0,0-.75.38.38,0,0,0,0,.75Z"/><path class="cls-1" d="M9.36,19.17a.38.38,0,0,0,0-.75.38.38,0,0,0,0,.75Z"/><path class="cls-1" d="M9.55,20.86a.38.38,0,0,0,0-.75.38.38,0,0,0,0,.75Z"/><path class="cls-1" d="M11.19,22.12a.38.38,0,0,0,0-.75.38.38,0,0,0,0,.75Z"/><path class="cls-1" d="M12.54,19.6a.38.38,0,0,0,0-.75.38.38,0,0,0,0,.75Z"/><path class="cls-1" d="M10.14,17.59a.38.38,0,0,0,0-.75.38.38,0,0,0,0,.75Z"/><path class="cls-1" d="M10.08,16.69a.38.38,0,0,0,0-.75.38.38,0,0,0,0,.75Z"/><path class="cls-1" d="M8,20.29a.38.38,0,0,0,0-.75.38.38,0,0,0,0,.75Z"/><path class="cls-1" d="M8.06,20.66a.38.38,0,0,0,0-.75.38.38,0,0,0,0,.75Z"/><path class="cls-1" d="M11.05,21.95a.38.38,0,0,0,0-.75.38.38,0,0,0,0,.75Z"/><path class="cls-1" d="M10.78,18.48a.38.38,0,0,0,0-.75.38.38,0,0,0,0,.75Z"/><path class="cls-1" d="M10.12,17.79a.38.38,0,0,0,0-.75.38.38,0,0,0,0,.75Z"/><path class="cls-1" d="M8.52,16.47a1.18,1.18,0,0,0-.5.73c-.11.47.62.67.72.2a.35.35,0,0,1,.16-.28c.39-.28,0-.93-.38-.65Z"/><path class="cls-1" d="M7.91,19.93,8,20c.31.37.83-.16.53-.53l0-.06c-.31-.37-.83.16-.53.53Z"/><path class="cls-1" d="M9.5,20.8a.38.38,0,0,0,0-.75.38.38,0,0,0,0,.75Z"/><path class="cls-1" d="M10.85,19.85a.38.38,0,0,0,0-.75.38.38,0,0,0,0,.75Z"/><path class="cls-1" d="M9.35,14.12a.38.38,0,0,0,0-.75.38.38,0,0,0,0,.75Z"/><path class="cls-1" d="M8.77,19.32a.38.38,0,0,0,0-.75.38.38,0,0,0,0,.75Z"/><path class="cls-1" d="M13.3,18.79a.38.38,0,0,0,0-.75.38.38,0,0,0,0,.75Z"/><path class="cls-1" d="M12.37,15.68a.38.38,0,0,0,0-.75.38.38,0,0,0,0,.75Z"/><path class="cls-1" d="M10.35,15.81l0,.16c.11.47.83.27.72-.2l0-.16c-.11-.47-.83-.27-.72.2Z"/><path class="cls-1" d="M13.1,18.72a.38.38,0,0,0,0-.75.38.38,0,0,0,0,.75Z"/><path class="cls-1" d="M14.72,14.82v-.05c0-.48-.7-.48-.75,0v.05c0,.48.7.48.75,0Z"/><path class="cls-1" d="M10.64,13.16a.38.38,0,0,0,0-.75.38.38,0,0,0,0,.75Z"/><path class="cls-1" d="M11.42,15.79a.38.38,0,0,0,0-.75.38.38,0,0,0,0,.75Z"/><path class="cls-1" d="M13.41,17.19a.38.38,0,0,0,0-.75.38.38,0,0,0,0,.75Z"/><path class="cls-1" d="M14,19.39a.38.38,0,0,0,0-.75.38.38,0,0,0,0,.75Z"/><path class="cls-1" d="M12.82,20.41a.38.38,0,0,0,0-.75.38.38,0,0,0,0,.75Z"/><path class="cls-1" d="M12.56,20.13a.69.69,0,0,0-.13-.41c-.28-.39-.93,0-.65.38l0,0c0,.48.79.48.75,0Z"/><path class="cls-1" d="M11.69,15.87v-.1c0-.48-.7-.48-.75,0v.1c0,.48.7.48.75,0Z"/><path class="cls-1" d="M11.51,13.59a2.59,2.59,0,0,0-1.4.3c-.43.22,0,.87.38.65a1.85,1.85,0,0,1,1-.2c.48,0,.48-.72,0-.75Z"/><path class="cls-1" d="M9.36,14.54a.38.38,0,0,0,0-.75.38.38,0,0,0,0,.75Z"/><path class="cls-1" d="M8.33,14.9a.38.38,0,0,0,0-.75.38.38,0,0,0,0,.75Z"/><path class="cls-1" d="M7.68,17.75a.38.38,0,0,0,0-.75.38.38,0,0,0,0,.75Z"/><path class="cls-1" d="M8.8,23.13a.38.38,0,0,0,0-.75.38.38,0,0,0,0,.75Z"/><path class="cls-1" d="M11,23.25a.38.38,0,0,0,0-.75.38.38,0,0,0,0,.75Z"/><path class="cls-1" d="M9.35,17.66a.38.38,0,0,0,0-.75.38.38,0,0,0,0,.75Z"/><path class="cls-1" d="M9.69,22a.38.38,0,0,0,0-.75.38.38,0,0,0,0,.75Z"/><path class="cls-1" d="M15.15,21.06a.38.38,0,0,0,0-.75.38.38,0,0,0,0,.75Z"/><path class="cls-1" d="M14,14.18a.38.38,0,0,0,0-.75.38.38,0,0,0,0,.75Z"/><path class="cls-1" d="M12.11,16.69a.38.38,0,0,0,0-.75.38.38,0,0,0,0,.75Z"/><path class="cls-1" d="M14.68,17a.38.38,0,0,0,0-.75.38.38,0,0,0,0,.75Z"/><path class="cls-1" d="M12.37,21.3a.38.38,0,0,0,0-.75.38.38,0,0,0,0,.75Z"/><path class="cls-1" d="M10.13,23.31l.06-.1c.26-.41-.39-.79-.65-.38l-.06.1c-.26.41.39.79.65.38Z"/><path class="cls-1" d="M6.77,21.52a.38.38,0,0,0,0-.75.38.38,0,0,0,0,.75Z"/><path class="cls-1" d="M9.42,6.43a.38.38,0,0,0,0-.75.38.38,0,0,0,0,.75Z"/><path class="cls-1" d="M8.43,9.28a.38.38,0,0,0,0-.75.38.38,0,0,0,0,.75Z"/><path class="cls-1" d="M14.15,8.14a.38.38,0,0,0,0-.75.38.38,0,0,0,0,.75Z"/><path class="cls-1" d="M10.49,11.33a.38.38,0,0,0,0-.75.38.38,0,0,0,0,.75Z"/><path class="cls-1" d="M10.39,7.38a.38.38,0,0,0,0-.75.38.38,0,0,0,0,.75Z"/><path class="cls-1" d="M5.72,9.21a.38.38,0,0,0,0-.75.38.38,0,0,0,0,.75Z"/><path class="cls-1" d="M13,11.41a.38.38,0,0,0,0-.75.38.38,0,0,0,0,.75Z"/><path class="cls-1" d="M10.73,7.67a.38.38,0,0,0,0-.75.38.38,0,0,0,0,.75Z"/><path class="cls-1" d="M7.71,11.16a.38.38,0,0,0,0-.75.38.38,0,0,0,0,.75Z"/><path class="cls-1" d="M12.47,10.84a.38.38,0,0,0,0-.75.38.38,0,0,0,0,.75Z"/><path class="cls-1" d="M12.21,10.24a.38.38,0,0,0,0-.75.38.38,0,0,0,0,.75Z"/><path class="cls-1" d="M11.24,9.28a.38.38,0,0,0,0-.75.38.38,0,0,0,0,.75Z"/><path class="cls-1" d="M9.62,9.8a.38.38,0,0,0,0-.75.38.38,0,0,0,0,.75Z"/><path class="cls-1" d="M8.69,11.65a.38.38,0,0,0,0-.75.38.38,0,0,0,0,.75Z"/><path class="cls-1" d="M11.42,12.49a.38.38,0,0,0,0-.75.38.38,0,0,0,0,.75Z"/><path class="cls-1" d="M12.94,9.75a.38.38,0,0,0,0-.75.38.38,0,0,0,0,.75Z"/><path class="cls-1" d="M13.81,9.52a.38.38,0,0,0,0-.75.38.38,0,0,0,0,.75Z"/><path class="cls-1" d="M9.89,8.16a.38.38,0,0,0,0-.75.38.38,0,0,0,0,.75Z"/><path class="cls-1" d="M9.53,8.29a.38.38,0,0,0,0-.75.38.38,0,0,0,0,.75Z"/><path class="cls-1" d="M8.84,11.48a.38.38,0,0,0,0-.75.38.38,0,0,0,0,.75Z"/><path class="cls-1" d="M12.18,10.55a.38.38,0,0,0,0-.75.38.38,0,0,0,0,.75Z"/><path class="cls-1" d="M12.74,9.77a.38.38,0,0,0,0-.75.38.38,0,0,0,0,.75Z"/><path class="cls-1" d="M13.35,7.63a1.22,1.22,0,0,0-.82-.34c-.48,0-.48.72,0,.75l.29.12c.36.32.89-.21.53-.53Z"/><path class="cls-1" d="M9.89,7.65l0,.06c-.31.37.22.9.53.53l0-.06c.31-.37-.22-.9-.53-.53Z"/><path class="cls-1" d="M9.67,9.74a.38.38,0,0,0,0-.75.38.38,0,0,0,0,.75Z"/><path class="cls-1" d="M10.86,10.88a.38.38,0,0,0,0-.75.38.38,0,0,0,0,.75Z"/><path class="cls-1" d="M16.2,8.31a.38.38,0,0,0,0-.75.38.38,0,0,0,0,.75Z"/><path class="cls-1" d="M11,8.74A.38.38,0,0,0,11,8a.38.38,0,0,0,0,.75Z"/><path class="cls-1" d="M12.36,13.08a.38.38,0,0,0,0-.75.38.38,0,0,0,0,.75Z"/><path class="cls-1" d="M15.24,11.57a.38.38,0,0,0,0-.75.38.38,0,0,0,0,.75Z"/><path class="cls-1" d="M14.34,9.33l-.15.07c-.44.2-.06.84.38.65l.15-.07c.44-.2.06-.84-.38-.65Z"/><path class="cls-1" d="M12.4,12.87a.38.38,0,0,0,0-.75.38.38,0,0,0,0,.75Z"/><path class="cls-1" d="M16.09,13.42h.05c.48,0,.48-.79,0-.75h-.05c-.48,0-.48.79,0,.75Z"/><path class="cls-1" d="M17.39,9.4a.38.38,0,0,0,0-.75.38.38,0,0,0,0,.75Z"/><path class="cls-1" d="M15,10.66a.38.38,0,0,0,0-.75.38.38,0,0,0,0,.75Z"/><path class="cls-1" d="M14,12.89a.38.38,0,0,0,0-.75.38.38,0,0,0,0,.75Z"/><path class="cls-1" d="M11.92,13.9a.38.38,0,0,0,0-.75.38.38,0,0,0,0,.75Z"/><path class="cls-1" d="M10.68,12.92a.38.38,0,0,0,0-.75.38.38,0,0,0,0,.75Z"/><path class="cls-1" d="M10.57,12.3a.68.68,0,0,0,.36-.22c.33-.35-.2-.88-.53-.53l0,0a.38.38,0,0,0,.2.72Z"/><path class="cls-1" d="M14.48,10.65h.1c.48,0,.48-.79,0-.75h-.1c-.48,0-.48.79,0,.75Z"/><path class="cls-1" d="M16.77,10.11a2.69,2.69,0,0,0-.59-1.41c-.3-.38-.83.16-.53.53a1.75,1.75,0,0,1,.37.88c.06.47.81.48.75,0Z"/><path class="cls-1" d="M15.79,8.4a.38.38,0,0,0,0-.75.38.38,0,0,0,0,.75Z"/><path class="cls-1" d="M15.23,7.46a.38.38,0,0,0,0-.75.38.38,0,0,0,0,.75Z"/><path class="cls-1" d="M12.31,7.37a.38.38,0,0,0,0-.75.38.38,0,0,0,0,.75Z"/><path class="cls-1" d="M7.25,9.49a.38.38,0,0,0,0-.75.38.38,0,0,0,0,.75Z"/><path class="cls-1" d="M7.55,11.7a.38.38,0,0,0,0-.75.38.38,0,0,0,0,.75Z"/><path class="cls-1" d="M12.72,9a.38.38,0,0,0,0-.75.38.38,0,0,0,0,.75Z"/><path class="cls-1" d="M8.51,10.16a.38.38,0,0,0,0-.75.38.38,0,0,0,0,.75Z"/><path class="cls-1" d="M10.49,15.34a.38.38,0,0,0,0-.75.38.38,0,0,0,0,.75Z"/><path class="cls-1" d="M17,12.92a.38.38,0,0,0,0-.75.38.38,0,0,0,0,.75Z"/><path class="cls-1" d="M14.2,11.51a.38.38,0,0,0,0-.75.38.38,0,0,0,0,.75Z"/><path class="cls-1" d="M14.38,14.1a.38.38,0,0,0,0-.75.38.38,0,0,0,0,.75Z"/><path class="cls-1" d="M9.72,12.65a.38.38,0,0,0,0-.75.38.38,0,0,0,0,.75Z"/><path class="cls-1" d="M7,10.54l.11,0c.45.18.64-.55.2-.72l-.11,0c-.45-.18-.64.55-.2.72Z"/><path class="cls-1" d="M8.45,7.2a.38.38,0,0,0,0-.75.38.38,0,0,0,0,.75Z"/><path class="cls-1" d="M13.22,10.46a.38.38,0,0,0,0-.75.38.38,0,0,0,0,.75Z"/><path class="cls-1" d="M10.33,11.31a.38.38,0,0,0,0-.75.38.38,0,0,0,0,.75Z"/><path class="cls-1" d="M14.59,15.3a.38.38,0,0,0,0-.75.38.38,0,0,0,0,.75Z"/><path class="cls-1" d="M9.86,14.18a.38.38,0,0,0,0-.75.38.38,0,0,0,0,.75Z"/><path class="cls-1" d="M13,11.8a.38.38,0,0,0,0-.75.38.38,0,0,0,0,.75Z"/><path class="cls-1" d="M8.8,9.07a.38.38,0,0,0,0-.75.38.38,0,0,0,0,.75Z"/><path class="cls-1" d="M11.25,16.27a.38.38,0,0,0,0-.75.38.38,0,0,0,0,.75Z"/><path class="cls-1" d="M13,12.24a.38.38,0,0,0,0-.75.38.38,0,0,0,0,.75Z"/><path class="cls-1" d="M8.38,11.83a.38.38,0,0,0,0-.75.38.38,0,0,0,0,.75Z"/><path class="cls-1" d="M11.42,15.51a.38.38,0,0,0,0-.75.38.38,0,0,0,0,.75Z"/><path class="cls-1" d="M11.75,14.94a.38.38,0,0,0,0-.75.38.38,0,0,0,0,.75Z"/><path class="cls-1" d="M12,13.6a.38.38,0,0,0,0-.75.38.38,0,0,0,0,.75Z"/><path class="cls-1" d="M10.6,12.58a.38.38,0,0,0,0-.75.38.38,0,0,0,0,.75Z"/><path class="cls-1" d="M8.56,12.91a.38.38,0,0,0,0-.75.38.38,0,0,0,0,.75Z"/><path class="cls-1" d="M9.46,15.62a.38.38,0,0,0,0-.75.38.38,0,0,0,0,.75Z"/><path class="cls-1" d="M12.57,15.26a.38.38,0,0,0,0-.75.38.38,0,0,0,0,.75Z"/><path class="cls-1" d="M13.27,15.83a.38.38,0,0,0,0-.75.38.38,0,0,0,0,.75Z"/><path class="cls-1" d="M12.09,11.85a.38.38,0,0,0,0-.75.38.38,0,0,0,0,.75Z"/><path class="cls-1" d="M11.77,11.64a.38.38,0,0,0,0-.75.38.38,0,0,0,0,.75Z"/><path class="cls-1" d="M8.78,12.93a.38.38,0,0,0,0-.75.38.38,0,0,0,0,.75Z"/><path class="cls-1" d="M11.48,15.11a.38.38,0,0,0,0-.75.38.38,0,0,0,0,.75Z"/><path class="cls-1" d="M12.44,15.1a.38.38,0,0,0,0-.75.38.38,0,0,0,0,.75Z"/><path class="cls-1" d="M14.24,14.14a1.15,1.15,0,0,0-.19-.78c-.26-.41-.91,0-.65.38a.42.42,0,0,1,.09.4c-.05.48.7.48.75,0Z"/><path class="cls-1" d="M12.14,11.39h-.07c-.48,0-.48.71,0,.75h.07c.48,0,.48-.71,0-.75Z"/><path class="cls-1" d="M10.68,12.59a.38.38,0,0,0,0-.75.38.38,0,0,0,0,.75Z"/><path class="cls-1" d="M10.45,14.22a.38.38,0,0,0,0-.75.38.38,0,0,0,0,.75Z"/><path class="cls-1" d="M15.64,17.07a.38.38,0,0,0,0-.75.38.38,0,0,0,0,.75Z"/><path class="cls-1" d="M12.26,13.07a.38.38,0,0,0,0-.75.38.38,0,0,0,0,.75Z"/><path class="cls-1" d="M9.53,16.73a.38.38,0,0,0,0-.75.38.38,0,0,0,0,.75Z"/><path class="cls-1" d="M12.43,18.19a.38.38,0,0,0,0-.75.38.38,0,0,0,0,.75Z"/><path class="cls-1" d="M13.46,16l-.14-.08a.38.38,0,0,0-.38.65l.14.08a.38.38,0,0,0,.38-.65Z"/><path class="cls-1" d="M9.72,16.63a.38.38,0,0,0,0-.75.38.38,0,0,0,0,.75Z"/><path class="cls-1" d="M11.16,19.84l0,0c.32.37.84-.17.53-.53l0,0c-.32-.37-.84.17-.53.53Z"/><path class="cls-1" d="M15.45,18.67a.38.38,0,0,0,0-.75.38.38,0,0,0,0,.75Z"/><path class="cls-1" d="M13,17.42a.38.38,0,0,0,0-.75.38.38,0,0,0,0,.75Z"/><path class="cls-1" d="M10.62,17.91a.38.38,0,0,0,0-.75.38.38,0,0,0,0,.75Z"/><path class="cls-1" d="M8.6,16.84a.38.38,0,0,0,0-.75.38.38,0,0,0,0,.75Z"/><path class="cls-1" d="M8.68,15.27a.38.38,0,0,0,0-.75.38.38,0,0,0,0,.75Z"/><path class="cls-1" d="M8.78,14.64a.81.81,0,0,0,.48.2c.48.06.47-.69,0-.75l-.12,0,.27.11-.09-.07c-.38-.29-.91.23-.53.53Z"/><path class="cls-1" d="M12.47,16.93l.07.08c.32.37.84-.17.53-.53L13,16.4c-.32-.37-.84.17-.53.53Z"/><path class="cls-1" d="M14.25,18.38A2.59,2.59,0,0,0,15,17.16a.38.38,0,0,0-.72-.2,1.86,1.86,0,0,1-.56.89c-.36.33.18.86.53.53Z"/><path class="cls-1" d="M15.33,16.79a.38.38,0,0,0,0-.75.38.38,0,0,0,0,.75Z"/><path class="cls-1" d="M15.77,15.79a.38.38,0,0,0,0-.75.38.38,0,0,0,0,.75Z"/><path class="cls-1" d="M14.15,13.36a.38.38,0,0,0,0-.75.38.38,0,0,0,0,.75Z"/><path class="cls-1" d="M9.47,10.48a.38.38,0,0,0,0-.75.38.38,0,0,0,0,.75Z"/><path class="cls-1" d="M7.85,12a.38.38,0,0,0,0-.75.38.38,0,0,0,0,.75Z"/><path class="cls-1" d="M13.06,14.64a.38.38,0,0,0,0-.75.38.38,0,0,0,0,.75Z"/><path class="cls-1" d="M9.66,11.89a.38.38,0,0,0,0-.75.38.38,0,0,0,0,.75Z"/><path class="cls-1" d="M6.6,16.51a.38.38,0,0,0,0-.75.38.38,0,0,0,0,.75Z"/><path class="cls-1" d="M12.38,20.43a.38.38,0,0,0,0-.75.38.38,0,0,0,0,.75Z"/><path class="cls-1" d="M11.87,17.3a.38.38,0,0,0,0-.75.38.38,0,0,0,0,.75Z"/><path class="cls-1" d="M9.88,19a.38.38,0,0,0,0-.75.38.38,0,0,0,0,.75Z"/><path class="cls-1" d="M8.34,14.33a.38.38,0,0,0,0-.75.38.38,0,0,0,0,.75Z"/><path class="cls-1" d="M8.15,10.69l0,.11a.38.38,0,0,0,.72-.2l0-.11a.38.38,0,0,0-.72.2Z"/><path class="cls-1" d="M12,10.12a.38.38,0,0,0,0-.75.38.38,0,0,0,0,.75Z"/><path class="cls-1" d="M19.57,20.9a.38.38,0,0,0,0-.75.38.38,0,0,0,0,.75Z"/><path class="cls-1" d="M18.92,18a.38.38,0,0,0,0-.75.38.38,0,0,0,0,.75Z"/><path class="cls-1" d="M14.64,21.92a.38.38,0,0,0,0-.75.38.38,0,0,0,0,.75Z"/><path class="cls-1" d="M16.09,17.28a.38.38,0,0,0,0-.75.38.38,0,0,0,0,.75Z"/><path class="cls-1" d="M18.24,20.6a.38.38,0,0,0,0-.75.38.38,0,0,0,0,.75Z"/><path class="cls-1" d="M21.27,16.59a.38.38,0,0,0,0-.75.38.38,0,0,0,0,.75Z"/><path class="cls-1" d="M13.91,18.52a.38.38,0,0,0,0-.75.38.38,0,0,0,0,.75Z"/><path class="cls-1" d="M17.81,20.53a.38.38,0,0,0,0-.75.38.38,0,0,0,0,.75Z"/><path class="cls-1" d="M18.54,16a.38.38,0,0,0,0-.75.38.38,0,0,0,0,.75Z"/><path class="cls-1" d="M14.66,18.74a.38.38,0,0,0,0-.75.38.38,0,0,0,0,.75Z"/><path class="cls-1" d="M15.2,19.12a.38.38,0,0,0,0-.75.38.38,0,0,0,0,.75Z"/><path class="cls-1" d="M16.52,19.42a.38.38,0,0,0,0-.75.38.38,0,0,0,0,.75Z"/><path class="cls-1" d="M17.64,18.14a.38.38,0,0,0,0-.75.38.38,0,0,0,0,.75Z"/><path class="cls-1" d="M17.45,16.08a.38.38,0,0,0,0-.75.38.38,0,0,0,0,.75Z"/><path class="cls-1" d="M14.69,16.78a.38.38,0,0,0,0-.75.38.38,0,0,0,0,.75Z"/><path class="cls-1" d="M14.82,19.91a.38.38,0,0,0,0-.75.38.38,0,0,0,0,.75Z"/><path class="cls-1" d="M14.21,20.56a.38.38,0,0,0,0-.75.38.38,0,0,0,0,.75Z"/><path class="cls-1" d="M18.26,19.67a.38.38,0,0,0,0-.75.38.38,0,0,0,0,.75Z"/><path class="cls-1" d="M18.49,19.37a.38.38,0,0,0,0-.75.38.38,0,0,0,0,.75Z"/><path class="cls-1" d="M17.42,16.29a.38.38,0,0,0,0-.75.38.38,0,0,0,0,.75Z"/><path class="cls-1" d="M15.05,18.84a.38.38,0,0,0,0-.75.38.38,0,0,0,0,.75Z"/><path class="cls-1" d="M15,19.79A.38.38,0,0,0,15,19a.38.38,0,0,0,0,.75Z"/><path class="cls-1" d="M15.38,21.24a1.23,1.23,0,0,0,.88-.13c.43-.23,0-.88-.38-.65l-.31.06c-.47-.08-.67.64-.2.72Z"/><path class="cls-1" d="M18.32,19.43v-.07c.07-.47-.65-.68-.72-.2v.07c-.07.47.65.68.72.2Z"/><path class="cls-1" d="M17.63,18.21a.38.38,0,0,0,0-.75.38.38,0,0,0,0,.75Z"/><path class="cls-1" d="M16,17.86a.38.38,0,0,0,0-.75.38.38,0,0,0,0,.75Z"/><path class="cls-1" d="M12.81,22.84a.38.38,0,0,0,0-.75.38.38,0,0,0,0,.75Z"/><path class="cls-1" d="M17,19.75A.38.38,0,0,0,17,19a.38.38,0,0,0,0,.75Z"/><path class="cls-1" d="M13.58,16.77a.38.38,0,0,0,0-.75.38.38,0,0,0,0,.75Z"/><path class="cls-1" d="M11.91,19.56a.38.38,0,0,0,0-.75.38.38,0,0,0,0,.75Z"/><path class="cls-1" d="M13.65,20.32l.09-.14c.27-.4-.38-.77-.65-.38l-.09.14c-.27.4.38.77.65.38Z"/><path class="cls-1" d="M13.66,17a.38.38,0,0,0,0-.75.38.38,0,0,0,0,.75Z"/><path class="cls-1" d="M10,17.73l0,0c-.38.29,0,.94.38.65l0,0c.38-.29,0-.94-.38-.65Z"/><path class="cls-1" d="M11.22,22.54a.38.38,0,0,0,0-.75.38.38,0,0,0,0,.75Z"/><path class="cls-1" d="M12.64,20.19a.38.38,0,0,0,0-.75.38.38,0,0,0,0,.75Z"/><path class="cls-1" d="M12.32,17.77a.38.38,0,0,0,0-.75.38.38,0,0,0,0,.75Z"/><path class="cls-1" d="M13.53,15.84a.38.38,0,0,0,0-.75.38.38,0,0,0,0,.75Z"/><path class="cls-1" d="M15.09,16a.38.38,0,0,0,0-.75.38.38,0,0,0,0,.75Z"/><path class="cls-1" d="M15.32,15.79a.68.68,0,0,0-.2.37c-.09.47.63.67.72.2v0c.32-.36-.21-.89-.53-.53Z"/><path class="cls-1" d="M12.85,19.25l-.08.06c-.38.29,0,.94.38.65l.08-.06c.38-.29,0-.94-.38-.65Z"/><path class="cls-1" d="M11.24,21a2.57,2.57,0,0,0,1.17.82c.45.17.65-.56.2-.72a1.87,1.87,0,0,1-.84-.63c-.3-.38-.83.16-.53.53Z"/><path class="cls-1" d="M13.11,22.55a.38.38,0,0,0,0-.75.38.38,0,0,0,0,.75Z"/><path class="cls-1" d="M14.07,23.06a.38.38,0,0,0,0-.75.38.38,0,0,0,0,.75Z"/><path class="cls-1" d="M16.61,21.62a.38.38,0,0,0,0-.75.38.38,0,0,0,0,.75Z"/><path class="cls-1" d="M19.81,17.16a.38.38,0,0,0,0-.75.38.38,0,0,0,0,.75Z"/><path class="cls-1" d="M18.4,15.44a.38.38,0,0,0,0-.75.38.38,0,0,0,0,.75Z"/><path class="cls-1" d="M15.41,20.44a.38.38,0,0,0,0-.75.38.38,0,0,0,0,.75Z"/><path class="cls-1" d="M18.39,17.25a.38.38,0,0,0,0-.75.38.38,0,0,0,0,.75Z"/><path class="cls-1" d="M14,13.87a.38.38,0,0,0,0-.75.38.38,0,0,0,0,.75Z"/><path class="cls-1" d="M9.68,19.35a.38.38,0,0,0,0-.75.38.38,0,0,0,0,.75Z"/><path class="cls-1" d="M12.84,19.07a.38.38,0,0,0,0-.75.38.38,0,0,0,0,.75Z"/><path class="cls-1" d="M11.33,17a.38.38,0,0,0,0-.75.38.38,0,0,0,0,.75Z"/><path class="cls-1" d="M16.06,15.76a.38.38,0,0,0,0-.75.38.38,0,0,0,0,.75Z"/><path class="cls-1" d="M19.3,15.43l-.11,0c-.47.08-.27.81.2.72l.11,0c.47-.08.27-.81-.2-.72Z"/><path class="cls-1" d="M20,19.74A.38.38,0,0,0,20,19a.38.38,0,0,0,0,.75Z"/><path class="cls-1" d="M12.54,25.57a.38.38,0,0,0,0-.75.38.38,0,0,0,0,.75Z"/><path class="cls-1" d="M14,25.1a.38.38,0,0,0,0-.75.38.38,0,0,0,0,.75Z"/><path class="cls-1" d="M15.5,24.53a.38.38,0,0,0,0-.75.38.38,0,0,0,0,.75Z"/><path class="cls-1" d="M11.35,24.95a.38.38,0,0,0,0-.75.38.38,0,0,0,0,.75Z"/><path class="cls-1" d="M21.87,16.5a.38.38,0,0,0,0-.75.38.38,0,0,0,0,.75Z"/><path class="cls-1" d="M21.2,14.33a.38.38,0,0,0,0-.75.38.38,0,0,0,0,.75Z"/><path class="cls-1" d="M20.53,12.6v-.05a.38.38,0,0,0-.75,0v.05a.38.38,0,0,0,.75,0Z"/><path class="cls-1" d="M22.85,11.27a.38.38,0,0,0,0-.75.38.38,0,0,0,0,.75Z"/><path class="cls-1" d="M22.49,16a.38.38,0,0,0,0-.75.38.38,0,0,0,0,.75Z"/><path class="cls-1" d="M6.17,13.91a.38.38,0,0,0,0-.75.38.38,0,0,0,0,.75Z"/><path class="cls-1" d="M6.95,17.18H7a.38.38,0,0,0,0-.75H6.95a.38.38,0,0,0,0,.75Z"/><path class="cls-1" d="M7.72,13.08a.38.38,0,0,0,0-.75.38.38,0,0,0,0,.75Z"/><path class="cls-1" d="M6.38,10.8a.38.38,0,0,0,0-.75.38.38,0,0,0,0,.75Z"/><path class="cls-1" d="M10.68,9.25a.38.38,0,0,0,0-.75.38.38,0,0,0,0,.75Z"/><path class="cls-1" d="M8.4,8.32a.38.38,0,0,0,0-.75.38.38,0,0,0,0,.75Z"/><path class="cls-1" d="M13.47,7.54a.38.38,0,0,0,0-.75.38.38,0,0,0,0,.75Z"/><path class="cls-1" d="M11.66,5.65h-.05a.38.38,0,0,0,0,.75h.05a.38.38,0,0,0,0-.75Z"/><path class="cls-1" d="M18.92,6.66a.38.38,0,0,0,0-.75.38.38,0,0,0,0,.75Z"/><path class="cls-1" d="M23.37,14.17a.38.38,0,0,0,0-.75.38.38,0,0,0,0,.75Z"/><path class="cls-1" d="M22.28,14.9a.38.38,0,0,0,0-.75.38.38,0,0,0,0,.75Z"/><path class="cls-1" d="M21.3,12.2a.38.38,0,0,0,0-.75.38.38,0,0,0,0,.75Z"/><path class="cls-1" d="M20.31,12.56a.38.38,0,0,0,0-.75.38.38,0,0,0,0,.75Z"/><path class="cls-1" d="M23.94,14a.38.38,0,0,0,0-.75.38.38,0,0,0,0,.75Z"/><path class="cls-1" d="M25.18,15.57a.38.38,0,0,0,0-.75.38.38,0,0,0,0,.75Z"/><path class="cls-1" d="M23.32,11.58a.38.38,0,0,0,0-.75.38.38,0,0,0,0,.75Z"/><path class="cls-1" d="M12.44,23.76a.38.38,0,0,0,0-.75.38.38,0,0,0,0,.75Z"/><path class="cls-1" d="M20.42,23.7a.38.38,0,0,0,0-.75.38.38,0,0,0,0,.75Z"/><path class="cls-1" d="M14,21.89a.38.38,0,0,0,0-.75.38.38,0,0,0,0,.75Z"/><path class="cls-1" d="M7.46,15.31a.38.38,0,0,0,0-.75.38.38,0,0,0,0,.75Z"/><path class="cls-1" d="M7.26,12.36a.38.38,0,0,0,0-.75.38.38,0,0,0,0,.75Z"/><path class="cls-1" d="M21.09,9.71a.38.38,0,0,0,0-.75.38.38,0,0,0,0,.75Z"/><path class="cls-1" d="M22.54,11.63a.38.38,0,0,0,0-.75.38.38,0,0,0,0,.75Z"/><path class="cls-1" d="M24.25,10.44a.38.38,0,0,0,0-.75.38.38,0,0,0,0,.75Z"/><path class="cls-1" d="M21.92,9.56a.38.38,0,0,0,0-.75.38.38,0,0,0,0,.75Z"/><path class="cls-1" d="M22,10.8a.38.38,0,0,0,0-.75.38.38,0,0,0,0,.75Z"/><path class="cls-1" d="M10.26,24.9a.38.38,0,0,0,0-.75.38.38,0,0,0,0,.75Z"/><path class="cls-1" d="M8.66,23.34a.38.38,0,0,0,0-.75.38.38,0,0,0,0,.75Z"/><path class="cls-1" d="M7.62,22.41a.38.38,0,0,0,0-.75.38.38,0,0,0,0,.75Z"/><path class="cls-1" d="M6.79,20.6a.38.38,0,0,0,0-.75.38.38,0,0,0,0,.75Z"/><path class="cls-1" d="M6.58,18.16a.38.38,0,0,0,0-.75.38.38,0,0,0,0,.75Z"/><path class="cls-1" d="M9.49,20.65a.38.38,0,0,0,0-.75.38.38,0,0,0,0,.75Z"/><path class="cls-1" d="M7.46,16.4a.38.38,0,0,0,0-.75.38.38,0,0,0,0,.75Z"/><path class="cls-1" d="M6.17,15.21a.38.38,0,0,0,0-.75.38.38,0,0,0,0,.75Z"/><path class="cls-1" d="M7.31,13.91a.38.38,0,0,0,0-.75.38.38,0,0,0,0,.75Z"/><path class="cls-1" d="M6.48,11.84a.38.38,0,0,0,0-.75.38.38,0,0,0,0,.75Z"/><path class="cls-1" d="M10.31,10.08a.38.38,0,0,0,0-.75.38.38,0,0,0,0,.75Z"/><path class="cls-1" d="M8.4,9.71A.38.38,0,0,0,8.4,9a.38.38,0,0,0,0,.75Z"/><path class="cls-1" d="M7.57,8.26a.38.38,0,0,0,0-.75.38.38,0,0,0,0,.75Z"/><path class="cls-1" d="M10.83,7.18a.38.38,0,0,0,0-.75.38.38,0,0,0,0,.75Z"/><path class="cls-1" d="M13.06,6.14a.38.38,0,0,0,0-.75.38.38,0,0,0,0,.75Z"/><path class="cls-1" d="M16.38,6.09a.38.38,0,0,0,0-.75.38.38,0,0,0,0,.75Z"/><path class="cls-1" d="M18.92,6.61a.38.38,0,0,0,0-.75.38.38,0,0,0,0,.75Z"/><path class="cls-1" d="M20.21,8.57a.38.38,0,0,0,0-.75.38.38,0,0,0,0,.75Z"/><path class="cls-1" d="M15.91,8.06a.38.38,0,0,0,0-.75.38.38,0,0,0,0,.75Z"/><path class="cls-1" d="M13.53,6.84h-.21a.38.38,0,0,0,0,.75h.21a.38.38,0,0,0,0-.75Z"/><path class="cls-1" d="M9.54,9.71a.38.38,0,0,0,0-.75.38.38,0,0,0,0,.75Z"/><path class="cls-1" d="M8.55,12.41a.38.38,0,0,0,0-.75.38.38,0,0,0,0,.75Z"/><path class="cls-1" d="M9.85,13.76a.38.38,0,0,0,0-.75.38.38,0,0,0,0,.75Z"/><path class="cls-1" d="M11.25,10a.38.38,0,0,0,0-.75.38.38,0,0,0,0,.75Z"/><path class="cls-1" d="M9.23,11a.38.38,0,0,0,0-.75.38.38,0,0,0,0,.75Z"/><path class="cls-1" d="M8.81,16.29a.38.38,0,0,0,0-.75.38.38,0,0,0,0,.75Z"/><path class="cls-1" d="M7.67,18a.38.38,0,0,0,0-.75.38.38,0,0,0,0,.75Z"/><path class="cls-1" d="M8.71,19.56a.38.38,0,0,0,0-.75.38.38,0,0,0,0,.75Z"/><path class="cls-1" d="M8.09,22.46a.38.38,0,0,0,0-.75.38.38,0,0,0,0,.75Z"/><path class="cls-1" d="M9.8,21.68a.38.38,0,0,0,0-.75.38.38,0,0,0,0,.75Z"/><path class="cls-1" d="M9.59,23.91a.38.38,0,0,0,0-.75.38.38,0,0,0,0,.75Z"/><path class="cls-1" d="M11,20.54a.38.38,0,0,0,0-.75.38.38,0,0,0,0,.75Z"/><path class="cls-1" d="M8.6,20.21l-.05.05a.38.38,0,0,0,.53.53l.05-.05a.38.38,0,0,0-.53-.53Z"/><path class="cls-1" d="M10.11,21.63a.38.38,0,0,0,0-.75.38.38,0,0,0,0,.75Z"/><path class="cls-1" d="M12.28,22.67h.05a.38.38,0,0,0,0-.75h-.05a.38.38,0,0,0,0,.75Z"/><path class="cls-1" d="M11.4,24.69a.38.38,0,0,0,0-.75.38.38,0,0,0,0,.75Z"/><path class="cls-1" d="M14.67,25.15a.38.38,0,0,0,0-.75.38.38,0,0,0,0,.75Z"/><path class="cls-1" d="M14,26.92a.38.38,0,0,0,0-.75.38.38,0,0,0,0,.75Z"/><path class="cls-1" d="M11.2,24.74a.38.38,0,0,0,0-.75.38.38,0,0,0,0,.75Z"/><path class="cls-1" d="M14.93,23.81a.38.38,0,0,0,0-.75.38.38,0,0,0,0,.75Z"/><path class="cls-1" d="M15.86,23a.38.38,0,0,0,0-.75.38.38,0,0,0,0,.75Z"/><path class="cls-1" d="M17.1,25.62h.05a.38.38,0,0,0,0-.75H17.1a.38.38,0,0,0,0,.75Z"/><path class="cls-1" d="M13.22,24.84a.38.38,0,0,0,0-.75.38.38,0,0,0,0,.75Z"/><path class="cls-1" d="M14.41,23.76a.38.38,0,0,0,0-.75.38.38,0,0,0,0,.75Z"/><path class="cls-1" d="M18.76,25.05a.38.38,0,0,0,0-.75.38.38,0,0,0,0,.75Z"/><path class="cls-1" d="M21.09,22.93a.38.38,0,0,0,0-.75.38.38,0,0,0,0,.75Z"/><path class="cls-1" d="M23.84,20a.38.38,0,0,0,0-.75.38.38,0,0,0,0,.75Z"/><path class="cls-1" d="M20.31,14.07a.38.38,0,0,0,0-.75.38.38,0,0,0,0,.75Z"/><path class="cls-1" d="M24.56,13.55a.38.38,0,0,0,0-.75.38.38,0,0,0,0,.75Z"/><path class="cls-1" d="M19.17,12.1a.38.38,0,0,0,0-.75.38.38,0,0,0,0,.75Z"/><path class="cls-1" d="M23.47,11.22a.38.38,0,0,0,0-.75.38.38,0,0,0,0,.75Z"/><path class="cls-1" d="M17.67,8.78a.38.38,0,0,0,0-.75.38.38,0,0,0,0,.75Z"/><path class="cls-1" d="M20.16,8.11a.38.38,0,0,0,0-.75.38.38,0,0,0,0,.75Z"/><path class="cls-1" d="M17.15,7.59a.38.38,0,0,0,0-.75.38.38,0,0,0,0,.75Z"/><path class="cls-1" d="M17.05,6a.38.38,0,0,0,0-.75.38.38,0,0,0,0,.75Z"/><path class="cls-1" d="M13.94,7.54a.38.38,0,0,0,0-.75.38.38,0,0,0,0,.75Z"/><path class="cls-1" d="M12.7,6.81a.38.38,0,0,0,0-.75.38.38,0,0,0,0,.75Z"/><path class="cls-1" d="M11.61,8.83a.38.38,0,0,0,0-.75.38.38,0,0,0,0,.75Z"/><path class="cls-1" d="M6.69,9.77a.38.38,0,0,0,0-.75.38.38,0,0,0,0,.75Z"/><path class="cls-1" d="M8.55,12.56a.38.38,0,0,0,0-.75.38.38,0,0,0,0,.75Z"/><path class="cls-1" d="M6.43,14.43a.38.38,0,0,0,0-.75.38.38,0,0,0,0,.75Z"/><path class="cls-1" d="M7,16.5a.38.38,0,0,0,0-.75.38.38,0,0,0,0,.75Z"/><path class="cls-1" d="M5.86,18.78h.05a.38.38,0,0,0,0-.75H5.86a.38.38,0,0,0,0,.75Z"/><path class="cls-1" d="M8.71,19.56a.38.38,0,0,0,0-.75.38.38,0,0,0,0,.75Z"/><path class="cls-1" d="M7.52,22a.38.38,0,0,0,0-.75.38.38,0,0,0,0,.75Z"/><path class="cls-1" d="M11.51,22.93a.38.38,0,0,0,0-.75.38.38,0,0,0,0,.75Z"/><path class="cls-1" d="M11.14,25.1a.38.38,0,0,0,0-.75.38.38,0,0,0,0,.75Z"/><path class="cls-1" d="M12.08,24.64a.38.38,0,0,0,0-.75.38.38,0,0,0,0,.75Z"/><path class="cls-1" d="M9.43,22.77a.38.38,0,0,0,0-.75.38.38,0,0,0,0,.75Z"/><path class="cls-1" d="M7.67,21.68a.38.38,0,0,0,0-.75.38.38,0,0,0,0,.75Z"/><path class="cls-1" d="M10.11,19.87a.38.38,0,0,0,0-.75.38.38,0,0,0,0,.75Z"/><path class="cls-1" d="M7.53,18.51v-.05a.38.38,0,0,0-.75,0v.05a.38.38,0,0,0,.75,0Z"/><path class="cls-1" d="M10.31,14.43a.38.38,0,0,0,0-.75.38.38,0,0,0,0,.75Z"/><path class="cls-1" d="M7.93,12.41a.38.38,0,0,0,0-.75.38.38,0,0,0,0,.75Z"/><path class="cls-1" d="M13.27,13a.38.38,0,0,0,0-.75.38.38,0,0,0,0,.75Z"/><path class="cls-1" d="M9.8,7.85a.38.38,0,0,0,0-.75.38.38,0,0,0,0,.75Z"/><path class="cls-1" d="M18,8.42a.38.38,0,0,0,0-.75.38.38,0,0,0,0,.75Z"/><path class="cls-1" d="M21.71,10.75a.38.38,0,0,0,0-.75.38.38,0,0,0,0,.75Z"/><path class="cls-1" d="M22.8,13a.38.38,0,0,0,0-.75.38.38,0,0,0,0,.75Z"/><path class="cls-1" d="M21.92,21.22a.38.38,0,0,0,0-.75.38.38,0,0,0,0,.75Z"/><path class="cls-1" d="M20.94,24.33H21a.38.38,0,0,0,0-.75h-.05a.38.38,0,0,0,0,.75Z"/><path class="cls-1" d="M18.4,25.72a.38.38,0,0,0,0-.75.38.38,0,0,0,0,.75Z"/><path class="cls-1" d="M16.9,24.11l.05-.05a.38.38,0,0,0-.53-.53l-.05.05a.38.38,0,0,0,.53.53Z"/><path class="cls-1" d="M22.08,22.67a.38.38,0,0,0,0-.75.38.38,0,0,0,0,.75Z"/><path class="cls-1" d="M25,19.87H25a.38.38,0,0,0,0-.75H25a.38.38,0,0,0,0,.75Z"/><path class="cls-1" d="M23,16.45a.38.38,0,0,0,0-.75.38.38,0,0,0,0,.75Z"/><path class="cls-1" d="M24.41,13.7a.38.38,0,0,0,0-.75.38.38,0,0,0,0,.75Z"/><path class="cls-1" d="M21.09,15.47a.38.38,0,0,0,0-.75.38.38,0,0,0,0,.75Z"/><path class="cls-1" d="M22.4,11.67v-.05a.38.38,0,0,0-.75,0v.05a.38.38,0,0,0,.75,0Z"/><path class="cls-1" d="M18.6,14a.38.38,0,0,0,0-.75.38.38,0,0,0,0,.75Z"/><path class="cls-1" d="M15.75,13.24a.38.38,0,0,0,0-.75.38.38,0,0,0,0,.75Z"/><path class="cls-1" d="M14.87,12.88a.38.38,0,0,0,0-.75.38.38,0,0,0,0,.75Z"/><path class="cls-1" d="M12.59,14.27a.38.38,0,0,0,0-.75.38.38,0,0,0,0,.75Z"/><path class="cls-1" d="M16.32,14.27a.38.38,0,0,0,0-.75.38.38,0,0,0,0,.75Z"/><path class="cls-1" d="M18.45,17.75a.38.38,0,0,0,0-.75.38.38,0,0,0,0,.75Z"/><path class="cls-1" d="M15.5,19.61a.38.38,0,0,0,0-.75.38.38,0,0,0,0,.75Z"/><path class="cls-1" d="M10.31,17.38a.38.38,0,0,0,0-.75.38.38,0,0,0,0,.75Z"/><path class="cls-1" d="M9.33,15.67a.38.38,0,0,0,0-.75.38.38,0,0,0,0,.75Z"/><path class="cls-1" d="M13.58,15.41a.38.38,0,0,0,0-.75.38.38,0,0,0,0,.75Z"/><path class="cls-1" d="M21.09,13.39a.38.38,0,0,0,0-.75.38.38,0,0,0,0,.75Z"/><path class="cls-1" d="M22,15.47a.38.38,0,0,0,0-.75.38.38,0,0,0,0,.75Z"/><path class="cls-1" d="M20.06,14.95a.38.38,0,0,0,0-.75.38.38,0,0,0,0,.75Z"/><path class="cls-1" d="M17.59,10.81l-.05-.1c-.22-.43-.87-.05-.65.38l.05.1c.22.43.87.05.65-.38Z"/><path class="cls-1" d="M16.69,9.56a.38.38,0,0,0,0-.75.38.38,0,0,0,0,.75Z"/><path class="cls-1" d="M22.18,10.23a.38.38,0,0,0,0-.75.38.38,0,0,0,0,.75Z"/><path class="cls-1" d="M21.35,13.81a.38.38,0,0,0,0-.75.38.38,0,0,0,0,.75Z"/><path class="cls-1" d="M22.44,13.81a.38.38,0,0,0,0-.75.38.38,0,0,0,0,.75Z"/><path class="cls-1" d="M19,15.83h.16a.38.38,0,0,0,0-.75H19a.38.38,0,0,0,0,.75Z"/><path class="cls-1" d="M22.08,18.11a.38.38,0,0,0,0-.75.38.38,0,0,0,0,.75Z"/><path class="cls-1" d="M24.36,18.57a.38.38,0,0,0,0-.75.38.38,0,0,0,0,.75Z"/><path class="cls-1" d="M24.56,19.3a.38.38,0,0,0,0-.75.38.38,0,0,0,0,.75Z"/><path class="cls-1" d="M22.23,17.33a.38.38,0,0,0,0-.75.38.38,0,0,0,0,.75Z"/><path class="cls-1" d="M22.28,22.36a.38.38,0,0,0,0-.75.38.38,0,0,0,0,.75Z"/><path class="cls-1" d="M21.14,24.9a.38.38,0,0,0,0-.75.38.38,0,0,0,0,.75Z"/><path class="cls-1" d="M19.85,21.9l-.11.21c-.22.43.43.81.65.38l.11-.21c.22-.43-.43-.81-.65-.38Z"/><path class="cls-1" d="M17.82,24.47l-.16-.05c-.46-.16-.65.57-.2.72l.16.05c.46.16.65-.57.2-.72Z"/><path class="cls-1" d="M14.77,26.09a.38.38,0,0,0,0-.75.38.38,0,0,0,0,.75Z"/><path class="cls-1" d="M14.46,22.51a.38.38,0,0,0,0-.75.38.38,0,0,0,0,.75Z"/><path class="cls-1" d="M12.75,23.55a.38.38,0,0,0,0-.75.38.38,0,0,0,0,.75Z"/><path class="cls-1" d="M10.78,23.65h.05a.38.38,0,0,0,0-.75h-.05a.38.38,0,0,0,0,.75Z"/><path class="cls-1" d="M13.47,21.32a.38.38,0,0,0,0-.75.38.38,0,0,0,0,.75Z"/><path class="cls-1" d="M9.54,19.48h-.1a.38.38,0,0,0,0,.75h.1a.38.38,0,0,0,0-.75Z"/><path class="cls-1" d="M8.92,18.21a.38.38,0,0,0,0-.75.38.38,0,0,0,0,.75Z"/><path class="cls-1" d="M6.64,15.62a.38.38,0,0,0,0-.75.38.38,0,0,0,0,.75Z"/><path class="cls-1" d="M5.75,17.43a.38.38,0,0,0,0-.75.38.38,0,0,0,0,.75Z"/><path class="cls-1" d="M8.45,13.55a.38.38,0,0,0,0-.75.38.38,0,0,0,0,.75Z"/><path class="cls-1" d="M7.05,12.88a.38.38,0,0,0,0-.75.38.38,0,0,0,0,.75Z"/><path class="cls-1" d="M11.3,13.6a.38.38,0,0,0,0-.75.38.38,0,0,0,0,.75Z"/><path class="cls-1" d="M9.38,11.53a.38.38,0,0,0,0-.75.38.38,0,0,0,0,.75Z"/><path class="cls-1" d="M9.12,13.7a.38.38,0,0,0,0-.75.38.38,0,0,0,0,.75Z"/><path class="cls-1" d="M10.57,10.54a.38.38,0,0,0,0-.75.38.38,0,0,0,0,.75Z"/><path class="cls-1" d="M8.45,10.18a.38.38,0,0,0,0-.75.38.38,0,0,0,0,.75Z"/><path class="cls-1" d="M12.18,11.53a.38.38,0,0,0,0-.75.38.38,0,0,0,0,.75Z"/><path class="cls-1" d="M18.6,13.13a.38.38,0,0,0,0-.75.38.38,0,0,0,0,.75Z"/><path class="cls-1" d="M17.21,10.54a.38.38,0,0,0,0-.75.38.38,0,0,0,0,.75Z"/><path class="cls-1" d="M13.53,19.56a.38.38,0,0,0,0-.75.38.38,0,0,0,0,.75Z"/><path class="cls-1" d="M16.74,18.47a.38.38,0,0,0,0-.75.38.38,0,0,0,0,.75Z"/><path class="cls-1" d="M16,20.13a.38.38,0,0,0,0-.75.38.38,0,0,0,0,.75Z"/><path class="cls-1" d="M20.06,17.64a.38.38,0,0,0,0-.75.38.38,0,0,0,0,.75Z"/><path class="cls-1" d="M18.76,14.84a.38.38,0,0,0,0-.75.38.38,0,0,0,0,.75Z"/><path class="cls-1" d="M17.26,15.52a.38.38,0,0,0,0-.75.38.38,0,0,0,0,.75Z"/><path class="cls-1" d="M15.13,14.38a.38.38,0,0,0,0-.75.38.38,0,0,0,0,.75Z"/><path class="cls-1" d="M12.39,16.19a.38.38,0,0,0,0-.75.38.38,0,0,0,0,.75Z"/><path class="cls-1" d="M8.09,18.83a.38.38,0,0,0,0-.75.38.38,0,0,0,0,.75Z"/><path class="cls-1" d="M11.2,19.35a.38.38,0,0,0,0-.75.38.38,0,0,0,0,.75Z"/><path class="cls-1" d="M8.92,18.78a.38.38,0,0,0,0-.75.38.38,0,0,0,0,.75Z"/><path class="cls-1" d="M9.9,16a.38.38,0,0,0,0-.75.38.38,0,0,0,0,.75Z"/><path class="cls-1" d="M8,16.92a.38.38,0,0,0,0-.75.38.38,0,0,0,0,.75Z"/><path class="cls-1" d="M8.14,15.83a.38.38,0,0,0,0-.75.38.38,0,0,0,0,.75Z"/><path class="cls-1" d="M11.51,10.91a.38.38,0,0,0,0-.75.38.38,0,0,0,0,.75Z"/><path class="cls-1" d="M13,14a.38.38,0,0,0,0-.75A.38.38,0,0,0,13,14Z"/><path class="cls-1" d="M9.12,12.41a.38.38,0,0,0,0-.75.38.38,0,0,0,0,.75Z"/><path class="cls-1" d="M10,10.7a.38.38,0,0,0,0-.75.38.38,0,0,0,0,.75Z"/><path class="cls-1" d="M7.62,10.13a.38.38,0,0,0,0-.75.38.38,0,0,0,0,.75Z"/><path class="cls-1" d="M10,9.2a.38.38,0,0,0,0-.75.38.38,0,0,0,0,.75Z"/><path class="cls-1" d="M11.56,7.33a.38.38,0,0,0,0-.75.38.38,0,0,0,0,.75Z"/><path class="cls-1" d="M12.13,9.35a.38.38,0,0,0,0-.75.38.38,0,0,0,0,.75Z"/><path class="cls-1" d="M14.72,8.94a.38.38,0,0,0,0-.75.38.38,0,0,0,0,.75Z"/><path class="cls-1" d="M13.68,8.78a.38.38,0,0,0,0-.75.38.38,0,0,0,0,.75Z"/><path class="cls-1" d="M13.16,6.86a.38.38,0,0,0,0-.75.38.38,0,0,0,0,.75Z"/><path class="cls-1" d="M14.61,7.59a.38.38,0,0,0,0-.75.38.38,0,0,0,0,.75Z"/><path class="cls-1" d="M15.29,6.81a.38.38,0,0,0,0-.75.38.38,0,0,0,0,.75Z"/><path class="cls-1" d="M17.46,8.21a.38.38,0,0,0,0-.75.38.38,0,0,0,0,.75Z"/><path class="cls-1" d="M16.12,8.89a.38.38,0,0,0,0-.75.38.38,0,0,0,0,.75Z"/><path class="cls-1" d="M14.82,8.32a.38.38,0,0,0,0-.75.38.38,0,0,0,0,.75Z"/><path class="cls-1" d="M19.23,10.65a.38.38,0,0,0,0-.75.38.38,0,0,0,0,.75Z"/><path class="cls-1" d="M17.52,13.65a.38.38,0,0,0,0-.75.38.38,0,0,0,0,.75Z"/><path class="cls-1" d="M15.34,15.21a.38.38,0,0,0,0-.75.38.38,0,0,0,0,.75Z"/><path class="cls-1" d="M15.34,12.46a.38.38,0,0,0,0-.75.38.38,0,0,0,0,.75Z"/><path class="cls-1" d="M16.07,13.55a.38.38,0,0,0,0-.75.38.38,0,0,0,0,.75Z"/><path class="cls-1" d="M14.72,22.67a.38.38,0,0,0,0-.75.38.38,0,0,0,0,.75Z"/><path class="cls-1" d="M14.82,23.44a.38.38,0,0,0,0-.75.38.38,0,0,0,0,.75Z"/><path class="cls-1" d="M11.77,23.91a.38.38,0,0,0,0-.75.38.38,0,0,0,0,.75Z"/><path class="cls-1" d="M11.61,22a.38.38,0,0,0,0-.75.38.38,0,0,0,0,.75Z"/><path class="cls-1" d="M10.21,21.11a.38.38,0,0,0,0-.75.38.38,0,0,0,0,.75Z"/><path class="cls-1" d="M10.26,22.67a.38.38,0,0,0,0-.75.38.38,0,0,0,0,.75Z"/><path class="cls-1" d="M9,21.22a.38.38,0,0,0,0-.75.38.38,0,0,0,0,.75Z"/><path class="cls-1" d="M7.83,21.74a.38.38,0,0,0,0-.75.38.38,0,0,0,0,.75Z"/><path class="cls-1" d="M6.84,19.77a.38.38,0,0,0,0-.75.38.38,0,0,0,0,.75Z"/><path class="cls-1" d="M9.43,18.32a.38.38,0,0,0,0-.75.38.38,0,0,0,0,.75Z"/><path class="cls-1" d="M6.17,18a.38.38,0,0,0,0-.75.38.38,0,0,0,0,.75Z"/><path class="cls-1" d="M7.1,14.64a.38.38,0,0,0,0-.75.38.38,0,0,0,0,.75Z"/><path class="cls-1" d="M9.9,13.5a.38.38,0,0,0,0-.75.38.38,0,0,0,0,.75Z"/><path class="cls-1" d="M16.48,22.46a.38.38,0,0,0,0-.75.38.38,0,0,0,0,.75Z"/><path class="cls-1" d="M15.24,22.51a.38.38,0,0,0,0-.75.38.38,0,0,0,0,.75Z"/><path class="cls-1" d="M13.16,23.24a.38.38,0,0,0,0-.75.38.38,0,0,0,0,.75Z"/><path class="cls-1" d="M12.85,21.79a.38.38,0,0,0,0-.75.38.38,0,0,0,0,.75Z"/><path class="cls-1" d="M13.68,21.22a.38.38,0,0,0,0-.75.38.38,0,0,0,0,.75Z"/><path class="cls-1" d="M11.82,23.5a.38.38,0,0,0,0-.75.38.38,0,0,0,0,.75Z"/><path class="cls-1" d="M13.16,24.48a.38.38,0,0,0,0-.75.38.38,0,0,0,0,.75Z"/><path class="cls-1" d="M12.54,24.9a.38.38,0,0,0,0-.75.38.38,0,0,0,0,.75Z"/><path class="cls-1" d="M14.1,25.67a.38.38,0,0,0,0-.75.38.38,0,0,0,0,.75Z"/><path class="cls-1" d="M14.36,24.33a.38.38,0,0,0,0-.75.38.38,0,0,0,0,.75Z"/><path class="cls-1" d="M16.58,24.69a.38.38,0,0,0,0-.75.38.38,0,0,0,0,.75Z"/><path class="cls-1" d="M15.65,23.81a.38.38,0,0,0,0-.75.38.38,0,0,0,0,.75Z"/><path class="cls-1" d="M17.52,22.93a.38.38,0,0,0,0-.75.38.38,0,0,0,0,.75Z"/><path class="cls-1" d="M19,24.07a.38.38,0,0,0,0-.75.38.38,0,0,0,0,.75Z"/><path class="cls-1" d="M18.19,24.9a.38.38,0,0,0,0-.75.38.38,0,0,0,0,.75Z"/><path class="cls-1" d="M17,24.69a.38.38,0,0,0,0-.75.38.38,0,0,0,0,.75Z"/><path class="cls-1" d="M19.59,21.63a.38.38,0,0,0,0-.75.38.38,0,0,0,0,.75Z"/><path class="cls-1" d="M18.35,21.42a.38.38,0,0,0,0-.75.38.38,0,0,0,0,.75Z"/><path class="cls-1" d="M21.77,20.39a.38.38,0,0,0,0-.75.38.38,0,0,0,0,.75Z"/><path class="cls-1" d="M22.08,18.89a.38.38,0,0,0,0-.75.38.38,0,0,0,0,.75Z"/><path class="cls-1" d="M23.32,18.89a.38.38,0,0,0,0-.75.38.38,0,0,0,0,.75Z"/><path class="cls-1" d="M23.89,16.92a.38.38,0,0,0,0-.75.38.38,0,0,0,0,.75Z"/><path class="cls-1" d="M22.44,18.32a.38.38,0,0,0,0-.75.38.38,0,0,0,0,.75Z"/><path class="cls-1" d="M22.75,17.28a.38.38,0,0,0,0-.75.38.38,0,0,0,0,.75Z"/><path class="cls-1" d="M20.78,15.1a.38.38,0,0,0,0-.75.38.38,0,0,0,0,.75Z"/><path class="cls-1" d="M19.64,14.43a.38.38,0,0,0,0-.75.38.38,0,0,0,0,.75Z"/><path class="cls-1" d="M22.59,15a.38.38,0,0,0,0-.75.38.38,0,0,0,0,.75Z"/><path class="cls-1" d="M22,13.39a.38.38,0,0,0,0-.75.38.38,0,0,0,0,.75Z"/><path class="cls-1" d="M23.47,13.55a.38.38,0,0,0,0-.75.38.38,0,0,0,0,.75Z"/><path class="cls-1" d="M22.59,12.56a.38.38,0,0,0,0-.75.38.38,0,0,0,0,.75Z"/><path class="cls-1" d="M20.78,12.93a.38.38,0,0,0,0-.75.38.38,0,0,0,0,.75Z"/><path class="cls-1" d="M20.16,12a.38.38,0,0,0,0-.75.38.38,0,0,0,0,.75Z"/><path class="cls-1" d="M19.38,11.63a.38.38,0,0,0,0-.75.38.38,0,0,0,0,.75Z"/><path class="cls-1" d="M21.3,11.17a.38.38,0,0,0,0-.75.38.38,0,0,0,0,.75Z"/><path class="cls-1" d="M19.17,9.82a.38.38,0,0,0,0-.75.38.38,0,0,0,0,.75Z"/><path class="cls-1" d="M19.59,8.73a.38.38,0,0,0,0-.75.38.38,0,0,0,0,.75Z"/><path class="cls-1" d="M20.88,10.39a.38.38,0,0,0,0-.75.38.38,0,0,0,0,.75Z"/><path class="cls-1" d="M21.87,17a.38.38,0,0,0,0-.75.38.38,0,0,0,0,.75Z"/><path class="cls-1" d="M19,21.17a.38.38,0,0,0,0-.75.38.38,0,0,0,0,.75Z"/><path class="cls-1" d="M14,20.13a.38.38,0,0,0,0-.75.38.38,0,0,0,0,.75Z"/><path class="cls-1" d="M12.9,22.62a.38.38,0,0,0,0-.75.38.38,0,0,0,0,.75Z"/><path class="cls-1" d="M10.47,21.42a.38.38,0,0,0,0-.75.38.38,0,0,0,0,.75Z"/><path class="cls-1" d="M10.57,15.1a.38.38,0,0,0,0-.75.38.38,0,0,0,0,.75Z"/><path class="cls-1" d="M10.83,17.43a.38.38,0,0,0,0-.75.38.38,0,0,0,0,.75Z"/><path class="cls-1" d="M16.74,13.81a.38.38,0,0,0,0-.75.38.38,0,0,0,0,.75Z"/><path class="cls-1" d="M18.5,13a.38.38,0,0,0,0-.75.38.38,0,0,0,0,.75Z"/><path class="cls-1" d="M15.34,10.54a.38.38,0,0,0,0-.75.38.38,0,0,0,0,.75Z"/><path class="cls-1" d="M16.64,11.48a.38.38,0,0,0,0-.75.38.38,0,0,0,0,.75Z"/><path class="cls-1" d="M11.09,12.46a.38.38,0,0,0,0-.75.38.38,0,0,0,0,.75Z"/><path class="cls-1" d="M21.45,23.81a.38.38,0,0,0,0-.75.38.38,0,0,0,0,.75Z"/><path class="cls-1" d="M19.8,25.15a.38.38,0,0,0,0-.75.38.38,0,0,0,0,.75Z"/><path class="cls-1" d="M18,23.5a.38.38,0,0,0,0-.75.38.38,0,0,0,0,.75Z"/><path class="cls-1" d="M17.93,24.33a.38.38,0,0,0,0-.75.38.38,0,0,0,0,.75Z"/><path class="cls-1" d="M19.8,23a.38.38,0,0,0,0-.75.38.38,0,0,0,0,.75Z"/><path class="cls-1" d="M23.32,15.21a.38.38,0,0,0,0-.75.38.38,0,0,0,0,.75Z"/><path class="cls-1" d="M22.08,14.43a.38.38,0,0,0,0-.75.38.38,0,0,0,0,.75Z"/><path class="cls-1" d="M21.56,15.57a.38.38,0,0,0,0-.75.38.38,0,0,0,0,.75Z"/><path class="cls-1" d="M20.52,14.48a.38.38,0,0,0,0-.75.38.38,0,0,0,0,.75Z"/><path class="cls-1" d="M20.31,13.08a.38.38,0,0,0,0-.75.38.38,0,0,0,0,.75Z"/><path class="cls-1" d="M21,11.94a.38.38,0,0,0,0-.75.38.38,0,0,0,0,.75Z"/><path class="cls-1" d="M19.69,11a.38.38,0,0,0,0-.75.38.38,0,0,0,0,.75Z"/><path class="cls-1" d="M18.66,12.31a.38.38,0,0,0,0-.75.38.38,0,0,0,0,.75Z"/><path class="cls-1" d="M16.95,12.62a.38.38,0,0,0,0-.75.38.38,0,0,0,0,.75Z"/><path class="cls-1" d="M16.17,13.13a.38.38,0,0,0,0-.75.38.38,0,0,0,0,.75Z"/><path class="cls-1" d="M10.37,12a.38.38,0,0,0,0-.75.38.38,0,0,0,0,.75Z"/><path class="cls-1" d="M10.94,11.84a.38.38,0,0,0,0-.75.38.38,0,0,0,0,.75Z"/><path class="cls-1" d="M11.51,13.44a.38.38,0,0,0,0-.75.38.38,0,0,0,0,.75Z"/><path class="cls-1" d="M9.8,15.41a.38.38,0,0,0,0-.75.38.38,0,0,0,0,.75Z"/><path class="cls-1" d="M16,11.06a.38.38,0,0,0,0-.75.38.38,0,0,0,0,.75Z"/><path class="cls-1" d="M13.22,9.71a.38.38,0,0,0,0-.75.38.38,0,0,0,0,.75Z"/><path class="cls-1" d="M12.75,15.47h.1a.38.38,0,0,0,0-.75h-.1a.38.38,0,0,0,0,.75Z"/><path class="cls-1" d="M19.54,15.67h.05a.38.38,0,0,0,0-.75h-.05a.38.38,0,0,0,0,.75Z"/><path class="cls-1" d="M18.24,18.52a.38.38,0,0,0,0-.75.38.38,0,0,0,0,.75Z"/><path class="cls-1" d="M16.12,14.74a.38.38,0,0,0,0-.75.38.38,0,0,0,0,.75Z"/><path class="cls-1" d="M14.56,12.46a.38.38,0,0,0,0-.75.38.38,0,0,0,0,.75Z"/><path class="cls-1" d="M12.7,13a.38.38,0,0,0,0-.75.38.38,0,0,0,0,.75Z"/><path class="cls-1" d="M20.26,11.58a.38.38,0,0,0,0-.75.38.38,0,0,0,0,.75Z"/><path class="cls-1" d="M21.71,12.62a.38.38,0,0,0,0-.75.38.38,0,0,0,0,.75Z"/><path class="cls-1" d="M20.94,12.62a.38.38,0,0,0,0-.75.38.38,0,0,0,0,.75Z"/><path class="cls-1" d="M21.56,14.95a.38.38,0,0,0,0-.75.38.38,0,0,0,0,.75Z"/><path class="cls-1" d="M22.8,15.67a.38.38,0,0,0,0-.75.38.38,0,0,0,0,.75Z"/><path class="cls-1" d="M21.51,18.83a.38.38,0,0,0,0-.75.38.38,0,0,0,0,.75Z"/><path class="cls-1" d="M22.18,17.9a.38.38,0,0,0,0-.75.38.38,0,0,0,0,.75Z"/><path class="cls-1" d="M16.32,18.57a.38.38,0,0,0,0-.75.38.38,0,0,0,0,.75Z"/><path class="cls-1" d="M14.2,16.19a.38.38,0,0,0,0-.75.38.38,0,0,0,0,.75Z"/><path class="cls-1" d="M12.65,13.5a.38.38,0,0,0,0-.75.38.38,0,0,0,0,.75Z"/><path class="cls-1" d="M10,16h.05a.38.38,0,0,0,0-.75H10A.38.38,0,0,0,10,16Z"/><path class="cls-1" d="M10.52,20.85a.38.38,0,0,0,0-.75.38.38,0,0,0,0,.75Z"/><path class="cls-1" d="M13.37,23a.38.38,0,0,0,0-.75.38.38,0,0,0,0,.75Z"/><path class="cls-1" d="M16.43,23.55a.38.38,0,0,0,0-.75.38.38,0,0,0,0,.75Z"/><path class="cls-1" d="M17.67,21.94a.38.38,0,0,0,0-.75.38.38,0,0,0,0,.75Z"/><path class="cls-1" d="M21,19.82a.38.38,0,0,0,0-.75.38.38,0,0,0,0,.75Z"/><path class="cls-1" d="M19,16.86a.38.38,0,0,0,0-.75.38.38,0,0,0,0,.75Z"/><path class="cls-1" d="M17.21,14.17a.38.38,0,0,0,0-.75.38.38,0,0,0,0,.75Z"/><path class="cls-1" d="M18.09,15.36a.38.38,0,0,0,0-.75.38.38,0,0,0,0,.75Z"/><path class="cls-1" d="M17.72,12.15a.38.38,0,0,0,0-.75.38.38,0,0,0,0,.75Z"/><path class="cls-1" d="M18.86,11.06a.38.38,0,0,0,0-.75.38.38,0,0,0,0,.75Z"/><path class="cls-1" d="M17.83,11.06a.38.38,0,0,0,0-.75.38.38,0,0,0,0,.75Z"/><path class="cls-1" d="M11.51,8.06a.38.38,0,0,0,0-.75.38.38,0,0,0,0,.75Z"/></g></svg>