<svg xmlns="http://www.w3.org/2000/svg" viewBox="0 0 32 32"><defs><style>.cls-1{fill:#d9e021;}</style></defs><title>item-icon</title><g id="Layer_54" data-name="Layer 54"><path class="cls-1" d="M15.29,7.5C13.52,7,11.69,7.84,10,8.63L7,10.1a8.59,8.59,0,0,0-2.09,1.26,5.69,5.69,0,0,0-1.14,1.49A7.72,7.72,0,0,0,2.87,18a6.59,6.59,0,0,0,2.89,4.31c2,1.26,4.53,1.23,6.9,1.16l5.43-.15a9.06,9.06,0,0,1,2.43.15c1.28.32,2.44,1.19,3.76,1.16a3.61,3.61,0,0,0,1.34-.33,6.25,6.25,0,0,0,3.31-4,10.55,10.55,0,0,0-.05-5.34,3.85,3.85,0,0,0-.45-1.2,3.74,3.74,0,0,0-2.31-1.38,9.41,9.41,0,0,1-2.61-.85,16.12,16.12,0,0,1-2.13-2A5.91,5.91,0,0,0,17.73,8a3.41,3.41,0,0,1-2.16-.44"/><path d="M15.29,6.37c-6.07-.3-14.21,4-13.61,11,.76,8.81,10.35,6.78,16.41,7.11,3.39.18,6.12,2.4,9.25.13,2.44-1.78,3.22-5,3-7.88-.31-3.62-1.55-4.38-4.57-5.6-2-.8-3.09-2.34-4.89-3.33-1.58-.87-3.35-.63-5-1.27-1.35-.52-1.94,1.65-.6,2.17,2.59,1,3.73.76,6.35,2.68a16.45,16.45,0,0,0,2.86,1.75c2.65,1.47,5.44,2.16,3.37,6.86-2.59,5.88-4.29,3-7.32,2.4-3.53-.67-7.21.51-10.74,0-5.61-.84-8.21-7.09-3.34-10.71,2.09-1.55,6.53-3.12,8.84-3,1.45.07,1.44-2.18,0-2.25Z"/><path d="M9.37,21.37a.38.38,0,0,0,0-.75.38.38,0,0,0,0,.75Z"/><path d="M7.46,20a.38.38,0,0,0,0-.75.38.38,0,0,0,0,.75Z"/><path d="M11.45,18.41a.38.38,0,0,0,0-.75.38.38,0,0,0,0,.75Z"/><path d="M6.69,16.43v-.05a.38.38,0,0,0-.75,0v.05a.38.38,0,0,0,.75,0Z"/><path d="M12.84,15.25a.38.38,0,0,0,0-.75.38.38,0,0,0,0,.75Z"/><path d="M10.1,12.56a.38.38,0,0,0,0-.75.38.38,0,0,0,0,.75Z"/><path d="M9.53,17.43a.38.38,0,0,0,0-.75.38.38,0,0,0,0,.75Z"/><path d="M13.88,12.14a.38.38,0,0,0,0-.75.38.38,0,0,0,0,.75Z"/><path d="M14.87,19.81a.38.38,0,0,0,0-.75.38.38,0,0,0,0,.75Z"/><path d="M23,18.57a.38.38,0,0,0,0-.75.38.38,0,0,0,0,.75Z"/><path d="M20.41,14a.38.38,0,0,0,0-.75.38.38,0,0,0,0,.75Z"/><path d="M18.7,19.09a.38.38,0,0,0,0-.75.38.38,0,0,0,0,.75Z"/><path d="M16.52,15.31a.38.38,0,0,0,0-.75.38.38,0,0,0,0,.75Z"/><path d="M16.78,11.42a.38.38,0,0,0,0-.75.38.38,0,0,0,0,.75Z"/><path d="M21.76,21.26a.38.38,0,0,0,0-.75.38.38,0,0,0,0,.75Z"/><path d="M25.64,17.33a.38.38,0,0,0,0-.75.38.38,0,0,0,0,.75Z"/><path d="M25.23,22.14a.38.38,0,0,0,0-.75.38.38,0,0,0,0,.75Z"/><path d="M23.62,14.77l-.05.05a.38.38,0,0,0,.53.53l.05-.05a.38.38,0,0,0-.53-.53Z"/><path d="M21.5,16.77l-.2-.31c-.26-.4-.91,0-.65.38l.2.31c.26.4.91,0,.65-.38Z"/><path d="M18.75,16.86a.38.38,0,0,0,0-.75.38.38,0,0,0,0,.75Z"/><path d="M15.33,18.73a.38.38,0,0,0,0-.75.38.38,0,0,0,0,.75Z"/><path d="M17.2,22.09a.38.38,0,0,0,0-.75.38.38,0,0,0,0,.75Z"/><path d="M13.47,17.69a.38.38,0,0,0,0-.75.38.38,0,0,0,0,.75Z"/><path d="M7.25,14.22a.38.38,0,0,0,0-.75.38.38,0,0,0,0,.75Z"/><path d="M6.52,12.46a.38.38,0,0,0,0-.75.38.38,0,0,0,0,.75Z"/><path d="M12.33,10.12a.38.38,0,0,0,0-.75.38.38,0,0,0,0,.75Z"/><path d="M20.36,11.21a.38.38,0,0,0,0-.75.38.38,0,0,0,0,.75Z"/><path d="M26,14.84a.38.38,0,0,0,0-.75.38.38,0,0,0,0,.75Z"/><path d="M27.71,20.49a.38.38,0,0,0,0-.75.38.38,0,0,0,0,.75Z"/><path d="M12.43,22.3a.38.38,0,0,0,0-.75.38.38,0,0,0,0,.75Z"/></g></svg>