<svg xmlns="http://www.w3.org/2000/svg" viewBox="0 0 32 32"><defs><style>.cls-1{fill:#c69c6d;}.cls-2{fill:#fbb03b;}.cls-3{fill:#8c6239;}</style></defs><title>item-icon</title><g id="Layer_48" data-name="Layer 48"><path class="cls-1" d="M8.73,17.59a32.7,32.7,0,0,0,12.38.22c1.9-.28,1.09-3.17-.8-2.89a29.4,29.4,0,0,1-10.78-.22,1.5,1.5,0,0,0-.8,2.89Z"/><path class="cls-1" d="M19.33,15.85c-.16,1-.3,1.91-.38,2.87a13.32,13.32,0,0,1-.18,2.92A2.71,2.71,0,0,1,15.6,23.5a10.65,10.65,0,0,1-2.52-.42,4,4,0,0,1-1.56-3c0-1.09.63-.71,1.63-.62a22.17,22.17,0,0,1,5.75.84l-1-1c.45,1.84-3.25,4.64-4.34,2.24-.38-.84.17-.33,1-.18l1.26.24a1.31,1.31,0,0,0-1.1-.79C13.8,19,11.21,20.52,12,22.25c1,2,4.2,2.25,5.84.83a2.59,2.59,0,0,0,.74-2.92c-.54-1.23-1.73-1.45-2.93-1.68-2.17-.43-5.93-1-5.82,2.34.08,2.42,3.17,4.67,5.43,4.57,2.56-.11,4.72-2.41,5.39-4.78.95-3.33-1.85-3.47-4.38-3.79-2.15-.27-6.52-1.61-7.57,1.13-.89,2.32.35,5.52,2.07,7.13,1.25,1.17,2.46,1,4,1.32a5,5,0,0,0,4.09-.47c3.5-2.17,2.75-5.75,3.33-9.27.31-1.89-2.58-2.7-2.89-.8Z"/><path class="cls-2" d="M11.88,11.62a.38.38,0,0,0,0-.75.38.38,0,0,0,0,.75Z"/><path class="cls-2" d="M11.32,11.75a.38.38,0,0,0,0-.75.38.38,0,0,0,0,.75Z"/><path class="cls-2" d="M12.13,11.31a.38.38,0,0,0,0-.75.38.38,0,0,0,0,.75Z"/><path class="cls-2" d="M18.26,11.37a.38.38,0,0,0,0-.75.38.38,0,0,0,0,.75Z"/><path class="cls-2" d="M18.63,11.75a.38.38,0,0,0,0-.75.38.38,0,0,0,0,.75Z"/><path class="cls-2" d="M19.38,11.69a.38.38,0,0,0,0-.75.38.38,0,0,0,0,.75Z"/><path class="cls-2" d="M15.2,12.12a.38.38,0,0,0,0-.75.38.38,0,0,0,0,.75Z"/><path class="cls-2" d="M14.88,11.06a.38.38,0,0,0,0-.75.38.38,0,0,0,0,.75Z"/><path class="cls-2" d="M14.45,11.62a.38.38,0,0,0,0-.75.38.38,0,0,0,0,.75Z"/><path class="cls-2" d="M13.51,12.31a.38.38,0,0,0,0-.75.38.38,0,0,0,0,.75Z"/><path class="cls-2" d="M12.26,15.06a.38.38,0,0,0,0-.75.38.38,0,0,0,0,.75Z"/><path class="cls-2" d="M16.76,12.06a.38.38,0,0,0,0-.75.38.38,0,0,0,0,.75Z"/><path class="cls-2" d="M16.95,12.94a.38.38,0,0,0,0-.75.38.38,0,0,0,0,.75Z"/><path class="cls-2" d="M17.32,14.31a.38.38,0,0,0,0-.75.38.38,0,0,0,0,.75Z"/><path class="cls-2" d="M17.82,15a.38.38,0,0,0,0-.75.38.38,0,0,0,0,.75Z"/><path class="cls-2" d="M16.07,12.19a.38.38,0,0,0,0-.75.38.38,0,0,0,0,.75Z"/><path class="cls-2" d="M15.51,11.75a.38.38,0,0,0,0-.75.38.38,0,0,0,0,.75Z"/><path class="cls-2" d="M11,11.87a.38.38,0,0,0,0-.75.38.38,0,0,0,0,.75Z"/><path class="cls-2" d="M14.51,10.81a.38.38,0,0,0,0-.75.38.38,0,0,0,0,.75Z"/><path class="cls-2" d="M15.2,10.5a.38.38,0,0,0,0-.75.38.38,0,0,0,0,.75Z"/><path class="cls-2" d="M15.76,11.31a.38.38,0,0,0,0-.75.38.38,0,0,0,0,.75Z"/><path d="M9.7,29.3q5.72-.12,11.44,0a1.13,1.13,0,0,0,0-2.25q-5.72-.14-11.44,0a1.13,1.13,0,0,0,0,2.25Z"/><path d="M7.84,12.89c-.61,3.57-1.19,8.37.44,11.77,1.35,2.82,4.69,4,7.6,4,3.17.06,5.35-1.69,6.55-4.59a11.14,11.14,0,0,0,.71-4.89c-.09-2.25.14-4.64-.11-6.84-.17-1.42-2.42-1.44-2.25,0,.26,2.19,0,4.61.11,6.84C21,22,20.45,25,17.58,26S11,25.82,10,22.65c-.86-2.77-.48-6.39,0-9.17.24-1.42-1.93-2-2.17-.6Z"/><path d="M8.66,13.67c4.51,1.31,9.1.62,13.65-.06,1.43-.21.82-2.38-.6-2.17-4.15.62-8.35,1.25-12.46.06a1.13,1.13,0,0,0-.6,2.17Z"/><path d="M23.21,16.14c.52-.65,1.1-1.43,2-1.2a1.66,1.66,0,0,1,1.11,2c-.33,1.57-2.6,2.73-3.81,3.56s-.06,2.77,1.14,1.94c2.46-1.7,6.11-4,4.65-7.51A3.76,3.76,0,0,0,25.5,12.7c-1.66-.29-2.89.62-3.88,1.85s.69,2.72,1.59,1.59Z"/><path d="M9.68,12.23a.93.93,0,0,1-.15-.91,2.51,2.51,0,0,1,.21-.5,2.06,2.06,0,0,1,.14-.24q.27-.16-.14-.28c-.07,1,1.43,1,1.5,0A1.25,1.25,0,0,0,10.33,9a1.59,1.59,0,0,0-1.64.65A2.85,2.85,0,0,0,8.38,13c.57.76,1.88,0,1.3-.76Z"/><path d="M11.08,10.49c.21-.48.73-.63,1-.11a.75.75,0,0,0,1.3-.76,2,2,0,0,0-3.62.11.78.78,0,0,0,.27,1,.75.75,0,0,0,1-.27Z"/><path d="M13.49,10.2c0,.14.19,0,.28-.05a1.09,1.09,0,0,1,.38-.08c.12,0,.32,0,.33.18a.75.75,0,0,0,1.5,0,1.74,1.74,0,0,0-1.66-1.67c-.81-.06-2.05.34-2.27,1.22s1.22,1.34,1.45.4Z"/><path d="M15.76,10.43a1.17,1.17,0,0,1,.47-.46.91.91,0,0,1,.24-.09.35.35,0,0,1,.17,0q.14,0,0-.15c-.22.94,1.23,1.34,1.45.4A1.43,1.43,0,0,0,16.6,8.37a2.58,2.58,0,0,0-2.13,1.31.75.75,0,0,0,1.3.76Z"/><path d="M17.84,10.46a1.13,1.13,0,0,1,.84-.28,2.34,2.34,0,0,1,.44,0c.35.06.1.11.23-.15-.43.86.87,1.62,1.3.76A1.44,1.44,0,0,0,19.5,8.73a3.05,3.05,0,0,0-2.72.67c-.68.69.38,1.75,1.06,1.06Z"/><path d="M20,11a4.4,4.4,0,0,1,1.37.15c.06,0,.46.17.39.22a.78.78,0,0,0-.27,1,.75.75,0,0,0,1,.27,1.6,1.6,0,0,0,.29-2.41A3.88,3.88,0,0,0,20,9.49c-1,0-1,1.53,0,1.5Z"/><path class="cls-3" d="M10.46,4.11q.48,3.53,1.28,7c.32,1.41,2.49.81,2.17-.6q-.8-3.48-1.28-7c-.19-1.43-2.36-.82-2.17.6Z"/></g></svg>