<svg xmlns="http://www.w3.org/2000/svg" viewBox="0 0 32 32"><defs><style>.cls-1{fill:none;stroke:#000;stroke-miterlimit:10;stroke-width:0.75px;}</style></defs><title>item-icon</title><g id="Layer_20" data-name="Layer 20"><path d="M18.92,6.25Q12.26,15.08,5.11,23.53C3.87,25,6,27.12,7.23,25.65Q14.62,16.9,21.52,7.76c1.16-1.54-1.44-3-2.59-1.51Z"/><path d="M10.36,16.87a6.84,6.84,0,0,0-1.9.86,2.53,2.53,0,0,0-1.09,1.8c-.15,1.44.78,3.18,2.37,3.24,3,.1,4.49-4.91,1.31-5.73a.75.75,0,0,0-.4,1.45c1.42.37.4,3-.91,2.79-.78-.13-1.1-1.4-.74-2s1.17-.71,1.77-.95c.89-.35.5-1.8-.4-1.45Z"/><path d="M23.27,20.64A10.45,10.45,0,0,0,23,23.16a3.57,3.57,0,0,0,.55,2.24c1.08,1.17,2.75-.95,3-1.94s-1.24-1.34-1.45-.4a2,2,0,0,1-1.17,1.29l.58-.08-.15-.06.45.34c-.62-.81-.29-2.61-.1-3.52s-1.25-1.34-1.45-.4Z"/><path class="cls-1" d="M21.46,7a5.81,5.81,0,0,1,2,3c.32,1.16-.43,1.76,0,3,.31.91.75,1,1,2a4.06,4.06,0,0,1,0,2c-.26,1-.73,1.1-1,2-.18.61.5,1.5.5,1.5"/></g></svg>