<svg xmlns="http://www.w3.org/2000/svg" viewBox="0 0 32 32"><defs><style>.cls-1{fill:#ff7bac;}</style></defs><title>item-icon</title><g id="Layer_1" data-name="Layer 1"><path class="cls-1" d="M14.62,12.5q-.19,5-.17,10.06a1.5,1.5,0,0,0,3,0q0-5,.17-10.06c.07-1.93-2.93-1.93-3,0Z"/><path class="cls-1" d="M15.31,11.46c-1-3-4-4.21-5.45-3.72a6.87,6.87,0,0,0-4.35,4.56,7.62,7.62,0,0,0,1,6.13,9.82,9.82,0,0,0,5,3.81,12.45,12.45,0,0,1,2.52,1,17.68,17.68,0,0,0,1.68,1.16"/><path d="M16.76,11.06C14.29,5.21,7.4,4.6,4.54,10.66a9,9,0,0,0,1.24,9.26C8.15,23,11.89,23.66,15,25.66c1.63,1,3.13-1.55,1.51-2.59-2.79-1.8-6.78-2.51-8.67-5.41A5.78,5.78,0,0,1,8,10.79c2-2.47,4.61-1.78,5.81,1.07.74,1.75,3.64,1,2.89-.8Z"/><path class="cls-1" d="M16.69,11.46c1-3,4-4.21,5.45-3.72a6.87,6.87,0,0,1,4.35,4.56,7.62,7.62,0,0,1-1,6.13,9.82,9.82,0,0,1-5,3.81,12.45,12.45,0,0,0-2.52,1,17.68,17.68,0,0,1-1.68,1.16"/><path d="M18.14,11.86c1-2.41,3.23-3.47,5.33-1.64a5.77,5.77,0,0,1,.7,7.44c-1.88,2.88-5.89,3.61-8.67,5.41-1.62,1-.11,3.64,1.51,2.59,3-2,6.73-2.64,9.09-5.59a9.08,9.08,0,0,0,1.36-9.41c-2.87-6-9.75-5.46-12.22.4-.75,1.78,2.15,2.55,2.89.8Z"/></g></svg>