<svg xmlns="http://www.w3.org/2000/svg" viewBox="0 0 200 400"><defs><style>.a{fill:#00a99d;}.b{opacity:0.35;}.c{fill:#00b89d;}.d{fill:#fcee21;}.e,.f{fill:#f2f2f2;}.e{stroke:#ccc;stroke-miterlimit:10;}.g{fill:#ccc;}.h{fill:#f7931e;}.i{fill:#fbb03b;}.j{fill:#c1272d;}.k{fill:#bdccd4;}.l{fill:#ff7bac;}.m{fill:#ff1d25;}.n{fill:#ff931e;}.o{fill:#7ac943;}.p{fill:#3fa9f5;}.q{fill:#fff;}.r{fill:#007ebc;}</style></defs><title>a</title><path class="a" d="M101,17C49,17,6.41,9.52,2.33,0H0V400H200V0h-.33C195.59,9.52,153,17,101,17Z"/><g class="b"><path class="c" d="M12.2,50.85-6.81,63c-5.83,3.74-2,12.32,4.62,11l76-15.49L70.67,46.94A669.06,669.06,0,0,0-25.09,75.15c-7.35,2.77-4.4,12.64,3.19,11.57L107.95,68.47c7-1,4.84-11.5-1.6-11.79C68.8,55,31,59-5.08,69.5c-6.3,1.83-5.36,12.2,1.6,11.79q65.92-3.88,131.3-13.45c6.62-1,5.13-12.59-1.6-11.79A1631.07,1631.07,0,0,0-53.11,87.61c-6,1.4-5.45,9.91,0,11.57,10.64,3.25,21.44,1.92,32.28.64q18.16-2.15,36.39-3.67,36-3,72.07-3.45L86,80.91,13.23,94.52l-35.92,6.71c-10.07,1.88-22.34,2.34-30,10-3.58,3.57-1,10.43,4.24,10.24Q3.34,119.59,54.78,113l-1.6-11.79c-40.55,8.5-81.11,17-121,28.26-6.32,1.78-5.34,12.24,1.6,11.79a1038.71,1038.71,0,0,0,109.07-13l-3.19-11.57C16.75,121.67-6.2,127-27.08,138c-4.23,2.23-3.77,10.23,1.43,11a215.5,215.5,0,0,0,44.3,1.88l-1.6-11.79C7.85,142.37-23,152-11.35,167.18c4,5.21,11,5.85,17,5.88,9.79.06,19.58,0,29.37,0l-1.6-11.79A112.27,112.27,0,0,0-.19,176.8c-4.15,2.83-3.78,9.52,1.43,11a55.15,55.15,0,0,0,28.67.28c7.48-1.9,4.31-13.48-3.19-11.57a42.45,42.45,0,0,1-22.29-.28l1.43,11a102.13,102.13,0,0,1,30.8-14.3c6.51-1.79,5.22-11.78-1.6-11.79H17.44c-5.33,0-11.15.69-16.41-.2-.53-.09-1.38-.55-1.89-.48a2.7,2.7,0,0,1-.61-.23q-.79-.51-.25,1a26.36,26.36,0,0,1,5.64-3.57,138.65,138.65,0,0,1,16.32-7c6-2.13,5.58-12.24-1.6-11.79a200.66,200.66,0,0,1-41.11-1.45l1.43,11C-1.11,137.87,21,133,42.84,128.23c7.63-1.67,4.31-12.87-3.19-11.57A1008,1008,0,0,1-66.23,129.22l1.6,11.79c39.9-11.21,80.47-19.76,121-28.26,6.5-1.36,5.17-12.66-1.6-11.79q-51.4,6.62-103.24,8.49l4.24,10.24c3.39-3.38,8.56-3.87,13.06-4.71l16.5-3.08,34.95-6.53L89.23,92.48c6.72-1.26,5.07-11.88-1.6-11.79q-35.1.49-70.1,3.29Q.29,85.39-16.9,87.36c-10.91,1.25-22.27,3.53-33,.25V99.18A1602.47,1602.47,0,0,1,126.22,68.05l-1.6-11.79q-63.74,9.28-128.11,13l1.6,11.79c35.18-10.23,71.68-14,108.25-12.39l-1.6-11.79L-25.09,75.15l3.19,11.57A669.06,669.06,0,0,1,73.86,58.52c7.56-1.63,4.35-13.11-3.19-11.57l-76,15.49,4.62,11,19-12.19c6.48-4.16.47-14.55-6.06-10.36Z"/><path class="c" d="M209.46,181.84a165.88,165.88,0,0,1,16.29-7.75c4.75-1.93,6-8,1.43-11-7.49-4.89-18-3.73-26.52-4.1l-30.37-1.31,1.6,11.79L209,163.2c9.67-1.64,21.51-1.81,28.95-9.05a6.07,6.07,0,0,0,0-8.49c-6.43-6.13-15.46-5.17-23.7-5.25l-31.69-.31,1.6,11.79L222,139.63c6.32-2,5.37-11.76-1.6-11.79a467.69,467.69,0,0,0-66.47,4.64c-6.64.93-5.14,12.38,1.6,11.79A249.45,249.45,0,0,0,218,130.65a6,6,0,0,0-1.6-11.79c-26.38-1.84-53-3.36-79,3-6.55,1.61-5.19,11.94,1.6,11.79A159.66,159.66,0,0,0,199.93,120c6.15-2.7,2-10.56-3-11.18a187.91,187.91,0,0,0-33.06-1.14l1.6,11.79a70.2,70.2,0,0,0,29.67-14.94c3.59-3,1.38-8.86-2.65-10-14.71-4.28-29.77-1.85-44.52.87L151.12,107a113.4,113.4,0,0,0,30-17.16c3.63-2.87,1.36-9-2.65-10-18.26-4.78-36.9-2.93-55.38-.69l1.6,11.79c14.72-4.25,29.37-8.68,43.09-15.6,5.12-2.58,2.91-11.83-3-11.18l-52.35,5.72L114,81.62l45.88-15.77c6.32-2.17,5.37-11.58-1.6-11.79A179.56,179.56,0,0,0,98.06,62.6c-6.12,2-5.47,12.37,1.6,11.79A245.71,245.71,0,0,0,140,67.67c6.65-1.69,5.11-11.65-1.6-11.79A241.06,241.06,0,0,0,92,59.54l3.19,11.57A123.22,123.22,0,0,0,127,59.94c5.56-2.83,2.59-11-3-11.18a204.53,204.53,0,0,0-47.19,3.84c-7.59,1.5-4.35,13,3.19,11.57a451.82,451.82,0,0,0,52.65-13.1c6.33-2,5.36-11.84-1.6-11.79A164.64,164.64,0,0,0,74.9,49.56c-7.18,2.67-4.45,13.23,3.19,11.57a344.18,344.18,0,0,1,92-7.23l-1.6-11.79a109.74,109.74,0,0,0-30.74,19.18c-3.87,3.43-.82,10.44,4.24,10.24A465.13,465.13,0,0,0,197.47,66c6.61-1.06,5.14-12.54-1.6-11.79a347.41,347.41,0,0,0-70.74,15.36,6.08,6.08,0,0,0-1.43,11c6.27,4,13.51,4.76,20.8,4.64,5.91-.1,12.25-.92,17.9,1.31,6,2.37,6.21,9.29,11.47,12.6,3.27,2.06,7.6,2.8,11.25,3.85l13.36,3.82V95.15l-29.68,11a6.11,6.11,0,0,0-3.59,8.81c3.62,7.36,12.87,7,19.87,7.68l29.55,2.74L213,113.59l-14.69,5.87c-3.68,1.47-8.35,2.54-11.39,5.19-2.81,2.45-4,6.12-2.3,9.6,1.87,3.93,7,5.94,10.54,8.07L194,132.9c-8,6.34-8.86,17.92-5,26.81,4.62,10.67,15.51,16.37,25.53,21l1.43-11a2.63,2.63,0,0,1-2.77.27c-6.93-3.33-13,7-6.06,10.36,4,1.9,7.81,2.51,12,.94s6.56-8.59,1.43-11c-6.91-3.21-15-6.63-19.42-13.23-3.32-5-3.63-11.84,1.33-15.75,3.13-2.48,1.77-7.62-1.21-9.42-.77-.46-6-4.32-6.61-4l-.08,5.91,1.46-.63c1.29.07,3.43-1.37,4.59-1.84l15.61-6.24c6.3-2.52,5.36-11.14-1.6-11.79l-21.92-2-10.49-1c-1.67-.16-5.86.13-6.65-1.47L172,117.71l29.68-11c5.35-2,6-9.85,0-11.57l-13.36-3.82c-3.21-.92-7.19-1.11-9.07-3.95-1.77-2.66-2.56-5.23-5-7.5a23.34,23.34,0,0,0-7.43-4.53c-5.56-2.19-11.64-2.52-17.55-2.35-6.69.19-13.61.93-19.49-2.86l-1.43,11a332.48,332.48,0,0,1,67.55-14.93l-1.6-11.79A438.31,438.31,0,0,1,142,59.53l4.24,10.24a92.35,92.35,0,0,1,25.44-16.09c6-2.53,5.58-11.39-1.6-11.79A356.52,356.52,0,0,0,74.9,49.56l3.19,11.57a154.73,154.73,0,0,1,53-9.84l-1.6-11.79a451.82,451.82,0,0,1-52.65,13.1L80,64.18a190.42,190.42,0,0,1,44-3.41l-3-11.18a111.7,111.7,0,0,1-29,10c-7.62,1.52-4.33,12.89,3.19,11.57a224.44,224.44,0,0,1,43.2-3.22l-1.6-11.79a226.12,226.12,0,0,1-37.14,6.28l1.6,11.79a169.08,169.08,0,0,1,57.07-8.1l-1.6-11.79L110.84,70.05c-6,2.05-5.54,12.57,1.6,11.79l52.35-5.72-3-11.18C149,71.38,135.23,75.37,121.53,79.32c-6.22,1.8-5.35,12.63,1.6,11.79,17.33-2.1,35.06-4.22,52.19.26l-2.65-10a94.67,94.67,0,0,1-24.73,14.07A6,6,0,0,0,151.12,107c12.63-2.33,25.55-4.53,38.14-.87l-2.65-10a57.33,57.33,0,0,1-24.37,11.85c-6.53,1.49-5.2,12.15,1.6,11.79a187.91,187.91,0,0,1,33.06,1.14l-3-11.18a144.37,144.37,0,0,1-54.79,12l1.6,11.79c24.84-6.09,50.52-4.34,75.78-2.57l-1.6-11.79a237.13,237.13,0,0,1-59.32,13.19l1.6,11.79a445.68,445.68,0,0,1,63.28-4.21l-1.6-11.79L181,140.32c-6.34,2.05-5.35,11.72,1.6,11.79l25.75.25,11.88.12c2.89,0,7-.49,9.27,1.68v-8.49c-2.86,2.79-7.18,3.16-11,3.81l-16.61,2.82-33.21,5.64c-6.93,1.18-4.87,11.51,1.6,11.79l26.45,1.14,12.73.55c4,.17,8.21-.16,11.65,2.08l1.43-11a194.28,194.28,0,0,0-19.16,9c-6.8,3.67-.75,14,6.06,10.36Z"/><path class="c" d="M25.31,129.17-3,145.14c-5.45,3.08-2.66,10.81,3,11.18q47,3.09,94.2,3.18l-1.6-11.79c-22,4-44,8.13-64.87,16.38-4.22,1.67-6.63,8.57-1.43,11,10.22,4.7,21.12,4.48,32.15,4.64l35.37.52-1.6-11.79c-21.81,4.41-43.64,8.91-64.8,15.89-6.28,2.07-5.4,11.79,1.6,11.79q36.74,0,73.42-2.39v-12c-28.89,2.52-57.81,5.12-86.35,10.4-6.85,1.27-4.94,11.6,1.6,11.79a216.12,216.12,0,0,0,50.6-4.63c7.58-1.6,4.34-13-3.19-11.57a34.08,34.08,0,0,0-19.93,11.86c-2.59,3.16-2.21,9.11,2.65,10a173.63,173.63,0,0,0,18.64,2.49l-3-11.18A27.19,27.19,0,0,0,50.9,213.63c-1.94,4.06.37,8.95,5.18,9l48.42.81-1.6-11.79L48.22,227.83c-6.62,2-5.12,11.43,1.6,11.79L103,242.45l-3-11.18c-9.55,6.38-20.42,9.65-31.26,13.12L33,255.8c-4.44,1.42-6.46,8.72-1.43,11A34.36,34.36,0,0,0,48.4,270l-3-11.18c-5.26,3.7-16.58,9.48-15.85,17.17.82,8.66,12.82,7.94,19.11,8.86l-2.65-10-10.08,7.91c-2.58,2-2,6.38,0,8.49a23.74,23.74,0,0,0,11.34,6.57V286.26l-39.67,9.5c-6.12,1.47-5.26,9.71,0,11.57a46.5,46.5,0,0,0,23.75,1.76l-3.19-11.57-82,19.93c-6.44,1.56-5.25,12.36,1.6,11.79a57,57,0,0,0,12.87-2.48c7.32-2.37,4.19-14-3.19-11.57a42.91,42.91,0,0,1-9.67,2.05l1.6,11.79,82-19.93c7.62-1.85,4.29-12.84-3.19-11.57a34.16,34.16,0,0,1-17.37-1.76v11.57l39.67-9.5c5.77-1.38,5.66-10.13,0-11.57a11.9,11.9,0,0,1-6-3.48v8.49l10.08-7.91c3.37-2.64,1.61-9.4-2.65-10l-7-1c-.78-.11-5.21-.64-5.1-.51L41.52,276q-.85,2.17,1.13-.17,1.38-1.14,2.79-2.25c2-1.52,4-3,6-4.39,4.44-3.12,3.43-11.62-3-11.18a21.76,21.76,0,0,1-10.74-1.63l-1.43,11,37.53-12c11.16-3.57,22.43-7.16,32.25-13.73a6.05,6.05,0,0,0-3-11.18l-53.16-2.83,1.6,11.79,54.68-16.15c6.48-1.91,5.24-11.67-1.6-11.79l-48.42-.81,5.18,9a16.85,16.85,0,0,1,8.24-8.41c5.76-2.87,2.4-10.75-3-11.18A143.57,143.57,0,0,1,51,198l2.65,10a23.94,23.94,0,0,1,14.63-8.78l-3.19-11.57a202.08,202.08,0,0,1-47.41,4.2l1.6,11.79c27.49-5.08,55.34-7.54,83.16-10,7.6-.66,7.77-12.5,0-12Q65.8,184.1,29,184.11l1.6,11.79c21.16-7,43-11.48,64.8-15.89,6.77-1.37,5-11.69-1.6-11.79l-31.54-.46c-9.67-.14-20.9,1.09-29.91-3.06l-1.43,11c20.85-8.25,42.89-12.38,64.87-16.38,6.77-1.23,5-11.77-1.6-11.79q-47.14-.09-94.2-3.18l3,11.18,28.31-16c6.73-3.79.68-14.16-6.06-10.36Z"/><path class="c" d="M176,155.76,71.23,179.82c-6.7,1.54-5.07,11.7,1.6,11.79l88.46,1.17L159.69,181c-35.48,6.45-71,12.95-106,21.65-5.14,1.28-5.71,8.33-1.43,11,12.45,7.66,29.48,5.87,43.49,6.42l50.94,2-1.6-11.79L98.18,221.19c-15.17,3.54-30.39,7-45,12.34-2.83,1-5.41,4.14-4.19,7.38,2.82,7.5,9.66,7.82,16.7,7.87L93.4,249l55.5.36-1.6-11.79c-19,4.82-38,9.7-56.44,16.45-6.49,2.38-5.2,11.12,1.6,11.79A309,309,0,0,0,134.59,267L133,255.24a126.86,126.86,0,0,0-21.49,7.43c-3.4,1.51-3.94,7.09-1.21,9.42,7.9,6.76,18.19,5.66,27.95,5.63l36.05-.08-1.6-11.79q-15.06,3.19-30.07,6.61c-7.72,1.76-16.33,3-21.86,9.2a6.1,6.1,0,0,0,1.21,9.42c11.4,7.7,27.58,6.36,40.71,6.86q23.39.9,46.81.64l-1.6-11.79c-29.26,4.47-58.56,9-87.16,16.82-6.7,1.83-5.05,11.43,1.6,11.79q31.35,1.68,62.76.83l-5.18-9c-2.21,4.59-2.19,9.55.84,13.81a11.78,11.78,0,0,0,5.4,4.24c2.87,1.11,5.73.62,8.29,2.46,9.74,7,19.94,9.76,31.68,11.68,7.55,1.24,10.8-10.33,3.19-11.57s-15.53-2.37-22.32-6c-3.24-1.75-5.86-4.47-9.16-6.05-1.14-.55-8.06-1.44-7.56-2.48,1.89-3.91-.33-9.16-5.18-9q-31.39.85-62.76-.83l1.6,11.79c28.6-7.81,57.9-12.35,87.16-16.82,6.77-1,5-11.85-1.6-11.79q-21.46.21-42.91-.5c-7.15-.24-14.3-.54-21.44-1-6.08-.37-11.94-.89-17.11-4.39l1.21,9.42c4.52-5.1,14.21-5.59,20.44-7q13.08-3,26.19-5.73c6.7-1.42,5.08-11.8-1.6-11.79l-30.21.07c-4.87,0-9.74.06-14.62,0-3.49,0-7.85.29-10.69-2.14L117.57,273a109.87,109.87,0,0,1,18.62-6.22c6.52-1.58,5.21-12-1.6-11.79a309,309,0,0,1-42.14-1.26l1.6,11.79c18.43-6.75,37.43-11.63,56.44-16.45,6.61-1.67,5.15-11.74-1.6-11.79l-46.58-.3-22.79-.15-11.89-.08c-1.65,0-3.3,0-5,0q-1.12,0-2.24-.06-2-.78.08,1l-4.19,7.38c14.65-5.37,29.87-8.8,45-12.34l46.91-10.94c6.78-1.58,5-11.53-1.6-11.79l-46.94-1.85c-7.66-.3-15.32-.59-23-.91-6.44-.27-12.83-.57-18.45-4l-1.43,11c35-8.7,70.51-15.2,106-21.65,6.81-1.24,5-11.7-1.6-11.79l-88.46-1.17,1.6,11.79,104.81-24.06c7.52-1.73,4.34-13.3-3.19-11.57Z"/><path class="c" d="M85,259.06a79,79,0,0,0-27.28,6.44c-5.8,2.47-2.41,11.06,3,11.18,28,.65,55.93,1,83.66-3.3,7-1.1,4.75-11.35-1.6-11.79A460.11,460.11,0,0,0,9.41,272.14c-6,1.38-5.36,9.85,0,11.57,20.52,6.59,43.18,4.64,64.44,4.67l67.59.1v-12q-32.29,3.9-64.45,8.74-15.92,2.4-31.81,5c-9.2,1.53-18.69,2.94-26.39,8.62-4.9,3.62-3.09,10.56,3,11.18,28.6,2.89,57.35,2.65,86.06,2.34l-1.6-11.79-37.36,5.73c-11.17,1.71-22.28,3.14-32.44,8.41-5.57,2.89-2.57,10.9,3,11.18a1043,1043,0,0,0,106.85-.13c7.66-.4,7.77-12.14,0-12a853.88,853.88,0,0,0-163.09,18.8c-4.87,1-5.2,6.77-2.65,10,6.5,8.28,18.11,7.89,27.62,8.23,13.46.47,26.92.91,40.39,1.1,26.57.38,53.17-.27,79.58-3.41,7.53-.9,7.89-11.56,0-12q-41.8-2.33-83.69-1.87c-27.16.33-54.43,1.86-80.92,8.21-4.84,1.16-5.23,6.69-2.65,10,2.94,3.79,7.49,5,12,5.67,6.2.86,12.46,1.35,18.7,1.76,12.94.85,25.9,1.06,38.86,1.31l79.07,1.5v-12l-47.68,6.06c-15.26,1.94-30.77,3.33-45.55,7.85a6.07,6.07,0,0,0-2.65,10c8.18,8.5,20.66,8.21,31.61,8.67q21.58.92,43.18.6c7.75-.1,7.69-11.64,0-12a149.67,149.67,0,0,0-45.31,4.86c-5.44,1.44-5.33,8-1.43,11a38.32,38.32,0,0,0,24,7.58v-12l-19.65,1.56c-5.56.44-11.86.27-16.82,3.19C21.41,393.19,21,406.41,30.9,409c7.48,2,10.66-9.61,3.19-11.57.69.18,1,1.19,1.49,1.31a12.32,12.32,0,0,0,2.5-.68c3-.53,6.08-.56,9.07-.8l18.66-1.48c7.59-.6,7.82-12.17,0-12a27.84,27.84,0,0,1-18-5.94l-1.43,11a138.37,138.37,0,0,1,42.12-4.43v-12q-18.65.25-37.29-.37c-8.58-.3-22.44,1.44-29-5.39l-2.65,10C34,372.24,49,370.86,63.89,369l45.73-5.81c7.44-.94,8-11.85,0-12l-73.14-1.39c-11.7-.22-23.41-.38-35.1-.89-6.14-.27-12.28-.65-18.41-1.2-4-.36-10.85.24-13.55-3.24l-2.65,10c26.1-6.26,52.91-7.53,79.66-7.81q40.9-.42,81.77,1.89v-12c-24.45,2.91-49.06,3.69-73.66,3.48-12.15-.1-24.31-.44-36.45-.84-5.71-.19-11.44-.3-17.14-.6-4.5-.24-8.9-.7-11.84-4.44l-2.65,10a836.65,836.65,0,0,1,159.9-18.37v-12a1043,1043,0,0,1-106.85.13l3,11.18c9.64-5,21-5.88,31.53-7.5l35.39-5.43c6.77-1,5-11.86-1.6-11.79-28.71.31-57.46.54-86.06-2.34l3,11.18c7.36-5.44,16.67-6.28,25.45-7.73q14.92-2.47,29.88-4.72,30.57-4.61,61.26-8.31c7.45-.9,7.94-12,0-12l-65.63-.1c-20.76,0-43.17,2.19-63.2-4.25v11.57A448.65,448.65,0,0,1,142.81,273.6l-1.6-11.79c-26.6,4.15-53.64,3.49-80.47,2.87l3,11.18A62.29,62.29,0,0,1,85,271.06c7.68-.4,7.73-12.41,0-12Z"/><path class="c" d="M113,300.47a63.43,63.43,0,0,0-23.4,6.67c-3.75,1.9-4.09,8.57,0,10.36,14.09,6.19,29.91,6,45,7L185.17,328l-1.6-11.79L125.22,328,96,333.95c-8,1.63-16.51,2.54-22.71,8.43-2.68,2.55-2.2,7.69,1.21,9.42,14.25,7.23,30.18,8.33,45.8,10.14l51,5.89v-12Q112.43,361.11,54,370.27c-5.76.9-5,8.25-1.43,11,6.87,5.26,15.59,6.27,24,6.75,10.5.61,21,.53,31.54.38,21-.31,42.25-1,63,2.83V379.62l-37.87,6.85c-7,1.27-4.79,11.37,1.6,11.79l28.38,1.87-1.6-11.79-23.91,8.42a6,6,0,0,0,1.6,11.79,663.18,663.18,0,0,0,68.92.75c7.8-.32,7.64-11.36,0-12a308.87,308.87,0,0,0-49.39-.15l1.6,11.79A266.2,266.2,0,0,0,205.29,396c3.71-1.43,5.5-5.12,3.59-8.81-5.08-9.78-16.24-12.32-26.4-12.76-14.15-.61-28.46.05-42.62.12l-90.1.44L54,385.25c4.18-4.1,11.21-4.39,16.68-5.37l22.27-4,44.54-8c6.85-1.23,4.95-11.63-1.6-11.79l-63.18-1.54,3,11.18,37.34-16.78c4.69-2.11,3.37-9.93-1.43-11a41.17,41.17,0,0,0-13-.84c-7.52.78-7.89,12,0,12A225.79,225.79,0,0,0,149,343.5c6.92-1.57,4.86-11.33-1.6-11.79A411.43,411.43,0,0,0,64,334.28c-3.24.43-6,2.45-6,6,0,3,2.78,6.31,6,6a910.47,910.47,0,0,0,91.81-13.47c4.84-1,6.08-8.85,1.43-11-10.19-4.64-20.87-4.8-31.88-4.81L87.6,317q-37.22,0-74.44.08v12A403.55,403.55,0,0,0,58.86,323c9.05-1.74,32.71-3.16,29.23-17.6a5.85,5.85,0,0,0-4.19-4.19l-8.83-1.4-1.6,11.79q26.92.13,53.84,0c16.26-.05,34.63,2,50.22-3.5a6.06,6.06,0,0,0,0-11.57c-12.26-4.5-26.45-3.68-39.32-4q-20.33-.51-40.67-.19-41.17.65-82.19,4.69l1.6,11.79,83.89-12.3c7.06-1,4.73-11.34-1.6-11.79a594.65,594.65,0,0,0-82,.18l1.6,11.79,90.08-37.05c6-2.47,5.62-11.54-1.6-11.79q-20.24-.69-40.46.4l5.79,4.4c-2.63-10,12.54-16.81,18-22.82,6.36-7,9.78-17.78,4-26.15l-2.15,8.21,14.83-11.18c6.09-4.59.12-15-6.06-10.36L86.41,201.57c-2.43,1.83-4.17,5.29-2.15,8.21,5.87,8.49-7.85,16.51-13.09,21C63.8,237,58.44,246,61,255.88a6.07,6.07,0,0,0,5.79,4.4q20.22-1.09,40.46-.4l-1.6-11.79L15.61,285.15c-5.68,2.33-5.8,12.29,1.6,11.79a594.65,594.65,0,0,1,82-.18L97.64,285l-83.89,12.3c-6.63,1-5.14,12.44,1.6,11.79q40-3.9,80.21-4.65,19.84-.35,39.68.09c12.71.28,27-.79,39.11,3.65V296.58c-7.51,2.67-15.2,2.88-23.1,2.95q-13,.11-25.92.13-25.92.08-51.85-.05c-6.54,0-8.45,10.7-1.6,11.79l8.83,1.4-4.19-4.19.59-2.29-.85.5c-1.11,0-2.81.76-3.93,1q-4.14,1-8.31,1.89-8.33,1.8-16.74,3.23c-11.31,1.92-22.69,3.25-34.12,4.12-7.6.58-7.82,12,0,12Q48.4,329,83.63,329l34.74,0c10.64,0,22.82-1.36,32.77,3.18l1.43-11a878.63,878.63,0,0,1-88.62,13v12a411.43,411.43,0,0,1,83.42-2.56l-1.6-11.79a210.91,210.91,0,0,1-47.18,5.21v12a30.8,30.8,0,0,1,9.86.41l-1.43-11L69.68,355.36c-5.73,2.57-2.46,11,3,11.18l63.18,1.54-1.6-11.79L85.88,365c-7.75,1.39-15.5,2.74-23.24,4.18-6.39,1.19-12.38,2.92-17.14,7.59C41.8,380.4,44.58,387,49.75,387l82.18-.4,40.6-.2c8,0,21.54-1.73,26,6.86l3.59-8.81a266.2,266.2,0,0,1-44.89,12.91c-6.58,1.28-5.17,12.31,1.6,11.79a308.87,308.87,0,0,1,49.39.15v-12a663.18,663.18,0,0,1-68.92-.75l1.6,11.79,23.91-8.42a6,6,0,0,0-1.6-11.79l-28.38-1.87L136.4,398l37.87-6.85c5.73-1,5.72-10.52,0-11.57-20-3.68-40.23-3.66-60.49-3.35-10.2.16-20.41.35-30.61,0-8.42-.28-17.6-.06-24.59-5.41l-1.43,11q56.86-8.89,114.2-14c7.78-.7,7.64-11.12,0-12l-47.14-5.45c-14.55-1.68-30.3-2.19-43.6-8.94l1.21,9.42c2.62-2.48,6.22-3,9.63-3.76,4.53-.95,9.08-1.84,13.62-2.76l27.23-5.52,54.46-11c7-1.41,4.81-11.35-1.6-11.79l-46.65-3.21c-13.8-.95-29.94,0-42.86-5.63v10.36a47.75,47.75,0,0,1,17.35-5c7.63-.69,7.7-12.7,0-12Z"/></g><path class="d" d="M92.77,350.87a153,153,0,0,1-9.11,25.58c-1.61,3.48,3.56,6.53,5.18,3a161.82,161.82,0,0,0,9.72-27c1-3.74-4.81-5.33-5.79-1.6Z"/><path class="d" d="M85.06,376a90.16,90.16,0,0,1-15.25,8.77c-3.51,1.59-.47,6.76,3,5.18a90.16,90.16,0,0,0,15.25-8.77c3.12-2.22.13-7.43-3-5.18Z"/><path class="d" d="M83.66,379.38a12.69,12.69,0,0,0-1.86,5.78q-.58,3.86-1.14,7.73c-.56,3.78,5.22,5.41,5.79,1.6l1-6.76c.27-1.8.31-3.79,1.39-5.31,2.24-3.16-3-6.16-5.18-3Z"/><path class="d" d="M85,380.41a24,24,0,0,0,10.55,14.1c3.28,2.05,6.3-3.14,3-5.18a17.76,17.76,0,0,1-7.79-10.52c-1-3.72-6.81-2.14-5.79,1.6Z"/><path class="d" d="M108.88,350.22c2.09,5.32,4.25,10.63,6.65,15.82,1.89,4.08,6,7.71,6.86,12.09.75,3.78,6.53,2.18,5.79-1.6-.87-4.38-4.14-7.18-6.21-11-2.93-5.36-5.07-11.27-7.3-16.95-1.4-3.55-7.2-2-5.79,1.6Z"/><path class="d" d="M125.23,376c-2.6.69-4.62,3-6.63,4.64l-7.25,6.05c-3,2.48,1.3,6.7,4.24,4.24l5.72-4.78,2.67-2.23c.82-.68,1.79-1.86,2.84-2.14,3.73-1,2.15-6.77-1.6-5.79Z"/><path class="d" d="M123,382.08l2.46,11c.84,3.77,6.62,2.17,5.79-1.6l-2.46-11c-.84-3.77-6.62-2.17-5.79,1.6Z"/><path class="d" d="M127.53,381.33c5,1.16,9.22,4.35,14.52,4.21,3.85-.1,3.87-6.1,0-6-4.58.12-8.56-3-12.93-4-3.76-.87-5.36,4.91-1.6,5.79Z"/><polygon class="e" points="62 289 66 350 104 347 149 349 143 287 98.83 284.83 62 289"/><polygon class="e" points="75 226 75 284 103 283 126.89 284 116.83 221.5 75 226"/><path class="f" d="M73,228.33l.49,58.34"/><path class="g" d="M70,228.33l.49,58.34c0,3.86,6,3.87,6,0L76,228.33c0-3.86-6-3.87-6,0Z"/><path class="f" d="M74,225.07a151.34,151.34,0,0,1,44-3.42"/><path class="g" d="M74.81,228A154.46,154.46,0,0,1,118,224.66c3.86.24,3.84-5.76,0-6a160.39,160.39,0,0,0-44.8,3.52c-3.77.83-2.17,6.62,1.6,5.79Z"/><path class="f" d="M118.73,222.27q5.1,31.92,8.41,64.08"/><path class="g" d="M115.84,223.07q5,31.53,8.3,63.29c.39,3.8,6.4,3.84,6,0q-3.38-32.55-8.51-64.88c-.6-3.8-6.39-2.19-5.79,1.6Z"/><path class="f" d="M74.86,286.47c16.82-2.27,33.87-1.7,50.83-1.13"/><path class="g" d="M74.86,289.47c16.88-2.17,33.87-1.7,50.83-1.13,3.86.13,3.86-5.87,0-6-17-.57-34-1-50.83,1.13-3.78.49-3.83,6.49,0,6Z"/><path class="f" d="M60.61,287.25a388.57,388.57,0,0,1,83.76-1.41"/><path class="g" d="M60.61,290.25a397.17,397.17,0,0,1,83.76-1.41c3.85.34,3.82-5.66,0-6a397.17,397.17,0,0,0-83.76,1.41c-3.78.47-3.83,6.47,0,6Z"/><path class="f" d="M58.21,288.08a9.26,9.26,0,0,1,1.63,4.79Q63.78,320.6,65,348.63a1.41,1.41,0,0,1-1.91-1.53"/><path class="g" d="M55.62,289.59c2.54,3.93,2.19,10.24,2.74,14.77q.87,7.19,1.57,14.4,1.43,14.9,2.09,29.86l3-3,1,.67c-.68-3.79-6.46-2.19-5.79,1.6a4.32,4.32,0,0,0,4.8,3.73,3,3,0,0,0,3-3q-.77-16.89-2.47-33.71-.84-8.17-1.91-16.31c-.53-4.05-.56-8.53-2.83-12-2.09-3.23-7.29-.23-5.18,3Z"/><path class="f" d="M64,351.94c16.79-3.49,34.1-3.18,51.24-2.86l37.1.7"/><path class="g" d="M64.78,354.83c14.43-2.88,29.11-3.08,43.77-2.87s29.18.54,43.78.82c3.86.07,3.86-5.93,0-6-29.42-.56-60.09-3.54-89.14,2.26-3.78.75-2.18,6.54,1.6,5.79Z"/><path class="f" d="M145.28,288a234.34,234.34,0,0,0,5,60.33"/><path class="g" d="M142.28,288a244.5,244.5,0,0,0,5.12,61.13c.8,3.78,6.58,2.18,5.79-1.6a237.85,237.85,0,0,1-4.9-59.53c.17-3.86-5.83-3.85-6,0Z"/><path class="f" d="M146.13,285.11c3-3.31,4.45-7.68,5.77-11.94q6.19-20,10.38-40.58l31.34,26.56a7,7,0,0,1,2.12,2.47c.65,1.59.06,3.39-.57,5A152.29,152.29,0,0,1,149.63,329"/><path class="g" d="M148.25,287.24c5.58-6.82,7.44-15.91,9.77-24.23,2.74-9.78,5.1-19.66,7.15-29.61l-5,1.32,26.12,22.13c1.74,1.47,4.86,3.23,6.05,5.16,1.37,2.22-.72,5.56-1.6,7.61-1.92,4.49-4.07,8.88-6.42,13.16a151.89,151.89,0,0,1-36.8,44.12c-3,2.45,1.28,6.68,4.24,4.24a156,156,0,0,0,40.38-50.38c2.27-4.52,4.75-9.31,6.21-14.17,1.34-4.45,0-7.28-3.36-10.19-10.15-8.7-20.4-17.28-30.59-25.93-1.59-1.35-4.52-1.06-5,1.32-1.79,8.71-3.82,17.36-6.14,25.94-2.19,8.11-3.82,18.62-9.24,25.25-2.43,3,1.8,7.23,4.24,4.24Z"/><path class="f" d="M58.18,285.17C52.88,270,38.6,259.19,33.4,244q-14.84,16.24-28.6,33.43c18.58,17,33.47,38.79,55.86,50.28"/><path class="g" d="M61.07,284.37c-5.67-15.31-19.23-25.93-24.78-41.22-.72-2-3.38-3.11-5-1.32q-14.83,16.26-28.6,33.43a3.06,3.06,0,0,0,0,4.24c18.6,17.17,33.63,38.73,56.47,50.75,3.41,1.8,6.45-3.38,3-5.18-22.35-11.76-37-33-55.25-49.81v4.24q13.77-17.16,28.6-33.43l-5-1.32c5.57,15.37,19.13,26,24.78,41.22,1.33,3.59,7.13,2,5.79-1.6Z"/><path class="h" d="M81,263.39l38-.33c5.79-.05,5.8-9.05,0-9l-38,.33c-5.79.05-5.8,9.05,0,9Z"/><path class="i" d="M80.66,270.63q19.66-.72,39.34-.6c5.79,0,5.8-9,0-9q-19.68-.12-39.34.6c-5.77.21-5.8,9.21,0,9Z"/><path class="j" d="M95.13,278.25c-.8-.18-.67-1.27-1-.52-.15.36.35,1.67.42,2.08.23,1.36.31,2.71.44,4.08.26,2.78,1.37,5.3,4.24,6.22,2.37.76,5.51.53,8,.43,2.74-.1,5.36-1,6.52-3.72,1-2.4.11-5.38-.21-7.86-.35-2.67-.41-5.64-1.21-8.21-2-6.4-10-3.72-14.82-3.08-4.56.61-6,5.55-2.27,8.39-1-.74-.25.45-.06,1.07a18.73,18.73,0,0,0,.74,2,8.53,8.53,0,0,0,3.24,3.81,8.74,8.74,0,0,0,9.32-.19c4.77-3.23.27-11-4.54-7.77-.32.22,0,.35.16.53-.39-.33-.5-1.74-.66-2.2a10,10,0,0,0-3.65-5l-2.27,8.39,6.88-.91,1.59-.21q-2.69-3.78-2.1-1.51c-.24.82.33,2.47.44,3.28l.44,3.28c.05.38.07,3,.44,3.28q4-2.73,1-2.35H105l-2.16,0q-2.51-.29.59.93l.61,2.27c-.52-5-.21-13.7-6.56-15.12-5.64-1.26-8.05,7.42-2.39,8.68Z"/><path d="M80,230.5c5.79,0,5.8-9,0-9s-5.8,9,0,9Z"/><path d="M109.33,229.17c5.79,0,5.8-9,0-9s-5.8,9,0,9Z"/><path class="k" d="M108.37,137.12c-4.22-1.2-8.6-2.18-12.72-3.71-4.91-1.82-9.5-4.43-14.43-6.28C72.58,123.9,64.35,113.9,60,106c-4.91-9-9.07-21.18-2-30,6.24-7.74,15-14.23,23.71-19,10.58-5.78,21.44-2.08,32,2.09,9.11,3.61,17.42,11,23.44,18.68,5.91,7.51,8,17.45.65,24.71-7.19,7.07-17.91,7.46-27.3,5.82-5.11-.89-10.59-2-15.24-4.42-5-2.57-8.12-7-10.31-12.09-1.25-2.92-1.08-4.79,1.3-7,2-1.85,4.31-3.39,7.08-2.74s5.71,2.25,8.37,3.37c2.89,1.22,6.09,2.63,7,6-1.6-5.55-10.29-3.19-8.68,2.39A8.45,8.45,0,0,0,112.45,99c5.44-3.18,5.74-10.34,2.41-15.14-3.89-5.59-12.41-8.14-18.53-10.25C90,71.48,84.6,74.17,79.9,78.48c-10.68,9.78-.76,26.44,9.49,32.46,11.64,6.83,29.79,9.64,42.65,5.29,11.91-4,21.22-15,19.42-28C149.52,74.32,136.52,62,125.23,54.85c-6.61-4.21-14.84-6.9-22.4-8.76s-15.1-1.79-22.39,1.53c-7,3.21-13.56,8-19.45,13-5.56,4.69-11.39,10.07-14.26,16.9-3.25,7.76-1.12,16.59,1.62,24.2A59.61,59.61,0,0,0,61,122.32a81.06,81.06,0,0,0,9.47,9.1c3.27,2.53,6.85,3.77,10.68,5.22,4.15,1.57,7.93,4,12.11,5.46s8.48,2.51,12.72,3.71c5.58,1.58,8-7.1,2.39-8.68Z"/><path class="l" d="M66.34,122.75c-2.49-9.82-3.79-19.48-5.08-29.51-.65-5.07,1-10,2.43-14.86a52.68,52.68,0,0,1,5.62-13.25C74.11,57.37,82.06,47.74,92,48.42s20.36,5.53,28.8,10.37c3.91,2.24,7.44,4.71,9.84,8.61,2.61,4.25,3.67,9.32,4.66,14.14,2.28,11.1,1.55,20.76-1.58,31.64-2.63,9.13-8.51,19.53-19.53,18.44-9.78-1-16.44-9.08-20.26-17.44A63.84,63.84,0,0,1,88.9,97.6c-1-6.4.78-11.54,4.35-16.78,1.84-2.7,3.37-4.29,6.87-3.44,2.87.7,5.46,2.18,6.4,5s1,6.59,1.33,9.45.54,6.17-1.74,8.53c4-4.18-2.34-10.55-6.36-6.36a8.46,8.46,0,0,0,1.6,13.31c5.66,3.27,12.24-.39,14.55-6,2.56-6.16.67-15.08-.7-21.37C113.78,73.5,107.8,70,101.74,68.5c-14.61-3.67-23.12,16.07-22,27.86,1.25,13.58,7.48,29.77,18.68,38.17,10.86,8.14,26,8.42,35.37-2.09,4.94-5.51,7.58-12.44,9.39-19.53,2-7.8,3.52-15.75,2.56-23.82C144,75,140.68,60.7,128,52.6a96.33,96.33,0,0,0-20.72-9.68c-7-2.39-14.71-4.58-22.13-3s-13.54,7.7-18.26,13.33A59.62,59.62,0,0,0,55.5,74.35C53,82.6,51.6,89.71,53,98.25c.78,4.65.62,9.38,1.48,14,.8,4.33,2.07,8.6,3.15,12.87,1.42,5.61,10.1,3.23,8.68-2.39Z"/><path class="m" d="M57.77,79.25c3.41-3.32,6.7-7,10.48-9.85S76.19,63.84,80,60.74c4.28-3.5,9.48-4.63,14.74-5.94a52,52,0,0,1,16.49-1.71c10.06.73,21,3.31,24.79,13.63a78.56,78.56,0,0,1,4.35,31.33c-.74,10.6-8.62,17.38-16.34,23.72-8,6.61-18.51,10.41-28.77,12s-20.48-2-22.55-13.11C70.93,111.2,76,102.19,81.9,95.2c3.3-3.88,6.93-7.89,11.21-10.69,4.62-3,9.78-3.4,15.16-2.91,2.67.25,4.48.67,5.48,3.36.79,2.12,1.33,6,.05,8s-4.57,3.72-6.51,5.23c-2.91,2.27-6.18,5.29-10.25,4.28,5.62,1.39,8-7.29,2.39-8.68-5.35-1.32-10.76,2.31-10.76,8.06,0,6.54,6.45,10.33,12.39,9.58,6.68-.84,14-7.11,18.63-11.68s4.41-11.38,2.73-17.15c-3.89-13.37-23.59-12.08-33.22-6.23-11.2,6.8-22.16,20.2-25,33.12-2.73,12.23,1.7,26.09,13.8,31.33,13.28,5.76,31.3.41,43.39-6.22,6.53-3.58,12.55-9,17.73-14.31,4.92-5.05,8.74-11,9.82-18,1.21-8,.35-16.32-.93-24.21-1.18-7.26-2.81-15.26-7.08-21.42-9.21-13.28-31.52-14.22-45.74-11.15a76.64,76.64,0,0,0-14.09,4.09c-3.59,1.55-6.32,4-9.32,6.43-3.44,2.81-7.39,4.88-10.78,7.76s-6.41,6.09-9.57,9.16c-4.16,4,2.21,10.41,6.36,6.36Z"/><path class="n" d="M91.15,50c4.22,1.2,8.6,2.18,12.72,3.71,4.91,1.82,9.5,4.43,14.43,6.28,8.64,3.24,16.88,13.24,21.2,21.16,4.91,9,9.07,21.18,2,30-6.24,7.74-15,14.23-23.71,19-10.58,5.78-21.44,2.08-32-2.09-9.11-3.61-17.42-11-23.44-18.68-5.91-7.51-8-17.45-.65-24.71,7.19-7.07,17.91-7.46,27.3-5.82,5.11.89,10.59,2,15.24,4.42,5,2.57,8.12,7,10.31,12.09,1.25,2.92,1.08,4.79-1.3,7-2,1.85-4.31,3.39-7.08,2.74s-5.71-2.25-8.37-3.37c-2.89-1.22-6.09-2.63-7-6,1.6,5.55,10.29,3.19,8.68-2.39a8.45,8.45,0,0,0-12.36-5.22c-5.44,3.18-5.74,10.34-2.41,15.14,3.89,5.59,12.41,8.14,18.53,10.25,6.29,2.17,11.72-.51,16.43-4.82,10.68-9.78.76-26.44-9.49-32.46C98.49,69.4,80.35,66.6,67.49,70.94c-11.91,4-21.22,15-19.42,28C50,112.85,63,125.12,74.29,132.32c6.61,4.21,14.84,6.9,22.4,8.76s15.1,1.79,22.39-1.53c7-3.21,13.56-8,19.45-13,5.56-4.69,11.39-10.07,14.26-16.9,3.25-7.76,1.12-16.59-1.62-24.2a59.61,59.61,0,0,0-12.66-20.63,81.06,81.06,0,0,0-9.47-9.1c-3.27-2.53-6.85-3.77-10.68-5.22-4.15-1.57-7.93-4-12.11-5.46s-8.48-2.51-12.72-3.71c-5.58-1.58-8,7.1-2.39,8.68Z"/><path class="o" d="M133.17,64.42c2.49,9.82,3.79,19.48,5.08,29.51.65,5.07-1,10-2.43,14.86A52.68,52.68,0,0,1,130.19,122c-4.79,7.76-12.74,17.39-22.7,16.71s-20.36-5.53-28.8-10.37c-3.91-2.24-7.44-4.71-9.84-8.61-2.61-4.25-3.67-9.32-4.66-14.14C61.91,94.52,62.64,84.86,65.77,74c2.63-9.13,8.51-19.53,19.53-18.44,9.78,1,16.44,9.08,20.26,17.44a63.84,63.84,0,0,1,5.06,16.58c1,6.4-.78,11.54-4.35,16.78-1.84,2.7-3.37,4.29-6.87,3.44-2.87-.7-5.46-2.18-6.4-5s-1-6.59-1.33-9.45-.54-6.17,1.74-8.53c-4,4.18,2.34,10.55,6.36,6.36a8.46,8.46,0,0,0-1.6-13.31c-5.66-3.27-12.24.39-14.55,6-2.56,6.16-.67,15.08.7,21.37,1.41,6.46,7.39,9.93,13.45,11.46,14.61,3.67,23.12-16.07,22-27.86-1.25-13.58-7.48-29.77-18.68-38.17-10.86-8.14-26-8.42-35.37,2.09-4.94,5.51-7.58,12.44-9.39,19.53-2,7.8-3.52,15.75-2.56,23.82,1.69,14.11,5,28.4,17.68,36.5a96.33,96.33,0,0,0,20.72,9.68c7,2.39,14.71,4.58,22.13,3s13.54-7.7,18.26-13.33A59.62,59.62,0,0,0,144,112.81c2.53-8.24,3.9-15.35,2.46-23.9-.78-4.65-.62-9.38-1.48-14-.8-4.33-2.07-8.6-3.15-12.87-1.42-5.61-10.1-3.23-8.68,2.39Z"/><path class="p" d="M141.75,107.92c-3.41,3.32-6.7,7-10.48,9.85s-7.94,5.56-11.73,8.66c-4.28,3.5-9.48,4.63-14.74,5.94a52,52,0,0,1-16.49,1.71c-10.06-.73-21-3.31-24.79-13.63a78.56,78.56,0,0,1-4.35-31.33c.74-10.6,8.62-17.38,16.34-23.72,8-6.61,18.51-10.41,28.77-12s20.48,2,22.55,13.11C128.59,76,123.56,85,117.62,92c-3.3,3.88-6.93,7.89-11.21,10.69-4.62,3-9.78,3.4-15.16,2.91-2.67-.25-4.48-.67-5.48-3.36-.79-2.12-1.33-6-.05-8s4.57-3.72,6.51-5.23c2.91-2.27,6.18-5.29,10.25-4.28-5.62-1.39-8,7.29-2.39,8.68,5.35,1.32,10.76-2.31,10.76-8.06,0-6.54-6.45-10.33-12.39-9.58-6.68.84-14,7.11-18.63,11.68s-4.41,11.38-2.73,17.15c3.89,13.37,23.59,12.08,33.22,6.23,11.2-6.8,22.16-20.2,25-33.12,2.73-12.23-1.7-26.09-13.8-31.33-13.28-5.76-31.3-.41-43.39,6.22-6.53,3.58-12.55,9-17.73,14.31-4.92,5.05-8.74,11-9.82,18-1.21,8-.35,16.32.93,24.21,1.18,7.26,2.81,15.26,7.08,21.42,9.21,13.28,31.52,14.22,45.74,11.15a76.64,76.64,0,0,0,14.09-4.09c3.59-1.55,6.32-4,9.32-6.43,3.44-2.81,7.39-4.88,10.78-7.76s6.41-6.09,9.57-9.16c4.16-4-2.21-10.41-6.36-6.36Z"/><circle class="q" cx="99.76" cy="93.58" r="15.5"/><path class="d" d="M46.4,150.59c-3.91,1.68-7.28,4.62-10.7,7.1l-11.25,8.15c-3.1,2.24-.11,7.45,3,5.18l11.25-8.15c3.43-2.48,6.79-5.42,10.7-7.1,3.54-1.52.49-6.69-3-5.18Z"/><path class="d" d="M145.32,36.84q7.53-7,14.68-14.33c2.69-2.77-1.55-7-4.24-4.24q-7.15,7.36-14.68,14.33c-2.84,2.63,1.41,6.86,4.24,4.24Z"/><path class="d" d="M157.1,55.6a171.6,171.6,0,0,1,32.58-21.16c3.45-1.73.42-6.91-3-5.18a178.23,178.23,0,0,0-33.8,22.1c-3,2.46,1.29,6.69,4.24,4.24Z"/><path class="d" d="M160.81,72.43l8.48-2.56c3.69-1.11,2.12-6.9-1.6-5.79l-8.48,2.56c-3.69,1.11-2.12,6.9,1.6,5.79Z"/><path class="d" d="M62.7,150.35q-25.06,38.56-47.11,79c-1.85,3.39,3.33,6.42,5.18,3q22-40.37,47.11-79c2.11-3.25-3.08-6.26-5.18-3Z"/><path class="d" d="M121,159q3.21,6.17,7,12c2.1,3.22,7.3.22,5.18-3q-3.79-5.82-7-12c-1.78-3.43-7-.4-5.18,3Z"/><path class="d" d="M136.4,155.6l4.92,4.59a3,3,0,0,0,4.24-4.24l-4.92-4.59a3,3,0,0,0-4.24,4.24Z"/><path class="d" d="M150,136a105.33,105.33,0,0,0,27.18,16c3.58,1.44,5.14-4.36,1.6-5.79a95.73,95.73,0,0,1-24.53-14.46c-3-2.41-7.24,1.81-4.24,4.24Z"/><path class="d" d="M58.78,45.72Q49.29,33.13,40.66,19.94c-2.11-3.22-7.3-.22-5.18,3Q44.11,36.16,53.6,48.75c2.29,3,7.51.06,5.18-3Z"/><path class="d" d="M46.13,51.37l-7.56-6.43a3.08,3.08,0,0,0-4.24,0,3,3,0,0,0,0,4.24l7.56,6.43a3.08,3.08,0,0,0,4.24,0,3,3,0,0,0,0-4.24Z"/><path class="d" d="M67.3,34.13c-2.4-4.76-4.65-9.59-6.72-14.51-1.47-3.51-7.28-2-5.79,1.6,2.27,5.4,4.69,10.71,7.32,15.94,1.74,3.45,6.91.42,5.18-3Z"/><path class="d" d="M38.16,98.92l-7.44,1.76c-3.76.89-2.17,6.68,1.6,5.79l7.44-1.76c3.76-.89,2.17-6.68-1.6-5.79Z"/><path class="d" d="M75.37,156.37a29.75,29.75,0,0,0-4.44,7.12A3.1,3.1,0,0,0,72,167.6c1.27.74,3.46.42,4.1-1.08a24.61,24.61,0,0,1,3.5-5.91,3.09,3.09,0,0,0,0-4.24,3,3,0,0,0-4.24,0Z"/><g class="b"><path class="r" d="M267.34,262.94a318.44,318.44,0,0,0-33.8,9.71c-6.31,2.2-5.37,11.55,1.6,11.79l56.78,1.93v-12c-21.12,1.57-42.4,3.27-62.73,9.58-6.41,2-5.3,11.7,1.6,11.79q27.58.34,55.1,2.3l-1.6-11.79L231.47,301c-3.35.93-6,5.66-3.59,8.81,6.21,8.11,15.45,7.73,24.82,7.79l35.37.21L286.48,306c-17.21,2.75-34.39,5.87-49.83,14.38-3.51,1.93-3.76,6.66-1.21,9.42,4.88,5.3,12.57,4.45,19.13,4.55l26.72.43L279.69,323q-20.23,2.95-40.44,6c-11.43,1.75-27.1,1.92-36.56,9.46-4.09,3.26-5.12,9.09-1.36,13.08s10.38,3.9,15.39,4.51a338.9,338.9,0,0,0,41.83,2.34c6.53,0,8.45-10.58,1.6-11.79-7.93-1.4-14.47,1.28-19.27,7.71-2.39,3.19.21,7.85,3.59,8.81a212.72,212.72,0,0,0,53.65,8.1c7.82.18,7.59-11.36,0-12a144.47,144.47,0,0,0-50.77,4.82c-6.57,1.82-5.17,11.65,1.6,11.79L305.82,377V365l-25-.06c-7.76,0-7.68,11.61,0,12a74.72,74.72,0,0,0,32.42-5.54c6.26-2.59,5.4-11.09-1.6-11.79L299,358.39l3,11.18a233.7,233.7,0,0,1,28.9-14.1c6.25-2.52,5.41-11.19-1.6-11.79a165.91,165.91,0,0,0-36.92,1.15l5.84,10L311,344.66c4.48-3.59.33-9.83-4.24-10.24a223.75,223.75,0,0,0-28.28-.74l3,11.18c7.44-3.6,14.91-7.16,22.33-10.81,5.7-2.81,9.85-6.29,10.55-12.9.37-3.49-3.07-5.65-6-6A154.1,154.1,0,0,0,289,314.06l3,11.18c4.79-2.59,9.64-5.11,14.39-7.78,3.68-2.07,7.32-5,7.73-9.5,1-11.43-14.84-10.54-22.16-10.36l4.24,10.24,3.73-4.2c3.65-4.1.95-9.72-4.24-10.24a232.69,232.69,0,0,0-42.28-.4l1.6,11.79,58.6-12.54c6.54-1.4,5.19-12.28-1.6-11.79a175.21,175.21,0,0,0-65.89,18c-4.45,2.22-3.29,7.89,0,10.36l10.16,7.64,2.9,2.18q1.47,1.87,1.21,0c-1.33-.75,1.57-1.33-.86,0-3.89,2.12-7.4,8-7,12.35.24,2.38,1.67,5.38,4.4,5.79L271.4,339l-3.59-8.81c-1.72,2.5-4.65,3.91-6.74,6.05a16.16,16.16,0,0,0-4.53,8.2c-1.17,6.39,3.07,11.56,9,13.33,6.82,2,14.88,1.45,21.94,1.89L313,361.18v-12c-10.68.53-21.33,1.44-31.94,2.8-5,.64-10.05,1.36-15.06,2.17-4.79.78-9.12.78-11.08,5.81-1,2.6.73,5.35,2.76,6.78,6.94,4.86,12.55-4.69,16-9,2.77-3.49,2-8.62-2.65-10a77.1,77.1,0,0,0-18-3.1l1.6,11.79c12.88-1.81,25.75-3.72,38.2-7.62a6.05,6.05,0,0,0,0-11.57,156,156,0,0,0-50.61-7.27l1.6,11.79q9.74-2.84,19.26-6.37a6.06,6.06,0,0,0,0-11.57,29.33,29.33,0,0,0-25,2.56c-4.76,2.83-3.22,9.18,1.43,11,6.84,2.63,18.35,3.79,22.8-3.37a5.93,5.93,0,0,0,0-6.06c-1.65-2.53-3.38-3.32-6.33-3.67-2-.24-4.23,1.31-5.18,3l-.29.5c-1.71,3-.37,8.26,3.59,8.81a67.11,67.11,0,0,0,39.48-6.11c5.14-2.5,2.88-9.25-1.43-11a57.8,57.8,0,0,0-41.74-.29c-4.88,1.85-6.47,10.51,0,11.57a23.37,23.37,0,0,0,13.23-1.15c2.8-1.15,4.73-3.38,4.3-6.58-.36-2.7-2.92-5.51-5.89-5.2l-34.56,3.58,1.6,11.79,22.76-3.57-5.84-10c-5.94,5.41-10.94,15.31-3,21.63,4.05,3.24,10,2.38,14.81,2.41l17.81.12,70.25.47-1.6-11.79-18.13,5.49,6.78,8.81a45.11,45.11,0,0,1,13.23-13.93c3.81-2.58,4.08-10.06-1.43-11-16.19-2.66-32.13-.63-48.22,1.72l3.19,11.57L343,327c5.66-1.05,5.79-10.62,0-11.57a269.35,269.35,0,0,0-44.95-3.62l1.6,11.79,32.7-4.58c5.86-.82,5.59-10.5,0-11.57l-17.43-3.34,4.19,7.38c3.28-17.16-26.13-5.72-33.24-4l-23.14,5.7c-6.74,1.66-14,2.84-19.76,6.94a6.13,6.13,0,0,0-1.21,9.42,38.38,38.38,0,0,0,23.38,13.33l1.6-11.79-39.36,5.25c-10.92,1.46-22.53,2.06-32.07,8.14-4.29,2.73-3.68,9.56,1.43,11a286,286,0,0,0,48.77,8.94l-5.18-9c-3.63,5.73-10.44,9-9.17,16.88s9,10.3,15.85,11.12a419,419,0,0,0,62.73,2.25c7.72-.25,7.73-11.73,0-12a230.79,230.79,0,0,0-64.7,6.94c-6.74,1.7-5,11.5,1.6,11.79a40.41,40.41,0,0,0,19.16-4l-8.21-8.21a8.85,8.85,0,0,0-1,6.8c.48,2.58,3.31,4.38,5.79,4.4a6.65,6.65,0,0,0,6.12-3.54,6.06,6.06,0,0,0-.94-7.27l-.32-.28c-5.81-5-14.33,3.41-8.49,8.49l.32.28-.94-7.27-.35.57,5.18-3h-.59l5.79,4.4-.2-1.07-.6,4.62.61-1.11c3.06-5.55-2.92-10.67-8.21-8.21a27.46,27.46,0,0,1-13.11,2.38l1.6,11.79a218.69,218.69,0,0,1,61.51-6.51v-12a454.8,454.8,0,0,1-47.09-.86q-5.87-.42-11.74-1c-1.43-.14-7.08,0-8-1.63.33.55-.59,1.35.63-.42a16.26,16.26,0,0,1,1.85-1.92,39.3,39.3,0,0,0,5.34-6.36c2.64-4.17-.92-8.62-5.18-9A267.45,267.45,0,0,1,200,343.91l1.43,11c8.67-5.53,20-5.7,29.95-7l35.42-4.73c3-.4,5.46-2,5.89-5.2.36-2.68-1.35-6.11-4.3-6.58a28.34,28.34,0,0,1-18.09-10.25l-1.21,9.42c3.91-2.78,8.44-3.65,13-4.78l16.39-4,15.42-3.8,8.68-2.14c1-.24,7.48-1.48,6.69-2.48l-1.54-5.84-.16.85c-.57,3,.81,6.73,4.19,7.38L329.18,319V307.43L296.48,312c-6.79,1-5,11.82,1.6,11.79A250.29,250.29,0,0,1,339.83,327V315.41l-43.38,8.08c-7.69,1.43-4.29,12.66,3.19,11.57,13.79-2,28-4,41.84-1.72l-1.43-11a59.26,59.26,0,0,0-17.54,18.24c-2.71,4.41,1.79,10.32,6.78,8.81l18.13-5.49c6.42-1.94,5.29-11.74-1.6-11.79l-52.44-.35-25.73-.17-12.86-.09c-1.06,0-4.24-.94-3.93.8-.26-1.44,2.74-3.53,3.62-4.34,4.87-4.44-.46-10.87-5.84-10l-22.76,3.57c-6.61,1-5.14,12.48,1.6,11.79L262,329.75,260.45,318a12.1,12.1,0,0,1-6.84,1.15v11.57A47.7,47.7,0,0,1,289,331l-1.43-11a52.75,52.75,0,0,1-30.23,4.9l3.59,8.81.29-.5-5.18,3,.75.09-5.18-3,.4.61v-6.06c.92-1.49-2.85-.62-3.82-.7a20.12,20.12,0,0,1-5.43-1.44l1.43,11a17.61,17.61,0,0,1,15.72-1.35V323.76q-9.52,3.53-19.26,6.37c-6.38,1.86-5.32,11.93,1.6,11.79a145.32,145.32,0,0,1,47.42,6.85V337.19c-12.45,3.9-25.31,5.81-38.2,7.62-7,1-4.79,11.43,1.6,11.79a63.09,63.09,0,0,1,14.83,2.68l-2.65-10-3.07,3.87-1.23,1.55q-2.21,2.05,2.85,1.73l2.76,6.78.18-.47-4.19,4.19a403.11,403.11,0,0,1,50.51-5.7c7.74-.39,7.71-11.53,0-12l-34.37-2.09c-2.5-.15-5.05-.16-7.54-.47-1.92-.24-3.08.32-2.08-1.41.87-1.5,3-2.63,4.34-3.71a24.75,24.75,0,0,0,4.78-5.28c2-2.93.13-8.26-3.59-8.81l-14.4-2.14,4.4,5.79c-.13-1.28.16-.43-.19-.19a16.24,16.24,0,0,0,1.14-1.29c1.07-1,2.18-2,3.16-3.07,2.19-2.41,3.81-5.24,3.61-8.58-.25-4.19-3.22-6.7-6.33-9.06-4.58-3.47-9.19-6.91-13.79-10.36v10.36A159.84,159.84,0,0,1,312,292.46l-1.6-11.79-58.6,12.54c-6.53,1.4-5.2,12.34,1.6,11.79a232.69,232.69,0,0,1,42.28.4l-4.24-10.24-3.73,4.2c-3.31,3.72-1.22,10.38,4.24,10.24,2.64-.06,5.27-.07,7.9.09a21.85,21.85,0,0,0,3.56.31l-1.23-4q-.91.56-1.86,1.06c-4.76,2.65-9.6,5.19-14.39,7.78-5.28,2.86-2.82,11.22,3,11.18a154.1,154.1,0,0,1,19.38,1.09l-6-6c-.17,1.62-10.49,5.38-11.75,6l-15.19,7.35c-5.4,2.61-2.74,11.39,3,11.18a223.75,223.75,0,0,1,28.28.74l-4.24-10.24-12.72,10.19c-5.3,4.25.76,10.73,5.84,10a152.39,152.39,0,0,1,33.73-.72l-1.6-11.79A256,256,0,0,0,296,359.21c-5.55,3.18-2.57,10.63,3,11.18l12.68,1.26-1.6-11.79A66.55,66.55,0,0,1,280.87,365v12l25,.06c7.73,0,7.72-11.84,0-12l-56.89-1.18,1.6,11.79a134.62,134.62,0,0,1,47.58-4.39v-12a199.42,199.42,0,0,1-50.46-7.67l3.59,8.81a6,6,0,0,1,5.72-2.19l1.6-11.79c-10.4,0-20.8-.34-31.16-1.24q-3.88-.34-7.76-.77c-2.37-.26-5.76-1.37-8.08-1l-1.2-.24.16,4.46a35,35,0,0,0,3.26-1.53,47.71,47.71,0,0,1,7.49-2.08c20.25-4.26,41.14-6.48,61.61-9.47,6.86-1,4.94-11.68-1.6-11.79l-20.78-.34-9.9-.16c-1.79,0-5.31.52-6.69-1l-1.21,9.42c14.45-8,30.87-10.6,47-13.17,6.81-1.09,5-11.75-1.6-11.79l-27.51-.16c-4.58,0-9.17,0-13.75-.08-2.37,0-6.91.35-8.56-1.81l-3.59,8.81,52.82-14.71c6.75-1.88,5-11.32-1.6-11.79q-27.52-2-55.1-2.3l1.6,11.79c19.34-6,39.44-7.66,59.54-9.16,7.64-.57,7.8-11.73,0-12l-56.78-1.93,1.6,11.79a318.44,318.44,0,0,1,33.8-9.71c7.53-1.72,4.34-13.29-3.19-11.57Z"/></g></svg>