<svg xmlns="http://www.w3.org/2000/svg" viewBox="0 0 200 400"><defs><style>.a{opacity:0.35;}.b{fill:#00b89d;}.c{fill:#0071bc;}.d{fill:#007ebc;}.e{fill:#22b573;}.f{fill:#fcee21;}.g,.h{fill:#f2f2f2;}.g{stroke:#ccc;stroke-miterlimit:10;}.i{fill:#ccc;}.j{fill:#c1272d;}.k{fill:#f7931e;}.l{fill:#fbb03b;}.m{opacity:0.3;}.n{fill:#d5b8a1;}</style></defs><title>a</title><g class="a"><path class="b" d="M-28.54,181.84a165.88,165.88,0,0,1,16.29-7.75c4.75-1.93,6-8,1.43-11-7.49-4.89-18-3.73-26.52-4.1l-30.37-1.31,1.6,11.79L-29,163.2c9.67-1.64,21.51-1.81,28.95-9.05a6.07,6.07,0,0,0,0-8.49c-6.43-6.13-15.46-5.17-23.7-5.25l-31.69-.31,1.6,11.79L-16,139.63c6.32-2,5.37-11.76-1.6-11.79a467.69,467.69,0,0,0-66.47,4.64c-6.64.93-5.14,12.38,1.6,11.79A249.45,249.45,0,0,0-20,130.65a6,6,0,0,0-1.6-11.79c-26.38-1.84-53-3.36-79,3-6.55,1.61-5.19,11.94,1.6,11.79A159.66,159.66,0,0,0-38.07,120c6.15-2.7,2-10.56-3-11.18a187.91,187.91,0,0,0-33.06-1.14l1.6,11.79A70.2,70.2,0,0,0-42.9,104.57c3.59-3,1.38-8.86-2.65-10-14.71-4.28-29.77-1.85-44.52.87L-86.88,107a113.4,113.4,0,0,0,30-17.16c3.63-2.87,1.36-9-2.65-10-18.26-4.78-36.9-2.93-55.38-.69l1.6,11.79c14.72-4.25,29.37-8.68,43.09-15.6,5.12-2.58,2.91-11.83-3-11.18l-52.35,5.72,1.6,11.79,45.88-15.77c6.32-2.17,5.37-11.58-1.6-11.79a179.56,179.56,0,0,0-60.26,8.53c-6.12,2-5.47,12.37,1.6,11.79A245.71,245.71,0,0,0-98,67.67C-91.37,66-92.91,56-99.61,55.89A241.06,241.06,0,0,0-146,59.54l3.19,11.57A123.22,123.22,0,0,0-111,59.94c5.56-2.83,2.59-11-3-11.18a204.53,204.53,0,0,0-47.19,3.84c-7.59,1.5-4.35,13,3.19,11.57a451.82,451.82,0,0,0,52.65-13.1c6.33-2,5.36-11.84-1.6-11.79A164.64,164.64,0,0,0-163.1,49.56c-7.18,2.67-4.45,13.23,3.19,11.57a344.18,344.18,0,0,1,92-7.23l-1.6-11.79a109.74,109.74,0,0,0-30.74,19.18c-3.87,3.43-.82,10.44,4.24,10.24A465.13,465.13,0,0,0-40.53,66c6.61-1.06,5.14-12.54-1.6-11.79a347.41,347.41,0,0,0-70.74,15.36,6.08,6.08,0,0,0-1.43,11c6.27,4,13.51,4.76,20.8,4.64,5.91-.1,12.25-.92,17.9,1.31,6,2.37,6.21,9.29,11.47,12.6,3.27,2.06,7.6,2.8,11.25,3.85l13.36,3.82V95.15l-29.68,11a6.11,6.11,0,0,0-3.59,8.81c3.62,7.36,12.87,7,19.87,7.68l29.55,2.74L-25,113.59l-14.69,5.87C-43.32,120.93-48,122-51,124.65c-2.81,2.45-4,6.12-2.3,9.6,1.87,3.93,7,5.94,10.54,8.07L-44,132.9c-8,6.34-8.86,17.92-5,26.81,4.62,10.67,15.51,16.37,25.53,21l1.43-11a2.63,2.63,0,0,1-2.77.27c-6.93-3.33-13,7-6.06,10.36,4,1.9,7.81,2.51,12,.94s6.56-8.59,1.43-11c-6.91-3.21-15-6.63-19.42-13.23-3.32-5-3.63-11.84,1.33-15.75,3.13-2.48,1.77-7.62-1.21-9.42-.77-.46-6-4.32-6.61-4l-.08,5.91,1.46-.63c1.29.07,3.43-1.37,4.59-1.84l15.61-6.24c6.3-2.52,5.36-11.14-1.6-11.79l-21.92-2-10.49-1c-1.67-.16-5.86.13-6.65-1.47L-66,117.71l29.68-11c5.35-2,6-9.85,0-11.57l-13.36-3.82c-3.21-.92-7.19-1.11-9.07-3.95-1.77-2.66-2.56-5.23-5-7.5a23.34,23.34,0,0,0-7.43-4.53c-5.56-2.19-11.64-2.52-17.55-2.35-6.69.19-13.61.93-19.49-2.86l-1.43,11A332.48,332.48,0,0,1-42.12,66.17l-1.6-11.79A438.31,438.31,0,0,1-96,59.53l4.24,10.24A92.35,92.35,0,0,1-66.35,53.68c6-2.53,5.58-11.39-1.6-11.79a356.52,356.52,0,0,0-95.16,7.66l3.19,11.57a154.73,154.73,0,0,1,53-9.84l-1.6-11.79a451.82,451.82,0,0,1-52.65,13.1L-158,64.18a190.42,190.42,0,0,1,44-3.41l-3-11.18a111.7,111.7,0,0,1-29,10c-7.62,1.52-4.33,12.89,3.19,11.57a224.44,224.44,0,0,1,43.2-3.22l-1.6-11.79a226.12,226.12,0,0,1-37.14,6.28l1.6,11.79a169.08,169.08,0,0,1,57.07-8.1l-1.6-11.79-45.88,15.77c-6,2.05-5.54,12.57,1.6,11.79l52.35-5.72-3-11.18C-89,71.38-102.77,75.37-116.47,79.32c-6.22,1.8-5.35,12.63,1.6,11.79,17.33-2.1,35.06-4.22,52.19.26l-2.65-10A94.67,94.67,0,0,1-90.07,95.41,6,6,0,0,0-86.88,107c12.63-2.33,25.55-4.53,38.14-.87l-2.65-10a57.33,57.33,0,0,1-24.37,11.85c-6.53,1.49-5.2,12.15,1.6,11.79a187.91,187.91,0,0,1,33.06,1.14l-3-11.18a144.37,144.37,0,0,1-54.79,12l1.6,11.79c24.84-6.09,50.52-4.34,75.78-2.57l-1.6-11.79a237.13,237.13,0,0,1-59.32,13.19l1.6,11.79a445.68,445.68,0,0,1,63.28-4.21l-1.6-11.79L-57,140.32c-6.34,2.05-5.35,11.72,1.6,11.79l25.75.25,11.88.12c2.89,0,7-.49,9.27,1.68v-8.49c-2.86,2.79-7.18,3.16-11,3.81l-16.61,2.82-33.21,5.64c-6.93,1.18-4.87,11.51,1.6,11.79l26.45,1.14,12.73.55c4,.17,8.21-.16,11.65,2.08l1.43-11a194.28,194.28,0,0,0-19.16,9c-6.8,3.67-.75,14,6.06,10.36Z"/></g><path class="c" d="M101,17C49,17,6.41,9.52,2.33,0H0V400H200V0h-.33C195.59,9.52,153,17,101,17Z"/><g class="a"><path class="d" d="M147.83,191.16a188.16,188.16,0,0,1,32-7.28c6.87-.94,4.93-11.66-1.6-11.79l-51.1-1v12l39-4.1c7.72-.81,7.7-11.15,0-12a87.12,87.12,0,0,0-27.69,1.47c-6.5,1.36-5.17,12.67,1.6,11.79A277.19,277.19,0,0,0,193.34,168c5-1.71,6.34-10.59,0-11.57a191.26,191.26,0,0,0-54-.9v12a91.09,91.09,0,0,0,22.25-5.64c7-2.8,4.41-13.82-3.19-11.57a91.64,91.64,0,0,1-33.52,3.47l1.6,11.79a163.71,163.71,0,0,1,44.27-9.08c7.65-.47,7.77-12.3,0-12L100,147.26,101.6,159l31.52-6.51L129.93,141l-21.56,5.33,3.19,11.57,26.75-9.26c6-2.07,5.55-12.49-1.6-11.79q-23.36,2.31-46.54,6l3.19,11.57,35.38-12.6c6.31-2.25,5.37-11.48-1.6-11.79a196.12,196.12,0,0,0-46.29,3.56l3.19,11.57,40.8-11.69c6.45-1.85,5.26-11.81-1.6-11.79q-31.05.11-62,2.79l1.6,11.79,65.2-19c6.39-1.86,5.31-11.93-1.6-11.79l-34,.69L94,118a83.86,83.86,0,0,0,20.74-9.88c4.85-3.21,3.14-11.13-3-11.18A132.91,132.91,0,0,0,93.51,98l3,11.18C106.8,103.86,117,98.46,126.63,92c4.72-3.19,3.24-11.26-3-11.18l-65.78.88,1.6,11.79,95.91-21.93c6.92-1.58,4.86-11.32-1.6-11.79C128.29,57.91,103,61.86,78,66c-7.61,1.27-4.37,12.81,3.19,11.57l62.64-10.25c6.6-1.08,5.13-12.62-1.6-11.79A184.37,184.37,0,0,0,117,60.43L120.15,72a298.59,298.59,0,0,1,40.27-11.16l-3.19-11.57q-27.74,7.83-55,17.13c-7.28,2.48-4.39,13.33,3.19,11.57a672.25,672.25,0,0,1,100.36-15.5v-12q-45.54,5.3-90.57,14c-7.6,1.48-4.35,13,3.19,11.57,18.84-3.45,37.73-6.68,56.95-5.11l-3-11.18L137.06,76.22c-6,2.78-2.23,10.66,3,11.18l13.61,1.35-4.24-10.24c-3.16,4-8.4,4.91-12.4,7.79-4.37,3.15-7.06,7.27-7.25,12.71a6,6,0,0,0,6,6q21.44-1.33,42.82-3.47L174.39,91.3c-4.51,4.23-10.77,5.76-16.35,8-6.14,2.52-11.18,5.62-15.1,11.09-1.75,2.43-.62,7,2.15,8.21l4.6,2V110.31a13.26,13.26,0,0,1-6,1.14L148,121.69c7.22-8,16.78-12.68,26.29-17.39,7.65-3.8,23.8-9.36,22.86-20.1-.45-5.21-5-8.08-9.83-8.59-6.22-.66-12.78,0-19,.06L126,76.14l1.6,11.79A291.21,291.21,0,0,0,160.15,72c5.62-3.21,2.5-10.54-3-11.18-17.52-2-35.1-1.14-52.66-.16l3,11.18,28.27-13.21c7-3.27,18.05-6.2,19.68-15,.72-3.89-1.64-7.46-5.79-7.6q-20.25-.67-40.5.07l3,11.18a286.31,286.31,0,0,1,38.31-14c7.42-2.14,4.32-13.44-3.19-11.57L118.15,29c-6.71,1.67-5.05,11.56,1.6,11.79l9.31.31-3-11.18a41,41,0,0,0-14.78,14.88c-2.2,3.79.56,9.25,5.18,9a230.22,230.22,0,0,0,46.84-7.13l-7.38-7.38a86.14,86.14,0,0,1-18.43,31c-7.71,8.27-16.15,15.43-20,26.41-1.18,3.34,2,8.1,5.79,7.6l49.06-6.54-1.6-11.79c-15,4.65-30.1,9.51-43.37,18.12-4.76,3.09-3.21,11.4,3,11.18l43-1.49-4.24-10.24c-6.07,5.08-13.25,11.53-17,18.65-1.62,3.09-2.14,6.91-.07,10,2.27,3.34,6,3.8,9.75,4.1,17.33,1.4,35-2.37,51.76,3.54V128.17a287.91,287.91,0,0,1-67,18.42l5.84,10a162.09,162.09,0,0,0,16.9-21.24c2.54-3.81-.82-9.1-5.18-9-15.75.26-31.5.45-47.19-1.13l3,11.18c9.86-5,19.88-9.57,30.1-13.74,6-2.45,5.61-11.56-1.6-11.79l-30.66-1,3,11.18A186.22,186.22,0,0,1,171.3,96.74c6.44-2,5.28-11.67-1.6-11.79-8.7-.15-13,8-14.27,15.57-.49,2.9.74,6.85,4.19,7.38a66.5,66.5,0,0,0,19.63.14c3.24-.44,4.94-4.55,4.19-7.38-.92-3.47-4.19-4.63-7.38-4.19a46.47,46.47,0,0,1-13.25-.14l4.19,7.38c.25-1.47,1-6.79,2.7-6.76l-1.6-11.79a197.1,197.1,0,0,0-53.29,25.55c-4.86,3.32-3.14,11,3,11.18l30.66,1-1.6-11.79c-11.18,4.57-22.17,9.53-33,15-5.83,2.93-2.34,10.64,3,11.18,15.69,1.58,31.45,1.4,47.19,1.13l-5.18-9a143.37,143.37,0,0,1-15,18.81c-4.42,4.68.15,10.87,5.84,10a287.91,287.91,0,0,0,67-18.42c5.43-2.23,5.91-9.49,0-11.57-12.47-4.39-25.66-4.05-38.7-3.78-3,.06-6,.12-9,.09-1.58,0-3.86-.42-5.4-.17l-1.79-.11q.95,4.76,2.49,1.37c2-1.17,4.06-4.86,5.74-6.61a95.24,95.24,0,0,1,7.55-7c4-3.36.72-10.41-4.24-10.24l-43,1.49,3,11.18c12.44-8.08,26.44-12.56,40.5-16.91,6.12-1.9,5.4-12.72-1.6-11.79l-49.06,6.54,5.79,7.6c3.75-10.63,14.35-17.56,21.25-26.07a101.22,101.22,0,0,0,17.2-31.32C169,38,164.27,34,160.07,35.08a214,214,0,0,1-43.65,6.7l5.18,9a28.59,28.59,0,0,1,10.48-10.57c5.23-3.09,2.85-11-3-11.18l-9.31-.31,1.6,11.79,29.17-7.25-3.19-11.57a308,308,0,0,0-41.17,15.23c-5.51,2.49-2.65,11.39,3,11.18q20.25-.73,40.5-.07l-5.79-7.6c-.45,2.44-6,4-8,5l-11.49,5.37-23,10.73C96,64,98.7,73,104.47,72.69c17.56-1,35.14-1.86,52.66.16l-3-11.18a266.66,266.66,0,0,1-29.67,14.68c-5.81,2.42-5.75,11.87,1.6,11.79l33.41-.37,16.7-.18c2.65,0,6.25.52,8.84-.1.22-.05,1.78.25,1.87.15l-1.54-3.38a6.81,6.81,0,0,1-1.63,1.29c-14.39,10.2-32,14.15-44.18,27.66-3.43,3.79-1.13,10.21,4.24,10.24a27.16,27.16,0,0,0,12-2.78c3.87-1.8,4-8.6,0-10.36l-4.6-2,2.15,8.21c3.19-4.45,9.21-6.07,14.06-7.93,5.68-2.19,11-4.56,15.51-8.77,3.56-3.34,1-10.77-4.24-10.24Q157.25,91.67,135.81,93l6,6c.11-3.12,5.32-4.68,7.62-5.78A23.32,23.32,0,0,0,157.94,87c3.36-4.21,1.16-9.71-4.24-10.24L140.09,75.4l3,11.18,35.23-16.46c5.88-2.75,2.3-10.75-3-11.18-20.24-1.65-40.3,1.91-60.14,5.54l3.19,11.57q43.42-8.44,87.38-13.6c7.5-.87,7.81-12.61,0-12A693.92,693.92,0,0,0,102.2,66.39L105.39,78q27.28-9.29,55-17.13c7.49-2.12,4.33-13.1-3.19-11.57A298.59,298.59,0,0,0,117,60.43C109.77,63,112.59,74,120.15,72a161.75,161.75,0,0,1,22.08-4.41l-1.6-11.79L78,66l3.19,11.57c24-4,48.14-7.63,72.55-5.89l-1.6-11.79L56.23,81.87c-6.62,1.51-5.14,11.88,1.6,11.79l65.78-.88-3-11.18c-9.6,6.49-19.83,11.9-30.1,17.25-5,2.61-3,12,3,11.18a132.91,132.91,0,0,1,18.24-1.11l-3-11.18a72,72,0,0,1-17.87,8.67c-6.26,2-5.41,11.93,1.6,11.79l34-.69-1.6-11.79-65.2,19c-6.25,1.82-5.37,12.39,1.6,11.79q30.94-2.68,62-2.79l-1.6-11.79L80.86,133.6c-7.5,2.15-4.32,13,3.19,11.57a182.37,182.37,0,0,1,43.1-3.13l-1.6-11.79-35.38,12.6c-7.37,2.62-4.38,12.78,3.19,11.57q21.59-3.46,43.35-5.6L135.12,137l-26.75,9.26c-7.24,2.51-4.38,13.45,3.19,11.57l21.56-5.33c7.54-1.87,4.33-13.12-3.19-11.57l-31.52,6.51c-6.62,1.37-5.14,12,1.6,11.79l70.7-2.73v-12A175.57,175.57,0,0,0,123.24,154a6,6,0,0,0,1.6,11.79,101.31,101.31,0,0,0,36.71-3.9l-3.19-11.57a79.34,79.34,0,0,1-19.06,5.21c-3.24.43-6,2.45-6,6,0,2.92,2.79,6.41,6,6a180.72,180.72,0,0,1,50.84.47V156.45A261.77,261.77,0,0,1,140,168.28l1.6,11.79a77,77,0,0,1,24.5-1V167l-39,4.1c-7.52.79-7.89,11.85,0,12l51.1,1-1.6-11.79a188.16,188.16,0,0,0-32,7.28c-7.32,2.35-4.19,13.94,3.19,11.57Z"/><path class="d" d="M166.07,68.41q2.92.13,2-3.54Q166.94,66,165.68,67c-1.92,1.65-3.89,3.24-5.87,4.81-4.06,3.22-8.27,6.24-12.55,9.17s-3.44,12,3,11.18l57.39-6.92-1.6-11.79a386.21,386.21,0,0,0-43.27,15c-7.16,3-4.51,12.7,3.19,11.57l63.86-9.34-3.19-11.57c-14.56,3.8-29.58,6.87-43.89,11.52-5,1.61-9.71,4.13-12.17,8.94-2.87,5.61,1.17,12.48-2.69,17.27-3.22,4-8,7.13-9.17,12.5-1.28,6.08,3.09,10.76,8.79,11.92,7,1.42,14.94.38,22,.36l23.83,0-1.6-11.79-38.68,8.57,4.62,11,5.1-2.92c5-2.83,3-11.62-3-11.18a101.09,101.09,0,0,0-31,7.06c-7,2.83-4.27,14.13,3.19,11.57l11-3.77c6.2-2.12,5.46-11.83-1.6-11.79q-15.31.1-30.62,0c-1.2,0-11.95-1.11-12.63-.15q.85,4.64,3.32,2,1.46-.92,3-1.79,3-1.73,6.08-3.26c16.14-8,34.07-11.79,51.57-15.51,5.81-1.23,5.63-10.23,0-11.57a13.24,13.24,0,0,0-11.26,1.9c-4.84,3.45-3.15,10.82,3,11.18q15.43.9,30.87.52l-6-6-.29,4.9c-.25,4.22,4,6.4,7.6,5.79A55.29,55.29,0,0,0,230.9,115c4-3.15.7-10.67-4.24-10.24l-59.36,5.13,4.24,10.24c11.43-10,26.24-14.52,40.51-18.88,6.16-1.88,5.41-12.56-1.6-11.79a516,516,0,0,0-56.81,9.42l3.19,11.57L212.5,89.25c4.8-1.82,6.53-10.68,0-11.57-13.08-1.79-26.06-1.39-39.2-.67l5.18,9a53.38,53.38,0,0,1,13.33-15c4.42-3.36,3.46-11.22-3-11.18a99.58,99.58,0,0,0-23.4,3l6.78,8.81A26.14,26.14,0,0,1,181.93,63c4.79-2.54,3.24-9.44-1.43-11-5-1.64-9.6-1-14.37,1-6.26,2.69-1.79,13,4.62,11l13.81-4.33c6.79-2.13,4.94-11-1.6-11.79A176.33,176.33,0,0,0,134.1,49.4c-7.6,1.26-4.38,12.82,3.19,11.57A165.32,165.32,0,0,1,183,60l-1.6-11.79-13.81,4.33,4.62,11c1.82-.78,3.35-.42,5.13.16l-1.43-11a38.77,38.77,0,0,0-14.08,12.84c-3.07,4.52,2,10,6.78,8.81a85.28,85.28,0,0,1,20.21-2.53l-3-11.18A68.76,68.76,0,0,0,168.11,80c-2.27,3.75.62,9.28,5.18,9,12-.65,24.1-1.39,36,.24V77.68L153.64,98.85c-7.13,2.71-4.47,13.29,3.19,11.57a487.16,487.16,0,0,1,53.62-9l-1.6-11.79c-16.39,5-32.7,10.48-45.8,22-3.76,3.3-.89,10.69,4.24,10.24l59.36-5.13-4.24-10.24a43.27,43.27,0,0,1-19.54,8.28l7.6,5.79.29-4.9c.19-3.18-2.9-6.08-6-6q-15.45.38-30.87-.52l3,11.18a1.53,1.53,0,0,1,2-.69V108.05c-11.91,2.53-23.85,5.14-35.42,9-10.62,3.53-22.57,7.94-31.35,15.09-3.89,3.17-6.27,8.37-3.48,13.09,2.65,4.51,7.85,4.94,12.56,5,13.4.19,26.8.16,40.19.08l-1.6-11.79-11,3.77L152,153.86a91,91,0,0,1,27.8-6.63l-3-11.18-5.1,2.92c-6.06,3.46-1.9,12.41,4.62,11L215,141.36c6.68-1.48,5.1-11.8-1.6-11.79l-36.74.07c-.92,0-6.94-.62-7.21-.24l1.27,2.11a7.94,7.94,0,0,1,1.07-1.38,24.17,24.17,0,0,0,1.84-1.94c3-3,6-6.17,7.32-10.33a18.59,18.59,0,0,0,.55-7.1c-.18-2-1.07-4.76.26-6.46,2.23-2.86,9.22-3.47,12.38-4.3l35.71-9.32c7.67-2,4.24-12.66-3.19-11.57l-63.86,9.34L166,100a386.21,386.21,0,0,1,43.27-15c6.26-1.76,5.33-12.62-1.6-11.79l-57.39,6.92,3,11.18q6.9-4.73,13.48-9.87c4-3.16,9.48-6.44,11.89-11.09,2.05-4,.78-8.42-2.37-11.36-3.74-3.48-8.79-3.08-13.44-2.19-7.57,1.46-4.37,13,3.19,11.57Z"/><path class="d" d="M29.34,262.94a318.44,318.44,0,0,0-33.8,9.71c-6.31,2.2-5.37,11.55,1.6,11.79l56.78,1.93v-12c-21.12,1.57-42.4,3.27-62.73,9.58-6.41,2-5.3,11.7,1.6,11.79q27.58.34,55.1,2.3l-1.6-11.79L-6.53,301c-3.35.93-6,5.66-3.59,8.81,6.21,8.11,15.45,7.73,24.82,7.79l35.37.21L48.48,306c-17.21,2.75-34.39,5.87-49.83,14.38-3.51,1.93-3.76,6.66-1.21,9.42,4.88,5.3,12.57,4.45,19.13,4.55l26.72.43L41.69,323q-20.23,2.95-40.44,6c-11.43,1.75-27.1,1.92-36.56,9.46-4.09,3.26-5.12,9.09-1.36,13.08s10.38,3.9,15.39,4.51a338.9,338.9,0,0,0,41.83,2.34c6.53,0,8.45-10.58,1.6-11.79-7.93-1.4-14.47,1.28-19.27,7.71-2.39,3.19.21,7.85,3.59,8.81a212.72,212.72,0,0,0,53.65,8.1c7.82.18,7.59-11.36,0-12a144.47,144.47,0,0,0-50.77,4.82c-6.57,1.82-5.17,11.65,1.6,11.79L67.82,377V365l-25-.06c-7.76,0-7.68,11.61,0,12a74.72,74.72,0,0,0,32.42-5.54c6.26-2.59,5.4-11.09-1.6-11.79L61,358.39l3,11.18a233.7,233.7,0,0,1,28.9-14.1c6.25-2.52,5.41-11.19-1.6-11.79a165.91,165.91,0,0,0-36.92,1.15l5.84,10L73,344.66c4.48-3.59.33-9.83-4.24-10.24a223.75,223.75,0,0,0-28.28-.74l3,11.18c7.44-3.6,14.91-7.16,22.33-10.81,5.7-2.81,9.85-6.29,10.55-12.9.37-3.49-3.07-5.65-6-6A154.1,154.1,0,0,0,51,314.06l3,11.18c4.79-2.59,9.64-5.11,14.39-7.78,3.68-2.07,7.32-5,7.73-9.5,1-11.43-14.84-10.54-22.16-10.36l4.24,10.24,3.73-4.2c3.65-4.1.95-9.72-4.24-10.24a232.69,232.69,0,0,0-42.28-.4L17,304.78l58.6-12.54c6.54-1.4,5.19-12.28-1.6-11.79a175.21,175.21,0,0,0-65.89,18c-4.45,2.22-3.29,7.89,0,10.36l10.16,7.64,2.9,2.18q1.47,1.87,1.21,0c-1.33-.75,1.57-1.33-.86,0-3.89,2.12-7.4,8-7,12.35.24,2.38,1.67,5.38,4.4,5.79L33.4,339l-3.59-8.81c-1.72,2.5-4.65,3.91-6.74,6.05a16.16,16.16,0,0,0-4.53,8.2c-1.17,6.39,3.07,11.56,9,13.33,6.82,2,14.88,1.45,21.94,1.89L75,361.18v-12c-10.68.53-21.33,1.44-31.94,2.8-5,.64-10.05,1.36-15.06,2.17-4.79.78-9.12.78-11.08,5.81-1,2.6.73,5.35,2.76,6.78,6.94,4.86,12.55-4.69,16-9,2.77-3.49,2-8.62-2.65-10a77.1,77.1,0,0,0-18-3.1l1.6,11.79c12.88-1.81,25.75-3.72,38.2-7.62a6.05,6.05,0,0,0,0-11.57,156,156,0,0,0-50.61-7.27L5.8,341.7q9.74-2.84,19.26-6.37a6.06,6.06,0,0,0,0-11.57,29.33,29.33,0,0,0-25,2.56c-4.76,2.83-3.22,9.18,1.43,11,6.84,2.63,18.35,3.79,22.8-3.37a5.93,5.93,0,0,0,0-6.06c-1.65-2.53-3.38-3.32-6.33-3.67-2-.24-4.23,1.31-5.18,3l-.29.5c-1.71,3-.37,8.26,3.59,8.81a67.11,67.11,0,0,0,39.48-6.11c5.14-2.5,2.88-9.25-1.43-11a57.8,57.8,0,0,0-41.74-.29c-4.88,1.85-6.47,10.51,0,11.57a23.37,23.37,0,0,0,13.23-1.15c2.8-1.15,4.73-3.38,4.3-6.58-.36-2.7-2.92-5.51-5.89-5.2l-34.56,3.58,1.6,11.79,22.76-3.57L8,319.51c-5.94,5.41-10.94,15.31-3,21.63,4.05,3.24,10,2.38,14.81,2.41l17.81.12,70.25.47-1.6-11.79L88.1,337.85l6.78,8.81a45.11,45.11,0,0,1,13.23-13.93c3.81-2.58,4.08-10.06-1.43-11-16.19-2.66-32.13-.63-48.22,1.72l3.19,11.57L105,327c5.66-1.05,5.79-10.62,0-11.57a269.35,269.35,0,0,0-44.95-3.62l1.6,11.79L94.37,319c5.86-.82,5.59-10.5,0-11.57l-17.43-3.34,4.19,7.38c3.28-17.16-26.13-5.72-33.24-4l-23.14,5.7C18,314.87,10.77,316,5,320.15a6.13,6.13,0,0,0-1.21,9.42,38.38,38.38,0,0,0,23.38,13.33l1.6-11.79-39.36,5.25c-10.92,1.46-22.53,2.06-32.07,8.14-4.29,2.73-3.68,9.56,1.43,11a286,286,0,0,0,48.77,8.94l-5.18-9c-3.63,5.73-10.44,9-9.17,16.88s9,10.3,15.85,11.12a419,419,0,0,0,62.73,2.25c7.72-.25,7.73-11.73,0-12a230.79,230.79,0,0,0-64.7,6.94c-6.74,1.7-5,11.5,1.6,11.79a40.41,40.41,0,0,0,19.16-4l-8.21-8.21a8.85,8.85,0,0,0-1,6.8c.48,2.58,3.31,4.38,5.79,4.4a6.65,6.65,0,0,0,6.12-3.54,6.06,6.06,0,0,0-.94-7.27l-.32-.28c-5.81-5-14.33,3.41-8.49,8.49l.32.28-.94-7.27-.35.57,5.18-3h-.59l5.79,4.4-.2-1.07-.6,4.62.61-1.11c3.06-5.55-2.92-10.67-8.21-8.21a27.46,27.46,0,0,1-13.11,2.38l1.6,11.79a218.69,218.69,0,0,1,61.51-6.51v-12a454.8,454.8,0,0,1-47.09-.86q-5.87-.42-11.74-1c-1.43-.14-7.08,0-8-1.63.33.55-.59,1.35.63-.42a16.26,16.26,0,0,1,1.85-1.92,39.3,39.3,0,0,0,5.34-6.36c2.64-4.17-.92-8.62-5.18-9A267.45,267.45,0,0,1-38,343.91l1.43,11c8.67-5.53,20-5.7,29.95-7l35.42-4.73c3-.4,5.46-2,5.89-5.2.36-2.68-1.35-6.11-4.3-6.58a28.34,28.34,0,0,1-18.09-10.25l-1.21,9.42c3.91-2.78,8.44-3.65,13-4.78l16.39-4,15.42-3.8,8.68-2.14c1-.24,7.48-1.48,6.69-2.48l-1.54-5.84-.16.85c-.57,3,.81,6.73,4.19,7.38L91.18,319V307.43L58.48,312c-6.79,1-5,11.82,1.6,11.79A250.29,250.29,0,0,1,101.83,327V315.41l-43.38,8.08c-7.69,1.43-4.29,12.66,3.19,11.57,13.79-2,28-4,41.84-1.72l-1.43-11a59.26,59.26,0,0,0-17.54,18.24c-2.71,4.41,1.79,10.32,6.78,8.81l18.13-5.49c6.42-1.94,5.29-11.74-1.6-11.79l-52.44-.35-25.73-.17-12.86-.09c-1.06,0-4.24-.94-3.93.8-.26-1.44,2.74-3.53,3.62-4.34,4.87-4.44-.46-10.87-5.84-10l-22.76,3.57c-6.61,1-5.14,12.48,1.6,11.79L24,329.75,22.45,318a12.1,12.1,0,0,1-6.84,1.15v11.57A47.7,47.7,0,0,1,51,331l-1.43-11a52.75,52.75,0,0,1-30.23,4.9l3.59,8.81.29-.5-5.18,3,.75.09-5.18-3,.4.61v-6.06c.92-1.49-2.85-.62-3.82-.7a20.12,20.12,0,0,1-5.43-1.44l1.43,11a17.61,17.61,0,0,1,15.72-1.35V323.76q-9.52,3.53-19.26,6.37c-6.38,1.86-5.32,11.93,1.6,11.79a145.32,145.32,0,0,1,47.42,6.85V337.19c-12.45,3.9-25.31,5.81-38.2,7.62-7,1-4.79,11.43,1.6,11.79a63.09,63.09,0,0,1,14.83,2.68l-2.65-10-3.07,3.87-1.23,1.55q-2.21,2.05,2.85,1.73l2.76,6.78.18-.47-4.19,4.19A403.11,403.11,0,0,1,75,361.18c7.74-.39,7.71-11.53,0-12l-34.37-2.09c-2.5-.15-5.05-.16-7.54-.47-1.92-.24-3.08.32-2.08-1.41.87-1.5,3-2.63,4.34-3.71a24.75,24.75,0,0,0,4.78-5.28c2-2.93.13-8.26-3.59-8.81l-14.4-2.14,4.4,5.79c-.13-1.28.16-.43-.19-.19a16.24,16.24,0,0,0,1.14-1.29c1.07-1,2.18-2,3.16-3.07,2.19-2.41,3.81-5.24,3.61-8.58-.25-4.19-3.22-6.7-6.33-9.06-4.58-3.47-9.19-6.91-13.79-10.36v10.36A159.84,159.84,0,0,1,74,292.46l-1.6-11.79-58.6,12.54c-6.53,1.4-5.2,12.34,1.6,11.79a232.69,232.69,0,0,1,42.28.4l-4.24-10.24-3.73,4.2c-3.31,3.72-1.22,10.38,4.24,10.24,2.64-.06,5.27-.07,7.9.09a21.85,21.85,0,0,0,3.56.31l-1.23-4q-.91.56-1.86,1.06c-4.76,2.65-9.6,5.19-14.39,7.78-5.28,2.86-2.82,11.22,3,11.18a154.1,154.1,0,0,1,19.38,1.09l-6-6c-.17,1.62-10.49,5.38-11.75,6L37.44,334.5c-5.4,2.61-2.74,11.39,3,11.18a223.75,223.75,0,0,1,28.28.74L64.5,336.18,51.79,346.37c-5.3,4.25.76,10.73,5.84,10a152.39,152.39,0,0,1,33.73-.72l-1.6-11.79A256,256,0,0,0,58,359.21c-5.55,3.18-2.57,10.63,3,11.18l12.68,1.26-1.6-11.79A66.55,66.55,0,0,1,42.87,365v12l25,.06c7.73,0,7.72-11.84,0-12l-56.89-1.18,1.6,11.79a134.62,134.62,0,0,1,47.58-4.39v-12a199.42,199.42,0,0,1-50.46-7.67l3.59,8.81A6,6,0,0,1,19,358.21l1.6-11.79c-10.4,0-20.8-.34-31.16-1.24q-3.88-.34-7.76-.77c-2.37-.26-5.76-1.37-8.08-1l-1.2-.24.16,4.46a35,35,0,0,0,3.26-1.53A47.71,47.71,0,0,1-16.73,344c20.25-4.26,41.14-6.48,61.61-9.47,6.86-1,4.94-11.68-1.6-11.79l-20.78-.34-9.9-.16c-1.79,0-5.31.52-6.69-1L4.7,330.73c14.45-8,30.87-10.6,47-13.17,6.81-1.09,5-11.75-1.6-11.79l-27.51-.16c-4.58,0-9.17,0-13.75-.08-2.37,0-6.91.35-8.56-1.81l-3.59,8.81,52.82-14.71c6.75-1.88,5-11.32-1.6-11.79q-27.52-2-55.1-2.3l1.6,11.79c19.34-6,39.44-7.66,59.54-9.16,7.64-.57,7.8-11.73,0-12l-56.78-1.93,1.6,11.79a318.44,318.44,0,0,1,33.8-9.71c7.53-1.72,4.34-13.29-3.19-11.57Z"/></g><path class="e" d="M34,368.17c2.12-1.59,4.51,4.41,5.23,5.59A15.72,15.72,0,0,0,45,379.63a4.55,4.55,0,0,0,6.61-2.69l6.73-25.85,1.44-5.54,1-3.69q1.83-3.72-2.78-1c-.27.55,2.55,4.58,2.81,5l3.74,6.73c1.73,3.11,7.64,2.87,8.22-1.07,8.82-59.89,33-116.18,42.66-175.88h-8.68a344.8,344.8,0,0,0,10.25,47.58,4.55,4.55,0,0,0,8.22,1.07,449.1,449.1,0,0,0,45.08-107.59c1.53-5.6-7.15-8-8.68-2.39a439.55,439.55,0,0,1-44.17,105.44l8.22,1.07a344.8,344.8,0,0,1-10.25-47.58c-.62-4.33-8-4.26-8.68,0C97,233,72.84,289.28,64,349.17l8.22-1.07c-2.58-4.64-5-12.12-9.56-15.2-3.68-2.5-7.88-.62-9.63,3.14-2.53,5.47-3.36,12.36-4.88,18.19l-5.29,20.31,6.61-2.69c-4-2.29-4.79-8.09-8.72-10.86-3.41-2.41-7.84-3.23-11.36-.6-4.58,3.43-.1,11.25,4.54,7.77Z"/><path class="f" d="M31,394.5c9.65,0,9.67-15,0-15s-9.67,15,0,15Z"/><path class="f" d="M26.5,387c9.65,0,9.67-15,0-15s-9.67,15,0,15Z"/><path class="f" d="M37,382.5c9.65,0,9.67-15,0-15s-9.67,15,0,15Z"/><path class="f" d="M28.5,375.5c9.65,0,9.67-15,0-15s-9.67,15,0,15Z"/><path class="f" d="M19.5,399c9.65,0,9.67-15,0-15s-9.67,15,0,15Z"/><path class="f" d="M44.5,398.5c9.65,0,9.67-15,0-15s-9.67,15,0,15Z"/><path class="f" d="M38.5,394.5c9.65,0,9.67-15,0-15s-9.67,15,0,15Z"/><path class="f" d="M158.5,383c9.65,0,9.67-15,0-15s-9.67,15,0,15Z"/><path class="f" d="M160.5,364.5c9.65,0,9.67-15,0-15s-9.67,15,0,15Z"/><path class="f" d="M157,374.5c9.65,0,9.67-15,0-15s-9.67,15,0,15Z"/><path class="f" d="M158,357c9.65,0,9.67-15,0-15s-9.67,15,0,15Z"/><path class="f" d="M152,334.5c9.65,0,9.67-15,0-15s-9.67,15,0,15Z"/><path class="f" d="M155.5,346.5c9.65,0,9.67-15,0-15s-9.67,15,0,15Z"/><path class="f" d="M166,385c9.65,0,9.67-15,0-15s-9.67,15,0,15Z"/><path class="f" d="M185,385.5c9.65,0,9.67-15,0-15s-9.67,15,0,15Z"/><path class="f" d="M173,380c9.65,0,9.67-15,0-15s-9.67,15,0,15Z"/><path class="f" d="M164.5,370c9.65,0,9.67-15,0-15s-9.67,15,0,15Z"/><path class="f" d="M181.5,375.5c9.65,0,9.67-15,0-15s-9.67,15,0,15Z"/><path class="f" d="M173.5,368.5c9.65,0,9.67-15,0-15s-9.67,15,0,15Z"/><path class="f" d="M169,358.5c9.65,0,9.67-15,0-15s-9.67,15,0,15Z"/><path class="f" d="M168,345.5c9.65,0,9.67-15,0-15s-9.67,15,0,15Z"/><path class="f" d="M161,336c9.65,0,9.67-15,0-15s-9.67,15,0,15Z"/><path class="f" d="M178.5,365.5c9.65,0,9.67-15,0-15s-9.67,15,0,15Z"/><path class="f" d="M173.5,351c9.65,0,9.67-15,0-15s-9.67,15,0,15Z"/><path class="f" d="M168.5,330.5c9.65,0,9.67-15,0-15s-9.67,15,0,15Z"/><path class="f" d="M158,181c9.65,0,9.67-15,0-15s-9.67,15,0,15Z"/><path class="f" d="M152.5,191c9.65,0,9.67-15,0-15s-9.67,15,0,15Z"/><path class="f" d="M164,193.5c9.65,0,9.67-15,0-15s-9.67,15,0,15Z"/><path class="f" d="M152.5,203c9.65,0,9.67-15,0-15s-9.67,15,0,15Z"/><path class="f" d="M153,196.5v1a7.74,7.74,0,0,0,2.2,5.3,8.34,8.34,0,0,0,5.3,2.2,7.58,7.58,0,0,0,5.3-2.2,7.79,7.79,0,0,0,2.2-5.3v-1a7.74,7.74,0,0,0-2.2-5.3,8.34,8.34,0,0,0-5.3-2.2,7.58,7.58,0,0,0-5.3,2.2,7.79,7.79,0,0,0-2.2,5.3Z"/><path class="f" d="M152,217c9.65,0,9.67-15,0-15s-9.67,15,0,15Z"/><path class="f" d="M160,217c9.65,0,9.67-15,0-15s-9.67,15,0,15Z"/><path class="f" d="M143.5,229.5h1a7.74,7.74,0,0,0,5.3-2.2A8.34,8.34,0,0,0,152,222a7.58,7.58,0,0,0-2.2-5.3,7.79,7.79,0,0,0-5.3-2.2h-1a7.74,7.74,0,0,0-5.3,2.2A8.34,8.34,0,0,0,136,222a7.58,7.58,0,0,0,2.2,5.3,7.79,7.79,0,0,0,5.3,2.2Z"/><path class="f" d="M159.5,228c9.65,0,9.67-15,0-15s-9.67,15,0,15Z"/><path class="f" d="M143.5,241.5c9.65,0,9.67-15,0-15s-9.67,15,0,15Z"/><path class="f" d="M156.5,241.5c9.65,0,9.67-15,0-15s-9.67,15,0,15Z"/><path class="f" d="M161,252.5c9.65,0,9.67-15,0-15s-9.67,15,0,15Z"/><path class="f" d="M148.5,254c9.65,0,9.67-15,0-15s-9.67,15,0,15Z"/><path class="f" d="M152,266.5c9.65,0,9.67-15,0-15s-9.67,15,0,15Z"/><path class="f" d="M160.5,266.5c9.65,0,9.67-15,0-15s-9.67,15,0,15Z"/><path class="f" d="M148,279c9.65,0,9.67-15,0-15s-9.67,15,0,15Z"/><path class="f" d="M143,293c9.65,0,9.67-15,0-15s-9.67,15,0,15Z"/><path class="f" d="M153.5,290c9.65,0,9.67-15,0-15s-9.67,15,0,15Z"/><path class="f" d="M158.5,279.5c9.65,0,9.67-15,0-15s-9.67,15,0,15Z"/><path class="f" d="M154,300.5c9.65,0,9.67-15,0-15s-9.67,15,0,15Z"/><path class="f" d="M156,317.5c9.65,0,9.67-15,0-15s-9.67,15,0,15Z"/><path class="f" d="M141,305.5c9.65,0,9.67-15,0-15s-9.67,15,0,15Z"/><path class="f" d="M144,317c9.65,0,9.67-15,0-15s-9.67,15,0,15Z"/><path class="f" d="M152,309.5c9.65,0,9.67-15,0-15s-9.67,15,0,15Z"/><path class="f" d="M158,326.5c9.65,0,9.67-15,0-15s-9.67,15,0,15Z"/><path class="f" d="M146,327c9.65,0,9.67-15,0-15s-9.67,15,0,15Z"/><path class="f" d="M145.5,342.5c9.65,0,9.67-15,0-15s-9.67,15,0,15Z"/><path class="f" d="M148,354.5c9.65,0,9.67-15,0-15s-9.67,15,0,15Z"/><path class="f" d="M148,365.5c9.65,0,9.67-15,0-15s-9.67,15,0,15Z"/><path class="f" d="M142.5,378c9.65,0,9.67-15,0-15s-9.67,15,0,15Z"/><path class="f" d="M149,384c9.65,0,9.67-15,0-15s-9.67,15,0,15Z"/><path class="f" d="M137.5,388.5c9.65,0,9.67-15,0-15s-9.67,15,0,15Z"/><path class="f" d="M140.5,398c9.65,0,9.67-15,0-15s-9.67,15,0,15Z"/><path class="f" d="M146.5,396.5c9.65,0,9.67-15,0-15s-9.67,15,0,15Z"/><path class="f" d="M154,396c9.65,0,9.67-15,0-15s-9.67,15,0,15Z"/><path class="f" d="M165,398c9.65,0,9.67-15,0-15s-9.67,15,0,15Z"/><path class="f" d="M175.5,395c9.65,0,9.67-15,0-15s-9.67,15,0,15Z"/><path class="f" d="M184,400.5c9.65,0,9.67-15,0-15s-9.67,15,0,15Z"/><path class="f" d="M192.5,397c9.65,0,9.67-15,0-15s-9.67,15,0,15Z"/><path class="f" d="M180,389.5c9.65,0,9.67-15,0-15s-9.67,15,0,15Z"/><path class="f" d="M160,392c9.65,0,9.67-15,0-15s-9.67,15,0,15Z"/><path class="f" d="M149.5,376.5c9.65,0,9.67-15,0-15s-9.67,15,0,15Z"/><path class="f" d="M142,336c9.65,0,9.67-15,0-15s-9.67,15,0,15Z"/><path class="f" d="M149,235c9.65,0,9.67-15,0-15s-9.67,15,0,15Z"/><path class="f" d="M152.5,221.5c9.65,0,9.67-15,0-15s-9.67,15,0,15Z"/><path class="f" d="M164.5,318c9.65,0,9.67-15,0-15s-9.67,15,0,15Z"/><path class="f" d="M160.5,310.5c9.65,0,9.67-15,0-15s-9.67,15,0,15Z"/><path class="f" d="M158.5,297.5c9.65,0,9.67-15,0-15s-9.67,15,0,15Z"/><path class="f" d="M153,177.5c9.65,0,9.67-15,0-15s-9.67,15,0,15Z"/><path class="f" d="M155,171.5c9.65,0,9.67-15,0-15s-9.67,15,0,15Z"/><path class="f" d="M146.6,139.85a79.38,79.38,0,0,1-4.71,13.27c-1.61,3.48,3.56,6.53,5.18,3a88.12,88.12,0,0,0,5.31-14.7c1-3.74-4.81-5.33-5.79-1.6Z"/><path class="f" d="M143.15,152.35A48,48,0,0,1,135,157a3,3,0,0,0-1.08,4.1,3.07,3.07,0,0,0,4.1,1.08,48,48,0,0,0,8.11-4.66,3.08,3.08,0,0,0,1.08-4.1,3,3,0,0,0-4.1-1.08Z"/><path class="f" d="M141.89,154.68c-1.44,2-1.38,5.14-1.74,7.52a3.1,3.1,0,0,0,2.1,3.69c1.41.39,3.45-.48,3.69-2.1l.53-3.6a5.77,5.77,0,0,1,.6-2.49,3,3,0,0,0-1.08-4.1,3.06,3.06,0,0,0-4.1,1.08Z"/><path class="f" d="M142.45,156.31a14.24,14.24,0,0,0,6.26,8.34c3.28,2.05,6.3-3.14,3-5.18a8,8,0,0,1-3.5-4.75c-1-3.72-6.81-2.14-5.79,1.6Z"/><path class="f" d="M155.17,140.25c1,2.67,2.14,5.32,3.31,7.93,1,2.3,3.36,4.52,3.87,6.92.81,3.77,6.59,2.18,5.79-1.6-.55-2.57-2.43-4.25-3.62-6.51a85.11,85.11,0,0,1-3.57-8.34c-1.4-3.55-7.2-2-5.79,1.6Z"/><path class="f" d="M164.84,152.23c-1.64.43-2.88,1.77-4.15,2.83l-3.86,3.22a3,3,0,0,0,0,4.24,3.07,3.07,0,0,0,4.24,0l3-2.54,1.42-1.19.81-.68q.77-.63.08-.1c3.73-1,2.15-6.77-1.6-5.79Z"/><path class="f" d="M162.69,157.2l1.31,5.88a3,3,0,0,0,5.79-1.6l-1.31-5.88a3,3,0,0,0-5.79,1.6Z"/><path class="f" d="M166.07,157.78c2.8.65,5.12,2.37,8.1,2.29,3.85-.1,3.87-6.1,0-6-2.26.06-4.33-1.57-6.5-2.08-3.76-.87-5.36,4.91-1.6,5.79Z"/><polygon class="g" points="131.59 107.31 133.71 139.76 153.93 138.16 177.86 139.23 174.67 106.25 151.18 105.09 131.59 107.31"/><polygon class="g" points="138.5 73.8 138.5 104.65 153.4 104.12 166.1 104.65 160.75 71.41 138.5 73.8"/><path class="h" d="M137.46,75l.26,31"/><path class="i" d="M134.46,75l.26,31c0,3.86,6,3.87,6,0l-.26-31c0-3.86-6-3.87-6,0Z"/><path class="h" d="M138,73.3a80.5,80.5,0,0,1,23.41-1.82"/><path class="i" d="M138.77,76.2a83.38,83.38,0,0,1,22.61-1.71c3.86.22,3.84-5.78,0-6a89.48,89.48,0,0,0-24.21,1.92c-3.77.81-2.18,6.6,1.6,5.79Z"/><path class="h" d="M161.76,71.81q2.71,17,4.47,34.09"/><path class="i" d="M158.87,72.61q2.62,16.59,4.36,33.29c.4,3.8,6.4,3.84,6,0Q167.41,88.4,164.65,71c-.6-3.8-6.38-2.19-5.79,1.6Z"/><path class="h" d="M138.43,106c8.95-1.21,18-.91,27-.6"/><path class="i" d="M138.43,109c9-1.11,18-.9,27-.6,3.86.13,3.86-5.87,0-6-9-.3-18-.51-27,.6-3.78.47-3.83,6.47,0,6Z"/><path class="h" d="M130.85,106.38a206.7,206.7,0,0,1,44.56-.75"/><path class="i" d="M130.85,109.38a215.46,215.46,0,0,1,44.56-.75c3.85.33,3.82-5.67,0-6a215.46,215.46,0,0,0-44.56.75c-3.79.46-3.83,6.46,0,6Z"/><path class="h" d="M129.57,106.82a4.92,4.92,0,0,1,.87,2.55q2.09,14.75,2.75,29.66a.75.75,0,0,1-1-.81"/><path class="i" d="M127,108.34c2.12,4.18,1.76,11.18,2.19,15.83.46,4.95.78,9.9,1,14.86l3.8-2.89-.75-.11,2.1,2.1-.27-.7c-1.37-3.57-7.18-2-5.79,1.6l.27.7a3,3,0,0,0,2.1,2.1l.75.11c1.81.27,3.9-.75,3.8-2.89-.29-6.2-.73-12.39-1.38-18.57-.51-4.83-.42-10.76-2.65-15.15-1.75-3.45-6.92-.41-5.18,3Z"/><path class="h" d="M132.64,140.79c8.93-1.86,18.14-1.69,27.26-1.52l19.74.37"/><path class="i" d="M133.44,143.69c15-2.9,31-1.33,46.2-1,3.86.07,3.86-5.93,0-6-15.83-.3-32.15-1.77-47.79,1.25-3.79.73-2.18,6.51,1.6,5.79Z"/><path class="h" d="M175.88,106.79a124.66,124.66,0,0,0,2.66,32.09"/><path class="i" d="M172.88,106.79a135.12,135.12,0,0,0,2.77,32.89c.78,3.78,6.57,2.18,5.79-1.6a128.35,128.35,0,0,1-2.56-31.3c.15-3.86-5.85-3.85-6,0Z"/><path class="h" d="M176.34,105.24a16.41,16.41,0,0,0,3.07-6.35q3.29-10.65,5.52-21.58L201.6,91.44a3.7,3.7,0,0,1,1.13,1.32,3.65,3.65,0,0,1-.3,2.65A81,81,0,0,1,178.2,128.6"/><path class="i" d="M178.93,106.76c2.74-3.55,3.75-8.17,5-12.41,1.51-5.36,2.81-10.78,3.94-16.24l-5,1.32L196.45,91c3,2.55,3.61,2.62,1.84,6.58-1,2.19-2.06,4.33-3.24,6.42a80.57,80.57,0,0,1-19,22.49c-3,2.47,1.29,6.69,4.24,4.24a84.5,84.5,0,0,0,22.47-28.67c1.77-3.73,4.67-8.4,1.57-12.14-2.18-2.64-5.62-4.81-8.23-7l-9.09-7.71c-1.59-1.35-4.52-1.06-5,1.32-1,4.85-2.14,9.67-3.44,14.45-1.18,4.31-2.07,9.17-4.85,12.77-2.36,3.05,2.85,6,5.18,3Z"/><path class="h" d="M129.55,105.27c-2.82-8.09-10.41-13.82-13.18-21.93q-7.9,8.64-15.21,17.78c9.88,9,17.8,20.64,29.72,26.75"/><path class="i" d="M132.45,104.48c-3.14-8.1-10.11-13.86-13.18-21.93-.75-2-3.37-3.14-5-1.32Q106.37,89.89,99,99a3.06,3.06,0,0,0,0,4.24c10,9.28,18.11,20.64,30.32,27.21,3.4,1.83,6.43-3.35,3-5.18C120.66,119,112.86,107.92,103.28,99v4.24q7.34-9.12,15.21-17.78l-5-1.32c3.1,8.13,10.05,13.88,13.18,21.93,1.38,3.56,7.19,2,5.79-1.6Z"/><path class="j" d="M148.65,103.62l.36.08-2-1.16c-.07-.05-.29-.68-.37-.67s.21,1,.22,1.11c.1.56.09.92.16,1.61.22,2.38,1.32,4.63,3.8,5.34a16.18,16.18,0,0,0,4.8.31c2.32-.09,4.44-1,5.39-3.28.69-1.64.29-3.3.07-5a29.15,29.15,0,0,0-.72-4.93,5.34,5.34,0,0,0-5.21-3.8,43.08,43.08,0,0,0-4.7.61c-2,.27-3.77,1.21-4.34,3.3s.46,3.85,2.07,5.08c-1.33-1-1.46-2.11-1-.69a13.2,13.2,0,0,0,.5,1.3,6.66,6.66,0,0,0,2.58,3,6.75,6.75,0,0,0,7.08-.1A4.61,4.61,0,0,0,159,99.63,4.54,4.54,0,0,0,152.81,98c.7-.48,3.65.34,3.18,1.54.08-.2-.29-1-.35-1.17a7.8,7.8,0,0,0-2.91-3.91l-2.27,8.39,2.54-.34,1.13-.15c.33,0,1.34,0,.41-.21l-2-1.16.24.25-1.16-2c.38,1,0-.9.19.67.08.58.15,1.16.23,1.74l.23,1.74c0,.35,0,2,.29.61l1.16-2q3.2-.91,1.33-.82h-1.73q-1.5-.08.69.3l1.61,1.61-.17-.37.61,2.27c-.38-3.7-.46-9.05-5-10.07a4.6,4.6,0,0,0-5.54,3.14,4.55,4.55,0,0,0,3.14,5.54Z"/><path class="k" d="M141.69,95.79l20.21-.18c5.79-.05,5.8-9.05,0-9l-20.21.18c-5.79.05-5.8,9.05,0,9Z"/><path class="l" d="M141.51,99.65q10.46-.38,20.93-.32c5.79,0,5.8-9,0-9q-10.47-.06-20.93.32c-5.77.21-5.8,9.21,0,9Z"/><path d="M142.16,82.3c5.79,0,5.8-9,0-9s-5.8,9,0,9Z"/><path d="M157.76,81.59c5.79,0,5.8-9,0-9s-5.8,9,0,9Z"/><path class="f" d="M26.54,348.51a46.84,46.84,0,0,1-2.78,7.83c-.8,1.74,1.78,3.27,2.59,1.51a51.22,51.22,0,0,0,3.08-8.55,1.5,1.5,0,0,0-2.89-.8Z"/><path class="f" d="M24.4,356a28.08,28.08,0,0,1-4.75,2.73,1.51,1.51,0,0,0-.54,2.05,1.54,1.54,0,0,0,2.05.54,28.08,28.08,0,0,0,4.75-2.73,1.54,1.54,0,0,0,.54-2.05A1.51,1.51,0,0,0,24.4,356Z"/><path class="f" d="M23.76,357.25c-.83,1.17-.79,3-1,4.34a1.55,1.55,0,0,0,1,1.85,1.51,1.51,0,0,0,1.85-1l.31-2.11a3.44,3.44,0,0,1,.38-1.52,1.51,1.51,0,0,0-.54-2.05,1.53,1.53,0,0,0-2.05.54Z"/><path class="f" d="M24.12,358a8.07,8.07,0,0,0,3.55,4.73c1.64,1,3.15-1.57,1.51-2.59A4.94,4.94,0,0,1,27,357.21a1.5,1.5,0,0,0-2.89.8Z"/><path class="f" d="M31.56,348.61c.61,1.54,1.24,3.07,1.91,4.58s2,2.68,2.29,4.11c.4,1.89,3.3,1.09,2.89-.8-.32-1.48-1.41-2.45-2.09-3.75a50.46,50.46,0,0,1-2.12-4.95c-.7-1.78-3.6-1-2.89.8Z"/><path class="f" d="M37,355.94a6.58,6.58,0,0,0-2.32,1.59l-2.26,1.88a1.51,1.51,0,0,0,0,2.12,1.53,1.53,0,0,0,2.12,0L36.38,360l.83-.69.48-.4q.39-.34.16-.12a1.5,1.5,0,0,0-.8-2.89Z"/><path class="f" d="M36,358.53l.77,3.44c.42,1.88,3.31,1.09,2.89-.8l-.77-3.44c-.42-1.88-3.31-1.09-2.89.8Z"/><path class="f" d="M37.76,358.69c1.61.37,3,1.38,4.67,1.33,1.93,0,1.93-3.05,0-3-1.36,0-2.58-.92-3.88-1.22-1.88-.44-2.68,2.46-.8,2.89Z"/><polygon class="g" points="17.5 329.39 18.75 348.39 30.59 347.45 44.6 348.08 42.73 328.77 28.98 328.09 17.5 329.39"/><polygon class="g" points="21.55 309.77 21.55 327.83 30.27 327.52 37.71 327.83 34.58 308.37 21.55 309.77"/><path class="h" d="M20.94,310.49l.15,18.17"/><path class="i" d="M19.44,310.49l.15,18.17a1.5,1.5,0,0,0,3,0l-.15-18.17a1.5,1.5,0,0,0-3,0Z"/><path class="h" d="M21.25,309.48A47.13,47.13,0,0,1,35,308.41"/><path class="i" d="M21.65,310.92a49.08,49.08,0,0,1,13.31-1c1.93.11,1.92-2.89,0-3A52.13,52.13,0,0,0,20.85,308c-1.89.41-1.09,3.3.8,2.89Z"/><path class="h" d="M35.17,308.61q1.59,9.94,2.62,20"/><path class="i" d="M33.73,309q1.54,9.75,2.56,19.56c.2,1.9,3.2,1.92,3,0q-1.07-10.21-2.67-20.36c-.3-1.9-3.19-1.09-2.89.8Z"/><path class="h" d="M21.51,328.6a94.25,94.25,0,0,1,15.83-.35"/><path class="i" d="M21.51,330.1a101.72,101.72,0,0,1,15.83-.35c1.93.06,1.93-2.94,0-3a101.71,101.71,0,0,0-15.83.35c-1.89.23-1.92,3.23,0,3Z"/><path class="h" d="M17.07,328.84a121,121,0,0,1,26.09-.44"/><path class="i" d="M17.07,330.34a129.67,129.67,0,0,1,26.09-.44c1.92.16,1.91-2.84,0-3a129.67,129.67,0,0,0-26.09.44c-1.89.22-1.92,3.23,0,3Z"/><path class="h" d="M16.32,329.1a2.88,2.88,0,0,1,.51,1.49q1.23,8.64,1.61,17.36a.44.44,0,0,1-.6-.48"/><path class="i" d="M15,329.86c1.3,2.56,1.05,6.55,1.32,9.4s.46,5.8.59,8.7l1.9-1.45.45.57c-.69-1.78-3.59-1-2.89.8l.16.41a1.51,1.51,0,0,0,1,1l.44.06a1.52,1.52,0,0,0,1.9-1.45c-.19-3.87-.47-7.74-.89-11.59-.28-2.58-.25-5.67-1.44-8-.87-1.72-3.46-.21-2.59,1.51Z"/><path class="h" d="M18.12,349c5.23-1.09,10.62-1,16-.89l11.56.22"/><path class="i" d="M18.52,350.44c8.86-1.62,18.16-.79,27.12-.62,1.93,0,1.93-3,0-3-9.27-.18-18.74-1-27.91.72-1.9.35-1.09,3.24.8,2.89Z"/><path class="h" d="M43.44,329.08A73,73,0,0,0,45,347.87"/><path class="i" d="M41.94,329.08a80.21,80.21,0,0,0,1.61,19.19c.39,1.89,3.28,1.09,2.89-.8a76.78,76.78,0,0,1-1.51-18.39c.07-1.93-2.93-1.93-3,0Z"/><path class="h" d="M17.57,342.66a9.61,9.61,0,0,0-1.8,3.72q-1.93,6.23-3.23,12.64l-9.76-8.27a2.16,2.16,0,0,1-.66-.77,2.13,2.13,0,0,1,.18-1.55A47.43,47.43,0,0,1,16.48,329"/><path class="i" d="M16.28,341.9c-3.21,4.58-4.05,11.36-5.18,16.71L13.6,358l-7-5.91c-1.08-.91-2.73-1.77-2.89-3.23C3.61,347.63,5.42,345.07,6,344a48.09,48.09,0,0,1,11.56-14c1.48-1.25-.65-3.36-2.12-2.12A49.07,49.07,0,0,0,1.54,346.34c-.73,1.75-1.37,3-.48,4.69s3.43,3.12,4.84,4.32l5.58,4.73a1.52,1.52,0,0,0,2.51-.66c1.07-5.08,1.85-11.68,4.88-16,1.11-1.59-1.49-3.09-2.59-1.51Z"/><path class="h" d="M44.38,342.06c1.65,4.73,6.1,8.09,7.72,12.84q4.62-5.06,8.91-10.41c-5.79-5.29-10.42-12.08-17.4-15.66"/><path class="i" d="M42.93,342.46c1.95,4.69,5.81,8.15,7.72,12.84a1.52,1.52,0,0,0,2.51.66q4.61-5.08,8.91-10.41a1.53,1.53,0,0,0,0-2.12c-5.81-5.47-10.62-12-17.7-15.89-1.69-.94-3.2,1.65-1.51,2.59,6.85,3.8,11.48,10.14,17.09,15.42v-2.12q-4.31,5.34-8.91,10.41l2.51.66c-1.92-4.71-5.78-8.16-7.72-12.84-.73-1.76-3.63-1-2.89.8Z"/><path class="j" d="M27.8,326.13l.21,0-.66-.39c.35.27.3,1.55.34,2a2.12,2.12,0,0,0,1.39,2,8.08,8.08,0,0,0,2.51.14,2.19,2.19,0,0,0,2.12-1.22,4.91,4.91,0,0,0-.06-2.49,16.11,16.11,0,0,0-.38-2.58c-.64-2.06-3.16-1.24-4.71-1a1.52,1.52,0,0,0-.76,2.8c-.36-.27-.16,0-.06.27a6,6,0,0,0,.23.63,2.78,2.78,0,0,0,1,1.23,2.81,2.81,0,0,0,3-.06c1.59-1.08.09-3.68-1.51-2.59-.16.11.3.13.19.22a3.72,3.72,0,0,0-.2-.69,3.23,3.23,0,0,0-1.18-1.61l-.76,2.8,1.48-.2a4.32,4.32,0,0,1,1.2-.17l-.66-.39.14.14-.39-.66a7.39,7.39,0,0,1,.29,1.71,9.47,9.47,0,0,1,.26,1.68l.39-.66q.64-.21,0-.15h-1q-.59,0-.17,0l.54.54-.1-.22.2.76c-.17-1.62-.08-4.35-2.11-4.8-1.88-.42-2.68,2.47-.8,2.89Z"/><path class="k" d="M23.42,321.51l11.84-.1a1.5,1.5,0,0,0,0-3l-11.84.1a1.5,1.5,0,0,0,0,3Z"/><path class="l" d="M23.32,323.77q6.12-.22,12.25-.19a1.5,1.5,0,0,0,0-3q-6.13,0-12.25.19c-1.92.07-1.93,3.07,0,3Z"/><path d="M23.7,313.61a1.5,1.5,0,0,0,0-3,1.5,1.5,0,0,0,0,3Z"/><path d="M32.83,313.19a1.5,1.5,0,0,0,0-3,1.5,1.5,0,0,0,0,3Z"/><path class="e" d="M32.73,284.77c-3.21-3.22-10.45-1.22-9.46,4,.48,2.53,2.69,4,4.92,4.87a17.23,17.23,0,0,1,2.52.9c2.45,1.5,2.06,3.63-.41,4.46a8.91,8.91,0,0,1-6.78-1.12c-1.61-1.07-3.12,1.53-1.51,2.59,3.76,2.49,11.61,2.86,13.31-2.35a4.48,4.48,0,0,0-2.43-5.91c-1.54-.75-3.29-1-4.78-1.88-1.3-.74-3-2.65-.94-3.84a3.77,3.77,0,0,1,3.43.42,1.5,1.5,0,0,0,2.12-2.12Z"/><path class="e" d="M27.46,281.84a185.24,185.24,0,0,0-1.58,21.41,1.5,1.5,0,0,0,3,0,185.24,185.24,0,0,1,1.58-21.41c.25-1.91-2.75-1.89-3,0Z"/><path class="e" d="M139.37,44.48c-2.61-1.34-7.17-3.22-10.09-1.78-2.68,1.32-2.37,5.11-1.15,7.28,2.07,3.7,6.1,4.65,9.69,6.25a11.53,11.53,0,0,1,2,1,2.31,2.31,0,0,1-1.6,2.49,6.15,6.15,0,0,1-4.15.68c-3.31-.45-5.58-2.94-6.67-6-.64-1.81-3.54-1-2.89.8,2.39,6.71,12.2,12.25,17.71,5.17,2.06-2.65.67-5-1.94-6.31s-5.9-1.79-8.1-3.82c-1.29-1.18-3.5-4.08.12-4.84,1.62-.34,4.22,1,5.57,1.7,1.72.88,3.24-1.71,1.51-2.59Z"/><path class="e" d="M131.91,39.09q-.29,13.08.29,26.14c.09,1.92,3.09,1.93,3,0q-.58-13.07-.29-26.14c0-1.93-3-1.93-3,0Z"/><path class="e" d="M156.16,44.27c-4.93-1.74-12.19-1.94-11.29,5.32.31,2.54,2.16,3.72,4.38,4.57,1.83.7,4.21.94,5.22,2.68a2.44,2.44,0,0,1-2,3.89c-1.76,0-3.6-1.41-4.86-2.4-1.5-1.18-3.64.92-2.12,2.12,2.47,2,5.33,3.94,8.63,3a5.3,5.3,0,0,0,4-5.64c-.07-2.69-1.4-4.07-3.8-5.09-2-.87-6.6-1.22-6.42-4.39.21-3.71,5.5-1.9,7.52-1.19,1.82.64,2.61-2.25.8-2.89Z"/><path class="e" d="M148.88,38.65q.29,12.88.37,25.76a1.5,1.5,0,0,0,3,0q-.08-12.88-.37-25.76c0-1.93-3-1.93-3,0Z"/><path class="e" d="M174.37,43.31c-2.61-1.34-7.17-3.22-10.09-1.78-2.68,1.32-2.37,5.11-1.15,7.28,2.07,3.7,6.1,4.65,9.69,6.25a11.53,11.53,0,0,1,2,1,2.31,2.31,0,0,1-1.6,2.49,6.15,6.15,0,0,1-4.15.68c-3.31-.45-5.58-2.94-6.67-6-.64-1.81-3.54-1-2.89.8,2.39,6.71,12.2,12.25,17.71,5.17,2.06-2.65.67-5-1.94-6.31s-5.9-1.79-8.1-3.82c-1.29-1.18-3.5-4.08.12-4.84,1.62-.34,4.22,1,5.57,1.7,1.72.88,3.24-1.71,1.51-2.59Z"/><path class="e" d="M166.91,37.92q-.29,13.08.29,26.14c.09,1.92,3.09,1.93,3,0q-.58-13.07-.29-26.14c0-1.93-3-1.93-3,0Z"/><g class="m"><path class="n" d="M226.36,91.91A166.79,166.79,0,0,1,293,91.85l1.6-11.79-93.1,2.44c-7.77.2-7.67,11.51,0,12l76,4.83L276,87.55,229.8,101.21c-5.86,1.73-5.53,9.69,0,11.57,10.41,3.54,22.09,2.75,32.94,3.07l35.7,1.05v-12l-67.37,7c-7.52.79-7.89,11.93,0,12l44.18.4c7.78.07,7.65-11.53,0-12a72,72,0,0,0-37.34,7.95c-3.78,1.93-3.44,6.6-1.21,9.42,6.6,8.36,21.65,5.39,30.83,5.29l39.11-.41v-12L192.18,135.87v12c37.82-4.56,75.81-9,114-7.22v-12a971.42,971.42,0,0,0-102.32,12.84c-5.67,1-5.09,8.22-1.43,11,7.66,5.75,19,4,28,4l33.38-.14c7.74,0,7.71-11.75,0-12a132.77,132.77,0,0,0-28.64,2.18c-7.09,1.32-15,3.39-17.09,11.3a6.15,6.15,0,0,0,4.19,7.38c19.84,7,41,6.51,61.77,5.73,7.78-.29,7.66-11.45,0-12a748.39,748.39,0,0,0-85.88-1.24c-5.54.24-8.69,8.4-3,11.18,9.77,4.79,20.67,4.27,31.3,4.34q17.55.11,35.09-.52,35.08-1.27,70-5.52c7.58-.92,7.83-11.35,0-12a294,294,0,0,0-59,1c-7.65.9-7.77,11.2,0,12,23,2.37,46-.52,68.84-3.55,7.44-1,8-11.7,0-12-32.54-1.23-65.17-2.37-97.61,1.12-7.58.82-7.84,11.52,0,12A830.71,830.71,0,0,0,378.2,163c6.21-.63,8.76-10.31,1.6-11.79-32.62-6.72-65.92-6.14-99-5.29l1.6,11.79q16.89-2.89,33.62-6.6c8.33-1.86,20.86-2.52,25.51-10.85,1.67-3,.4-8.26-3.59-8.81a261.25,261.25,0,0,0-60.15-1.54v12q33.63-3.78,66.77-10.74c7-1.48,4.77-11.26-1.6-11.79a363.86,363.86,0,0,0-54.81-.36c-7.62.52-7.81,12,0,12a255.93,255.93,0,0,0,76.31-12c5.15-1.64,6.25-10.57,0-11.57a209.21,209.21,0,0,0-90.26,5.06,5.91,5.91,0,0,0-4.19,4.19c-1.59,9.28,7,11.2,14.32,11.47q15.16.54,30.33.36,29.86-.35,59.58-3.49c7.59-.79,7.83-11.52,0-12a72.06,72.06,0,0,0-33.06,6c-2.4,1-3.4,4.46-2.76,6.78.76,2.77,3.13,4,5.79,4.4a90.61,90.61,0,0,0,27.26-.63L368.26,118a56.26,56.26,0,0,0-23.94,17.42c-2.9,3.7-6.33,8.19-5,13.21s6.08,7,10.66,7.46c23.81,2.58,49.37-.92,72.6-6.06,7.1-1.57,4.66-11.1-1.6-11.79a229.33,229.33,0,0,0-81.13,5.71c-7.09,1.79-4.67,11,1.6,11.79,21.39,2.71,43.37,1.58,64.89,1.7l-1.6-11.79c-12.91,2.48-25.78,5.28-37.25,12-5,2.93-3,11.43,3,11.18a483.84,483.84,0,0,0,81.58-10.33c6.75-1.45,5-11.68-1.6-11.79l-68.15-1.07,1.6,11.79,59.62-20c6.33-2.12,5.36-11.62-1.6-11.79q-56.54-1.31-113.11-.33l1.6,11.79a751.19,751.19,0,0,0,81.09-18.61c5.56-1.6,5.86-10.12,0-11.57a115.79,115.79,0,0,0-47.9-1.62c-7.2,1.24-4.56,11.11,1.6,11.79,15.73,1.72,31.65-1.48,47.16-3.82q24.34-3.66,48.58-8c7.06-1.26,4.72-11.28-1.6-11.79a184,184,0,0,0-31.41.18l1.6,11.79,18.78-4.39c6.5-1.52,5.22-12.22-1.6-11.79l-32,2,1.6,11.79,5.29-1.52L418.45,90a41.4,41.4,0,0,0-15.35,8.85c-3.16,2.84-1.77,9.29,2.65,10a139.31,139.31,0,0,0,20.56,2l-1.6-11.79c-9.42,3.61-19.25,7.65-25.25,16.21-1.48,2.11-2.42,4.49-3.82,6.63-1.58,2.41-3.69,3.59-6.21,4.84-4.5,2.23-9.33,4.11-13.33,7.22-8.83,6.85-2.75,16.89,6.27,19.29,5.82,1.54,12.24,1.82,18.21,2.64l20.18,2.78V147.14c-5.74,1.27-16.13,2.83-17.81,9.65a8.14,8.14,0,0,0,2.73,8.13,11,11,0,0,0,3.74,2.15c1.3.44,4.26,1.84,2.75-.18l3.59-8.81c-8.45,2.81-18.6,9.2-15.42,19.68,1.38,4.54,5.4,7.6,9.63,9.3,4.77,1.9,10.4,1.33,14.67,4.38l3-11.18c-10,.07-20.54-.8-30.49.36-7.37.86-14.68,8.8-8,15.55,2.61,2.63,6.14,3.1,9.66,3.43,5.5.52,11,.88,16.52,1.25q16.53,1.1,33.1,1.61c7.87.25,7.51-11.19,0-12-8.66-.94-23.41.11-27.66,9.36a9.72,9.72,0,0,0,2.15,11.12c2.66,2.52,6.87,2.41,9.4,4.75l1.21-9.42c-9,4.64-4.73,16.05,3,19.18,10,4,22.07,4.91,32.69,5.65v-12L437.67,219c-7.72,0-7.73,12,0,12l31.57.06c7.79,0,7.64-11.47,0-12a147,147,0,0,1-15.95-1.91q-3.66-.66-7.29-1.5c-1.14-.26-2.3-.51-3.43-.84a8.14,8.14,0,0,1-1.36-.43q-1.76-1-1.59,2.22c3.36-1.74,4-6.89,1.21-9.42a17.15,17.15,0,0,0-5.25-3.33,16.28,16.28,0,0,0-3.14-1.18c-1.15-.19-2-1.65-1,.73.78,2,1,1,2.89.27a27.41,27.41,0,0,1,4.29-1.1,34.28,34.28,0,0,1,9.87-.14v-12q-21.92-.69-43.79-2.38c-1.62-.13-3.24-.24-4.86-.39a7,7,0,0,1-2.24-.24q-2.87-.87,0,5.21c1.07.67,6.75-.25,8.18-.25l21.88-.14c6.32,0,7.68-7.86,3-11.18-5-3.59-10.8-2.93-16.27-5.09-6.19-2.45,1.68-5.37,4.53-6.32,3.3-1.1,6-5.52,3.59-8.81a10.88,10.88,0,0,0-4.48-3.93c-.55-.24-4.19-.95-4.22-1l.6,4.62q-1.22,2.05,1.23.48,1.22-.42,2.46-.78c1.92-.58,3.87-1.05,5.83-1.49,5.48-1.21,6-10.75,0-11.57l-28.83-4c-2.55-.35-5.16-.58-7.69-1.06-.32-.06-4.36-1.36-4.28-1.42q-1.34,4.34.91,2.35,1.37-.82,2.77-1.6c1.64-.91,3.3-1.76,5-2.56,3.6-1.73,7.37-3.27,10.34-6s4.42-6.19,6.43-9.54c4.11-6.84,12.21-9.89,19.32-12.61,6.08-2.33,5.55-11.65-1.6-11.79a117.61,117.61,0,0,1-17.37-1.55l2.65,10a27,27,0,0,1,10.06-5.76c7.31-2.35,4.28-13.72-3.19-11.57l-5.29,1.52c-6.3,1.81-5.36,12.23,1.6,11.79l32-2-1.6-11.79L426.41,93.9c-6.46,1.51-5.23,12.41,1.6,11.79a184,184,0,0,1,31.41-.18l-1.6-11.79q-23.27,4.14-46.63,7.7c-15.13,2.29-30.58,5.36-45.92,3.68l1.6,11.79a100.9,100.9,0,0,1,41.52,1.62V106.93a751.19,751.19,0,0,1-81.09,18.61c-6.73,1.16-5.06,11.9,1.6,11.79q56.55-1,113.11.33l-1.6-11.79-59.62,20c-6.31,2.11-5.38,11.68,1.6,11.79l68.15,1.07-1.6-11.79a464.41,464.41,0,0,1-78.39,9.91l3,11.18c10.54-6.18,22.52-8.52,34.38-10.8,6.77-1.3,5-11.75-1.6-11.79-21.52-.13-43.5,1-64.89-1.7l1.6,11.79A219.77,219.77,0,0,1,421,150.22l-1.6-11.79a254.42,254.42,0,0,1-52,6.06q-6.17.07-12.33-.15l-3.79-.17q-2.32-.67.27,1.64c.25,0,2.52-3.49,2.72-3.72a43.26,43.26,0,0,1,17.2-12.54c7.18-2.85,4.49-12.85-3.19-11.57a80.63,80.63,0,0,1-24.07.2l3,11.18a59,59,0,0,1,27-4.36V113q-23.85,2.49-47.83,3.25-11.74.35-23.49.28-5.87,0-11.74-.19l-5.87-.17-2.93-.11q-3-.64-1.57.18l.6,4.62.17-1L277.37,124A195,195,0,0,1,361.25,119V107.41A244.52,244.52,0,0,1,288.13,119v12a363.86,363.86,0,0,1,54.81.36l-1.6-11.79q-31.54,6.66-63.58,10.31c-7.54.85-7.75,12.72,0,12a248.34,248.34,0,0,1,57,1.12l-3.59-8.81c-1.39,2.49-7.18,2.75-9.75,3.36q-7.15,1.69-14.33,3.23-13.89,3-27.88,5.35c-6.71,1.15-5.08,12,1.6,11.79,32-.82,64.32-1.63,95.85,4.86L378.2,151a830.71,830.71,0,0,1-134.52,2.69v12c32.44-3.49,65.07-2.35,97.61-1.12v-12c-22.83,3-45.8,5.91-68.84,3.55v12a294,294,0,0,1,59-1v-12q-32.91,4-66.06,5.37-16.07.66-32.16.68c-9.94,0-22.88,1.79-32.06-2.72l-3,11.18A748.39,748.39,0,0,1,284,170.87v-12c-19.73.74-39.68,1.35-58.57-5.3l4.19,7.38c.77-2.94,12-3.51,14.39-3.83a123.6,123.6,0,0,1,19.77-.84v-12l-29.45.12-13.74.06c-4.33,0-8.52.37-12.14-2.35l-1.43,11a940.81,940.81,0,0,1,99.13-12.41c7.66-.55,7.78-11.63,0-12-38.17-1.81-76.16,2.66-114,7.22-7.56.91-7.68,12.89,0,12L306.63,134.6c7.46-.87,7.92-12.08,0-12l-33.24.35-15.64.16c-3.65,0-10,1.39-12.57-1.88L244,130.65a59.87,59.87,0,0,1,31.29-6.31v-12l-44.18-.4v12l67.37-7c7.54-.79,7.88-11.77,0-12l-33.72-1c-10.38-.31-21.79.68-31.73-2.7v11.57l46.19-13.66c6.66-2,5.08-11.36-1.6-11.79l-76-4.83v12l93.1-2.44c6.51-.17,8.47-10.39,1.6-11.79a182,182,0,0,0-73.07.05c-7.56,1.55-4.36,13.12,3.19,11.57Z"/></g></svg>